G04 #@! TF.FileFunction,Legend,Bot*
%FSLAX46Y46*%
G04 Gerber Fmt 4.6, Leading zero omitted, Abs format (unit mm)*
G04 Created by KiCad (PCBNEW 4.0.7-e2-6376~61~ubuntu18.04.1) date Sat Oct  6 16:23:27 2018*
%MOMM*%
%LPD*%
G01*
G04 APERTURE LIST*
%ADD10C,0.100000*%
%ADD11C,0.200000*%
%ADD12C,0.300000*%
%ADD13C,0.250000*%
%ADD14C,0.120000*%
%ADD15C,0.150000*%
G04 APERTURE END LIST*
D10*
D11*
X154813000Y-99060000D02*
X156210000Y-99060000D01*
X153670000Y-100203000D02*
X154813000Y-99060000D01*
X156210000Y-99060000D02*
X155702000Y-99187000D01*
X156210000Y-99060000D02*
X155702000Y-98933000D01*
X143637000Y-110490000D02*
X146050000Y-110490000D01*
X143129000Y-110998000D02*
X143637000Y-110490000D01*
X143129000Y-110998000D02*
X143510000Y-110871000D01*
X143129000Y-110998000D02*
X143256000Y-110617000D01*
D12*
X168135238Y-88992857D02*
X167144762Y-88992857D01*
X167640000Y-89488095D02*
X167640000Y-88497619D01*
X168135238Y-95977857D02*
X167144762Y-95977857D01*
D13*
X165688095Y-90388572D02*
X164388095Y-90388572D01*
X165316667Y-90821905D01*
X164388095Y-91255238D01*
X165688095Y-91255238D01*
X165626190Y-92369524D02*
X165688095Y-92245714D01*
X165688095Y-91998095D01*
X165626190Y-91874286D01*
X165502381Y-91812381D01*
X165007143Y-91812381D01*
X164883333Y-91874286D01*
X164821429Y-91998095D01*
X164821429Y-92245714D01*
X164883333Y-92369524D01*
X165007143Y-92431429D01*
X165130952Y-92431429D01*
X165254762Y-91812381D01*
X164821429Y-92802858D02*
X164821429Y-93298096D01*
X164388095Y-92988572D02*
X165502381Y-92988572D01*
X165626190Y-93050477D01*
X165688095Y-93174286D01*
X165688095Y-93298096D01*
X165626190Y-94226667D02*
X165688095Y-94102857D01*
X165688095Y-93855238D01*
X165626190Y-93731429D01*
X165502381Y-93669524D01*
X165007143Y-93669524D01*
X164883333Y-93731429D01*
X164821429Y-93855238D01*
X164821429Y-94102857D01*
X164883333Y-94226667D01*
X165007143Y-94288572D01*
X165130952Y-94288572D01*
X165254762Y-93669524D01*
X165688095Y-94845715D02*
X164821429Y-94845715D01*
X165069048Y-94845715D02*
X164945238Y-94907620D01*
X164883333Y-94969524D01*
X164821429Y-95093334D01*
X164821429Y-95217143D01*
D10*
X153400000Y-76400000D02*
G75*
G03X143800000Y-86000000I0J-9600000D01*
G01*
X163000000Y-86000000D02*
G75*
G03X153400000Y-76400000I-9600000J0D01*
G01*
X143800000Y-96400000D02*
X143800000Y-86000000D01*
X163000000Y-96400000D02*
X163000000Y-86000000D01*
X143800000Y-96400000D02*
X163000000Y-96400000D01*
X119038933Y-97119337D02*
G75*
G02X123000000Y-48000000I357321529J-4095632D01*
G01*
X183777337Y-48000000D02*
X123000000Y-48000000D01*
X183777337Y-48000000D02*
G75*
G02X187738404Y-97119337I-353360462J-53214969D01*
G01*
X181762789Y-97119337D02*
X187738404Y-97119337D01*
X181762789Y-103444787D02*
G75*
G02X181762789Y-97119337I0J3162725D01*
G01*
X187754918Y-103444786D02*
X181762789Y-103444786D01*
X187754919Y-103444787D02*
G75*
G02X186888669Y-126181137I-357338044J2229818D01*
G01*
X119888669Y-126181137D02*
X186888669Y-126181137D01*
X119888669Y-126181136D02*
G75*
G02X119022419Y-103444786I356471793J24966167D01*
G01*
X125014548Y-103444786D02*
X119022419Y-103444786D01*
X125014548Y-97119338D02*
G75*
G02X125014548Y-103444786I0J-3162724D01*
G01*
X119038933Y-97119337D02*
X125014548Y-97119337D01*
D14*
X175478018Y-87447568D02*
G75*
G03X175477000Y-92972000I1171982J-2762432D01*
G01*
X178578295Y-92507753D02*
G75*
G03X178578000Y-87912000I-1928295J2297753D01*
G01*
X183210000Y-85249000D02*
X179344000Y-85249000D01*
X174955000Y-85249000D02*
X171090000Y-85249000D01*
X183210000Y-95170000D02*
X179344000Y-95170000D01*
X174955000Y-95170000D02*
X171090000Y-95170000D01*
X183210000Y-85249000D02*
X183210000Y-86885000D01*
X183210000Y-88535000D02*
X183210000Y-89385000D01*
X183210000Y-91035000D02*
X183210000Y-91885000D01*
X183210000Y-93535000D02*
X183210000Y-95170000D01*
X171090000Y-85249000D02*
X171090000Y-95170000D01*
D15*
X128211013Y-78722723D02*
X128749828Y-78543118D01*
X128031408Y-78543118D02*
X128570223Y-78363513D01*
X127851803Y-78363513D02*
X128390618Y-78183908D01*
X127672197Y-78183908D02*
X128211013Y-78004303D01*
X129019236Y-79530946D02*
X129109038Y-79441144D01*
X129109038Y-79441144D02*
X129109038Y-79261538D01*
X129109038Y-79261538D02*
X129288644Y-79261538D01*
X129288644Y-79261538D02*
X129378446Y-79171736D01*
X129019236Y-79530946D02*
G75*
G02X128480420Y-79530946I-269408J269408D01*
G01*
X129378446Y-78632920D02*
G75*
G02X129378446Y-79171736I-269408J-269408D01*
G01*
X128300815Y-79351341D02*
X128480420Y-79530946D01*
X129198841Y-78453315D02*
X129378446Y-78632920D01*
X128390618Y-79441144D02*
X129288644Y-78543118D01*
X128300815Y-79351341D02*
X129198841Y-78453315D01*
X127941605Y-77734895D02*
X128929433Y-78722723D01*
X127582395Y-78094105D02*
X128570223Y-79081933D01*
X127312987Y-77465487D02*
X127582395Y-78094105D01*
X127312987Y-77465487D02*
X127941605Y-77734895D01*
D14*
X125280000Y-91440462D02*
G75*
G02X130830000Y-89895170I2990000J462D01*
G01*
X125280000Y-91439538D02*
G75*
G03X130830000Y-92984830I2990000J-462D01*
G01*
X130770000Y-91440000D02*
G75*
G03X130770000Y-91440000I-2500000J0D01*
G01*
X130830000Y-89895000D02*
X130830000Y-92985000D01*
X125280000Y-83820462D02*
G75*
G02X130830000Y-82275170I2990000J462D01*
G01*
X125280000Y-83819538D02*
G75*
G03X130830000Y-85364830I2990000J-462D01*
G01*
X130770000Y-83820000D02*
G75*
G03X130770000Y-83820000I-2500000J0D01*
G01*
X130830000Y-82275000D02*
X130830000Y-85365000D01*
D11*
X157857261Y-50155974D02*
X156600026Y-48898739D01*
X157767459Y-50245777D02*
X156510223Y-48988541D01*
X157677656Y-50335580D02*
X156420420Y-49078344D01*
X157587854Y-48808936D02*
X157498051Y-48719133D01*
X158036867Y-49257949D02*
X157947064Y-49168146D01*
X157947064Y-49168146D02*
X157587854Y-49168146D01*
X157587854Y-49168146D02*
X157587854Y-48808936D01*
D15*
X155432592Y-50784592D02*
X156779631Y-49437554D01*
X155971408Y-51323408D02*
X157318446Y-49976369D01*
X156869433Y-50425382D02*
X156600026Y-49617159D01*
X156600026Y-50694790D02*
X156330618Y-49886567D01*
X156330618Y-50964197D02*
X156061210Y-50155974D01*
X156061210Y-51233605D02*
X155791803Y-50425382D01*
X155073382Y-51682618D02*
X155432592Y-50784592D01*
X155073382Y-51682618D02*
X155971408Y-51323408D01*
D11*
X158036866Y-49257948D02*
G75*
G02X158036867Y-49976369I-359210J-359211D01*
G01*
X156779630Y-48719134D02*
G75*
G02X157498051Y-48719133I359211J-359210D01*
G01*
X157677656Y-50335580D02*
X158036867Y-49976369D01*
X156420420Y-49078344D02*
X156779631Y-48719133D01*
X149977974Y-65916739D02*
X148720739Y-67173974D01*
X150067777Y-66006541D02*
X148810541Y-67263777D01*
X150157580Y-66096344D02*
X148900344Y-67353580D01*
X148630936Y-66186146D02*
X148541133Y-66275949D01*
X149079949Y-65737133D02*
X148990146Y-65826936D01*
X148990146Y-65826936D02*
X148990146Y-66186146D01*
X148990146Y-66186146D02*
X148630936Y-66186146D01*
D15*
X150606592Y-68341408D02*
X149259554Y-66994369D01*
X151145408Y-67802592D02*
X149798369Y-66455554D01*
X150247382Y-66904567D02*
X149439159Y-67173974D01*
X150516790Y-67173974D02*
X149708567Y-67443382D01*
X150786197Y-67443382D02*
X149977974Y-67712790D01*
X151055605Y-67712790D02*
X150247382Y-67982197D01*
X151504618Y-68700618D02*
X150606592Y-68341408D01*
X151504618Y-68700618D02*
X151145408Y-67802592D01*
D11*
X149079948Y-65737134D02*
G75*
G02X149798369Y-65737133I359211J-359210D01*
G01*
X148541134Y-66994370D02*
G75*
G02X148541133Y-66275949I359210J359211D01*
G01*
X150157580Y-66096344D02*
X149798369Y-65737133D01*
X148900344Y-67353580D02*
X148541133Y-66994369D01*
X176914739Y-78876026D02*
X178171974Y-80133261D01*
X177004541Y-78786223D02*
X178261777Y-80043459D01*
X177094344Y-78696420D02*
X178351580Y-79953656D01*
X177184146Y-80223064D02*
X177273949Y-80312867D01*
X176735133Y-79774051D02*
X176824936Y-79863854D01*
X176824936Y-79863854D02*
X177184146Y-79863854D01*
X177184146Y-79863854D02*
X177184146Y-80223064D01*
D15*
X179339408Y-78247408D02*
X177992369Y-79594446D01*
X178800592Y-77708592D02*
X177453554Y-79055631D01*
X177902567Y-78606618D02*
X178171974Y-79414841D01*
X178171974Y-78337210D02*
X178441382Y-79145433D01*
X178441382Y-78067803D02*
X178710790Y-78876026D01*
X178710790Y-77798395D02*
X178980197Y-78606618D01*
X179698618Y-77349382D02*
X179339408Y-78247408D01*
X179698618Y-77349382D02*
X178800592Y-77708592D01*
D11*
X176735134Y-79774052D02*
G75*
G02X176735133Y-79055631I359210J359211D01*
G01*
X177992370Y-80312866D02*
G75*
G02X177273949Y-80312867I-359211J359210D01*
G01*
X177094344Y-78696420D02*
X176735133Y-79055631D01*
X178351580Y-79953656D02*
X177992369Y-80312867D01*
X186432261Y-110861974D02*
X185175026Y-109604739D01*
X186342459Y-110951777D02*
X185085223Y-109694541D01*
X186252656Y-111041580D02*
X184995420Y-109784344D01*
X186162854Y-109514936D02*
X186073051Y-109425133D01*
X186611867Y-109963949D02*
X186522064Y-109874146D01*
X186522064Y-109874146D02*
X186162854Y-109874146D01*
X186162854Y-109874146D02*
X186162854Y-109514936D01*
D15*
X184007592Y-111490592D02*
X185354631Y-110143554D01*
X184546408Y-112029408D02*
X185893446Y-110682369D01*
X185444433Y-111131382D02*
X185175026Y-110323159D01*
X185175026Y-111400790D02*
X184905618Y-110592567D01*
X184905618Y-111670197D02*
X184636210Y-110861974D01*
X184636210Y-111939605D02*
X184366803Y-111131382D01*
X183648382Y-112388618D02*
X184007592Y-111490592D01*
X183648382Y-112388618D02*
X184546408Y-112029408D01*
D11*
X186611866Y-109963948D02*
G75*
G02X186611867Y-110682369I-359210J-359211D01*
G01*
X185354630Y-109425134D02*
G75*
G02X186073051Y-109425133I359211J-359210D01*
G01*
X186252656Y-111041580D02*
X186611867Y-110682369D01*
X184995420Y-109784344D02*
X185354631Y-109425133D01*
X121529974Y-109731739D02*
X120272739Y-110988974D01*
X121619777Y-109821541D02*
X120362541Y-111078777D01*
X121709580Y-109911344D02*
X120452344Y-111168580D01*
X120182936Y-110001146D02*
X120093133Y-110090949D01*
X120631949Y-109552133D02*
X120542146Y-109641936D01*
X120542146Y-109641936D02*
X120542146Y-110001146D01*
X120542146Y-110001146D02*
X120182936Y-110001146D01*
D15*
X122158592Y-112156408D02*
X120811554Y-110809369D01*
X122697408Y-111617592D02*
X121350369Y-110270554D01*
X121799382Y-110719567D02*
X120991159Y-110988974D01*
X122068790Y-110988974D02*
X121260567Y-111258382D01*
X122338197Y-111258382D02*
X121529974Y-111527790D01*
X122607605Y-111527790D02*
X121799382Y-111797197D01*
X123056618Y-112515618D02*
X122158592Y-112156408D01*
X123056618Y-112515618D02*
X122697408Y-111617592D01*
D11*
X120631948Y-109552134D02*
G75*
G02X121350369Y-109552133I359211J-359210D01*
G01*
X120093134Y-110809370D02*
G75*
G02X120093133Y-110090949I359210J359211D01*
G01*
X121709580Y-109911344D02*
X121350369Y-109552133D01*
X120452344Y-111168580D02*
X120093133Y-110809369D01*
D15*
X182252857Y-84907381D02*
X182586191Y-84431190D01*
X182824286Y-84907381D02*
X182824286Y-83907381D01*
X182443333Y-83907381D01*
X182348095Y-83955000D01*
X182300476Y-84002619D01*
X182252857Y-84097857D01*
X182252857Y-84240714D01*
X182300476Y-84335952D01*
X182348095Y-84383571D01*
X182443333Y-84431190D01*
X182824286Y-84431190D01*
X181871905Y-84002619D02*
X181824286Y-83955000D01*
X181729048Y-83907381D01*
X181490952Y-83907381D01*
X181395714Y-83955000D01*
X181348095Y-84002619D01*
X181300476Y-84097857D01*
X181300476Y-84193095D01*
X181348095Y-84335952D01*
X181919524Y-84907381D01*
X181300476Y-84907381D01*
X180919524Y-84002619D02*
X180871905Y-83955000D01*
X180776667Y-83907381D01*
X180538571Y-83907381D01*
X180443333Y-83955000D01*
X180395714Y-84002619D01*
X180348095Y-84097857D01*
X180348095Y-84193095D01*
X180395714Y-84335952D01*
X180967143Y-84907381D01*
X180348095Y-84907381D01*
X132564095Y-91892381D02*
X132564095Y-90892381D01*
X132326000Y-90892381D01*
X132183142Y-90940000D01*
X132087904Y-91035238D01*
X132040285Y-91130476D01*
X131992666Y-91320952D01*
X131992666Y-91463810D01*
X132040285Y-91654286D01*
X132087904Y-91749524D01*
X132183142Y-91844762D01*
X132326000Y-91892381D01*
X132564095Y-91892381D01*
X131659333Y-90892381D02*
X131040285Y-90892381D01*
X131373619Y-91273333D01*
X131230761Y-91273333D01*
X131135523Y-91320952D01*
X131087904Y-91368571D01*
X131040285Y-91463810D01*
X131040285Y-91701905D01*
X131087904Y-91797143D01*
X131135523Y-91844762D01*
X131230761Y-91892381D01*
X131516476Y-91892381D01*
X131611714Y-91844762D01*
X131659333Y-91797143D01*
X132818095Y-82494381D02*
X132818095Y-81494381D01*
X132580000Y-81494381D01*
X132437142Y-81542000D01*
X132341904Y-81637238D01*
X132294285Y-81732476D01*
X132246666Y-81922952D01*
X132246666Y-82065810D01*
X132294285Y-82256286D01*
X132341904Y-82351524D01*
X132437142Y-82446762D01*
X132580000Y-82494381D01*
X132818095Y-82494381D01*
X131389523Y-81494381D02*
X131580000Y-81494381D01*
X131675238Y-81542000D01*
X131722857Y-81589619D01*
X131818095Y-81732476D01*
X131865714Y-81922952D01*
X131865714Y-82303905D01*
X131818095Y-82399143D01*
X131770476Y-82446762D01*
X131675238Y-82494381D01*
X131484761Y-82494381D01*
X131389523Y-82446762D01*
X131341904Y-82399143D01*
X131294285Y-82303905D01*
X131294285Y-82065810D01*
X131341904Y-81970571D01*
X131389523Y-81922952D01*
X131484761Y-81875333D01*
X131675238Y-81875333D01*
X131770476Y-81922952D01*
X131818095Y-81970571D01*
X131865714Y-82065810D01*
X143501905Y-109307381D02*
X142930476Y-109307381D01*
X143216191Y-110307381D02*
X143216191Y-109307381D01*
X142597143Y-110307381D02*
X142597143Y-109307381D01*
X142216190Y-109307381D01*
X142120952Y-109355000D01*
X142073333Y-109402619D01*
X142025714Y-109497857D01*
X142025714Y-109640714D01*
X142073333Y-109735952D01*
X142120952Y-109783571D01*
X142216190Y-109831190D01*
X142597143Y-109831190D01*
X141073333Y-110307381D02*
X141644762Y-110307381D01*
X141359048Y-110307381D02*
X141359048Y-109307381D01*
X141454286Y-109450238D01*
X141549524Y-109545476D01*
X141644762Y-109593095D01*
X152090096Y-110577381D02*
X151899619Y-110577381D01*
X151804381Y-110625000D01*
X151709143Y-110720238D01*
X151661524Y-110910714D01*
X151661524Y-111244048D01*
X151709143Y-111434524D01*
X151804381Y-111529762D01*
X151899619Y-111577381D01*
X152090096Y-111577381D01*
X152185334Y-111529762D01*
X152280572Y-111434524D01*
X152328191Y-111244048D01*
X152328191Y-110910714D01*
X152280572Y-110720238D01*
X152185334Y-110625000D01*
X152090096Y-110577381D01*
X151280572Y-111529762D02*
X151185334Y-111577381D01*
X150994858Y-111577381D01*
X150899619Y-111529762D01*
X150852000Y-111434524D01*
X150852000Y-111386905D01*
X150899619Y-111291667D01*
X150994858Y-111244048D01*
X151137715Y-111244048D01*
X151232953Y-111196429D01*
X151280572Y-111101190D01*
X151280572Y-111053571D01*
X151232953Y-110958333D01*
X151137715Y-110910714D01*
X150994858Y-110910714D01*
X150899619Y-110958333D01*
X149994857Y-111529762D02*
X150090095Y-111577381D01*
X150280572Y-111577381D01*
X150375810Y-111529762D01*
X150423429Y-111482143D01*
X150471048Y-111386905D01*
X150471048Y-111101190D01*
X150423429Y-111005952D01*
X150375810Y-110958333D01*
X150280572Y-110910714D01*
X150090095Y-110910714D01*
X149994857Y-110958333D01*
X149566286Y-111482143D02*
X149518667Y-111529762D01*
X149566286Y-111577381D01*
X149613905Y-111529762D01*
X149566286Y-111482143D01*
X149566286Y-111577381D01*
X148185334Y-111577381D02*
X148280572Y-111529762D01*
X148328191Y-111482143D01*
X148375810Y-111386905D01*
X148375810Y-111101190D01*
X148328191Y-111005952D01*
X148280572Y-110958333D01*
X148185334Y-110910714D01*
X148042476Y-110910714D01*
X147947238Y-110958333D01*
X147899619Y-111005952D01*
X147852000Y-111101190D01*
X147852000Y-111386905D01*
X147899619Y-111482143D01*
X147947238Y-111529762D01*
X148042476Y-111577381D01*
X148185334Y-111577381D01*
X146994857Y-110910714D02*
X146994857Y-111577381D01*
X147423429Y-110910714D02*
X147423429Y-111434524D01*
X147375810Y-111529762D01*
X147280572Y-111577381D01*
X147137714Y-111577381D01*
X147042476Y-111529762D01*
X146994857Y-111482143D01*
X146661524Y-110910714D02*
X146280572Y-110910714D01*
X146518667Y-110577381D02*
X146518667Y-111434524D01*
X146471048Y-111529762D01*
X146375810Y-111577381D01*
X146280572Y-111577381D01*
X148581905Y-113752381D02*
X148010476Y-113752381D01*
X148296191Y-114752381D02*
X148296191Y-113752381D01*
X147677143Y-114752381D02*
X147677143Y-113752381D01*
X147296190Y-113752381D01*
X147200952Y-113800000D01*
X147153333Y-113847619D01*
X147105714Y-113942857D01*
X147105714Y-114085714D01*
X147153333Y-114180952D01*
X147200952Y-114228571D01*
X147296190Y-114276190D01*
X147677143Y-114276190D01*
X146724762Y-113847619D02*
X146677143Y-113800000D01*
X146581905Y-113752381D01*
X146343809Y-113752381D01*
X146248571Y-113800000D01*
X146200952Y-113847619D01*
X146153333Y-113942857D01*
X146153333Y-114038095D01*
X146200952Y-114180952D01*
X146772381Y-114752381D01*
X146153333Y-114752381D01*
X149002523Y-115752571D02*
X148859666Y-115800190D01*
X148812047Y-115847810D01*
X148764428Y-115943048D01*
X148764428Y-116085905D01*
X148812047Y-116181143D01*
X148859666Y-116228762D01*
X148954904Y-116276381D01*
X149335857Y-116276381D01*
X149335857Y-115276381D01*
X149002523Y-115276381D01*
X148907285Y-115324000D01*
X148859666Y-115371619D01*
X148812047Y-115466857D01*
X148812047Y-115562095D01*
X148859666Y-115657333D01*
X148907285Y-115704952D01*
X149002523Y-115752571D01*
X149335857Y-115752571D01*
X148335857Y-116276381D02*
X148335857Y-115609714D01*
X148335857Y-115800190D02*
X148288238Y-115704952D01*
X148240619Y-115657333D01*
X148145381Y-115609714D01*
X148050142Y-115609714D01*
X147716809Y-116276381D02*
X147716809Y-115609714D01*
X147716809Y-115276381D02*
X147764428Y-115324000D01*
X147716809Y-115371619D01*
X147669190Y-115324000D01*
X147716809Y-115276381D01*
X147716809Y-115371619D01*
X146812047Y-116276381D02*
X146812047Y-115276381D01*
X146812047Y-116228762D02*
X146907285Y-116276381D01*
X147097762Y-116276381D01*
X147193000Y-116228762D01*
X147240619Y-116181143D01*
X147288238Y-116085905D01*
X147288238Y-115800190D01*
X147240619Y-115704952D01*
X147193000Y-115657333D01*
X147097762Y-115609714D01*
X146907285Y-115609714D01*
X146812047Y-115657333D01*
X145907285Y-115609714D02*
X145907285Y-116419238D01*
X145954904Y-116514476D01*
X146002523Y-116562095D01*
X146097762Y-116609714D01*
X146240619Y-116609714D01*
X146335857Y-116562095D01*
X145907285Y-116228762D02*
X146002523Y-116276381D01*
X146193000Y-116276381D01*
X146288238Y-116228762D01*
X146335857Y-116181143D01*
X146383476Y-116085905D01*
X146383476Y-115800190D01*
X146335857Y-115704952D01*
X146288238Y-115657333D01*
X146193000Y-115609714D01*
X146002523Y-115609714D01*
X145907285Y-115657333D01*
X145050142Y-116228762D02*
X145145380Y-116276381D01*
X145335857Y-116276381D01*
X145431095Y-116228762D01*
X145478714Y-116133524D01*
X145478714Y-115752571D01*
X145431095Y-115657333D01*
X145335857Y-115609714D01*
X145145380Y-115609714D01*
X145050142Y-115657333D01*
X145002523Y-115752571D01*
X145002523Y-115847810D01*
X145478714Y-115943048D01*
X158741905Y-96861381D02*
X158170476Y-96861381D01*
X158456191Y-97861381D02*
X158456191Y-96861381D01*
X157837143Y-97861381D02*
X157837143Y-96861381D01*
X157456190Y-96861381D01*
X157360952Y-96909000D01*
X157313333Y-96956619D01*
X157265714Y-97051857D01*
X157265714Y-97194714D01*
X157313333Y-97289952D01*
X157360952Y-97337571D01*
X157456190Y-97385190D01*
X157837143Y-97385190D01*
X156932381Y-96861381D02*
X156313333Y-96861381D01*
X156646667Y-97242333D01*
X156503809Y-97242333D01*
X156408571Y-97289952D01*
X156360952Y-97337571D01*
X156313333Y-97432810D01*
X156313333Y-97670905D01*
X156360952Y-97766143D01*
X156408571Y-97813762D01*
X156503809Y-97861381D01*
X156789524Y-97861381D01*
X156884762Y-97813762D01*
X156932381Y-97766143D01*
X153074667Y-100624095D02*
X153074667Y-101100286D01*
X153360381Y-100528857D02*
X152360381Y-100862190D01*
X153360381Y-101195524D01*
X153360381Y-101528857D02*
X152693714Y-101528857D01*
X152788952Y-101528857D02*
X152741333Y-101576476D01*
X152693714Y-101671714D01*
X152693714Y-101814572D01*
X152741333Y-101909810D01*
X152836571Y-101957429D01*
X153360381Y-101957429D01*
X152836571Y-101957429D02*
X152741333Y-102005048D01*
X152693714Y-102100286D01*
X152693714Y-102243143D01*
X152741333Y-102338381D01*
X152836571Y-102386000D01*
X153360381Y-102386000D01*
X152693714Y-102862190D02*
X153693714Y-102862190D01*
X152741333Y-102862190D02*
X152693714Y-102957428D01*
X152693714Y-103147905D01*
X152741333Y-103243143D01*
X152788952Y-103290762D01*
X152884190Y-103338381D01*
X153169905Y-103338381D01*
X153265143Y-103290762D01*
X153312762Y-103243143D01*
X153360381Y-103147905D01*
X153360381Y-102957428D01*
X153312762Y-102862190D01*
X153265143Y-103766952D02*
X153312762Y-103814571D01*
X153360381Y-103766952D01*
X153312762Y-103719333D01*
X153265143Y-103766952D01*
X153360381Y-103766952D01*
X153741333Y-105290762D02*
X153693714Y-105243142D01*
X153550857Y-105147904D01*
X153455619Y-105100285D01*
X153312762Y-105052666D01*
X153074667Y-105005047D01*
X152884190Y-105005047D01*
X152646095Y-105052666D01*
X152503238Y-105100285D01*
X152408000Y-105147904D01*
X152265143Y-105243142D01*
X152217524Y-105290762D01*
X152979429Y-105671714D02*
X152979429Y-106433619D01*
X153360381Y-106052667D02*
X152598476Y-106052667D01*
X153741333Y-106814571D02*
X153693714Y-106862190D01*
X153550857Y-106957428D01*
X153455619Y-107005047D01*
X153312762Y-107052666D01*
X153074667Y-107100285D01*
X152884190Y-107100285D01*
X152646095Y-107052666D01*
X152503238Y-107005047D01*
X152408000Y-106957428D01*
X152265143Y-106862190D01*
X152217524Y-106814571D01*
X158741905Y-105497381D02*
X158170476Y-105497381D01*
X158456191Y-106497381D02*
X158456191Y-105497381D01*
X157837143Y-106497381D02*
X157837143Y-105497381D01*
X157456190Y-105497381D01*
X157360952Y-105545000D01*
X157313333Y-105592619D01*
X157265714Y-105687857D01*
X157265714Y-105830714D01*
X157313333Y-105925952D01*
X157360952Y-105973571D01*
X157456190Y-106021190D01*
X157837143Y-106021190D01*
X156408571Y-105830714D02*
X156408571Y-106497381D01*
X156646667Y-105449762D02*
X156884762Y-106164048D01*
X156265714Y-106164048D01*
X160503810Y-107608667D02*
X160027619Y-107608667D01*
X160599048Y-107894381D02*
X160265715Y-106894381D01*
X159932381Y-107894381D01*
X159599048Y-107894381D02*
X159599048Y-107227714D01*
X159599048Y-107322952D02*
X159551429Y-107275333D01*
X159456191Y-107227714D01*
X159313333Y-107227714D01*
X159218095Y-107275333D01*
X159170476Y-107370571D01*
X159170476Y-107894381D01*
X159170476Y-107370571D02*
X159122857Y-107275333D01*
X159027619Y-107227714D01*
X158884762Y-107227714D01*
X158789524Y-107275333D01*
X158741905Y-107370571D01*
X158741905Y-107894381D01*
X158265715Y-107227714D02*
X158265715Y-108227714D01*
X158265715Y-107275333D02*
X158170477Y-107227714D01*
X157980000Y-107227714D01*
X157884762Y-107275333D01*
X157837143Y-107322952D01*
X157789524Y-107418190D01*
X157789524Y-107703905D01*
X157837143Y-107799143D01*
X157884762Y-107846762D01*
X157980000Y-107894381D01*
X158170477Y-107894381D01*
X158265715Y-107846762D01*
X156313333Y-108275333D02*
X156360953Y-108227714D01*
X156456191Y-108084857D01*
X156503810Y-107989619D01*
X156551429Y-107846762D01*
X156599048Y-107608667D01*
X156599048Y-107418190D01*
X156551429Y-107180095D01*
X156503810Y-107037238D01*
X156456191Y-106942000D01*
X156360953Y-106799143D01*
X156313333Y-106751524D01*
X155932381Y-107513429D02*
X155170476Y-107513429D01*
X154789524Y-108275333D02*
X154741905Y-108227714D01*
X154646667Y-108084857D01*
X154599048Y-107989619D01*
X154551429Y-107846762D01*
X154503810Y-107608667D01*
X154503810Y-107418190D01*
X154551429Y-107180095D01*
X154599048Y-107037238D01*
X154646667Y-106942000D01*
X154741905Y-106799143D01*
X154789524Y-106751524D01*
X176521905Y-101052381D02*
X175950476Y-101052381D01*
X176236191Y-102052381D02*
X176236191Y-101052381D01*
X175617143Y-102052381D02*
X175617143Y-101052381D01*
X175236190Y-101052381D01*
X175140952Y-101100000D01*
X175093333Y-101147619D01*
X175045714Y-101242857D01*
X175045714Y-101385714D01*
X175093333Y-101480952D01*
X175140952Y-101528571D01*
X175236190Y-101576190D01*
X175617143Y-101576190D01*
X174140952Y-101052381D02*
X174617143Y-101052381D01*
X174664762Y-101528571D01*
X174617143Y-101480952D01*
X174521905Y-101433333D01*
X174283809Y-101433333D01*
X174188571Y-101480952D01*
X174140952Y-101528571D01*
X174093333Y-101623810D01*
X174093333Y-101861905D01*
X174140952Y-101957143D01*
X174188571Y-102004762D01*
X174283809Y-102052381D01*
X174521905Y-102052381D01*
X174617143Y-102004762D01*
X174664762Y-101957143D01*
X177791667Y-99861667D02*
X177315476Y-99861667D01*
X177886905Y-100147381D02*
X177553572Y-99147381D01*
X177220238Y-100147381D01*
X176886905Y-100147381D02*
X176886905Y-99480714D01*
X176886905Y-99575952D02*
X176839286Y-99528333D01*
X176744048Y-99480714D01*
X176601190Y-99480714D01*
X176505952Y-99528333D01*
X176458333Y-99623571D01*
X176458333Y-100147381D01*
X176458333Y-99623571D02*
X176410714Y-99528333D01*
X176315476Y-99480714D01*
X176172619Y-99480714D01*
X176077381Y-99528333D01*
X176029762Y-99623571D01*
X176029762Y-100147381D01*
X175553572Y-99480714D02*
X175553572Y-100480714D01*
X175553572Y-99528333D02*
X175458334Y-99480714D01*
X175267857Y-99480714D01*
X175172619Y-99528333D01*
X175125000Y-99575952D01*
X175077381Y-99671190D01*
X175077381Y-99956905D01*
X175125000Y-100052143D01*
X175172619Y-100099762D01*
X175267857Y-100147381D01*
X175458334Y-100147381D01*
X175553572Y-100099762D01*
X174648810Y-100052143D02*
X174601191Y-100099762D01*
X174648810Y-100147381D01*
X174696429Y-100099762D01*
X174648810Y-100052143D01*
X174648810Y-100147381D01*
X173267858Y-100147381D02*
X173363096Y-100099762D01*
X173410715Y-100052143D01*
X173458334Y-99956905D01*
X173458334Y-99671190D01*
X173410715Y-99575952D01*
X173363096Y-99528333D01*
X173267858Y-99480714D01*
X173125000Y-99480714D01*
X173029762Y-99528333D01*
X172982143Y-99575952D01*
X172934524Y-99671190D01*
X172934524Y-99956905D01*
X172982143Y-100052143D01*
X173029762Y-100099762D01*
X173125000Y-100147381D01*
X173267858Y-100147381D01*
X172077381Y-99480714D02*
X172077381Y-100147381D01*
X172505953Y-99480714D02*
X172505953Y-100004524D01*
X172458334Y-100099762D01*
X172363096Y-100147381D01*
X172220238Y-100147381D01*
X172125000Y-100099762D01*
X172077381Y-100052143D01*
X171744048Y-99480714D02*
X171363096Y-99480714D01*
X171601191Y-99147381D02*
X171601191Y-100004524D01*
X171553572Y-100099762D01*
X171458334Y-100147381D01*
X171363096Y-100147381D01*
X130801905Y-72477381D02*
X130230476Y-72477381D01*
X130516191Y-73477381D02*
X130516191Y-72477381D01*
X129897143Y-73477381D02*
X129897143Y-72477381D01*
X129516190Y-72477381D01*
X129420952Y-72525000D01*
X129373333Y-72572619D01*
X129325714Y-72667857D01*
X129325714Y-72810714D01*
X129373333Y-72905952D01*
X129420952Y-72953571D01*
X129516190Y-73001190D01*
X129897143Y-73001190D01*
X128468571Y-72477381D02*
X128659048Y-72477381D01*
X128754286Y-72525000D01*
X128801905Y-72572619D01*
X128897143Y-72715476D01*
X128944762Y-72905952D01*
X128944762Y-73286905D01*
X128897143Y-73382143D01*
X128849524Y-73429762D01*
X128754286Y-73477381D01*
X128563809Y-73477381D01*
X128468571Y-73429762D01*
X128420952Y-73382143D01*
X128373333Y-73286905D01*
X128373333Y-73048810D01*
X128420952Y-72953571D01*
X128468571Y-72905952D01*
X128563809Y-72858333D01*
X128754286Y-72858333D01*
X128849524Y-72905952D01*
X128897143Y-72953571D01*
X128944762Y-73048810D01*
X130301904Y-73795000D02*
X130397142Y-73747381D01*
X130539999Y-73747381D01*
X130682857Y-73795000D01*
X130778095Y-73890238D01*
X130825714Y-73985476D01*
X130873333Y-74175952D01*
X130873333Y-74318810D01*
X130825714Y-74509286D01*
X130778095Y-74604524D01*
X130682857Y-74699762D01*
X130539999Y-74747381D01*
X130444761Y-74747381D01*
X130301904Y-74699762D01*
X130254285Y-74652143D01*
X130254285Y-74318810D01*
X130444761Y-74318810D01*
X129825714Y-74747381D02*
X129825714Y-73747381D01*
X129254285Y-74747381D01*
X129254285Y-73747381D01*
X128778095Y-74747381D02*
X128778095Y-73747381D01*
X128540000Y-73747381D01*
X128397142Y-73795000D01*
X128301904Y-73890238D01*
X128254285Y-73985476D01*
X128206666Y-74175952D01*
X128206666Y-74318810D01*
X128254285Y-74509286D01*
X128301904Y-74604524D01*
X128397142Y-74699762D01*
X128540000Y-74747381D01*
X128778095Y-74747381D01*
X137151905Y-75017381D02*
X136580476Y-75017381D01*
X136866191Y-76017381D02*
X136866191Y-75017381D01*
X136247143Y-76017381D02*
X136247143Y-75017381D01*
X135866190Y-75017381D01*
X135770952Y-75065000D01*
X135723333Y-75112619D01*
X135675714Y-75207857D01*
X135675714Y-75350714D01*
X135723333Y-75445952D01*
X135770952Y-75493571D01*
X135866190Y-75541190D01*
X136247143Y-75541190D01*
X135342381Y-75017381D02*
X134675714Y-75017381D01*
X135104286Y-76017381D01*
X137890000Y-76906429D02*
X137128095Y-76906429D01*
X137509047Y-77287381D02*
X137509047Y-76525476D01*
X136223333Y-76620714D02*
X136223333Y-77287381D01*
X136461429Y-76239762D02*
X136699524Y-76954048D01*
X136080476Y-76954048D01*
X135699524Y-77192143D02*
X135651905Y-77239762D01*
X135699524Y-77287381D01*
X135747143Y-77239762D01*
X135699524Y-77192143D01*
X135699524Y-77287381D01*
X134747143Y-76287381D02*
X135223334Y-76287381D01*
X135270953Y-76763571D01*
X135223334Y-76715952D01*
X135128096Y-76668333D01*
X134890000Y-76668333D01*
X134794762Y-76715952D01*
X134747143Y-76763571D01*
X134699524Y-76858810D01*
X134699524Y-77096905D01*
X134747143Y-77192143D01*
X134794762Y-77239762D01*
X134890000Y-77287381D01*
X135128096Y-77287381D01*
X135223334Y-77239762D01*
X135270953Y-77192143D01*
X134413810Y-76287381D02*
X134080477Y-77287381D01*
X133747143Y-76287381D01*
X144771905Y-75017381D02*
X144200476Y-75017381D01*
X144486191Y-76017381D02*
X144486191Y-75017381D01*
X143867143Y-76017381D02*
X143867143Y-75017381D01*
X143486190Y-75017381D01*
X143390952Y-75065000D01*
X143343333Y-75112619D01*
X143295714Y-75207857D01*
X143295714Y-75350714D01*
X143343333Y-75445952D01*
X143390952Y-75493571D01*
X143486190Y-75541190D01*
X143867143Y-75541190D01*
X142724286Y-75445952D02*
X142819524Y-75398333D01*
X142867143Y-75350714D01*
X142914762Y-75255476D01*
X142914762Y-75207857D01*
X142867143Y-75112619D01*
X142819524Y-75065000D01*
X142724286Y-75017381D01*
X142533809Y-75017381D01*
X142438571Y-75065000D01*
X142390952Y-75112619D01*
X142343333Y-75207857D01*
X142343333Y-75255476D01*
X142390952Y-75350714D01*
X142438571Y-75398333D01*
X142533809Y-75445952D01*
X142724286Y-75445952D01*
X142819524Y-75493571D01*
X142867143Y-75541190D01*
X142914762Y-75636429D01*
X142914762Y-75826905D01*
X142867143Y-75922143D01*
X142819524Y-75969762D01*
X142724286Y-76017381D01*
X142533809Y-76017381D01*
X142438571Y-75969762D01*
X142390952Y-75922143D01*
X142343333Y-75826905D01*
X142343333Y-75636429D01*
X142390952Y-75541190D01*
X142438571Y-75493571D01*
X142533809Y-75445952D01*
X145510000Y-76906429D02*
X144748095Y-76906429D01*
X143843333Y-76620714D02*
X143843333Y-77287381D01*
X144081429Y-76239762D02*
X144319524Y-76954048D01*
X143700476Y-76954048D01*
X143319524Y-77192143D02*
X143271905Y-77239762D01*
X143319524Y-77287381D01*
X143367143Y-77239762D01*
X143319524Y-77192143D01*
X143319524Y-77287381D01*
X142367143Y-76287381D02*
X142843334Y-76287381D01*
X142890953Y-76763571D01*
X142843334Y-76715952D01*
X142748096Y-76668333D01*
X142510000Y-76668333D01*
X142414762Y-76715952D01*
X142367143Y-76763571D01*
X142319524Y-76858810D01*
X142319524Y-77096905D01*
X142367143Y-77192143D01*
X142414762Y-77239762D01*
X142510000Y-77287381D01*
X142748096Y-77287381D01*
X142843334Y-77239762D01*
X142890953Y-77192143D01*
X142033810Y-76287381D02*
X141700477Y-77287381D01*
X141367143Y-76287381D01*
X160011905Y-57237381D02*
X159440476Y-57237381D01*
X159726191Y-58237381D02*
X159726191Y-57237381D01*
X159107143Y-58237381D02*
X159107143Y-57237381D01*
X158726190Y-57237381D01*
X158630952Y-57285000D01*
X158583333Y-57332619D01*
X158535714Y-57427857D01*
X158535714Y-57570714D01*
X158583333Y-57665952D01*
X158630952Y-57713571D01*
X158726190Y-57761190D01*
X159107143Y-57761190D01*
X158059524Y-58237381D02*
X157869048Y-58237381D01*
X157773809Y-58189762D01*
X157726190Y-58142143D01*
X157630952Y-57999286D01*
X157583333Y-57808810D01*
X157583333Y-57427857D01*
X157630952Y-57332619D01*
X157678571Y-57285000D01*
X157773809Y-57237381D01*
X157964286Y-57237381D01*
X158059524Y-57285000D01*
X158107143Y-57332619D01*
X158154762Y-57427857D01*
X158154762Y-57665952D01*
X158107143Y-57761190D01*
X158059524Y-57808810D01*
X157964286Y-57856429D01*
X157773809Y-57856429D01*
X157678571Y-57808810D01*
X157630952Y-57761190D01*
X157583333Y-57665952D01*
X161607143Y-59126429D02*
X160845238Y-59126429D01*
X161226190Y-59507381D02*
X161226190Y-58745476D01*
X160321429Y-59507381D02*
X160130953Y-59507381D01*
X160035714Y-59459762D01*
X159988095Y-59412143D01*
X159892857Y-59269286D01*
X159845238Y-59078810D01*
X159845238Y-58697857D01*
X159892857Y-58602619D01*
X159940476Y-58555000D01*
X160035714Y-58507381D01*
X160226191Y-58507381D01*
X160321429Y-58555000D01*
X160369048Y-58602619D01*
X160416667Y-58697857D01*
X160416667Y-58935952D01*
X160369048Y-59031190D01*
X160321429Y-59078810D01*
X160226191Y-59126429D01*
X160035714Y-59126429D01*
X159940476Y-59078810D01*
X159892857Y-59031190D01*
X159845238Y-58935952D01*
X159559524Y-58507381D02*
X159226191Y-59507381D01*
X158892857Y-58507381D01*
X157797619Y-59507381D02*
X157797619Y-58840714D01*
X157797619Y-59031190D02*
X157750000Y-58935952D01*
X157702381Y-58888333D01*
X157607143Y-58840714D01*
X157511904Y-58840714D01*
X156797618Y-59459762D02*
X156892856Y-59507381D01*
X157083333Y-59507381D01*
X157178571Y-59459762D01*
X157226190Y-59364524D01*
X157226190Y-58983571D01*
X157178571Y-58888333D01*
X157083333Y-58840714D01*
X156892856Y-58840714D01*
X156797618Y-58888333D01*
X156749999Y-58983571D01*
X156749999Y-59078810D01*
X157226190Y-59174048D01*
X155892856Y-58840714D02*
X155892856Y-59650238D01*
X155940475Y-59745476D01*
X155988094Y-59793095D01*
X156083333Y-59840714D01*
X156226190Y-59840714D01*
X156321428Y-59793095D01*
X155892856Y-59459762D02*
X155988094Y-59507381D01*
X156178571Y-59507381D01*
X156273809Y-59459762D01*
X156321428Y-59412143D01*
X156369047Y-59316905D01*
X156369047Y-59031190D01*
X156321428Y-58935952D01*
X156273809Y-58888333D01*
X156178571Y-58840714D01*
X155988094Y-58840714D01*
X155892856Y-58888333D01*
X179538095Y-108037381D02*
X178966666Y-108037381D01*
X179252381Y-109037381D02*
X179252381Y-108037381D01*
X178633333Y-109037381D02*
X178633333Y-108037381D01*
X178252380Y-108037381D01*
X178157142Y-108085000D01*
X178109523Y-108132619D01*
X178061904Y-108227857D01*
X178061904Y-108370714D01*
X178109523Y-108465952D01*
X178157142Y-108513571D01*
X178252380Y-108561190D01*
X178633333Y-108561190D01*
X177109523Y-109037381D02*
X177680952Y-109037381D01*
X177395238Y-109037381D02*
X177395238Y-108037381D01*
X177490476Y-108180238D01*
X177585714Y-108275476D01*
X177680952Y-108323095D01*
X176490476Y-108037381D02*
X176395237Y-108037381D01*
X176299999Y-108085000D01*
X176252380Y-108132619D01*
X176204761Y-108227857D01*
X176157142Y-108418333D01*
X176157142Y-108656429D01*
X176204761Y-108846905D01*
X176252380Y-108942143D01*
X176299999Y-108989762D01*
X176395237Y-109037381D01*
X176490476Y-109037381D01*
X176585714Y-108989762D01*
X176633333Y-108942143D01*
X176680952Y-108846905D01*
X176728571Y-108656429D01*
X176728571Y-108418333D01*
X176680952Y-108227857D01*
X176633333Y-108132619D01*
X176585714Y-108085000D01*
X176490476Y-108037381D01*
X179323810Y-109307381D02*
X178990477Y-110307381D01*
X178657143Y-109307381D01*
X178180953Y-110307381D02*
X178276191Y-110259762D01*
X178323810Y-110212143D01*
X178371429Y-110116905D01*
X178371429Y-109831190D01*
X178323810Y-109735952D01*
X178276191Y-109688333D01*
X178180953Y-109640714D01*
X178038095Y-109640714D01*
X177942857Y-109688333D01*
X177895238Y-109735952D01*
X177847619Y-109831190D01*
X177847619Y-110116905D01*
X177895238Y-110212143D01*
X177942857Y-110259762D01*
X178038095Y-110307381D01*
X178180953Y-110307381D01*
X176990476Y-109640714D02*
X176990476Y-110307381D01*
X177419048Y-109640714D02*
X177419048Y-110164524D01*
X177371429Y-110259762D01*
X177276191Y-110307381D01*
X177133333Y-110307381D01*
X177038095Y-110259762D01*
X176990476Y-110212143D01*
X176657143Y-109640714D02*
X176276191Y-109640714D01*
X176514286Y-109307381D02*
X176514286Y-110164524D01*
X176466667Y-110259762D01*
X176371429Y-110307381D01*
X176276191Y-110307381D01*
X160083333Y-70810381D02*
X160083333Y-69810381D01*
X159749999Y-70524667D01*
X159416666Y-69810381D01*
X159416666Y-70810381D01*
X158940476Y-70810381D02*
X158940476Y-69810381D01*
X158940476Y-70286571D02*
X158369047Y-70286571D01*
X158369047Y-70810381D02*
X158369047Y-69810381D01*
X157416666Y-69810381D02*
X157892857Y-69810381D01*
X157940476Y-70286571D01*
X157892857Y-70238952D01*
X157797619Y-70191333D01*
X157559523Y-70191333D01*
X157464285Y-70238952D01*
X157416666Y-70286571D01*
X157369047Y-70381810D01*
X157369047Y-70619905D01*
X157416666Y-70715143D01*
X157464285Y-70762762D01*
X157559523Y-70810381D01*
X157797619Y-70810381D01*
X157892857Y-70762762D01*
X157940476Y-70715143D01*
X154749333Y-57348381D02*
X154749333Y-56348381D01*
X154415999Y-57062667D01*
X154082666Y-56348381D01*
X154082666Y-57348381D01*
X153606476Y-57348381D02*
X153606476Y-56348381D01*
X153606476Y-56824571D02*
X153035047Y-56824571D01*
X153035047Y-57348381D02*
X153035047Y-56348381D01*
X152130285Y-56348381D02*
X152320762Y-56348381D01*
X152416000Y-56396000D01*
X152463619Y-56443619D01*
X152558857Y-56586476D01*
X152606476Y-56776952D01*
X152606476Y-57157905D01*
X152558857Y-57253143D01*
X152511238Y-57300762D01*
X152416000Y-57348381D01*
X152225523Y-57348381D01*
X152130285Y-57300762D01*
X152082666Y-57253143D01*
X152035047Y-57157905D01*
X152035047Y-56919810D01*
X152082666Y-56824571D01*
X152130285Y-56776952D01*
X152225523Y-56729333D01*
X152416000Y-56729333D01*
X152511238Y-56776952D01*
X152558857Y-56824571D01*
X152606476Y-56919810D01*
M02*
