G04 #@! TF.FileFunction,Legend,Top*
%FSLAX46Y46*%
G04 Gerber Fmt 4.6, Leading zero omitted, Abs format (unit mm)*
G04 Created by KiCad (PCBNEW 4.0.7-e2-6376~61~ubuntu18.04.1) date Sat Sep  1 13:46:59 2018*
%MOMM*%
%LPD*%
G01*
G04 APERTURE LIST*
%ADD10C,0.100000*%
%ADD11C,0.250000*%
%ADD12C,0.300000*%
%ADD13C,0.200000*%
%ADD14C,0.150000*%
%ADD15C,0.120000*%
G04 APERTURE END LIST*
D10*
D11*
X164545095Y-94904428D02*
X163245095Y-94904428D01*
X164173667Y-94471095D01*
X163245095Y-94037762D01*
X164545095Y-94037762D01*
X164483190Y-92923476D02*
X164545095Y-93047286D01*
X164545095Y-93294905D01*
X164483190Y-93418714D01*
X164359381Y-93480619D01*
X163864143Y-93480619D01*
X163740333Y-93418714D01*
X163678429Y-93294905D01*
X163678429Y-93047286D01*
X163740333Y-92923476D01*
X163864143Y-92861571D01*
X163987952Y-92861571D01*
X164111762Y-93480619D01*
X163678429Y-92490142D02*
X163678429Y-91994904D01*
X163245095Y-92304428D02*
X164359381Y-92304428D01*
X164483190Y-92242523D01*
X164545095Y-92118714D01*
X164545095Y-91994904D01*
X164483190Y-91066333D02*
X164545095Y-91190143D01*
X164545095Y-91437762D01*
X164483190Y-91561571D01*
X164359381Y-91623476D01*
X163864143Y-91623476D01*
X163740333Y-91561571D01*
X163678429Y-91437762D01*
X163678429Y-91190143D01*
X163740333Y-91066333D01*
X163864143Y-91004428D01*
X163987952Y-91004428D01*
X164111762Y-91623476D01*
X164545095Y-90447285D02*
X163678429Y-90447285D01*
X163926048Y-90447285D02*
X163802238Y-90385380D01*
X163740333Y-90323476D01*
X163678429Y-90199666D01*
X163678429Y-90075857D01*
D12*
X165446857Y-94475238D02*
X165446857Y-93484762D01*
X165446857Y-91935238D02*
X165446857Y-90944762D01*
X165942095Y-91440000D02*
X164951619Y-91440000D01*
D13*
X159385000Y-110490000D02*
X158750000Y-110744000D01*
X159385000Y-110490000D02*
X158750000Y-110236000D01*
X153035000Y-110490000D02*
X159385000Y-110490000D01*
X156845000Y-102870000D02*
X156210000Y-103124000D01*
X156845000Y-102870000D02*
X156210000Y-102616000D01*
X153035000Y-102870000D02*
X156845000Y-102870000D01*
D14*
X177379159Y-114851580D02*
X178097580Y-114133159D01*
X177468962Y-114941382D02*
X178187382Y-114222962D01*
X177468962Y-114941382D02*
X177289356Y-114761777D01*
X178187382Y-114222962D02*
X178007777Y-114043356D01*
X178007777Y-115120987D02*
X178187382Y-114582172D01*
X178187382Y-115300592D02*
X178366987Y-114761777D01*
X178366987Y-115480197D02*
X178546592Y-114941382D01*
X178546592Y-115659803D02*
X178726197Y-115120987D01*
X177289356Y-114222962D02*
X177468962Y-114222962D01*
X177468962Y-114222962D02*
X177468962Y-114043356D01*
X177289356Y-114222961D02*
G75*
G03X177289356Y-114761777I269408J-269408D01*
G01*
X178007777Y-114043357D02*
G75*
G03X177468962Y-114043356I-269408J-269407D01*
G01*
X178995605Y-115390395D02*
X178007777Y-114402567D01*
X178636395Y-115749605D02*
X177648567Y-114761777D01*
X179265013Y-116019013D02*
X178636395Y-115749605D01*
X179265013Y-116019013D02*
X178995605Y-115390395D01*
X121201580Y-119292841D02*
X120483159Y-118574420D01*
X121291382Y-119203038D02*
X120572962Y-118484618D01*
X121291382Y-119203038D02*
X121111777Y-119382644D01*
X120572962Y-118484618D02*
X120393356Y-118664223D01*
X121470987Y-118664223D02*
X120932172Y-118484618D01*
X121650592Y-118484618D02*
X121111777Y-118305013D01*
X121830197Y-118305013D02*
X121291382Y-118125408D01*
X122009803Y-118125408D02*
X121470987Y-117945803D01*
X120572962Y-119382644D02*
X120572962Y-119203038D01*
X120572962Y-119203038D02*
X120393356Y-119203038D01*
X120572961Y-119382644D02*
G75*
G03X121111777Y-119382644I269408J269408D01*
G01*
X120393357Y-118664223D02*
G75*
G03X120393356Y-119203038I269407J-269408D01*
G01*
X121740395Y-117676395D02*
X120752567Y-118664223D01*
X122099605Y-118035605D02*
X121111777Y-119023433D01*
X122369013Y-117406987D02*
X122099605Y-118035605D01*
X122369013Y-117406987D02*
X121740395Y-117676395D01*
X129706841Y-77680420D02*
X128988420Y-78398841D01*
X129617038Y-77590618D02*
X128898618Y-78309038D01*
X129617038Y-77590618D02*
X129796644Y-77770223D01*
X128898618Y-78309038D02*
X129078223Y-78488644D01*
X129078223Y-77411013D02*
X128898618Y-77949828D01*
X128898618Y-77231408D02*
X128719013Y-77770223D01*
X128719013Y-77051803D02*
X128539408Y-77590618D01*
X128539408Y-76872197D02*
X128359803Y-77411013D01*
X129796644Y-78309038D02*
X129617038Y-78309038D01*
X129617038Y-78309038D02*
X129617038Y-78488644D01*
X129796644Y-78309039D02*
G75*
G03X129796644Y-77770223I-269408J269408D01*
G01*
X129078223Y-78488643D02*
G75*
G03X129617038Y-78488644I269408J269407D01*
G01*
X128090395Y-77141605D02*
X129078223Y-78129433D01*
X128449605Y-76782395D02*
X129437433Y-77770223D01*
X127820987Y-76512987D02*
X128449605Y-76782395D01*
X127820987Y-76512987D02*
X128090395Y-77141605D01*
X179113580Y-79922841D02*
X178395159Y-79204420D01*
X179203382Y-79833038D02*
X178484962Y-79114618D01*
X179203382Y-79833038D02*
X179023777Y-80012644D01*
X178484962Y-79114618D02*
X178305356Y-79294223D01*
X179382987Y-79294223D02*
X178844172Y-79114618D01*
X179562592Y-79114618D02*
X179023777Y-78935013D01*
X179742197Y-78935013D02*
X179203382Y-78755408D01*
X179921803Y-78755408D02*
X179382987Y-78575803D01*
X178484962Y-80012644D02*
X178484962Y-79833038D01*
X178484962Y-79833038D02*
X178305356Y-79833038D01*
X178484961Y-80012644D02*
G75*
G03X179023777Y-80012644I269408J269408D01*
G01*
X178305357Y-79294223D02*
G75*
G03X178305356Y-79833038I269407J-269408D01*
G01*
X179652395Y-78306395D02*
X178664567Y-79294223D01*
X180011605Y-78665605D02*
X179023777Y-79653433D01*
X180281013Y-78036987D02*
X180011605Y-78665605D01*
X180281013Y-78036987D02*
X179652395Y-78306395D01*
X149947159Y-50589580D02*
X150665580Y-49871159D01*
X150036962Y-50679382D02*
X150755382Y-49960962D01*
X150036962Y-50679382D02*
X149857356Y-50499777D01*
X150755382Y-49960962D02*
X150575777Y-49781356D01*
X150575777Y-50858987D02*
X150755382Y-50320172D01*
X150755382Y-51038592D02*
X150934987Y-50499777D01*
X150934987Y-51218197D02*
X151114592Y-50679382D01*
X151114592Y-51397803D02*
X151294197Y-50858987D01*
X149857356Y-49960962D02*
X150036962Y-49960962D01*
X150036962Y-49960962D02*
X150036962Y-49781356D01*
X149857356Y-49960961D02*
G75*
G03X149857356Y-50499777I269408J-269408D01*
G01*
X150575777Y-49781357D02*
G75*
G03X150036962Y-49781356I-269408J-269407D01*
G01*
X151563605Y-51128395D02*
X150575777Y-50140567D01*
X151204395Y-51487605D02*
X150216567Y-50499777D01*
X151833013Y-51757013D02*
X151204395Y-51487605D01*
X151833013Y-51757013D02*
X151563605Y-51128395D01*
D15*
X146050000Y-120710000D02*
X163890000Y-120710000D01*
X163890000Y-120710000D02*
X163890000Y-118050000D01*
X163890000Y-118050000D02*
X146050000Y-118050000D01*
X146050000Y-118050000D02*
X146050000Y-120710000D01*
X144780000Y-120710000D02*
X143450000Y-120710000D01*
X143450000Y-120710000D02*
X143450000Y-119380000D01*
X151170000Y-104140000D02*
G75*
G03X151170000Y-104140000I-1310000J0D01*
G01*
X149860000Y-102830000D02*
X149860000Y-102700000D01*
D14*
X149507695Y-98063010D02*
G75*
G03X149020000Y-97360000I-2187695J-996990D01*
G01*
X145132305Y-98063010D02*
G75*
G02X145620000Y-97360000I2187695J-996990D01*
G01*
X149020000Y-97360000D02*
X145620000Y-97360000D01*
X149504879Y-100053127D02*
G75*
G02X147320000Y-101460000I-2184879J993127D01*
G01*
X145135121Y-100053127D02*
G75*
G03X147320000Y-101460000I2184879J993127D01*
G01*
D15*
X178851982Y-87447568D02*
G75*
G02X178853000Y-92972000I-1171982J-2762432D01*
G01*
X175751705Y-92507753D02*
G75*
G02X175752000Y-87912000I1928295J2297753D01*
G01*
X171120000Y-85249000D02*
X174986000Y-85249000D01*
X179375000Y-85249000D02*
X183240000Y-85249000D01*
X171120000Y-95170000D02*
X174986000Y-95170000D01*
X179375000Y-95170000D02*
X183240000Y-95170000D01*
X171120000Y-85249000D02*
X171120000Y-86885000D01*
X171120000Y-88535000D02*
X171120000Y-89385000D01*
X171120000Y-91035000D02*
X171120000Y-91885000D01*
X171120000Y-93535000D02*
X171120000Y-95170000D01*
X183240000Y-85249000D02*
X183240000Y-95170000D01*
D14*
X145776990Y-111407695D02*
G75*
G03X146480000Y-110920000I-996990J2187695D01*
G01*
X145776990Y-107032305D02*
G75*
G02X146480000Y-107520000I-996990J-2187695D01*
G01*
X146480000Y-110920000D02*
X146480000Y-107520000D01*
X143786873Y-111404879D02*
G75*
G02X142380000Y-109220000I993127J2184879D01*
G01*
X143786873Y-107035121D02*
G75*
G03X142380000Y-109220000I993127J-2184879D01*
G01*
D15*
X137540722Y-90260277D02*
G75*
G03X132929420Y-90260000I-2305722J-1179723D01*
G01*
X137540722Y-92619723D02*
G75*
G02X132929420Y-92620000I-2305722J1179723D01*
G01*
X137540722Y-92619723D02*
G75*
G03X137540580Y-90260000I-2305722J1179723D01*
G01*
X135235000Y-88890000D02*
X135235000Y-93990000D01*
X135275000Y-88890000D02*
X135275000Y-93990000D01*
X135315000Y-88891000D02*
X135315000Y-93989000D01*
X135355000Y-88892000D02*
X135355000Y-93988000D01*
X135395000Y-88894000D02*
X135395000Y-93986000D01*
X135435000Y-88897000D02*
X135435000Y-93983000D01*
X135475000Y-88901000D02*
X135475000Y-93979000D01*
X135515000Y-88905000D02*
X135515000Y-90460000D01*
X135515000Y-92420000D02*
X135515000Y-93975000D01*
X135555000Y-88909000D02*
X135555000Y-90460000D01*
X135555000Y-92420000D02*
X135555000Y-93971000D01*
X135595000Y-88915000D02*
X135595000Y-90460000D01*
X135595000Y-92420000D02*
X135595000Y-93965000D01*
X135635000Y-88921000D02*
X135635000Y-90460000D01*
X135635000Y-92420000D02*
X135635000Y-93959000D01*
X135675000Y-88927000D02*
X135675000Y-90460000D01*
X135675000Y-92420000D02*
X135675000Y-93953000D01*
X135715000Y-88934000D02*
X135715000Y-90460000D01*
X135715000Y-92420000D02*
X135715000Y-93946000D01*
X135755000Y-88942000D02*
X135755000Y-90460000D01*
X135755000Y-92420000D02*
X135755000Y-93938000D01*
X135795000Y-88951000D02*
X135795000Y-90460000D01*
X135795000Y-92420000D02*
X135795000Y-93929000D01*
X135835000Y-88960000D02*
X135835000Y-90460000D01*
X135835000Y-92420000D02*
X135835000Y-93920000D01*
X135875000Y-88970000D02*
X135875000Y-90460000D01*
X135875000Y-92420000D02*
X135875000Y-93910000D01*
X135915000Y-88980000D02*
X135915000Y-90460000D01*
X135915000Y-92420000D02*
X135915000Y-93900000D01*
X135956000Y-88992000D02*
X135956000Y-90460000D01*
X135956000Y-92420000D02*
X135956000Y-93888000D01*
X135996000Y-89004000D02*
X135996000Y-90460000D01*
X135996000Y-92420000D02*
X135996000Y-93876000D01*
X136036000Y-89016000D02*
X136036000Y-90460000D01*
X136036000Y-92420000D02*
X136036000Y-93864000D01*
X136076000Y-89030000D02*
X136076000Y-90460000D01*
X136076000Y-92420000D02*
X136076000Y-93850000D01*
X136116000Y-89044000D02*
X136116000Y-90460000D01*
X136116000Y-92420000D02*
X136116000Y-93836000D01*
X136156000Y-89058000D02*
X136156000Y-90460000D01*
X136156000Y-92420000D02*
X136156000Y-93822000D01*
X136196000Y-89074000D02*
X136196000Y-90460000D01*
X136196000Y-92420000D02*
X136196000Y-93806000D01*
X136236000Y-89090000D02*
X136236000Y-90460000D01*
X136236000Y-92420000D02*
X136236000Y-93790000D01*
X136276000Y-89107000D02*
X136276000Y-90460000D01*
X136276000Y-92420000D02*
X136276000Y-93773000D01*
X136316000Y-89125000D02*
X136316000Y-90460000D01*
X136316000Y-92420000D02*
X136316000Y-93755000D01*
X136356000Y-89144000D02*
X136356000Y-90460000D01*
X136356000Y-92420000D02*
X136356000Y-93736000D01*
X136396000Y-89164000D02*
X136396000Y-90460000D01*
X136396000Y-92420000D02*
X136396000Y-93716000D01*
X136436000Y-89184000D02*
X136436000Y-90460000D01*
X136436000Y-92420000D02*
X136436000Y-93696000D01*
X136476000Y-89206000D02*
X136476000Y-90460000D01*
X136476000Y-92420000D02*
X136476000Y-93674000D01*
X136516000Y-89228000D02*
X136516000Y-90460000D01*
X136516000Y-92420000D02*
X136516000Y-93652000D01*
X136556000Y-89251000D02*
X136556000Y-90460000D01*
X136556000Y-92420000D02*
X136556000Y-93629000D01*
X136596000Y-89275000D02*
X136596000Y-90460000D01*
X136596000Y-92420000D02*
X136596000Y-93605000D01*
X136636000Y-89300000D02*
X136636000Y-90460000D01*
X136636000Y-92420000D02*
X136636000Y-93580000D01*
X136676000Y-89327000D02*
X136676000Y-90460000D01*
X136676000Y-92420000D02*
X136676000Y-93553000D01*
X136716000Y-89354000D02*
X136716000Y-90460000D01*
X136716000Y-92420000D02*
X136716000Y-93526000D01*
X136756000Y-89382000D02*
X136756000Y-90460000D01*
X136756000Y-92420000D02*
X136756000Y-93498000D01*
X136796000Y-89412000D02*
X136796000Y-90460000D01*
X136796000Y-92420000D02*
X136796000Y-93468000D01*
X136836000Y-89443000D02*
X136836000Y-90460000D01*
X136836000Y-92420000D02*
X136836000Y-93437000D01*
X136876000Y-89475000D02*
X136876000Y-90460000D01*
X136876000Y-92420000D02*
X136876000Y-93405000D01*
X136916000Y-89508000D02*
X136916000Y-90460000D01*
X136916000Y-92420000D02*
X136916000Y-93372000D01*
X136956000Y-89543000D02*
X136956000Y-90460000D01*
X136956000Y-92420000D02*
X136956000Y-93337000D01*
X136996000Y-89579000D02*
X136996000Y-90460000D01*
X136996000Y-92420000D02*
X136996000Y-93301000D01*
X137036000Y-89617000D02*
X137036000Y-90460000D01*
X137036000Y-92420000D02*
X137036000Y-93263000D01*
X137076000Y-89657000D02*
X137076000Y-90460000D01*
X137076000Y-92420000D02*
X137076000Y-93223000D01*
X137116000Y-89698000D02*
X137116000Y-90460000D01*
X137116000Y-92420000D02*
X137116000Y-93182000D01*
X137156000Y-89741000D02*
X137156000Y-90460000D01*
X137156000Y-92420000D02*
X137156000Y-93139000D01*
X137196000Y-89786000D02*
X137196000Y-90460000D01*
X137196000Y-92420000D02*
X137196000Y-93094000D01*
X137236000Y-89834000D02*
X137236000Y-90460000D01*
X137236000Y-92420000D02*
X137236000Y-93046000D01*
X137276000Y-89884000D02*
X137276000Y-90460000D01*
X137276000Y-92420000D02*
X137276000Y-92996000D01*
X137316000Y-89936000D02*
X137316000Y-90460000D01*
X137316000Y-92420000D02*
X137316000Y-92944000D01*
X137356000Y-89992000D02*
X137356000Y-90460000D01*
X137356000Y-92420000D02*
X137356000Y-92888000D01*
X137396000Y-90050000D02*
X137396000Y-90460000D01*
X137396000Y-92420000D02*
X137396000Y-92830000D01*
X137436000Y-90113000D02*
X137436000Y-90460000D01*
X137436000Y-92420000D02*
X137436000Y-92767000D01*
X137476000Y-90179000D02*
X137476000Y-92701000D01*
X137516000Y-90251000D02*
X137516000Y-92629000D01*
X137556000Y-90328000D02*
X137556000Y-92552000D01*
X137596000Y-90412000D02*
X137596000Y-92468000D01*
X137636000Y-90506000D02*
X137636000Y-92374000D01*
X137676000Y-90611000D02*
X137676000Y-92269000D01*
X137716000Y-90733000D02*
X137716000Y-92147000D01*
X137756000Y-90881000D02*
X137756000Y-91999000D01*
X137796000Y-91086000D02*
X137796000Y-91794000D01*
X131785000Y-91440000D02*
X132985000Y-91440000D01*
X132385000Y-90790000D02*
X132385000Y-92090000D01*
X143255722Y-90260277D02*
G75*
G03X138644420Y-90260000I-2305722J-1179723D01*
G01*
X143255722Y-92619723D02*
G75*
G02X138644420Y-92620000I-2305722J1179723D01*
G01*
X143255722Y-92619723D02*
G75*
G03X143255580Y-90260000I-2305722J1179723D01*
G01*
X140950000Y-88890000D02*
X140950000Y-93990000D01*
X140990000Y-88890000D02*
X140990000Y-93990000D01*
X141030000Y-88891000D02*
X141030000Y-93989000D01*
X141070000Y-88892000D02*
X141070000Y-93988000D01*
X141110000Y-88894000D02*
X141110000Y-93986000D01*
X141150000Y-88897000D02*
X141150000Y-93983000D01*
X141190000Y-88901000D02*
X141190000Y-93979000D01*
X141230000Y-88905000D02*
X141230000Y-90460000D01*
X141230000Y-92420000D02*
X141230000Y-93975000D01*
X141270000Y-88909000D02*
X141270000Y-90460000D01*
X141270000Y-92420000D02*
X141270000Y-93971000D01*
X141310000Y-88915000D02*
X141310000Y-90460000D01*
X141310000Y-92420000D02*
X141310000Y-93965000D01*
X141350000Y-88921000D02*
X141350000Y-90460000D01*
X141350000Y-92420000D02*
X141350000Y-93959000D01*
X141390000Y-88927000D02*
X141390000Y-90460000D01*
X141390000Y-92420000D02*
X141390000Y-93953000D01*
X141430000Y-88934000D02*
X141430000Y-90460000D01*
X141430000Y-92420000D02*
X141430000Y-93946000D01*
X141470000Y-88942000D02*
X141470000Y-90460000D01*
X141470000Y-92420000D02*
X141470000Y-93938000D01*
X141510000Y-88951000D02*
X141510000Y-90460000D01*
X141510000Y-92420000D02*
X141510000Y-93929000D01*
X141550000Y-88960000D02*
X141550000Y-90460000D01*
X141550000Y-92420000D02*
X141550000Y-93920000D01*
X141590000Y-88970000D02*
X141590000Y-90460000D01*
X141590000Y-92420000D02*
X141590000Y-93910000D01*
X141630000Y-88980000D02*
X141630000Y-90460000D01*
X141630000Y-92420000D02*
X141630000Y-93900000D01*
X141671000Y-88992000D02*
X141671000Y-90460000D01*
X141671000Y-92420000D02*
X141671000Y-93888000D01*
X141711000Y-89004000D02*
X141711000Y-90460000D01*
X141711000Y-92420000D02*
X141711000Y-93876000D01*
X141751000Y-89016000D02*
X141751000Y-90460000D01*
X141751000Y-92420000D02*
X141751000Y-93864000D01*
X141791000Y-89030000D02*
X141791000Y-90460000D01*
X141791000Y-92420000D02*
X141791000Y-93850000D01*
X141831000Y-89044000D02*
X141831000Y-90460000D01*
X141831000Y-92420000D02*
X141831000Y-93836000D01*
X141871000Y-89058000D02*
X141871000Y-90460000D01*
X141871000Y-92420000D02*
X141871000Y-93822000D01*
X141911000Y-89074000D02*
X141911000Y-90460000D01*
X141911000Y-92420000D02*
X141911000Y-93806000D01*
X141951000Y-89090000D02*
X141951000Y-90460000D01*
X141951000Y-92420000D02*
X141951000Y-93790000D01*
X141991000Y-89107000D02*
X141991000Y-90460000D01*
X141991000Y-92420000D02*
X141991000Y-93773000D01*
X142031000Y-89125000D02*
X142031000Y-90460000D01*
X142031000Y-92420000D02*
X142031000Y-93755000D01*
X142071000Y-89144000D02*
X142071000Y-90460000D01*
X142071000Y-92420000D02*
X142071000Y-93736000D01*
X142111000Y-89164000D02*
X142111000Y-90460000D01*
X142111000Y-92420000D02*
X142111000Y-93716000D01*
X142151000Y-89184000D02*
X142151000Y-90460000D01*
X142151000Y-92420000D02*
X142151000Y-93696000D01*
X142191000Y-89206000D02*
X142191000Y-90460000D01*
X142191000Y-92420000D02*
X142191000Y-93674000D01*
X142231000Y-89228000D02*
X142231000Y-90460000D01*
X142231000Y-92420000D02*
X142231000Y-93652000D01*
X142271000Y-89251000D02*
X142271000Y-90460000D01*
X142271000Y-92420000D02*
X142271000Y-93629000D01*
X142311000Y-89275000D02*
X142311000Y-90460000D01*
X142311000Y-92420000D02*
X142311000Y-93605000D01*
X142351000Y-89300000D02*
X142351000Y-90460000D01*
X142351000Y-92420000D02*
X142351000Y-93580000D01*
X142391000Y-89327000D02*
X142391000Y-90460000D01*
X142391000Y-92420000D02*
X142391000Y-93553000D01*
X142431000Y-89354000D02*
X142431000Y-90460000D01*
X142431000Y-92420000D02*
X142431000Y-93526000D01*
X142471000Y-89382000D02*
X142471000Y-90460000D01*
X142471000Y-92420000D02*
X142471000Y-93498000D01*
X142511000Y-89412000D02*
X142511000Y-90460000D01*
X142511000Y-92420000D02*
X142511000Y-93468000D01*
X142551000Y-89443000D02*
X142551000Y-90460000D01*
X142551000Y-92420000D02*
X142551000Y-93437000D01*
X142591000Y-89475000D02*
X142591000Y-90460000D01*
X142591000Y-92420000D02*
X142591000Y-93405000D01*
X142631000Y-89508000D02*
X142631000Y-90460000D01*
X142631000Y-92420000D02*
X142631000Y-93372000D01*
X142671000Y-89543000D02*
X142671000Y-90460000D01*
X142671000Y-92420000D02*
X142671000Y-93337000D01*
X142711000Y-89579000D02*
X142711000Y-90460000D01*
X142711000Y-92420000D02*
X142711000Y-93301000D01*
X142751000Y-89617000D02*
X142751000Y-90460000D01*
X142751000Y-92420000D02*
X142751000Y-93263000D01*
X142791000Y-89657000D02*
X142791000Y-90460000D01*
X142791000Y-92420000D02*
X142791000Y-93223000D01*
X142831000Y-89698000D02*
X142831000Y-90460000D01*
X142831000Y-92420000D02*
X142831000Y-93182000D01*
X142871000Y-89741000D02*
X142871000Y-90460000D01*
X142871000Y-92420000D02*
X142871000Y-93139000D01*
X142911000Y-89786000D02*
X142911000Y-90460000D01*
X142911000Y-92420000D02*
X142911000Y-93094000D01*
X142951000Y-89834000D02*
X142951000Y-90460000D01*
X142951000Y-92420000D02*
X142951000Y-93046000D01*
X142991000Y-89884000D02*
X142991000Y-90460000D01*
X142991000Y-92420000D02*
X142991000Y-92996000D01*
X143031000Y-89936000D02*
X143031000Y-90460000D01*
X143031000Y-92420000D02*
X143031000Y-92944000D01*
X143071000Y-89992000D02*
X143071000Y-90460000D01*
X143071000Y-92420000D02*
X143071000Y-92888000D01*
X143111000Y-90050000D02*
X143111000Y-90460000D01*
X143111000Y-92420000D02*
X143111000Y-92830000D01*
X143151000Y-90113000D02*
X143151000Y-90460000D01*
X143151000Y-92420000D02*
X143151000Y-92767000D01*
X143191000Y-90179000D02*
X143191000Y-92701000D01*
X143231000Y-90251000D02*
X143231000Y-92629000D01*
X143271000Y-90328000D02*
X143271000Y-92552000D01*
X143311000Y-90412000D02*
X143311000Y-92468000D01*
X143351000Y-90506000D02*
X143351000Y-92374000D01*
X143391000Y-90611000D02*
X143391000Y-92269000D01*
X143431000Y-90733000D02*
X143431000Y-92147000D01*
X143471000Y-90881000D02*
X143471000Y-91999000D01*
X143511000Y-91086000D02*
X143511000Y-91794000D01*
X137500000Y-91440000D02*
X138700000Y-91440000D01*
X138100000Y-90790000D02*
X138100000Y-92090000D01*
X141985722Y-72480277D02*
G75*
G03X137374420Y-72480000I-2305722J-1179723D01*
G01*
X141985722Y-74839723D02*
G75*
G02X137374420Y-74840000I-2305722J1179723D01*
G01*
X141985722Y-74839723D02*
G75*
G03X141985580Y-72480000I-2305722J1179723D01*
G01*
X139680000Y-71110000D02*
X139680000Y-76210000D01*
X139720000Y-71110000D02*
X139720000Y-76210000D01*
X139760000Y-71111000D02*
X139760000Y-76209000D01*
X139800000Y-71112000D02*
X139800000Y-76208000D01*
X139840000Y-71114000D02*
X139840000Y-76206000D01*
X139880000Y-71117000D02*
X139880000Y-76203000D01*
X139920000Y-71121000D02*
X139920000Y-76199000D01*
X139960000Y-71125000D02*
X139960000Y-72680000D01*
X139960000Y-74640000D02*
X139960000Y-76195000D01*
X140000000Y-71129000D02*
X140000000Y-72680000D01*
X140000000Y-74640000D02*
X140000000Y-76191000D01*
X140040000Y-71135000D02*
X140040000Y-72680000D01*
X140040000Y-74640000D02*
X140040000Y-76185000D01*
X140080000Y-71141000D02*
X140080000Y-72680000D01*
X140080000Y-74640000D02*
X140080000Y-76179000D01*
X140120000Y-71147000D02*
X140120000Y-72680000D01*
X140120000Y-74640000D02*
X140120000Y-76173000D01*
X140160000Y-71154000D02*
X140160000Y-72680000D01*
X140160000Y-74640000D02*
X140160000Y-76166000D01*
X140200000Y-71162000D02*
X140200000Y-72680000D01*
X140200000Y-74640000D02*
X140200000Y-76158000D01*
X140240000Y-71171000D02*
X140240000Y-72680000D01*
X140240000Y-74640000D02*
X140240000Y-76149000D01*
X140280000Y-71180000D02*
X140280000Y-72680000D01*
X140280000Y-74640000D02*
X140280000Y-76140000D01*
X140320000Y-71190000D02*
X140320000Y-72680000D01*
X140320000Y-74640000D02*
X140320000Y-76130000D01*
X140360000Y-71200000D02*
X140360000Y-72680000D01*
X140360000Y-74640000D02*
X140360000Y-76120000D01*
X140401000Y-71212000D02*
X140401000Y-72680000D01*
X140401000Y-74640000D02*
X140401000Y-76108000D01*
X140441000Y-71224000D02*
X140441000Y-72680000D01*
X140441000Y-74640000D02*
X140441000Y-76096000D01*
X140481000Y-71236000D02*
X140481000Y-72680000D01*
X140481000Y-74640000D02*
X140481000Y-76084000D01*
X140521000Y-71250000D02*
X140521000Y-72680000D01*
X140521000Y-74640000D02*
X140521000Y-76070000D01*
X140561000Y-71264000D02*
X140561000Y-72680000D01*
X140561000Y-74640000D02*
X140561000Y-76056000D01*
X140601000Y-71278000D02*
X140601000Y-72680000D01*
X140601000Y-74640000D02*
X140601000Y-76042000D01*
X140641000Y-71294000D02*
X140641000Y-72680000D01*
X140641000Y-74640000D02*
X140641000Y-76026000D01*
X140681000Y-71310000D02*
X140681000Y-72680000D01*
X140681000Y-74640000D02*
X140681000Y-76010000D01*
X140721000Y-71327000D02*
X140721000Y-72680000D01*
X140721000Y-74640000D02*
X140721000Y-75993000D01*
X140761000Y-71345000D02*
X140761000Y-72680000D01*
X140761000Y-74640000D02*
X140761000Y-75975000D01*
X140801000Y-71364000D02*
X140801000Y-72680000D01*
X140801000Y-74640000D02*
X140801000Y-75956000D01*
X140841000Y-71384000D02*
X140841000Y-72680000D01*
X140841000Y-74640000D02*
X140841000Y-75936000D01*
X140881000Y-71404000D02*
X140881000Y-72680000D01*
X140881000Y-74640000D02*
X140881000Y-75916000D01*
X140921000Y-71426000D02*
X140921000Y-72680000D01*
X140921000Y-74640000D02*
X140921000Y-75894000D01*
X140961000Y-71448000D02*
X140961000Y-72680000D01*
X140961000Y-74640000D02*
X140961000Y-75872000D01*
X141001000Y-71471000D02*
X141001000Y-72680000D01*
X141001000Y-74640000D02*
X141001000Y-75849000D01*
X141041000Y-71495000D02*
X141041000Y-72680000D01*
X141041000Y-74640000D02*
X141041000Y-75825000D01*
X141081000Y-71520000D02*
X141081000Y-72680000D01*
X141081000Y-74640000D02*
X141081000Y-75800000D01*
X141121000Y-71547000D02*
X141121000Y-72680000D01*
X141121000Y-74640000D02*
X141121000Y-75773000D01*
X141161000Y-71574000D02*
X141161000Y-72680000D01*
X141161000Y-74640000D02*
X141161000Y-75746000D01*
X141201000Y-71602000D02*
X141201000Y-72680000D01*
X141201000Y-74640000D02*
X141201000Y-75718000D01*
X141241000Y-71632000D02*
X141241000Y-72680000D01*
X141241000Y-74640000D02*
X141241000Y-75688000D01*
X141281000Y-71663000D02*
X141281000Y-72680000D01*
X141281000Y-74640000D02*
X141281000Y-75657000D01*
X141321000Y-71695000D02*
X141321000Y-72680000D01*
X141321000Y-74640000D02*
X141321000Y-75625000D01*
X141361000Y-71728000D02*
X141361000Y-72680000D01*
X141361000Y-74640000D02*
X141361000Y-75592000D01*
X141401000Y-71763000D02*
X141401000Y-72680000D01*
X141401000Y-74640000D02*
X141401000Y-75557000D01*
X141441000Y-71799000D02*
X141441000Y-72680000D01*
X141441000Y-74640000D02*
X141441000Y-75521000D01*
X141481000Y-71837000D02*
X141481000Y-72680000D01*
X141481000Y-74640000D02*
X141481000Y-75483000D01*
X141521000Y-71877000D02*
X141521000Y-72680000D01*
X141521000Y-74640000D02*
X141521000Y-75443000D01*
X141561000Y-71918000D02*
X141561000Y-72680000D01*
X141561000Y-74640000D02*
X141561000Y-75402000D01*
X141601000Y-71961000D02*
X141601000Y-72680000D01*
X141601000Y-74640000D02*
X141601000Y-75359000D01*
X141641000Y-72006000D02*
X141641000Y-72680000D01*
X141641000Y-74640000D02*
X141641000Y-75314000D01*
X141681000Y-72054000D02*
X141681000Y-72680000D01*
X141681000Y-74640000D02*
X141681000Y-75266000D01*
X141721000Y-72104000D02*
X141721000Y-72680000D01*
X141721000Y-74640000D02*
X141721000Y-75216000D01*
X141761000Y-72156000D02*
X141761000Y-72680000D01*
X141761000Y-74640000D02*
X141761000Y-75164000D01*
X141801000Y-72212000D02*
X141801000Y-72680000D01*
X141801000Y-74640000D02*
X141801000Y-75108000D01*
X141841000Y-72270000D02*
X141841000Y-72680000D01*
X141841000Y-74640000D02*
X141841000Y-75050000D01*
X141881000Y-72333000D02*
X141881000Y-72680000D01*
X141881000Y-74640000D02*
X141881000Y-74987000D01*
X141921000Y-72399000D02*
X141921000Y-74921000D01*
X141961000Y-72471000D02*
X141961000Y-74849000D01*
X142001000Y-72548000D02*
X142001000Y-74772000D01*
X142041000Y-72632000D02*
X142041000Y-74688000D01*
X142081000Y-72726000D02*
X142081000Y-74594000D01*
X142121000Y-72831000D02*
X142121000Y-74489000D01*
X142161000Y-72953000D02*
X142161000Y-74367000D01*
X142201000Y-73101000D02*
X142201000Y-74219000D01*
X142241000Y-73306000D02*
X142241000Y-74014000D01*
X136230000Y-73660000D02*
X137430000Y-73660000D01*
X136830000Y-73010000D02*
X136830000Y-74310000D01*
X159929723Y-67055722D02*
G75*
G03X159930000Y-62444420I-1179723J2305722D01*
G01*
X157570277Y-67055722D02*
G75*
G02X157570000Y-62444420I1179723J2305722D01*
G01*
X157570277Y-67055722D02*
G75*
G03X159930000Y-67055580I1179723J2305722D01*
G01*
X161300000Y-64750000D02*
X156200000Y-64750000D01*
X161300000Y-64790000D02*
X156200000Y-64790000D01*
X161299000Y-64830000D02*
X156201000Y-64830000D01*
X161298000Y-64870000D02*
X156202000Y-64870000D01*
X161296000Y-64910000D02*
X156204000Y-64910000D01*
X161293000Y-64950000D02*
X156207000Y-64950000D01*
X161289000Y-64990000D02*
X156211000Y-64990000D01*
X161285000Y-65030000D02*
X159730000Y-65030000D01*
X157770000Y-65030000D02*
X156215000Y-65030000D01*
X161281000Y-65070000D02*
X159730000Y-65070000D01*
X157770000Y-65070000D02*
X156219000Y-65070000D01*
X161275000Y-65110000D02*
X159730000Y-65110000D01*
X157770000Y-65110000D02*
X156225000Y-65110000D01*
X161269000Y-65150000D02*
X159730000Y-65150000D01*
X157770000Y-65150000D02*
X156231000Y-65150000D01*
X161263000Y-65190000D02*
X159730000Y-65190000D01*
X157770000Y-65190000D02*
X156237000Y-65190000D01*
X161256000Y-65230000D02*
X159730000Y-65230000D01*
X157770000Y-65230000D02*
X156244000Y-65230000D01*
X161248000Y-65270000D02*
X159730000Y-65270000D01*
X157770000Y-65270000D02*
X156252000Y-65270000D01*
X161239000Y-65310000D02*
X159730000Y-65310000D01*
X157770000Y-65310000D02*
X156261000Y-65310000D01*
X161230000Y-65350000D02*
X159730000Y-65350000D01*
X157770000Y-65350000D02*
X156270000Y-65350000D01*
X161220000Y-65390000D02*
X159730000Y-65390000D01*
X157770000Y-65390000D02*
X156280000Y-65390000D01*
X161210000Y-65430000D02*
X159730000Y-65430000D01*
X157770000Y-65430000D02*
X156290000Y-65430000D01*
X161198000Y-65471000D02*
X159730000Y-65471000D01*
X157770000Y-65471000D02*
X156302000Y-65471000D01*
X161186000Y-65511000D02*
X159730000Y-65511000D01*
X157770000Y-65511000D02*
X156314000Y-65511000D01*
X161174000Y-65551000D02*
X159730000Y-65551000D01*
X157770000Y-65551000D02*
X156326000Y-65551000D01*
X161160000Y-65591000D02*
X159730000Y-65591000D01*
X157770000Y-65591000D02*
X156340000Y-65591000D01*
X161146000Y-65631000D02*
X159730000Y-65631000D01*
X157770000Y-65631000D02*
X156354000Y-65631000D01*
X161132000Y-65671000D02*
X159730000Y-65671000D01*
X157770000Y-65671000D02*
X156368000Y-65671000D01*
X161116000Y-65711000D02*
X159730000Y-65711000D01*
X157770000Y-65711000D02*
X156384000Y-65711000D01*
X161100000Y-65751000D02*
X159730000Y-65751000D01*
X157770000Y-65751000D02*
X156400000Y-65751000D01*
X161083000Y-65791000D02*
X159730000Y-65791000D01*
X157770000Y-65791000D02*
X156417000Y-65791000D01*
X161065000Y-65831000D02*
X159730000Y-65831000D01*
X157770000Y-65831000D02*
X156435000Y-65831000D01*
X161046000Y-65871000D02*
X159730000Y-65871000D01*
X157770000Y-65871000D02*
X156454000Y-65871000D01*
X161026000Y-65911000D02*
X159730000Y-65911000D01*
X157770000Y-65911000D02*
X156474000Y-65911000D01*
X161006000Y-65951000D02*
X159730000Y-65951000D01*
X157770000Y-65951000D02*
X156494000Y-65951000D01*
X160984000Y-65991000D02*
X159730000Y-65991000D01*
X157770000Y-65991000D02*
X156516000Y-65991000D01*
X160962000Y-66031000D02*
X159730000Y-66031000D01*
X157770000Y-66031000D02*
X156538000Y-66031000D01*
X160939000Y-66071000D02*
X159730000Y-66071000D01*
X157770000Y-66071000D02*
X156561000Y-66071000D01*
X160915000Y-66111000D02*
X159730000Y-66111000D01*
X157770000Y-66111000D02*
X156585000Y-66111000D01*
X160890000Y-66151000D02*
X159730000Y-66151000D01*
X157770000Y-66151000D02*
X156610000Y-66151000D01*
X160863000Y-66191000D02*
X159730000Y-66191000D01*
X157770000Y-66191000D02*
X156637000Y-66191000D01*
X160836000Y-66231000D02*
X159730000Y-66231000D01*
X157770000Y-66231000D02*
X156664000Y-66231000D01*
X160808000Y-66271000D02*
X159730000Y-66271000D01*
X157770000Y-66271000D02*
X156692000Y-66271000D01*
X160778000Y-66311000D02*
X159730000Y-66311000D01*
X157770000Y-66311000D02*
X156722000Y-66311000D01*
X160747000Y-66351000D02*
X159730000Y-66351000D01*
X157770000Y-66351000D02*
X156753000Y-66351000D01*
X160715000Y-66391000D02*
X159730000Y-66391000D01*
X157770000Y-66391000D02*
X156785000Y-66391000D01*
X160682000Y-66431000D02*
X159730000Y-66431000D01*
X157770000Y-66431000D02*
X156818000Y-66431000D01*
X160647000Y-66471000D02*
X159730000Y-66471000D01*
X157770000Y-66471000D02*
X156853000Y-66471000D01*
X160611000Y-66511000D02*
X159730000Y-66511000D01*
X157770000Y-66511000D02*
X156889000Y-66511000D01*
X160573000Y-66551000D02*
X159730000Y-66551000D01*
X157770000Y-66551000D02*
X156927000Y-66551000D01*
X160533000Y-66591000D02*
X159730000Y-66591000D01*
X157770000Y-66591000D02*
X156967000Y-66591000D01*
X160492000Y-66631000D02*
X159730000Y-66631000D01*
X157770000Y-66631000D02*
X157008000Y-66631000D01*
X160449000Y-66671000D02*
X159730000Y-66671000D01*
X157770000Y-66671000D02*
X157051000Y-66671000D01*
X160404000Y-66711000D02*
X159730000Y-66711000D01*
X157770000Y-66711000D02*
X157096000Y-66711000D01*
X160356000Y-66751000D02*
X159730000Y-66751000D01*
X157770000Y-66751000D02*
X157144000Y-66751000D01*
X160306000Y-66791000D02*
X159730000Y-66791000D01*
X157770000Y-66791000D02*
X157194000Y-66791000D01*
X160254000Y-66831000D02*
X159730000Y-66831000D01*
X157770000Y-66831000D02*
X157246000Y-66831000D01*
X160198000Y-66871000D02*
X159730000Y-66871000D01*
X157770000Y-66871000D02*
X157302000Y-66871000D01*
X160140000Y-66911000D02*
X159730000Y-66911000D01*
X157770000Y-66911000D02*
X157360000Y-66911000D01*
X160077000Y-66951000D02*
X159730000Y-66951000D01*
X157770000Y-66951000D02*
X157423000Y-66951000D01*
X160011000Y-66991000D02*
X157489000Y-66991000D01*
X159939000Y-67031000D02*
X157561000Y-67031000D01*
X159862000Y-67071000D02*
X157638000Y-67071000D01*
X159778000Y-67111000D02*
X157722000Y-67111000D01*
X159684000Y-67151000D02*
X157816000Y-67151000D01*
X159579000Y-67191000D02*
X157921000Y-67191000D01*
X159457000Y-67231000D02*
X158043000Y-67231000D01*
X159309000Y-67271000D02*
X158191000Y-67271000D01*
X159104000Y-67311000D02*
X158396000Y-67311000D01*
X158750000Y-61300000D02*
X158750000Y-62500000D01*
X159400000Y-61900000D02*
X158100000Y-61900000D01*
X143710000Y-62440000D02*
X143710000Y-64560000D01*
X143710000Y-64560000D02*
X147830000Y-64560000D01*
X147830000Y-64560000D02*
X147830000Y-62440000D01*
X147830000Y-62440000D02*
X143710000Y-62440000D01*
X142940000Y-63500000D02*
X143710000Y-63500000D01*
X148600000Y-63500000D02*
X147830000Y-63500000D01*
X144370000Y-62440000D02*
X144370000Y-64560000D01*
X125670000Y-62170000D02*
X125670000Y-64830000D01*
X128270000Y-62170000D02*
X125670000Y-62170000D01*
X128270000Y-64830000D02*
X125670000Y-64830000D01*
X128270000Y-62170000D02*
X128270000Y-64830000D01*
X129540000Y-62170000D02*
X130870000Y-62170000D01*
X130870000Y-62170000D02*
X130870000Y-63500000D01*
X150530000Y-118150000D02*
X150530000Y-115530000D01*
X150530000Y-115530000D02*
X144110000Y-115530000D01*
X144110000Y-115530000D02*
X144110000Y-118150000D01*
X144110000Y-118150000D02*
X150530000Y-118150000D01*
X151420000Y-116840000D02*
X150530000Y-116840000D01*
X143220000Y-116840000D02*
X144110000Y-116840000D01*
X156810000Y-115530000D02*
X156810000Y-118150000D01*
X156810000Y-118150000D02*
X163230000Y-118150000D01*
X163230000Y-118150000D02*
X163230000Y-115530000D01*
X163230000Y-115530000D02*
X156810000Y-115530000D01*
X155920000Y-116840000D02*
X156810000Y-116840000D01*
X164120000Y-116840000D02*
X163230000Y-116840000D01*
X150530000Y-115610000D02*
X150530000Y-112990000D01*
X150530000Y-112990000D02*
X144110000Y-112990000D01*
X144110000Y-112990000D02*
X144110000Y-115610000D01*
X144110000Y-115610000D02*
X150530000Y-115610000D01*
X151420000Y-114300000D02*
X150530000Y-114300000D01*
X143220000Y-114300000D02*
X144110000Y-114300000D01*
X156810000Y-112990000D02*
X156810000Y-115610000D01*
X156810000Y-115610000D02*
X163230000Y-115610000D01*
X163230000Y-115610000D02*
X163230000Y-112990000D01*
X163230000Y-112990000D02*
X156810000Y-112990000D01*
X155920000Y-114300000D02*
X156810000Y-114300000D01*
X164120000Y-114300000D02*
X163230000Y-114300000D01*
X166410000Y-80610000D02*
X163790000Y-80610000D01*
X163790000Y-80610000D02*
X163790000Y-87030000D01*
X163790000Y-87030000D02*
X166410000Y-87030000D01*
X166410000Y-87030000D02*
X166410000Y-80610000D01*
X165100000Y-79720000D02*
X165100000Y-80610000D01*
X165100000Y-87920000D02*
X165100000Y-87030000D01*
X174030000Y-98390000D02*
X171410000Y-98390000D01*
X171410000Y-98390000D02*
X171410000Y-104810000D01*
X171410000Y-104810000D02*
X174030000Y-104810000D01*
X174030000Y-104810000D02*
X174030000Y-98390000D01*
X172720000Y-97500000D02*
X172720000Y-98390000D01*
X172720000Y-105700000D02*
X172720000Y-104810000D01*
X174050000Y-72330000D02*
X171390000Y-72330000D01*
X174050000Y-74930000D02*
X174050000Y-72330000D01*
X171390000Y-74930000D02*
X171390000Y-72330000D01*
X174050000Y-74930000D02*
X171390000Y-74930000D01*
X174050000Y-76200000D02*
X174050000Y-77530000D01*
X174050000Y-77530000D02*
X172720000Y-77530000D01*
X163300000Y-76780000D02*
X166900000Y-76780000D01*
X162775816Y-76052795D02*
G75*
G03X163300000Y-76780000I2324184J1122795D01*
G01*
X162743600Y-73831193D02*
G75*
G02X165100000Y-72330000I2356400J-1098807D01*
G01*
X167456400Y-73831193D02*
G75*
G03X165100000Y-72330000I-2356400J-1098807D01*
G01*
X167424184Y-76052795D02*
G75*
G02X166900000Y-76780000I-2324184J1122795D01*
G01*
X135680000Y-110280000D02*
X128560000Y-110280000D01*
X135680000Y-108160000D02*
X128560000Y-108160000D01*
X135680000Y-110280000D02*
X135680000Y-108160000D01*
X128560000Y-110280000D02*
X128560000Y-108160000D01*
X168700000Y-77680000D02*
X168700000Y-84800000D01*
X166580000Y-77680000D02*
X166580000Y-84800000D01*
X168700000Y-77680000D02*
X166580000Y-77680000D01*
X168700000Y-84800000D02*
X166580000Y-84800000D01*
X164040000Y-98000000D02*
X171160000Y-98000000D01*
X164040000Y-100120000D02*
X171160000Y-100120000D01*
X164040000Y-98000000D02*
X164040000Y-100120000D01*
X171160000Y-98000000D02*
X171160000Y-100120000D01*
X174200000Y-105620000D02*
X181320000Y-105620000D01*
X174200000Y-107740000D02*
X181320000Y-107740000D01*
X174200000Y-105620000D02*
X174200000Y-107740000D01*
X181320000Y-105620000D02*
X181320000Y-107740000D01*
X136100000Y-85300000D02*
X143220000Y-85300000D01*
X136100000Y-87420000D02*
X143220000Y-87420000D01*
X136100000Y-85300000D02*
X136100000Y-87420000D01*
X143220000Y-85300000D02*
X143220000Y-87420000D01*
X143570000Y-103870000D02*
G75*
G02X143570000Y-101870000I0J1000000D01*
G01*
X143570000Y-101870000D02*
X143570000Y-100220000D01*
X143570000Y-100220000D02*
X133290000Y-100220000D01*
X133290000Y-100220000D02*
X133290000Y-105520000D01*
X133290000Y-105520000D02*
X143570000Y-105520000D01*
X143570000Y-105520000D02*
X143570000Y-103870000D01*
X165370000Y-110550000D02*
G75*
G02X167370000Y-110550000I1000000J0D01*
G01*
X167370000Y-110550000D02*
X169020000Y-110550000D01*
X169020000Y-110550000D02*
X169020000Y-100270000D01*
X169020000Y-100270000D02*
X163720000Y-100270000D01*
X163720000Y-100270000D02*
X163720000Y-110550000D01*
X163720000Y-110550000D02*
X165370000Y-110550000D01*
X131020000Y-105200000D02*
X131020000Y-98080000D01*
X133140000Y-105200000D02*
X133140000Y-98080000D01*
X131020000Y-105200000D02*
X133140000Y-105200000D01*
X131020000Y-98080000D02*
X133140000Y-98080000D01*
X161500000Y-110700000D02*
X168620000Y-110700000D01*
X161500000Y-112820000D02*
X168620000Y-112820000D01*
X161500000Y-110700000D02*
X161500000Y-112820000D01*
X168620000Y-110700000D02*
X168620000Y-112820000D01*
X141390000Y-119380000D02*
G75*
G03X141390000Y-119380000I-5500000J0D01*
G01*
X176950000Y-119380000D02*
G75*
G03X176950000Y-119380000I-5500000J0D01*
G01*
D14*
X144760000Y-55500000D02*
X142260000Y-55500000D01*
X132260000Y-55500000D02*
X129760000Y-55500000D01*
X136260000Y-52500000D02*
X129760000Y-52500000D01*
X144760000Y-52500000D02*
X138260000Y-52500000D01*
X135260000Y-50000000D02*
X132560000Y-50000000D01*
X135260000Y-51500000D02*
X132560000Y-51500000D01*
X141960000Y-50000000D02*
X139260000Y-50000000D01*
X141960000Y-51500000D02*
X139260000Y-51500000D01*
X142960000Y-48200000D02*
X131560000Y-48200000D01*
X129760000Y-55500000D02*
X129760000Y-48200000D01*
X144760000Y-55500000D02*
X144760000Y-48200000D01*
X137510000Y-55500000D02*
X141760000Y-55500000D01*
X137010000Y-55500000D02*
X132760000Y-55500000D01*
X137510000Y-57000000D02*
X137010000Y-57000000D01*
X137010000Y-57000000D02*
X137010000Y-55500000D01*
X137510000Y-55500000D02*
X137510000Y-57000000D01*
X142260000Y-57000000D02*
X142260000Y-55500000D01*
X142260000Y-57000000D02*
X141760000Y-57000000D01*
X141760000Y-57000000D02*
X141760000Y-55500000D01*
X132760000Y-55500000D02*
X132760000Y-57000000D01*
X132760000Y-57000000D02*
X132260000Y-57000000D01*
X132260000Y-57000000D02*
X132260000Y-55500000D01*
X133760000Y-48200000D02*
X133760000Y-48700000D01*
X133760000Y-48700000D02*
X140760000Y-48700000D01*
X140760000Y-48700000D02*
X140760000Y-48200000D01*
X141960000Y-50000000D02*
X141960000Y-51500000D01*
X139260000Y-51500000D02*
X139260000Y-50000000D01*
X132560000Y-51500000D02*
X132560000Y-50000000D01*
X135260000Y-50000000D02*
X135260000Y-51500000D01*
X136260000Y-52500000D02*
X136260000Y-51500000D01*
X138260000Y-52500000D02*
X138260000Y-51500000D01*
X137260000Y-50500000D02*
G75*
G03X136260000Y-51500000I0J-1000000D01*
G01*
X138260000Y-51500000D02*
G75*
G03X137260000Y-50500000I-1000000J0D01*
G01*
D15*
X130850000Y-111760000D02*
G75*
G03X130850000Y-111760000I-1310000J0D01*
G01*
X130850000Y-111760000D02*
X130980000Y-111760000D01*
X138470000Y-111760000D02*
G75*
G03X138470000Y-111760000I-1310000J0D01*
G01*
X138470000Y-111760000D02*
X138600000Y-111760000D01*
X138470000Y-109220000D02*
G75*
G03X138470000Y-109220000I-1310000J0D01*
G01*
X138470000Y-109220000D02*
X138600000Y-109220000D01*
X146090000Y-104140000D02*
G75*
G03X146090000Y-104140000I-1310000J0D01*
G01*
X146090000Y-104140000D02*
X146220000Y-104140000D01*
X151170000Y-109220000D02*
G75*
G03X151170000Y-109220000I-1310000J0D01*
G01*
X148550000Y-109220000D02*
X148420000Y-109220000D01*
X156170000Y-109890000D02*
X158790000Y-109890000D01*
X158790000Y-109890000D02*
X158790000Y-103470000D01*
X158790000Y-103470000D02*
X156170000Y-103470000D01*
X156170000Y-103470000D02*
X156170000Y-109890000D01*
X157480000Y-110780000D02*
X157480000Y-109890000D01*
X157480000Y-102580000D02*
X157480000Y-103470000D01*
X153630000Y-109890000D02*
X156250000Y-109890000D01*
X156250000Y-109890000D02*
X156250000Y-103470000D01*
X156250000Y-103470000D02*
X153630000Y-103470000D01*
X153630000Y-103470000D02*
X153630000Y-109890000D01*
X154940000Y-110780000D02*
X154940000Y-109890000D01*
X154940000Y-102580000D02*
X154940000Y-103470000D01*
X154270000Y-97750000D02*
X154270000Y-100370000D01*
X154270000Y-100370000D02*
X160690000Y-100370000D01*
X160690000Y-100370000D02*
X160690000Y-97750000D01*
X160690000Y-97750000D02*
X154270000Y-97750000D01*
X153380000Y-99060000D02*
X154270000Y-99060000D01*
X161580000Y-99060000D02*
X160690000Y-99060000D01*
X125280000Y-91439538D02*
G75*
G03X130830000Y-92984830I2990000J-462D01*
G01*
X125280000Y-91440462D02*
G75*
G02X130830000Y-89895170I2990000J462D01*
G01*
X130770000Y-91440000D02*
G75*
G03X130770000Y-91440000I-2500000J0D01*
G01*
X130830000Y-92985000D02*
X130830000Y-89895000D01*
X125280000Y-83819538D02*
G75*
G03X130830000Y-85364830I2990000J-462D01*
G01*
X125280000Y-83820462D02*
G75*
G02X130830000Y-82275170I2990000J462D01*
G01*
X130770000Y-83820000D02*
G75*
G03X130770000Y-83820000I-2500000J0D01*
G01*
X130830000Y-85365000D02*
X130830000Y-82275000D01*
X133390000Y-96520000D02*
G75*
G03X133390000Y-96520000I-1310000J0D01*
G01*
X130770000Y-96520000D02*
X130640000Y-96520000D01*
X141010000Y-96520000D02*
G75*
G03X141010000Y-96520000I-1310000J0D01*
G01*
X138390000Y-96520000D02*
X138260000Y-96520000D01*
X179110000Y-104140000D02*
G75*
G03X179110000Y-104140000I-1310000J0D01*
G01*
X176490000Y-104140000D02*
X176360000Y-104140000D01*
X158710000Y-109890000D02*
X161330000Y-109890000D01*
X161330000Y-109890000D02*
X161330000Y-103470000D01*
X161330000Y-103470000D02*
X158710000Y-103470000D01*
X158710000Y-103470000D02*
X158710000Y-109890000D01*
X160020000Y-110780000D02*
X160020000Y-109890000D01*
X160020000Y-102580000D02*
X160020000Y-103470000D01*
X142910000Y-80050000D02*
X142910000Y-77430000D01*
X142910000Y-77430000D02*
X136490000Y-77430000D01*
X136490000Y-77430000D02*
X136490000Y-80050000D01*
X136490000Y-80050000D02*
X142910000Y-80050000D01*
X143800000Y-78740000D02*
X142910000Y-78740000D01*
X135600000Y-78740000D02*
X136490000Y-78740000D01*
X165580000Y-53420000D02*
X165580000Y-48120000D01*
X165580000Y-48120000D02*
X174780000Y-48120000D01*
X168280000Y-59320000D02*
X165580000Y-59320000D01*
X165580000Y-59320000D02*
X165580000Y-57420000D01*
X174780000Y-48120000D02*
X174780000Y-59320000D01*
X174780000Y-59320000D02*
X172180000Y-59320000D01*
X176533629Y-111760000D02*
X173820000Y-111760000D01*
X175793333Y-112560000D02*
X175793333Y-110960000D01*
X175793333Y-111760000D02*
X174726667Y-112560000D01*
X174726667Y-112560000D02*
X174726667Y-110960000D01*
X174726667Y-110960000D02*
X175793333Y-111760000D01*
X173986371Y-111760000D02*
G75*
G03X173986371Y-111760000I-1266371J0D01*
G01*
X174590000Y-107910000D02*
X174590000Y-110530000D01*
X174590000Y-110530000D02*
X181010000Y-110530000D01*
X181010000Y-110530000D02*
X181010000Y-107910000D01*
X181010000Y-107910000D02*
X174590000Y-107910000D01*
X173700000Y-109220000D02*
X174590000Y-109220000D01*
X181900000Y-109220000D02*
X181010000Y-109220000D01*
X175005722Y-62320277D02*
G75*
G03X170394420Y-62320000I-2305722J-1179723D01*
G01*
X175005722Y-64679723D02*
G75*
G02X170394420Y-64680000I-2305722J1179723D01*
G01*
X175005722Y-64679723D02*
G75*
G03X175005580Y-62320000I-2305722J1179723D01*
G01*
X172700000Y-60950000D02*
X172700000Y-66050000D01*
X172740000Y-60950000D02*
X172740000Y-66050000D01*
X172780000Y-60951000D02*
X172780000Y-66049000D01*
X172820000Y-60952000D02*
X172820000Y-66048000D01*
X172860000Y-60954000D02*
X172860000Y-66046000D01*
X172900000Y-60957000D02*
X172900000Y-66043000D01*
X172940000Y-60961000D02*
X172940000Y-66039000D01*
X172980000Y-60965000D02*
X172980000Y-62520000D01*
X172980000Y-64480000D02*
X172980000Y-66035000D01*
X173020000Y-60969000D02*
X173020000Y-62520000D01*
X173020000Y-64480000D02*
X173020000Y-66031000D01*
X173060000Y-60975000D02*
X173060000Y-62520000D01*
X173060000Y-64480000D02*
X173060000Y-66025000D01*
X173100000Y-60981000D02*
X173100000Y-62520000D01*
X173100000Y-64480000D02*
X173100000Y-66019000D01*
X173140000Y-60987000D02*
X173140000Y-62520000D01*
X173140000Y-64480000D02*
X173140000Y-66013000D01*
X173180000Y-60994000D02*
X173180000Y-62520000D01*
X173180000Y-64480000D02*
X173180000Y-66006000D01*
X173220000Y-61002000D02*
X173220000Y-62520000D01*
X173220000Y-64480000D02*
X173220000Y-65998000D01*
X173260000Y-61011000D02*
X173260000Y-62520000D01*
X173260000Y-64480000D02*
X173260000Y-65989000D01*
X173300000Y-61020000D02*
X173300000Y-62520000D01*
X173300000Y-64480000D02*
X173300000Y-65980000D01*
X173340000Y-61030000D02*
X173340000Y-62520000D01*
X173340000Y-64480000D02*
X173340000Y-65970000D01*
X173380000Y-61040000D02*
X173380000Y-62520000D01*
X173380000Y-64480000D02*
X173380000Y-65960000D01*
X173421000Y-61052000D02*
X173421000Y-62520000D01*
X173421000Y-64480000D02*
X173421000Y-65948000D01*
X173461000Y-61064000D02*
X173461000Y-62520000D01*
X173461000Y-64480000D02*
X173461000Y-65936000D01*
X173501000Y-61076000D02*
X173501000Y-62520000D01*
X173501000Y-64480000D02*
X173501000Y-65924000D01*
X173541000Y-61090000D02*
X173541000Y-62520000D01*
X173541000Y-64480000D02*
X173541000Y-65910000D01*
X173581000Y-61104000D02*
X173581000Y-62520000D01*
X173581000Y-64480000D02*
X173581000Y-65896000D01*
X173621000Y-61118000D02*
X173621000Y-62520000D01*
X173621000Y-64480000D02*
X173621000Y-65882000D01*
X173661000Y-61134000D02*
X173661000Y-62520000D01*
X173661000Y-64480000D02*
X173661000Y-65866000D01*
X173701000Y-61150000D02*
X173701000Y-62520000D01*
X173701000Y-64480000D02*
X173701000Y-65850000D01*
X173741000Y-61167000D02*
X173741000Y-62520000D01*
X173741000Y-64480000D02*
X173741000Y-65833000D01*
X173781000Y-61185000D02*
X173781000Y-62520000D01*
X173781000Y-64480000D02*
X173781000Y-65815000D01*
X173821000Y-61204000D02*
X173821000Y-62520000D01*
X173821000Y-64480000D02*
X173821000Y-65796000D01*
X173861000Y-61224000D02*
X173861000Y-62520000D01*
X173861000Y-64480000D02*
X173861000Y-65776000D01*
X173901000Y-61244000D02*
X173901000Y-62520000D01*
X173901000Y-64480000D02*
X173901000Y-65756000D01*
X173941000Y-61266000D02*
X173941000Y-62520000D01*
X173941000Y-64480000D02*
X173941000Y-65734000D01*
X173981000Y-61288000D02*
X173981000Y-62520000D01*
X173981000Y-64480000D02*
X173981000Y-65712000D01*
X174021000Y-61311000D02*
X174021000Y-62520000D01*
X174021000Y-64480000D02*
X174021000Y-65689000D01*
X174061000Y-61335000D02*
X174061000Y-62520000D01*
X174061000Y-64480000D02*
X174061000Y-65665000D01*
X174101000Y-61360000D02*
X174101000Y-62520000D01*
X174101000Y-64480000D02*
X174101000Y-65640000D01*
X174141000Y-61387000D02*
X174141000Y-62520000D01*
X174141000Y-64480000D02*
X174141000Y-65613000D01*
X174181000Y-61414000D02*
X174181000Y-62520000D01*
X174181000Y-64480000D02*
X174181000Y-65586000D01*
X174221000Y-61442000D02*
X174221000Y-62520000D01*
X174221000Y-64480000D02*
X174221000Y-65558000D01*
X174261000Y-61472000D02*
X174261000Y-62520000D01*
X174261000Y-64480000D02*
X174261000Y-65528000D01*
X174301000Y-61503000D02*
X174301000Y-62520000D01*
X174301000Y-64480000D02*
X174301000Y-65497000D01*
X174341000Y-61535000D02*
X174341000Y-62520000D01*
X174341000Y-64480000D02*
X174341000Y-65465000D01*
X174381000Y-61568000D02*
X174381000Y-62520000D01*
X174381000Y-64480000D02*
X174381000Y-65432000D01*
X174421000Y-61603000D02*
X174421000Y-62520000D01*
X174421000Y-64480000D02*
X174421000Y-65397000D01*
X174461000Y-61639000D02*
X174461000Y-62520000D01*
X174461000Y-64480000D02*
X174461000Y-65361000D01*
X174501000Y-61677000D02*
X174501000Y-62520000D01*
X174501000Y-64480000D02*
X174501000Y-65323000D01*
X174541000Y-61717000D02*
X174541000Y-62520000D01*
X174541000Y-64480000D02*
X174541000Y-65283000D01*
X174581000Y-61758000D02*
X174581000Y-62520000D01*
X174581000Y-64480000D02*
X174581000Y-65242000D01*
X174621000Y-61801000D02*
X174621000Y-62520000D01*
X174621000Y-64480000D02*
X174621000Y-65199000D01*
X174661000Y-61846000D02*
X174661000Y-62520000D01*
X174661000Y-64480000D02*
X174661000Y-65154000D01*
X174701000Y-61894000D02*
X174701000Y-62520000D01*
X174701000Y-64480000D02*
X174701000Y-65106000D01*
X174741000Y-61944000D02*
X174741000Y-62520000D01*
X174741000Y-64480000D02*
X174741000Y-65056000D01*
X174781000Y-61996000D02*
X174781000Y-62520000D01*
X174781000Y-64480000D02*
X174781000Y-65004000D01*
X174821000Y-62052000D02*
X174821000Y-62520000D01*
X174821000Y-64480000D02*
X174821000Y-64948000D01*
X174861000Y-62110000D02*
X174861000Y-62520000D01*
X174861000Y-64480000D02*
X174861000Y-64890000D01*
X174901000Y-62173000D02*
X174901000Y-62520000D01*
X174901000Y-64480000D02*
X174901000Y-64827000D01*
X174941000Y-62239000D02*
X174941000Y-64761000D01*
X174981000Y-62311000D02*
X174981000Y-64689000D01*
X175021000Y-62388000D02*
X175021000Y-64612000D01*
X175061000Y-62472000D02*
X175061000Y-64528000D01*
X175101000Y-62566000D02*
X175101000Y-64434000D01*
X175141000Y-62671000D02*
X175141000Y-64329000D01*
X175181000Y-62793000D02*
X175181000Y-64207000D01*
X175221000Y-62941000D02*
X175221000Y-64059000D01*
X175261000Y-63146000D02*
X175261000Y-63854000D01*
X169250000Y-63500000D02*
X170450000Y-63500000D01*
X169850000Y-62850000D02*
X169850000Y-64150000D01*
X163300000Y-65350000D02*
X166900000Y-65350000D01*
X162775816Y-64622795D02*
G75*
G03X163300000Y-65350000I2324184J1122795D01*
G01*
X162743600Y-62401193D02*
G75*
G02X165100000Y-60900000I2356400J-1098807D01*
G01*
X167456400Y-62401193D02*
G75*
G03X165100000Y-60900000I-2356400J-1098807D01*
G01*
X167424184Y-64622795D02*
G75*
G02X166900000Y-65350000I-2324184J1122795D01*
G01*
X140370000Y-85130000D02*
X140370000Y-82510000D01*
X140370000Y-82510000D02*
X133950000Y-82510000D01*
X133950000Y-82510000D02*
X133950000Y-85130000D01*
X133950000Y-85130000D02*
X140370000Y-85130000D01*
X141260000Y-83820000D02*
X140370000Y-83820000D01*
X133060000Y-83820000D02*
X133950000Y-83820000D01*
X145930000Y-121910000D02*
X145930000Y-121780000D01*
X145930000Y-121780000D02*
X151250000Y-121780000D01*
X151250000Y-121780000D02*
X151250000Y-121910000D01*
X145930000Y-124470000D02*
X145930000Y-124600000D01*
X145930000Y-124600000D02*
X151250000Y-124600000D01*
X151250000Y-124600000D02*
X151250000Y-124470000D01*
X146770000Y-121780000D02*
X146770000Y-124600000D01*
X156090000Y-121910000D02*
X156090000Y-121780000D01*
X156090000Y-121780000D02*
X161410000Y-121780000D01*
X161410000Y-121780000D02*
X161410000Y-121910000D01*
X156090000Y-124470000D02*
X156090000Y-124600000D01*
X156090000Y-124600000D02*
X161410000Y-124600000D01*
X161410000Y-124600000D02*
X161410000Y-124470000D01*
X156930000Y-121780000D02*
X156930000Y-124600000D01*
X166310000Y-95310000D02*
X168970000Y-95310000D01*
X166310000Y-92710000D02*
X166310000Y-95310000D01*
X168970000Y-92710000D02*
X168970000Y-95310000D01*
X166310000Y-92710000D02*
X168970000Y-92710000D01*
X166310000Y-91440000D02*
X166310000Y-90110000D01*
X166310000Y-90110000D02*
X167640000Y-90110000D01*
D14*
X149947159Y-67861580D02*
X150665580Y-67143159D01*
X150036962Y-67951382D02*
X150755382Y-67232962D01*
X150036962Y-67951382D02*
X149857356Y-67771777D01*
X150755382Y-67232962D02*
X150575777Y-67053356D01*
X150575777Y-68130987D02*
X150755382Y-67592172D01*
X150755382Y-68310592D02*
X150934987Y-67771777D01*
X150934987Y-68490197D02*
X151114592Y-67951382D01*
X151114592Y-68669803D02*
X151294197Y-68130987D01*
X149857356Y-67232962D02*
X150036962Y-67232962D01*
X150036962Y-67232962D02*
X150036962Y-67053356D01*
X149857356Y-67232961D02*
G75*
G03X149857356Y-67771777I269408J-269408D01*
G01*
X150575777Y-67053357D02*
G75*
G03X150036962Y-67053356I-269408J-269407D01*
G01*
X151563605Y-68400395D02*
X150575777Y-67412567D01*
X151204395Y-68759605D02*
X150216567Y-67771777D01*
X151833013Y-69029013D02*
X151204395Y-68759605D01*
X151833013Y-69029013D02*
X151563605Y-68400395D01*
X144041905Y-122372381D02*
X144041905Y-121372381D01*
X144422858Y-121372381D01*
X144518096Y-121420000D01*
X144565715Y-121467619D01*
X144613334Y-121562857D01*
X144613334Y-121705714D01*
X144565715Y-121800952D01*
X144518096Y-121848571D01*
X144422858Y-121896190D01*
X144041905Y-121896190D01*
X144994286Y-121467619D02*
X145041905Y-121420000D01*
X145137143Y-121372381D01*
X145375239Y-121372381D01*
X145470477Y-121420000D01*
X145518096Y-121467619D01*
X145565715Y-121562857D01*
X145565715Y-121658095D01*
X145518096Y-121800952D01*
X144946667Y-122372381D01*
X145565715Y-122372381D01*
X149693334Y-106624381D02*
X149360000Y-106148190D01*
X149121905Y-106624381D02*
X149121905Y-105624381D01*
X149502858Y-105624381D01*
X149598096Y-105672000D01*
X149645715Y-105719619D01*
X149693334Y-105814857D01*
X149693334Y-105957714D01*
X149645715Y-106052952D01*
X149598096Y-106100571D01*
X149502858Y-106148190D01*
X149121905Y-106148190D01*
X150550477Y-105624381D02*
X150360000Y-105624381D01*
X150264762Y-105672000D01*
X150217143Y-105719619D01*
X150121905Y-105862476D01*
X150074286Y-106052952D01*
X150074286Y-106433905D01*
X150121905Y-106529143D01*
X150169524Y-106576762D01*
X150264762Y-106624381D01*
X150455239Y-106624381D01*
X150550477Y-106576762D01*
X150598096Y-106529143D01*
X150645715Y-106433905D01*
X150645715Y-106195810D01*
X150598096Y-106100571D01*
X150550477Y-106052952D01*
X150455239Y-106005333D01*
X150264762Y-106005333D01*
X150169524Y-106052952D01*
X150121905Y-106100571D01*
X150074286Y-106195810D01*
X147224762Y-102782619D02*
X147129524Y-102735000D01*
X147034286Y-102639762D01*
X146891429Y-102496905D01*
X146796190Y-102449286D01*
X146700952Y-102449286D01*
X146748571Y-102687381D02*
X146653333Y-102639762D01*
X146558095Y-102544524D01*
X146510476Y-102354048D01*
X146510476Y-102020714D01*
X146558095Y-101830238D01*
X146653333Y-101735000D01*
X146748571Y-101687381D01*
X146939048Y-101687381D01*
X147034286Y-101735000D01*
X147129524Y-101830238D01*
X147177143Y-102020714D01*
X147177143Y-102354048D01*
X147129524Y-102544524D01*
X147034286Y-102639762D01*
X146939048Y-102687381D01*
X146748571Y-102687381D01*
X148129524Y-102687381D02*
X147558095Y-102687381D01*
X147843809Y-102687381D02*
X147843809Y-101687381D01*
X147748571Y-101830238D01*
X147653333Y-101925476D01*
X147558095Y-101973095D01*
X180967143Y-84907381D02*
X180633809Y-84431190D01*
X180395714Y-84907381D02*
X180395714Y-83907381D01*
X180776667Y-83907381D01*
X180871905Y-83955000D01*
X180919524Y-84002619D01*
X180967143Y-84097857D01*
X180967143Y-84240714D01*
X180919524Y-84335952D01*
X180871905Y-84383571D01*
X180776667Y-84431190D01*
X180395714Y-84431190D01*
X181348095Y-84002619D02*
X181395714Y-83955000D01*
X181490952Y-83907381D01*
X181729048Y-83907381D01*
X181824286Y-83955000D01*
X181871905Y-84002619D01*
X181919524Y-84097857D01*
X181919524Y-84193095D01*
X181871905Y-84335952D01*
X181300476Y-84907381D01*
X181919524Y-84907381D01*
X182300476Y-84002619D02*
X182348095Y-83955000D01*
X182443333Y-83907381D01*
X182681429Y-83907381D01*
X182776667Y-83955000D01*
X182824286Y-84002619D01*
X182871905Y-84097857D01*
X182871905Y-84193095D01*
X182824286Y-84335952D01*
X182252857Y-84907381D01*
X182871905Y-84907381D01*
X142144762Y-112307619D02*
X142049524Y-112260000D01*
X141954286Y-112164762D01*
X141811429Y-112021905D01*
X141716190Y-111974286D01*
X141620952Y-111974286D01*
X141668571Y-112212381D02*
X141573333Y-112164762D01*
X141478095Y-112069524D01*
X141430476Y-111879048D01*
X141430476Y-111545714D01*
X141478095Y-111355238D01*
X141573333Y-111260000D01*
X141668571Y-111212381D01*
X141859048Y-111212381D01*
X141954286Y-111260000D01*
X142049524Y-111355238D01*
X142097143Y-111545714D01*
X142097143Y-111879048D01*
X142049524Y-112069524D01*
X141954286Y-112164762D01*
X141859048Y-112212381D01*
X141668571Y-112212381D01*
X142478095Y-111307619D02*
X142525714Y-111260000D01*
X142620952Y-111212381D01*
X142859048Y-111212381D01*
X142954286Y-111260000D01*
X143001905Y-111307619D01*
X143049524Y-111402857D01*
X143049524Y-111498095D01*
X143001905Y-111640952D01*
X142430476Y-112212381D01*
X143049524Y-112212381D01*
X131548143Y-91606666D02*
X131595762Y-91654285D01*
X131643381Y-91797142D01*
X131643381Y-91892380D01*
X131595762Y-92035238D01*
X131500524Y-92130476D01*
X131405286Y-92178095D01*
X131214810Y-92225714D01*
X131071952Y-92225714D01*
X130881476Y-92178095D01*
X130786238Y-92130476D01*
X130691000Y-92035238D01*
X130643381Y-91892380D01*
X130643381Y-91797142D01*
X130691000Y-91654285D01*
X130738619Y-91606666D01*
X130643381Y-90701904D02*
X130643381Y-91178095D01*
X131119571Y-91225714D01*
X131071952Y-91178095D01*
X131024333Y-91082857D01*
X131024333Y-90844761D01*
X131071952Y-90749523D01*
X131119571Y-90701904D01*
X131214810Y-90654285D01*
X131452905Y-90654285D01*
X131548143Y-90701904D01*
X131595762Y-90749523D01*
X131643381Y-90844761D01*
X131643381Y-91082857D01*
X131595762Y-91178095D01*
X131548143Y-91225714D01*
X137263143Y-91606666D02*
X137310762Y-91654285D01*
X137358381Y-91797142D01*
X137358381Y-91892380D01*
X137310762Y-92035238D01*
X137215524Y-92130476D01*
X137120286Y-92178095D01*
X136929810Y-92225714D01*
X136786952Y-92225714D01*
X136596476Y-92178095D01*
X136501238Y-92130476D01*
X136406000Y-92035238D01*
X136358381Y-91892380D01*
X136358381Y-91797142D01*
X136406000Y-91654285D01*
X136453619Y-91606666D01*
X136358381Y-90749523D02*
X136358381Y-90940000D01*
X136406000Y-91035238D01*
X136453619Y-91082857D01*
X136596476Y-91178095D01*
X136786952Y-91225714D01*
X137167905Y-91225714D01*
X137263143Y-91178095D01*
X137310762Y-91130476D01*
X137358381Y-91035238D01*
X137358381Y-90844761D01*
X137310762Y-90749523D01*
X137263143Y-90701904D01*
X137167905Y-90654285D01*
X136929810Y-90654285D01*
X136834571Y-90701904D01*
X136786952Y-90749523D01*
X136739333Y-90844761D01*
X136739333Y-91035238D01*
X136786952Y-91130476D01*
X136834571Y-91178095D01*
X136929810Y-91225714D01*
X135612143Y-73826666D02*
X135659762Y-73874285D01*
X135707381Y-74017142D01*
X135707381Y-74112380D01*
X135659762Y-74255238D01*
X135564524Y-74350476D01*
X135469286Y-74398095D01*
X135278810Y-74445714D01*
X135135952Y-74445714D01*
X134945476Y-74398095D01*
X134850238Y-74350476D01*
X134755000Y-74255238D01*
X134707381Y-74112380D01*
X134707381Y-74017142D01*
X134755000Y-73874285D01*
X134802619Y-73826666D01*
X135135952Y-73255238D02*
X135088333Y-73350476D01*
X135040714Y-73398095D01*
X134945476Y-73445714D01*
X134897857Y-73445714D01*
X134802619Y-73398095D01*
X134755000Y-73350476D01*
X134707381Y-73255238D01*
X134707381Y-73064761D01*
X134755000Y-72969523D01*
X134802619Y-72921904D01*
X134897857Y-72874285D01*
X134945476Y-72874285D01*
X135040714Y-72921904D01*
X135088333Y-72969523D01*
X135135952Y-73064761D01*
X135135952Y-73255238D01*
X135183571Y-73350476D01*
X135231190Y-73398095D01*
X135326429Y-73445714D01*
X135516905Y-73445714D01*
X135612143Y-73398095D01*
X135659762Y-73350476D01*
X135707381Y-73255238D01*
X135707381Y-73064761D01*
X135659762Y-72969523D01*
X135612143Y-72921904D01*
X135516905Y-72874285D01*
X135326429Y-72874285D01*
X135231190Y-72921904D01*
X135183571Y-72969523D01*
X135135952Y-73064761D01*
X158583334Y-60682143D02*
X158535715Y-60729762D01*
X158392858Y-60777381D01*
X158297620Y-60777381D01*
X158154762Y-60729762D01*
X158059524Y-60634524D01*
X158011905Y-60539286D01*
X157964286Y-60348810D01*
X157964286Y-60205952D01*
X158011905Y-60015476D01*
X158059524Y-59920238D01*
X158154762Y-59825000D01*
X158297620Y-59777381D01*
X158392858Y-59777381D01*
X158535715Y-59825000D01*
X158583334Y-59872619D01*
X159059524Y-60777381D02*
X159250000Y-60777381D01*
X159345239Y-60729762D01*
X159392858Y-60682143D01*
X159488096Y-60539286D01*
X159535715Y-60348810D01*
X159535715Y-59967857D01*
X159488096Y-59872619D01*
X159440477Y-59825000D01*
X159345239Y-59777381D01*
X159154762Y-59777381D01*
X159059524Y-59825000D01*
X159011905Y-59872619D01*
X158964286Y-59967857D01*
X158964286Y-60205952D01*
X159011905Y-60301190D01*
X159059524Y-60348810D01*
X159154762Y-60396429D01*
X159345239Y-60396429D01*
X159440477Y-60348810D01*
X159488096Y-60301190D01*
X159535715Y-60205952D01*
X145031905Y-65857381D02*
X145031905Y-64857381D01*
X145270000Y-64857381D01*
X145412858Y-64905000D01*
X145508096Y-65000238D01*
X145555715Y-65095476D01*
X145603334Y-65285952D01*
X145603334Y-65428810D01*
X145555715Y-65619286D01*
X145508096Y-65714524D01*
X145412858Y-65809762D01*
X145270000Y-65857381D01*
X145031905Y-65857381D01*
X146460477Y-65190714D02*
X146460477Y-65857381D01*
X146222381Y-64809762D02*
X145984286Y-65524048D01*
X146603334Y-65524048D01*
X127531905Y-66238381D02*
X127531905Y-65238381D01*
X127912858Y-65238381D01*
X128008096Y-65286000D01*
X128055715Y-65333619D01*
X128103334Y-65428857D01*
X128103334Y-65571714D01*
X128055715Y-65666952D01*
X128008096Y-65714571D01*
X127912858Y-65762190D01*
X127531905Y-65762190D01*
X128960477Y-65571714D02*
X128960477Y-66238381D01*
X128722381Y-65190762D02*
X128484286Y-65905048D01*
X129103334Y-65905048D01*
X142692381Y-118911666D02*
X142216190Y-119245000D01*
X142692381Y-119483095D02*
X141692381Y-119483095D01*
X141692381Y-119102142D01*
X141740000Y-119006904D01*
X141787619Y-118959285D01*
X141882857Y-118911666D01*
X142025714Y-118911666D01*
X142120952Y-118959285D01*
X142168571Y-119006904D01*
X142216190Y-119102142D01*
X142216190Y-119483095D01*
X141692381Y-118578333D02*
X141692381Y-117911666D01*
X142692381Y-118340238D01*
X165552381Y-118911666D02*
X165076190Y-119245000D01*
X165552381Y-119483095D02*
X164552381Y-119483095D01*
X164552381Y-119102142D01*
X164600000Y-119006904D01*
X164647619Y-118959285D01*
X164742857Y-118911666D01*
X164885714Y-118911666D01*
X164980952Y-118959285D01*
X165028571Y-119006904D01*
X165076190Y-119102142D01*
X165076190Y-119483095D01*
X164980952Y-118340238D02*
X164933333Y-118435476D01*
X164885714Y-118483095D01*
X164790476Y-118530714D01*
X164742857Y-118530714D01*
X164647619Y-118483095D01*
X164600000Y-118435476D01*
X164552381Y-118340238D01*
X164552381Y-118149761D01*
X164600000Y-118054523D01*
X164647619Y-118006904D01*
X164742857Y-117959285D01*
X164790476Y-117959285D01*
X164885714Y-118006904D01*
X164933333Y-118054523D01*
X164980952Y-118149761D01*
X164980952Y-118340238D01*
X165028571Y-118435476D01*
X165076190Y-118483095D01*
X165171429Y-118530714D01*
X165361905Y-118530714D01*
X165457143Y-118483095D01*
X165504762Y-118435476D01*
X165552381Y-118340238D01*
X165552381Y-118149761D01*
X165504762Y-118054523D01*
X165457143Y-118006904D01*
X165361905Y-117959285D01*
X165171429Y-117959285D01*
X165076190Y-118006904D01*
X165028571Y-118054523D01*
X164980952Y-118149761D01*
X146677143Y-112720381D02*
X146343809Y-112244190D01*
X146105714Y-112720381D02*
X146105714Y-111720381D01*
X146486667Y-111720381D01*
X146581905Y-111768000D01*
X146629524Y-111815619D01*
X146677143Y-111910857D01*
X146677143Y-112053714D01*
X146629524Y-112148952D01*
X146581905Y-112196571D01*
X146486667Y-112244190D01*
X146105714Y-112244190D01*
X147629524Y-112720381D02*
X147058095Y-112720381D01*
X147343809Y-112720381D02*
X147343809Y-111720381D01*
X147248571Y-111863238D01*
X147153333Y-111958476D01*
X147058095Y-112006095D01*
X148581905Y-112720381D02*
X148010476Y-112720381D01*
X148296190Y-112720381D02*
X148296190Y-111720381D01*
X148200952Y-111863238D01*
X148105714Y-111958476D01*
X148010476Y-112006095D01*
X167330381Y-114942857D02*
X166854190Y-115276191D01*
X167330381Y-115514286D02*
X166330381Y-115514286D01*
X166330381Y-115133333D01*
X166378000Y-115038095D01*
X166425619Y-114990476D01*
X166520857Y-114942857D01*
X166663714Y-114942857D01*
X166758952Y-114990476D01*
X166806571Y-115038095D01*
X166854190Y-115133333D01*
X166854190Y-115514286D01*
X167330381Y-113990476D02*
X167330381Y-114561905D01*
X167330381Y-114276191D02*
X166330381Y-114276191D01*
X166473238Y-114371429D01*
X166568476Y-114466667D01*
X166616095Y-114561905D01*
X166425619Y-113609524D02*
X166378000Y-113561905D01*
X166330381Y-113466667D01*
X166330381Y-113228571D01*
X166378000Y-113133333D01*
X166425619Y-113085714D01*
X166520857Y-113038095D01*
X166616095Y-113038095D01*
X166758952Y-113085714D01*
X167330381Y-113657143D01*
X167330381Y-113038095D01*
X163012381Y-79382857D02*
X162536190Y-79716191D01*
X163012381Y-79954286D02*
X162012381Y-79954286D01*
X162012381Y-79573333D01*
X162060000Y-79478095D01*
X162107619Y-79430476D01*
X162202857Y-79382857D01*
X162345714Y-79382857D01*
X162440952Y-79430476D01*
X162488571Y-79478095D01*
X162536190Y-79573333D01*
X162536190Y-79954286D01*
X163012381Y-78430476D02*
X163012381Y-79001905D01*
X163012381Y-78716191D02*
X162012381Y-78716191D01*
X162155238Y-78811429D01*
X162250476Y-78906667D01*
X162298095Y-79001905D01*
X162012381Y-78097143D02*
X162012381Y-77430476D01*
X163012381Y-77859048D01*
X175331381Y-100083857D02*
X174855190Y-100417191D01*
X175331381Y-100655286D02*
X174331381Y-100655286D01*
X174331381Y-100274333D01*
X174379000Y-100179095D01*
X174426619Y-100131476D01*
X174521857Y-100083857D01*
X174664714Y-100083857D01*
X174759952Y-100131476D01*
X174807571Y-100179095D01*
X174855190Y-100274333D01*
X174855190Y-100655286D01*
X174426619Y-99702905D02*
X174379000Y-99655286D01*
X174331381Y-99560048D01*
X174331381Y-99321952D01*
X174379000Y-99226714D01*
X174426619Y-99179095D01*
X174521857Y-99131476D01*
X174617095Y-99131476D01*
X174759952Y-99179095D01*
X175331381Y-99750524D01*
X175331381Y-99131476D01*
X175331381Y-98179095D02*
X175331381Y-98750524D01*
X175331381Y-98464810D02*
X174331381Y-98464810D01*
X174474238Y-98560048D01*
X174569476Y-98655286D01*
X174617095Y-98750524D01*
X170886381Y-75668095D02*
X169886381Y-75668095D01*
X169886381Y-75287142D01*
X169934000Y-75191904D01*
X169981619Y-75144285D01*
X170076857Y-75096666D01*
X170219714Y-75096666D01*
X170314952Y-75144285D01*
X170362571Y-75191904D01*
X170410190Y-75287142D01*
X170410190Y-75668095D01*
X169886381Y-74191904D02*
X169886381Y-74668095D01*
X170362571Y-74715714D01*
X170314952Y-74668095D01*
X170267333Y-74572857D01*
X170267333Y-74334761D01*
X170314952Y-74239523D01*
X170362571Y-74191904D01*
X170457810Y-74144285D01*
X170695905Y-74144285D01*
X170791143Y-74191904D01*
X170838762Y-74239523D01*
X170886381Y-74334761D01*
X170886381Y-74572857D01*
X170838762Y-74668095D01*
X170791143Y-74715714D01*
X165004762Y-71667619D02*
X164909524Y-71620000D01*
X164814286Y-71524762D01*
X164671429Y-71381905D01*
X164576190Y-71334286D01*
X164480952Y-71334286D01*
X164528571Y-71572381D02*
X164433333Y-71524762D01*
X164338095Y-71429524D01*
X164290476Y-71239048D01*
X164290476Y-70905714D01*
X164338095Y-70715238D01*
X164433333Y-70620000D01*
X164528571Y-70572381D01*
X164719048Y-70572381D01*
X164814286Y-70620000D01*
X164909524Y-70715238D01*
X164957143Y-70905714D01*
X164957143Y-71239048D01*
X164909524Y-71429524D01*
X164814286Y-71524762D01*
X164719048Y-71572381D01*
X164528571Y-71572381D01*
X165290476Y-70572381D02*
X165909524Y-70572381D01*
X165576190Y-70953333D01*
X165719048Y-70953333D01*
X165814286Y-71000952D01*
X165861905Y-71048571D01*
X165909524Y-71143810D01*
X165909524Y-71381905D01*
X165861905Y-71477143D01*
X165814286Y-71524762D01*
X165719048Y-71572381D01*
X165433333Y-71572381D01*
X165338095Y-71524762D01*
X165290476Y-71477143D01*
X131913334Y-107672143D02*
X131865715Y-107719762D01*
X131722858Y-107767381D01*
X131627620Y-107767381D01*
X131484762Y-107719762D01*
X131389524Y-107624524D01*
X131341905Y-107529286D01*
X131294286Y-107338810D01*
X131294286Y-107195952D01*
X131341905Y-107005476D01*
X131389524Y-106910238D01*
X131484762Y-106815000D01*
X131627620Y-106767381D01*
X131722858Y-106767381D01*
X131865715Y-106815000D01*
X131913334Y-106862619D01*
X132865715Y-107767381D02*
X132294286Y-107767381D01*
X132580000Y-107767381D02*
X132580000Y-106767381D01*
X132484762Y-106910238D01*
X132389524Y-107005476D01*
X132294286Y-107053095D01*
X167473334Y-86209143D02*
X167425715Y-86256762D01*
X167282858Y-86304381D01*
X167187620Y-86304381D01*
X167044762Y-86256762D01*
X166949524Y-86161524D01*
X166901905Y-86066286D01*
X166854286Y-85875810D01*
X166854286Y-85732952D01*
X166901905Y-85542476D01*
X166949524Y-85447238D01*
X167044762Y-85352000D01*
X167187620Y-85304381D01*
X167282858Y-85304381D01*
X167425715Y-85352000D01*
X167473334Y-85399619D01*
X167854286Y-85399619D02*
X167901905Y-85352000D01*
X167997143Y-85304381D01*
X168235239Y-85304381D01*
X168330477Y-85352000D01*
X168378096Y-85399619D01*
X168425715Y-85494857D01*
X168425715Y-85590095D01*
X168378096Y-85732952D01*
X167806667Y-86304381D01*
X168425715Y-86304381D01*
X167473334Y-97512143D02*
X167425715Y-97559762D01*
X167282858Y-97607381D01*
X167187620Y-97607381D01*
X167044762Y-97559762D01*
X166949524Y-97464524D01*
X166901905Y-97369286D01*
X166854286Y-97178810D01*
X166854286Y-97035952D01*
X166901905Y-96845476D01*
X166949524Y-96750238D01*
X167044762Y-96655000D01*
X167187620Y-96607381D01*
X167282858Y-96607381D01*
X167425715Y-96655000D01*
X167473334Y-96702619D01*
X167806667Y-96607381D02*
X168425715Y-96607381D01*
X168092381Y-96988333D01*
X168235239Y-96988333D01*
X168330477Y-97035952D01*
X168378096Y-97083571D01*
X168425715Y-97178810D01*
X168425715Y-97416905D01*
X168378096Y-97512143D01*
X168330477Y-97559762D01*
X168235239Y-97607381D01*
X167949524Y-97607381D01*
X167854286Y-97559762D01*
X167806667Y-97512143D01*
X182602143Y-106846666D02*
X182649762Y-106894285D01*
X182697381Y-107037142D01*
X182697381Y-107132380D01*
X182649762Y-107275238D01*
X182554524Y-107370476D01*
X182459286Y-107418095D01*
X182268810Y-107465714D01*
X182125952Y-107465714D01*
X181935476Y-107418095D01*
X181840238Y-107370476D01*
X181745000Y-107275238D01*
X181697381Y-107132380D01*
X181697381Y-107037142D01*
X181745000Y-106894285D01*
X181792619Y-106846666D01*
X182030714Y-105989523D02*
X182697381Y-105989523D01*
X181649762Y-106227619D02*
X182364048Y-106465714D01*
X182364048Y-105846666D01*
X135612143Y-86526666D02*
X135659762Y-86574285D01*
X135707381Y-86717142D01*
X135707381Y-86812380D01*
X135659762Y-86955238D01*
X135564524Y-87050476D01*
X135469286Y-87098095D01*
X135278810Y-87145714D01*
X135135952Y-87145714D01*
X134945476Y-87098095D01*
X134850238Y-87050476D01*
X134755000Y-86955238D01*
X134707381Y-86812380D01*
X134707381Y-86717142D01*
X134755000Y-86574285D01*
X134802619Y-86526666D01*
X134707381Y-86193333D02*
X134707381Y-85526666D01*
X135707381Y-85955238D01*
X141478095Y-96607381D02*
X141478095Y-97416905D01*
X141525714Y-97512143D01*
X141573333Y-97559762D01*
X141668571Y-97607381D01*
X141859048Y-97607381D01*
X141954286Y-97559762D01*
X142001905Y-97512143D01*
X142049524Y-97416905D01*
X142049524Y-96607381D01*
X143049524Y-97607381D02*
X142478095Y-97607381D01*
X142763809Y-97607381D02*
X142763809Y-96607381D01*
X142668571Y-96750238D01*
X142573333Y-96845476D01*
X142478095Y-96893095D01*
X169632381Y-112521905D02*
X170441905Y-112521905D01*
X170537143Y-112474286D01*
X170584762Y-112426667D01*
X170632381Y-112331429D01*
X170632381Y-112140952D01*
X170584762Y-112045714D01*
X170537143Y-111998095D01*
X170441905Y-111950476D01*
X169632381Y-111950476D01*
X169727619Y-111521905D02*
X169680000Y-111474286D01*
X169632381Y-111379048D01*
X169632381Y-111140952D01*
X169680000Y-111045714D01*
X169727619Y-110998095D01*
X169822857Y-110950476D01*
X169918095Y-110950476D01*
X170060952Y-110998095D01*
X170632381Y-111569524D01*
X170632381Y-110950476D01*
X130532143Y-102242857D02*
X130579762Y-102290476D01*
X130627381Y-102433333D01*
X130627381Y-102528571D01*
X130579762Y-102671429D01*
X130484524Y-102766667D01*
X130389286Y-102814286D01*
X130198810Y-102861905D01*
X130055952Y-102861905D01*
X129865476Y-102814286D01*
X129770238Y-102766667D01*
X129675000Y-102671429D01*
X129627381Y-102528571D01*
X129627381Y-102433333D01*
X129675000Y-102290476D01*
X129722619Y-102242857D01*
X130627381Y-101290476D02*
X130627381Y-101861905D01*
X130627381Y-101576191D02*
X129627381Y-101576191D01*
X129770238Y-101671429D01*
X129865476Y-101766667D01*
X129913095Y-101861905D01*
X129627381Y-100671429D02*
X129627381Y-100576190D01*
X129675000Y-100480952D01*
X129722619Y-100433333D01*
X129817857Y-100385714D01*
X130008333Y-100338095D01*
X130246429Y-100338095D01*
X130436905Y-100385714D01*
X130532143Y-100433333D01*
X130579762Y-100480952D01*
X130627381Y-100576190D01*
X130627381Y-100671429D01*
X130579762Y-100766667D01*
X130532143Y-100814286D01*
X130436905Y-100861905D01*
X130246429Y-100909524D01*
X130008333Y-100909524D01*
X129817857Y-100861905D01*
X129722619Y-100814286D01*
X129675000Y-100766667D01*
X129627381Y-100671429D01*
X168267143Y-114022143D02*
X168219524Y-114069762D01*
X168076667Y-114117381D01*
X167981429Y-114117381D01*
X167838571Y-114069762D01*
X167743333Y-113974524D01*
X167695714Y-113879286D01*
X167648095Y-113688810D01*
X167648095Y-113545952D01*
X167695714Y-113355476D01*
X167743333Y-113260238D01*
X167838571Y-113165000D01*
X167981429Y-113117381D01*
X168076667Y-113117381D01*
X168219524Y-113165000D01*
X168267143Y-113212619D01*
X169219524Y-114117381D02*
X168648095Y-114117381D01*
X168933809Y-114117381D02*
X168933809Y-113117381D01*
X168838571Y-113260238D01*
X168743333Y-113355476D01*
X168648095Y-113403095D01*
X170171905Y-114117381D02*
X169600476Y-114117381D01*
X169886190Y-114117381D02*
X169886190Y-113117381D01*
X169790952Y-113260238D01*
X169695714Y-113355476D01*
X169600476Y-113403095D01*
X128801905Y-117292381D02*
X128801905Y-116292381D01*
X129182858Y-116292381D01*
X129278096Y-116340000D01*
X129325715Y-116387619D01*
X129373334Y-116482857D01*
X129373334Y-116625714D01*
X129325715Y-116720952D01*
X129278096Y-116768571D01*
X129182858Y-116816190D01*
X128801905Y-116816190D01*
X130325715Y-117292381D02*
X129754286Y-117292381D01*
X130040000Y-117292381D02*
X130040000Y-116292381D01*
X129944762Y-116435238D01*
X129849524Y-116530476D01*
X129754286Y-116578095D01*
X177686905Y-120012381D02*
X177686905Y-119012381D01*
X178067858Y-119012381D01*
X178163096Y-119060000D01*
X178210715Y-119107619D01*
X178258334Y-119202857D01*
X178258334Y-119345714D01*
X178210715Y-119440952D01*
X178163096Y-119488571D01*
X178067858Y-119536190D01*
X177686905Y-119536190D01*
X178591667Y-119012381D02*
X179210715Y-119012381D01*
X178877381Y-119393333D01*
X179020239Y-119393333D01*
X179115477Y-119440952D01*
X179163096Y-119488571D01*
X179210715Y-119583810D01*
X179210715Y-119821905D01*
X179163096Y-119917143D01*
X179115477Y-119964762D01*
X179020239Y-120012381D01*
X178734524Y-120012381D01*
X178639286Y-119964762D01*
X178591667Y-119917143D01*
X129309762Y-51498333D02*
X129357381Y-51355476D01*
X129357381Y-51117380D01*
X129309762Y-51022142D01*
X129262143Y-50974523D01*
X129166905Y-50926904D01*
X129071667Y-50926904D01*
X128976429Y-50974523D01*
X128928810Y-51022142D01*
X128881190Y-51117380D01*
X128833571Y-51307857D01*
X128785952Y-51403095D01*
X128738333Y-51450714D01*
X128643095Y-51498333D01*
X128547857Y-51498333D01*
X128452619Y-51450714D01*
X128405000Y-51403095D01*
X128357381Y-51307857D01*
X128357381Y-51069761D01*
X128405000Y-50926904D01*
X128357381Y-50593571D02*
X129357381Y-50355476D01*
X128643095Y-50164999D01*
X129357381Y-49974523D01*
X128357381Y-49736428D01*
X129357381Y-48831666D02*
X129357381Y-49403095D01*
X129357381Y-49117381D02*
X128357381Y-49117381D01*
X128500238Y-49212619D01*
X128595476Y-49307857D01*
X128643095Y-49403095D01*
X127960381Y-111926666D02*
X127484190Y-112260000D01*
X127960381Y-112498095D02*
X126960381Y-112498095D01*
X126960381Y-112117142D01*
X127008000Y-112021904D01*
X127055619Y-111974285D01*
X127150857Y-111926666D01*
X127293714Y-111926666D01*
X127388952Y-111974285D01*
X127436571Y-112021904D01*
X127484190Y-112117142D01*
X127484190Y-112498095D01*
X127960381Y-110974285D02*
X127960381Y-111545714D01*
X127960381Y-111260000D02*
X126960381Y-111260000D01*
X127103238Y-111355238D01*
X127198476Y-111450476D01*
X127246095Y-111545714D01*
X135580381Y-111926666D02*
X135104190Y-112260000D01*
X135580381Y-112498095D02*
X134580381Y-112498095D01*
X134580381Y-112117142D01*
X134628000Y-112021904D01*
X134675619Y-111974285D01*
X134770857Y-111926666D01*
X134913714Y-111926666D01*
X135008952Y-111974285D01*
X135056571Y-112021904D01*
X135104190Y-112117142D01*
X135104190Y-112498095D01*
X134675619Y-111545714D02*
X134628000Y-111498095D01*
X134580381Y-111402857D01*
X134580381Y-111164761D01*
X134628000Y-111069523D01*
X134675619Y-111021904D01*
X134770857Y-110974285D01*
X134866095Y-110974285D01*
X135008952Y-111021904D01*
X135580381Y-111593333D01*
X135580381Y-110974285D01*
X141803381Y-109386666D02*
X141327190Y-109720000D01*
X141803381Y-109958095D02*
X140803381Y-109958095D01*
X140803381Y-109577142D01*
X140851000Y-109481904D01*
X140898619Y-109434285D01*
X140993857Y-109386666D01*
X141136714Y-109386666D01*
X141231952Y-109434285D01*
X141279571Y-109481904D01*
X141327190Y-109577142D01*
X141327190Y-109958095D01*
X140803381Y-109053333D02*
X140803381Y-108434285D01*
X141184333Y-108767619D01*
X141184333Y-108624761D01*
X141231952Y-108529523D01*
X141279571Y-108481904D01*
X141374810Y-108434285D01*
X141612905Y-108434285D01*
X141708143Y-108481904D01*
X141755762Y-108529523D01*
X141803381Y-108624761D01*
X141803381Y-108910476D01*
X141755762Y-109005714D01*
X141708143Y-109053333D01*
X144613334Y-102687381D02*
X144280000Y-102211190D01*
X144041905Y-102687381D02*
X144041905Y-101687381D01*
X144422858Y-101687381D01*
X144518096Y-101735000D01*
X144565715Y-101782619D01*
X144613334Y-101877857D01*
X144613334Y-102020714D01*
X144565715Y-102115952D01*
X144518096Y-102163571D01*
X144422858Y-102211190D01*
X144041905Y-102211190D01*
X145470477Y-102020714D02*
X145470477Y-102687381D01*
X145232381Y-101639762D02*
X144994286Y-102354048D01*
X145613334Y-102354048D01*
X148296334Y-107640381D02*
X147963000Y-107164190D01*
X147724905Y-107640381D02*
X147724905Y-106640381D01*
X148105858Y-106640381D01*
X148201096Y-106688000D01*
X148248715Y-106735619D01*
X148296334Y-106830857D01*
X148296334Y-106973714D01*
X148248715Y-107068952D01*
X148201096Y-107116571D01*
X148105858Y-107164190D01*
X147724905Y-107164190D01*
X149201096Y-106640381D02*
X148724905Y-106640381D01*
X148677286Y-107116571D01*
X148724905Y-107068952D01*
X148820143Y-107021333D01*
X149058239Y-107021333D01*
X149153477Y-107068952D01*
X149201096Y-107116571D01*
X149248715Y-107211810D01*
X149248715Y-107449905D01*
X149201096Y-107545143D01*
X149153477Y-107592762D01*
X149058239Y-107640381D01*
X148820143Y-107640381D01*
X148724905Y-107592762D01*
X148677286Y-107545143D01*
X152852381Y-103512857D02*
X152376190Y-103846191D01*
X152852381Y-104084286D02*
X151852381Y-104084286D01*
X151852381Y-103703333D01*
X151900000Y-103608095D01*
X151947619Y-103560476D01*
X152042857Y-103512857D01*
X152185714Y-103512857D01*
X152280952Y-103560476D01*
X152328571Y-103608095D01*
X152376190Y-103703333D01*
X152376190Y-104084286D01*
X152852381Y-102560476D02*
X152852381Y-103131905D01*
X152852381Y-102846191D02*
X151852381Y-102846191D01*
X151995238Y-102941429D01*
X152090476Y-103036667D01*
X152138095Y-103131905D01*
X151852381Y-102227143D02*
X151852381Y-101608095D01*
X152233333Y-101941429D01*
X152233333Y-101798571D01*
X152280952Y-101703333D01*
X152328571Y-101655714D01*
X152423810Y-101608095D01*
X152661905Y-101608095D01*
X152757143Y-101655714D01*
X152804762Y-101703333D01*
X152852381Y-101798571D01*
X152852381Y-102084286D01*
X152804762Y-102179524D01*
X152757143Y-102227143D01*
X152852381Y-107322857D02*
X152376190Y-107656191D01*
X152852381Y-107894286D02*
X151852381Y-107894286D01*
X151852381Y-107513333D01*
X151900000Y-107418095D01*
X151947619Y-107370476D01*
X152042857Y-107322857D01*
X152185714Y-107322857D01*
X152280952Y-107370476D01*
X152328571Y-107418095D01*
X152376190Y-107513333D01*
X152376190Y-107894286D01*
X152852381Y-106370476D02*
X152852381Y-106941905D01*
X152852381Y-106656191D02*
X151852381Y-106656191D01*
X151995238Y-106751429D01*
X152090476Y-106846667D01*
X152138095Y-106941905D01*
X152185714Y-105513333D02*
X152852381Y-105513333D01*
X151804762Y-105751429D02*
X152519048Y-105989524D01*
X152519048Y-105370476D01*
X156837143Y-97607381D02*
X156503809Y-97131190D01*
X156265714Y-97607381D02*
X156265714Y-96607381D01*
X156646667Y-96607381D01*
X156741905Y-96655000D01*
X156789524Y-96702619D01*
X156837143Y-96797857D01*
X156837143Y-96940714D01*
X156789524Y-97035952D01*
X156741905Y-97083571D01*
X156646667Y-97131190D01*
X156265714Y-97131190D01*
X157789524Y-97607381D02*
X157218095Y-97607381D01*
X157503809Y-97607381D02*
X157503809Y-96607381D01*
X157408571Y-96750238D01*
X157313333Y-96845476D01*
X157218095Y-96893095D01*
X158646667Y-96607381D02*
X158456190Y-96607381D01*
X158360952Y-96655000D01*
X158313333Y-96702619D01*
X158218095Y-96845476D01*
X158170476Y-97035952D01*
X158170476Y-97416905D01*
X158218095Y-97512143D01*
X158265714Y-97559762D01*
X158360952Y-97607381D01*
X158551429Y-97607381D01*
X158646667Y-97559762D01*
X158694286Y-97512143D01*
X158741905Y-97416905D01*
X158741905Y-97178810D01*
X158694286Y-97083571D01*
X158646667Y-97035952D01*
X158551429Y-96988333D01*
X158360952Y-96988333D01*
X158265714Y-97035952D01*
X158218095Y-97083571D01*
X158170476Y-97178810D01*
X127531905Y-88082381D02*
X127531905Y-87082381D01*
X127770000Y-87082381D01*
X127912858Y-87130000D01*
X128008096Y-87225238D01*
X128055715Y-87320476D01*
X128103334Y-87510952D01*
X128103334Y-87653810D01*
X128055715Y-87844286D01*
X128008096Y-87939524D01*
X127912858Y-88034762D01*
X127770000Y-88082381D01*
X127531905Y-88082381D01*
X128436667Y-87082381D02*
X129055715Y-87082381D01*
X128722381Y-87463333D01*
X128865239Y-87463333D01*
X128960477Y-87510952D01*
X129008096Y-87558571D01*
X129055715Y-87653810D01*
X129055715Y-87891905D01*
X129008096Y-87987143D01*
X128960477Y-88034762D01*
X128865239Y-88082381D01*
X128579524Y-88082381D01*
X128484286Y-88034762D01*
X128436667Y-87987143D01*
X127531905Y-80462381D02*
X127531905Y-79462381D01*
X127770000Y-79462381D01*
X127912858Y-79510000D01*
X128008096Y-79605238D01*
X128055715Y-79700476D01*
X128103334Y-79890952D01*
X128103334Y-80033810D01*
X128055715Y-80224286D01*
X128008096Y-80319524D01*
X127912858Y-80414762D01*
X127770000Y-80462381D01*
X127531905Y-80462381D01*
X128960477Y-79462381D02*
X128770000Y-79462381D01*
X128674762Y-79510000D01*
X128627143Y-79557619D01*
X128531905Y-79700476D01*
X128484286Y-79890952D01*
X128484286Y-80271905D01*
X128531905Y-80367143D01*
X128579524Y-80414762D01*
X128674762Y-80462381D01*
X128865239Y-80462381D01*
X128960477Y-80414762D01*
X129008096Y-80367143D01*
X129055715Y-80271905D01*
X129055715Y-80033810D01*
X129008096Y-79938571D01*
X128960477Y-79890952D01*
X128865239Y-79843333D01*
X128674762Y-79843333D01*
X128579524Y-79890952D01*
X128531905Y-79938571D01*
X128484286Y-80033810D01*
X130643334Y-95067381D02*
X130310000Y-94591190D01*
X130071905Y-95067381D02*
X130071905Y-94067381D01*
X130452858Y-94067381D01*
X130548096Y-94115000D01*
X130595715Y-94162619D01*
X130643334Y-94257857D01*
X130643334Y-94400714D01*
X130595715Y-94495952D01*
X130548096Y-94543571D01*
X130452858Y-94591190D01*
X130071905Y-94591190D01*
X131119524Y-95067381D02*
X131310000Y-95067381D01*
X131405239Y-95019762D01*
X131452858Y-94972143D01*
X131548096Y-94829286D01*
X131595715Y-94638810D01*
X131595715Y-94257857D01*
X131548096Y-94162619D01*
X131500477Y-94115000D01*
X131405239Y-94067381D01*
X131214762Y-94067381D01*
X131119524Y-94115000D01*
X131071905Y-94162619D01*
X131024286Y-94257857D01*
X131024286Y-94495952D01*
X131071905Y-94591190D01*
X131119524Y-94638810D01*
X131214762Y-94686429D01*
X131405239Y-94686429D01*
X131500477Y-94638810D01*
X131548096Y-94591190D01*
X131595715Y-94495952D01*
X137787143Y-98877381D02*
X137453809Y-98401190D01*
X137215714Y-98877381D02*
X137215714Y-97877381D01*
X137596667Y-97877381D01*
X137691905Y-97925000D01*
X137739524Y-97972619D01*
X137787143Y-98067857D01*
X137787143Y-98210714D01*
X137739524Y-98305952D01*
X137691905Y-98353571D01*
X137596667Y-98401190D01*
X137215714Y-98401190D01*
X138739524Y-98877381D02*
X138168095Y-98877381D01*
X138453809Y-98877381D02*
X138453809Y-97877381D01*
X138358571Y-98020238D01*
X138263333Y-98115476D01*
X138168095Y-98163095D01*
X139358571Y-97877381D02*
X139453810Y-97877381D01*
X139549048Y-97925000D01*
X139596667Y-97972619D01*
X139644286Y-98067857D01*
X139691905Y-98258333D01*
X139691905Y-98496429D01*
X139644286Y-98686905D01*
X139596667Y-98782143D01*
X139549048Y-98829762D01*
X139453810Y-98877381D01*
X139358571Y-98877381D01*
X139263333Y-98829762D01*
X139215714Y-98782143D01*
X139168095Y-98686905D01*
X139120476Y-98496429D01*
X139120476Y-98258333D01*
X139168095Y-98067857D01*
X139215714Y-97972619D01*
X139263333Y-97925000D01*
X139358571Y-97877381D01*
X175125143Y-102814381D02*
X174791809Y-102338190D01*
X174553714Y-102814381D02*
X174553714Y-101814381D01*
X174934667Y-101814381D01*
X175029905Y-101862000D01*
X175077524Y-101909619D01*
X175125143Y-102004857D01*
X175125143Y-102147714D01*
X175077524Y-102242952D01*
X175029905Y-102290571D01*
X174934667Y-102338190D01*
X174553714Y-102338190D01*
X176077524Y-102814381D02*
X175506095Y-102814381D01*
X175791809Y-102814381D02*
X175791809Y-101814381D01*
X175696571Y-101957238D01*
X175601333Y-102052476D01*
X175506095Y-102100095D01*
X176553714Y-102814381D02*
X176744190Y-102814381D01*
X176839429Y-102766762D01*
X176887048Y-102719143D01*
X176982286Y-102576286D01*
X177029905Y-102385810D01*
X177029905Y-102004857D01*
X176982286Y-101909619D01*
X176934667Y-101862000D01*
X176839429Y-101814381D01*
X176648952Y-101814381D01*
X176553714Y-101862000D01*
X176506095Y-101909619D01*
X176458476Y-102004857D01*
X176458476Y-102242952D01*
X176506095Y-102338190D01*
X176553714Y-102385810D01*
X176648952Y-102433429D01*
X176839429Y-102433429D01*
X176934667Y-102385810D01*
X176982286Y-102338190D01*
X177029905Y-102242952D01*
X152852381Y-111132857D02*
X152376190Y-111466191D01*
X152852381Y-111704286D02*
X151852381Y-111704286D01*
X151852381Y-111323333D01*
X151900000Y-111228095D01*
X151947619Y-111180476D01*
X152042857Y-111132857D01*
X152185714Y-111132857D01*
X152280952Y-111180476D01*
X152328571Y-111228095D01*
X152376190Y-111323333D01*
X152376190Y-111704286D01*
X152852381Y-110180476D02*
X152852381Y-110751905D01*
X152852381Y-110466191D02*
X151852381Y-110466191D01*
X151995238Y-110561429D01*
X152090476Y-110656667D01*
X152138095Y-110751905D01*
X151852381Y-109275714D02*
X151852381Y-109751905D01*
X152328571Y-109799524D01*
X152280952Y-109751905D01*
X152233333Y-109656667D01*
X152233333Y-109418571D01*
X152280952Y-109323333D01*
X152328571Y-109275714D01*
X152423810Y-109228095D01*
X152661905Y-109228095D01*
X152757143Y-109275714D01*
X152804762Y-109323333D01*
X152852381Y-109418571D01*
X152852381Y-109656667D01*
X152804762Y-109751905D01*
X152757143Y-109799524D01*
X133167381Y-79382857D02*
X132691190Y-79716191D01*
X133167381Y-79954286D02*
X132167381Y-79954286D01*
X132167381Y-79573333D01*
X132215000Y-79478095D01*
X132262619Y-79430476D01*
X132357857Y-79382857D01*
X132500714Y-79382857D01*
X132595952Y-79430476D01*
X132643571Y-79478095D01*
X132691190Y-79573333D01*
X132691190Y-79954286D01*
X133167381Y-78430476D02*
X133167381Y-79001905D01*
X133167381Y-78716191D02*
X132167381Y-78716191D01*
X132310238Y-78811429D01*
X132405476Y-78906667D01*
X132453095Y-79001905D01*
X132595952Y-77859048D02*
X132548333Y-77954286D01*
X132500714Y-78001905D01*
X132405476Y-78049524D01*
X132357857Y-78049524D01*
X132262619Y-78001905D01*
X132215000Y-77954286D01*
X132167381Y-77859048D01*
X132167381Y-77668571D01*
X132215000Y-77573333D01*
X132262619Y-77525714D01*
X132357857Y-77478095D01*
X132405476Y-77478095D01*
X132500714Y-77525714D01*
X132548333Y-77573333D01*
X132595952Y-77668571D01*
X132595952Y-77859048D01*
X132643571Y-77954286D01*
X132691190Y-78001905D01*
X132786429Y-78049524D01*
X132976905Y-78049524D01*
X133072143Y-78001905D01*
X133119762Y-77954286D01*
X133167381Y-77859048D01*
X133167381Y-77668571D01*
X133119762Y-77573333D01*
X133072143Y-77525714D01*
X132976905Y-77478095D01*
X132786429Y-77478095D01*
X132691190Y-77525714D01*
X132643571Y-77573333D01*
X132595952Y-77668571D01*
X164822143Y-52014285D02*
X164869762Y-52061904D01*
X164917381Y-52204761D01*
X164917381Y-52299999D01*
X164869762Y-52442857D01*
X164774524Y-52538095D01*
X164679286Y-52585714D01*
X164488810Y-52633333D01*
X164345952Y-52633333D01*
X164155476Y-52585714D01*
X164060238Y-52538095D01*
X163965000Y-52442857D01*
X163917381Y-52299999D01*
X163917381Y-52204761D01*
X163965000Y-52061904D01*
X164012619Y-52014285D01*
X163917381Y-51395238D02*
X163917381Y-51204761D01*
X163965000Y-51109523D01*
X164060238Y-51014285D01*
X164250714Y-50966666D01*
X164584048Y-50966666D01*
X164774524Y-51014285D01*
X164869762Y-51109523D01*
X164917381Y-51204761D01*
X164917381Y-51395238D01*
X164869762Y-51490476D01*
X164774524Y-51585714D01*
X164584048Y-51633333D01*
X164250714Y-51633333D01*
X164060238Y-51585714D01*
X163965000Y-51490476D01*
X163917381Y-51395238D01*
X164917381Y-50538095D02*
X163917381Y-50538095D01*
X164917381Y-49966666D01*
X163917381Y-49966666D01*
X164917381Y-48966666D02*
X164917381Y-49538095D01*
X164917381Y-49252381D02*
X163917381Y-49252381D01*
X164060238Y-49347619D01*
X164155476Y-49442857D01*
X164203095Y-49538095D01*
X180157381Y-112498095D02*
X179157381Y-112498095D01*
X179157381Y-112260000D01*
X179205000Y-112117142D01*
X179300238Y-112021904D01*
X179395476Y-111974285D01*
X179585952Y-111926666D01*
X179728810Y-111926666D01*
X179919286Y-111974285D01*
X180014524Y-112021904D01*
X180109762Y-112117142D01*
X180157381Y-112260000D01*
X180157381Y-112498095D01*
X179157381Y-111021904D02*
X179157381Y-111498095D01*
X179633571Y-111545714D01*
X179585952Y-111498095D01*
X179538333Y-111402857D01*
X179538333Y-111164761D01*
X179585952Y-111069523D01*
X179633571Y-111021904D01*
X179728810Y-110974285D01*
X179966905Y-110974285D01*
X180062143Y-111021904D01*
X180109762Y-111069523D01*
X180157381Y-111164761D01*
X180157381Y-111402857D01*
X180109762Y-111498095D01*
X180062143Y-111545714D01*
X185237381Y-109862857D02*
X184761190Y-110196191D01*
X185237381Y-110434286D02*
X184237381Y-110434286D01*
X184237381Y-110053333D01*
X184285000Y-109958095D01*
X184332619Y-109910476D01*
X184427857Y-109862857D01*
X184570714Y-109862857D01*
X184665952Y-109910476D01*
X184713571Y-109958095D01*
X184761190Y-110053333D01*
X184761190Y-110434286D01*
X184332619Y-109481905D02*
X184285000Y-109434286D01*
X184237381Y-109339048D01*
X184237381Y-109100952D01*
X184285000Y-109005714D01*
X184332619Y-108958095D01*
X184427857Y-108910476D01*
X184523095Y-108910476D01*
X184665952Y-108958095D01*
X185237381Y-109529524D01*
X185237381Y-108910476D01*
X184237381Y-108291429D02*
X184237381Y-108196190D01*
X184285000Y-108100952D01*
X184332619Y-108053333D01*
X184427857Y-108005714D01*
X184618333Y-107958095D01*
X184856429Y-107958095D01*
X185046905Y-108005714D01*
X185142143Y-108053333D01*
X185189762Y-108100952D01*
X185237381Y-108196190D01*
X185237381Y-108291429D01*
X185189762Y-108386667D01*
X185142143Y-108434286D01*
X185046905Y-108481905D01*
X184856429Y-108529524D01*
X184618333Y-108529524D01*
X184427857Y-108481905D01*
X184332619Y-108434286D01*
X184285000Y-108386667D01*
X184237381Y-108291429D01*
X176887143Y-64142857D02*
X176934762Y-64190476D01*
X176982381Y-64333333D01*
X176982381Y-64428571D01*
X176934762Y-64571429D01*
X176839524Y-64666667D01*
X176744286Y-64714286D01*
X176553810Y-64761905D01*
X176410952Y-64761905D01*
X176220476Y-64714286D01*
X176125238Y-64666667D01*
X176030000Y-64571429D01*
X175982381Y-64428571D01*
X175982381Y-64333333D01*
X176030000Y-64190476D01*
X176077619Y-64142857D01*
X176982381Y-63190476D02*
X176982381Y-63761905D01*
X176982381Y-63476191D02*
X175982381Y-63476191D01*
X176125238Y-63571429D01*
X176220476Y-63666667D01*
X176268095Y-63761905D01*
X176077619Y-62809524D02*
X176030000Y-62761905D01*
X175982381Y-62666667D01*
X175982381Y-62428571D01*
X176030000Y-62333333D01*
X176077619Y-62285714D01*
X176172857Y-62238095D01*
X176268095Y-62238095D01*
X176410952Y-62285714D01*
X176982381Y-62857143D01*
X176982381Y-62238095D01*
X164338095Y-59392381D02*
X164338095Y-60201905D01*
X164385714Y-60297143D01*
X164433333Y-60344762D01*
X164528571Y-60392381D01*
X164719048Y-60392381D01*
X164814286Y-60344762D01*
X164861905Y-60297143D01*
X164909524Y-60201905D01*
X164909524Y-59392381D01*
X165290476Y-59392381D02*
X165909524Y-59392381D01*
X165576190Y-59773333D01*
X165719048Y-59773333D01*
X165814286Y-59820952D01*
X165861905Y-59868571D01*
X165909524Y-59963810D01*
X165909524Y-60201905D01*
X165861905Y-60297143D01*
X165814286Y-60344762D01*
X165719048Y-60392381D01*
X165433333Y-60392381D01*
X165338095Y-60344762D01*
X165290476Y-60297143D01*
X136517143Y-82367381D02*
X136183809Y-81891190D01*
X135945714Y-82367381D02*
X135945714Y-81367381D01*
X136326667Y-81367381D01*
X136421905Y-81415000D01*
X136469524Y-81462619D01*
X136517143Y-81557857D01*
X136517143Y-81700714D01*
X136469524Y-81795952D01*
X136421905Y-81843571D01*
X136326667Y-81891190D01*
X135945714Y-81891190D01*
X136898095Y-81462619D02*
X136945714Y-81415000D01*
X137040952Y-81367381D01*
X137279048Y-81367381D01*
X137374286Y-81415000D01*
X137421905Y-81462619D01*
X137469524Y-81557857D01*
X137469524Y-81653095D01*
X137421905Y-81795952D01*
X136850476Y-82367381D01*
X137469524Y-82367381D01*
X137802857Y-81367381D02*
X138421905Y-81367381D01*
X138088571Y-81748333D01*
X138231429Y-81748333D01*
X138326667Y-81795952D01*
X138374286Y-81843571D01*
X138421905Y-81938810D01*
X138421905Y-82176905D01*
X138374286Y-82272143D01*
X138326667Y-82319762D01*
X138231429Y-82367381D01*
X137945714Y-82367381D01*
X137850476Y-82319762D01*
X137802857Y-82272143D01*
X147851905Y-121232381D02*
X147851905Y-120232381D01*
X148090000Y-120232381D01*
X148232858Y-120280000D01*
X148328096Y-120375238D01*
X148375715Y-120470476D01*
X148423334Y-120660952D01*
X148423334Y-120803810D01*
X148375715Y-120994286D01*
X148328096Y-121089524D01*
X148232858Y-121184762D01*
X148090000Y-121232381D01*
X147851905Y-121232381D01*
X149375715Y-121232381D02*
X148804286Y-121232381D01*
X149090000Y-121232381D02*
X149090000Y-120232381D01*
X148994762Y-120375238D01*
X148899524Y-120470476D01*
X148804286Y-120518095D01*
X158011905Y-121232381D02*
X158011905Y-120232381D01*
X158250000Y-120232381D01*
X158392858Y-120280000D01*
X158488096Y-120375238D01*
X158535715Y-120470476D01*
X158583334Y-120660952D01*
X158583334Y-120803810D01*
X158535715Y-120994286D01*
X158488096Y-121089524D01*
X158392858Y-121184762D01*
X158250000Y-121232381D01*
X158011905Y-121232381D01*
X158964286Y-120327619D02*
X159011905Y-120280000D01*
X159107143Y-120232381D01*
X159345239Y-120232381D01*
X159440477Y-120280000D01*
X159488096Y-120327619D01*
X159535715Y-120422857D01*
X159535715Y-120518095D01*
X159488096Y-120660952D01*
X158916667Y-121232381D01*
X159535715Y-121232381D01*
X166473333Y-89352381D02*
X166473333Y-88352381D01*
X166854286Y-88352381D01*
X166949524Y-88400000D01*
X166997143Y-88447619D01*
X167044762Y-88542857D01*
X167044762Y-88685714D01*
X166997143Y-88780952D01*
X166949524Y-88828571D01*
X166854286Y-88876190D01*
X166473333Y-88876190D01*
X167425714Y-89066667D02*
X167901905Y-89066667D01*
X167330476Y-89352381D02*
X167663809Y-88352381D01*
X167997143Y-89352381D01*
X168854286Y-89352381D02*
X168282857Y-89352381D01*
X168568571Y-89352381D02*
X168568571Y-88352381D01*
X168473333Y-88495238D01*
X168378095Y-88590476D01*
X168282857Y-88638095D01*
M02*
