G04 #@! TF.FileFunction,Soldermask,Bot*
%FSLAX46Y46*%
G04 Gerber Fmt 4.6, Leading zero omitted, Abs format (unit mm)*
G04 Created by KiCad (PCBNEW 4.0.7-e2-6376~61~ubuntu18.04.1) date Fri Jan 25 16:45:17 2019*
%MOMM*%
%LPD*%
G01*
G04 APERTURE LIST*
%ADD10C,0.100000*%
%ADD11C,0.200000*%
%ADD12C,0.250000*%
%ADD13C,0.150000*%
%ADD14C,0.010000*%
%ADD15C,2.200000*%
%ADD16O,4.400000X4.400000*%
%ADD17C,5.200000*%
%ADD18R,2.200000X2.200000*%
%ADD19R,2.100000X2.100000*%
%ADD20O,2.100000X2.100000*%
%ADD21C,2.000000*%
%ADD22O,2.000000X2.000000*%
%ADD23C,1.924000*%
%ADD24R,2.000000X2.000000*%
%ADD25C,1.920000*%
%ADD26R,1.920000X1.920000*%
%ADD27C,1.900000*%
%ADD28C,8.600000*%
%ADD29R,2.000000X3.250000*%
%ADD30R,3.900000X3.900000*%
%ADD31C,3.900000*%
%ADD32O,3.900000X1.900000*%
%ADD33R,2.600000X2.600000*%
%ADD34O,2.600000X2.600000*%
%ADD35C,3.600000*%
G04 APERTURE END LIST*
D10*
D11*
X180041142Y-65742357D02*
X179541142Y-65742357D01*
X179326856Y-66528071D02*
X180041142Y-66528071D01*
X180041142Y-65028071D01*
X179326856Y-65028071D01*
X178755428Y-66456643D02*
X178541142Y-66528071D01*
X178183999Y-66528071D01*
X178041142Y-66456643D01*
X177969713Y-66385214D01*
X177898285Y-66242357D01*
X177898285Y-66099500D01*
X177969713Y-65956643D01*
X178041142Y-65885214D01*
X178183999Y-65813786D01*
X178469713Y-65742357D01*
X178612571Y-65670929D01*
X178683999Y-65599500D01*
X178755428Y-65456643D01*
X178755428Y-65313786D01*
X178683999Y-65170929D01*
X178612571Y-65099500D01*
X178469713Y-65028071D01*
X178112571Y-65028071D01*
X177898285Y-65099500D01*
X176398285Y-66528071D02*
X176898285Y-65813786D01*
X177255428Y-66528071D02*
X177255428Y-65028071D01*
X176684000Y-65028071D01*
X176541142Y-65099500D01*
X176469714Y-65170929D01*
X176398285Y-65313786D01*
X176398285Y-65528071D01*
X176469714Y-65670929D01*
X176541142Y-65742357D01*
X176684000Y-65813786D01*
X177255428Y-65813786D01*
X174612571Y-66528071D02*
X174612571Y-65028071D01*
X174112571Y-66099500D01*
X173612571Y-65028071D01*
X173612571Y-66528071D01*
X172326857Y-66456643D02*
X172469714Y-66528071D01*
X172755428Y-66528071D01*
X172898285Y-66456643D01*
X172969714Y-66313786D01*
X172969714Y-65742357D01*
X172898285Y-65599500D01*
X172755428Y-65528071D01*
X172469714Y-65528071D01*
X172326857Y-65599500D01*
X172255428Y-65742357D01*
X172255428Y-65885214D01*
X172969714Y-66028071D01*
X171826857Y-65528071D02*
X171255428Y-65528071D01*
X171612571Y-65028071D02*
X171612571Y-66313786D01*
X171541143Y-66456643D01*
X171398285Y-66528071D01*
X171255428Y-66528071D01*
X170184000Y-66456643D02*
X170326857Y-66528071D01*
X170612571Y-66528071D01*
X170755428Y-66456643D01*
X170826857Y-66313786D01*
X170826857Y-65742357D01*
X170755428Y-65599500D01*
X170612571Y-65528071D01*
X170326857Y-65528071D01*
X170184000Y-65599500D01*
X170112571Y-65742357D01*
X170112571Y-65885214D01*
X170826857Y-66028071D01*
X169469714Y-66528071D02*
X169469714Y-65528071D01*
X169469714Y-65813786D02*
X169398286Y-65670929D01*
X169326857Y-65599500D01*
X169184000Y-65528071D01*
X169041143Y-65528071D01*
X166541143Y-66528071D02*
X167041143Y-65813786D01*
X167398286Y-66528071D02*
X167398286Y-65028071D01*
X166826858Y-65028071D01*
X166684000Y-65099500D01*
X166612572Y-65170929D01*
X166541143Y-65313786D01*
X166541143Y-65528071D01*
X166612572Y-65670929D01*
X166684000Y-65742357D01*
X166826858Y-65813786D01*
X167398286Y-65813786D01*
X165326858Y-66456643D02*
X165469715Y-66528071D01*
X165755429Y-66528071D01*
X165898286Y-66456643D01*
X165969715Y-66313786D01*
X165969715Y-65742357D01*
X165898286Y-65599500D01*
X165755429Y-65528071D01*
X165469715Y-65528071D01*
X165326858Y-65599500D01*
X165255429Y-65742357D01*
X165255429Y-65885214D01*
X165969715Y-66028071D01*
X164755429Y-65528071D02*
X164398286Y-66528071D01*
X164041144Y-65528071D01*
X163469715Y-66385214D02*
X163398287Y-66456643D01*
X163469715Y-66528071D01*
X163541144Y-66456643D01*
X163469715Y-66385214D01*
X163469715Y-66528071D01*
X161112572Y-65742357D02*
X160898286Y-65813786D01*
X160826858Y-65885214D01*
X160755429Y-66028071D01*
X160755429Y-66242357D01*
X160826858Y-66385214D01*
X160898286Y-66456643D01*
X161041144Y-66528071D01*
X161612572Y-66528071D01*
X161612572Y-65028071D01*
X161112572Y-65028071D01*
X160969715Y-65099500D01*
X160898286Y-65170929D01*
X160826858Y-65313786D01*
X160826858Y-65456643D01*
X160898286Y-65599500D01*
X160969715Y-65670929D01*
X161112572Y-65742357D01*
X161612572Y-65742357D01*
D12*
X179577857Y-118630000D02*
X179720714Y-118558571D01*
X179935000Y-118558571D01*
X180149285Y-118630000D01*
X180292143Y-118772857D01*
X180363571Y-118915714D01*
X180435000Y-119201429D01*
X180435000Y-119415714D01*
X180363571Y-119701429D01*
X180292143Y-119844286D01*
X180149285Y-119987143D01*
X179935000Y-120058571D01*
X179792143Y-120058571D01*
X179577857Y-119987143D01*
X179506428Y-119915714D01*
X179506428Y-119415714D01*
X179792143Y-119415714D01*
X178863571Y-120058571D02*
X178863571Y-118558571D01*
X178006428Y-120058571D01*
X178006428Y-118558571D01*
X177292142Y-120058571D02*
X177292142Y-118558571D01*
X176934999Y-118558571D01*
X176720714Y-118630000D01*
X176577856Y-118772857D01*
X176506428Y-118915714D01*
X176434999Y-119201429D01*
X176434999Y-119415714D01*
X176506428Y-119701429D01*
X176577856Y-119844286D01*
X176720714Y-119987143D01*
X176934999Y-120058571D01*
X177292142Y-120058571D01*
D10*
X153400000Y-76400000D02*
G75*
G03X143800000Y-86000000I0J-9600000D01*
G01*
X163000000Y-86000000D02*
G75*
G03X153400000Y-76400000I-9600000J0D01*
G01*
X143800000Y-96400000D02*
X143800000Y-86000000D01*
X163000000Y-96400000D02*
X163000000Y-86000000D01*
X143800000Y-96400000D02*
X163000000Y-96400000D01*
D11*
X131552143Y-67881428D02*
X131552143Y-66738571D01*
X132123571Y-67310000D02*
X130980714Y-67310000D01*
X125666428Y-67202857D02*
X124523571Y-67202857D01*
D10*
X119038933Y-97119337D02*
G75*
G02X123000000Y-48000000I357321529J-4095632D01*
G01*
D13*
X176600667Y-68398381D02*
X176600667Y-67398381D01*
X176219714Y-67398381D01*
X176124476Y-67446000D01*
X176076857Y-67493619D01*
X176029238Y-67588857D01*
X176029238Y-67731714D01*
X176076857Y-67826952D01*
X176124476Y-67874571D01*
X176219714Y-67922190D01*
X176600667Y-67922190D01*
X175029238Y-68303143D02*
X175076857Y-68350762D01*
X175219714Y-68398381D01*
X175314952Y-68398381D01*
X175457810Y-68350762D01*
X175553048Y-68255524D01*
X175600667Y-68160286D01*
X175648286Y-67969810D01*
X175648286Y-67826952D01*
X175600667Y-67636476D01*
X175553048Y-67541238D01*
X175457810Y-67446000D01*
X175314952Y-67398381D01*
X175219714Y-67398381D01*
X175076857Y-67446000D01*
X175029238Y-67493619D01*
X174267333Y-67874571D02*
X174124476Y-67922190D01*
X174076857Y-67969810D01*
X174029238Y-68065048D01*
X174029238Y-68207905D01*
X174076857Y-68303143D01*
X174124476Y-68350762D01*
X174219714Y-68398381D01*
X174600667Y-68398381D01*
X174600667Y-67398381D01*
X174267333Y-67398381D01*
X174172095Y-67446000D01*
X174124476Y-67493619D01*
X174076857Y-67588857D01*
X174076857Y-67684095D01*
X174124476Y-67779333D01*
X174172095Y-67826952D01*
X174267333Y-67874571D01*
X174600667Y-67874571D01*
X172410190Y-68398381D02*
X172410190Y-67398381D01*
X172410190Y-68350762D02*
X172505428Y-68398381D01*
X172695905Y-68398381D01*
X172791143Y-68350762D01*
X172838762Y-68303143D01*
X172886381Y-68207905D01*
X172886381Y-67922190D01*
X172838762Y-67826952D01*
X172791143Y-67779333D01*
X172695905Y-67731714D01*
X172505428Y-67731714D01*
X172410190Y-67779333D01*
X171553047Y-68350762D02*
X171648285Y-68398381D01*
X171838762Y-68398381D01*
X171934000Y-68350762D01*
X171981619Y-68255524D01*
X171981619Y-67874571D01*
X171934000Y-67779333D01*
X171838762Y-67731714D01*
X171648285Y-67731714D01*
X171553047Y-67779333D01*
X171505428Y-67874571D01*
X171505428Y-67969810D01*
X171981619Y-68065048D01*
X171124476Y-68350762D02*
X171029238Y-68398381D01*
X170838762Y-68398381D01*
X170743523Y-68350762D01*
X170695904Y-68255524D01*
X170695904Y-68207905D01*
X170743523Y-68112667D01*
X170838762Y-68065048D01*
X170981619Y-68065048D01*
X171076857Y-68017429D01*
X171124476Y-67922190D01*
X171124476Y-67874571D01*
X171076857Y-67779333D01*
X170981619Y-67731714D01*
X170838762Y-67731714D01*
X170743523Y-67779333D01*
X170267333Y-68398381D02*
X170267333Y-67731714D01*
X170267333Y-67398381D02*
X170314952Y-67446000D01*
X170267333Y-67493619D01*
X170219714Y-67446000D01*
X170267333Y-67398381D01*
X170267333Y-67493619D01*
X169362571Y-67731714D02*
X169362571Y-68541238D01*
X169410190Y-68636476D01*
X169457809Y-68684095D01*
X169553048Y-68731714D01*
X169695905Y-68731714D01*
X169791143Y-68684095D01*
X169362571Y-68350762D02*
X169457809Y-68398381D01*
X169648286Y-68398381D01*
X169743524Y-68350762D01*
X169791143Y-68303143D01*
X169838762Y-68207905D01*
X169838762Y-67922190D01*
X169791143Y-67826952D01*
X169743524Y-67779333D01*
X169648286Y-67731714D01*
X169457809Y-67731714D01*
X169362571Y-67779333D01*
X168886381Y-67731714D02*
X168886381Y-68398381D01*
X168886381Y-67826952D02*
X168838762Y-67779333D01*
X168743524Y-67731714D01*
X168600666Y-67731714D01*
X168505428Y-67779333D01*
X168457809Y-67874571D01*
X168457809Y-68398381D01*
X167600666Y-68350762D02*
X167695904Y-68398381D01*
X167886381Y-68398381D01*
X167981619Y-68350762D01*
X168029238Y-68255524D01*
X168029238Y-67874571D01*
X167981619Y-67779333D01*
X167886381Y-67731714D01*
X167695904Y-67731714D01*
X167600666Y-67779333D01*
X167553047Y-67874571D01*
X167553047Y-67969810D01*
X168029238Y-68065048D01*
X166695904Y-68398381D02*
X166695904Y-67398381D01*
X166695904Y-68350762D02*
X166791142Y-68398381D01*
X166981619Y-68398381D01*
X167076857Y-68350762D01*
X167124476Y-68303143D01*
X167172095Y-68207905D01*
X167172095Y-67922190D01*
X167124476Y-67826952D01*
X167076857Y-67779333D01*
X166981619Y-67731714D01*
X166791142Y-67731714D01*
X166695904Y-67779333D01*
X165457809Y-68398381D02*
X165457809Y-67398381D01*
X165457809Y-67779333D02*
X165362571Y-67731714D01*
X165172094Y-67731714D01*
X165076856Y-67779333D01*
X165029237Y-67826952D01*
X164981618Y-67922190D01*
X164981618Y-68207905D01*
X165029237Y-68303143D01*
X165076856Y-68350762D01*
X165172094Y-68398381D01*
X165362571Y-68398381D01*
X165457809Y-68350762D01*
X164648285Y-67731714D02*
X164410190Y-68398381D01*
X164172094Y-67731714D02*
X164410190Y-68398381D01*
X164505428Y-68636476D01*
X164553047Y-68684095D01*
X164648285Y-68731714D01*
X177886382Y-70048381D02*
X177886382Y-69048381D01*
X177648287Y-69048381D01*
X177505429Y-69096000D01*
X177410191Y-69191238D01*
X177362572Y-69286476D01*
X177314953Y-69476952D01*
X177314953Y-69619810D01*
X177362572Y-69810286D01*
X177410191Y-69905524D01*
X177505429Y-70000762D01*
X177648287Y-70048381D01*
X177886382Y-70048381D01*
X176886382Y-70048381D02*
X176886382Y-69381714D01*
X176886382Y-69476952D02*
X176838763Y-69429333D01*
X176743525Y-69381714D01*
X176600667Y-69381714D01*
X176505429Y-69429333D01*
X176457810Y-69524571D01*
X176457810Y-70048381D01*
X176457810Y-69524571D02*
X176410191Y-69429333D01*
X176314953Y-69381714D01*
X176172096Y-69381714D01*
X176076858Y-69429333D01*
X176029239Y-69524571D01*
X176029239Y-70048381D01*
X175553049Y-70048381D02*
X175553049Y-69381714D01*
X175553049Y-69048381D02*
X175600668Y-69096000D01*
X175553049Y-69143619D01*
X175505430Y-69096000D01*
X175553049Y-69048381D01*
X175553049Y-69143619D01*
X175219716Y-69381714D02*
X174838764Y-69381714D01*
X175076859Y-69048381D02*
X175076859Y-69905524D01*
X175029240Y-70000762D01*
X174934002Y-70048381D01*
X174838764Y-70048381D01*
X174505430Y-70048381D02*
X174505430Y-69381714D01*
X174505430Y-69572190D02*
X174457811Y-69476952D01*
X174410192Y-69429333D01*
X174314954Y-69381714D01*
X174219715Y-69381714D01*
X173981620Y-69381714D02*
X173743525Y-70048381D01*
X173505429Y-69381714D02*
X173743525Y-70048381D01*
X173838763Y-70286476D01*
X173886382Y-70334095D01*
X173981620Y-70381714D01*
X172362572Y-70048381D02*
X172362572Y-69048381D01*
X172029238Y-69762667D01*
X171695905Y-69048381D01*
X171695905Y-70048381D01*
X170838762Y-70000762D02*
X170934000Y-70048381D01*
X171124477Y-70048381D01*
X171219715Y-70000762D01*
X171267334Y-69905524D01*
X171267334Y-69524571D01*
X171219715Y-69429333D01*
X171124477Y-69381714D01*
X170934000Y-69381714D01*
X170838762Y-69429333D01*
X170791143Y-69524571D01*
X170791143Y-69619810D01*
X171267334Y-69715048D01*
X170219715Y-70048381D02*
X170314953Y-70000762D01*
X170362572Y-69905524D01*
X170362572Y-69048381D01*
X169838762Y-69381714D02*
X169838762Y-70048381D01*
X169838762Y-69476952D02*
X169791143Y-69429333D01*
X169695905Y-69381714D01*
X169553047Y-69381714D01*
X169457809Y-69429333D01*
X169410190Y-69524571D01*
X169410190Y-70048381D01*
X168934000Y-70048381D02*
X168934000Y-69381714D01*
X168934000Y-69048381D02*
X168981619Y-69096000D01*
X168934000Y-69143619D01*
X168886381Y-69096000D01*
X168934000Y-69048381D01*
X168934000Y-69143619D01*
X168029238Y-70000762D02*
X168124476Y-70048381D01*
X168314953Y-70048381D01*
X168410191Y-70000762D01*
X168457810Y-69953143D01*
X168505429Y-69857905D01*
X168505429Y-69572190D01*
X168457810Y-69476952D01*
X168410191Y-69429333D01*
X168314953Y-69381714D01*
X168124476Y-69381714D01*
X168029238Y-69429333D01*
X167600667Y-70048381D02*
X167600667Y-69048381D01*
X167172095Y-70048381D02*
X167172095Y-69524571D01*
X167219714Y-69429333D01*
X167314952Y-69381714D01*
X167457810Y-69381714D01*
X167553048Y-69429333D01*
X167600667Y-69476952D01*
X166267333Y-70048381D02*
X166267333Y-69524571D01*
X166314952Y-69429333D01*
X166410190Y-69381714D01*
X166600667Y-69381714D01*
X166695905Y-69429333D01*
X166267333Y-70000762D02*
X166362571Y-70048381D01*
X166600667Y-70048381D01*
X166695905Y-70000762D01*
X166743524Y-69905524D01*
X166743524Y-69810286D01*
X166695905Y-69715048D01*
X166600667Y-69667429D01*
X166362571Y-69667429D01*
X166267333Y-69619810D01*
X165791143Y-69381714D02*
X165791143Y-70048381D01*
X165791143Y-69476952D02*
X165743524Y-69429333D01*
X165648286Y-69381714D01*
X165505428Y-69381714D01*
X165410190Y-69429333D01*
X165362571Y-69524571D01*
X165362571Y-70048381D01*
X164934000Y-70000762D02*
X164838762Y-70048381D01*
X164648286Y-70048381D01*
X164553047Y-70000762D01*
X164505428Y-69905524D01*
X164505428Y-69857905D01*
X164553047Y-69762667D01*
X164648286Y-69715048D01*
X164791143Y-69715048D01*
X164886381Y-69667429D01*
X164934000Y-69572190D01*
X164934000Y-69524571D01*
X164886381Y-69429333D01*
X164791143Y-69381714D01*
X164648286Y-69381714D01*
X164553047Y-69429333D01*
X164076857Y-70048381D02*
X164076857Y-69048381D01*
X163981619Y-69667429D02*
X163695904Y-70048381D01*
X163695904Y-69381714D02*
X164076857Y-69762667D01*
X163362571Y-69381714D02*
X163124476Y-70048381D01*
X162886380Y-69381714D02*
X163124476Y-70048381D01*
X163219714Y-70286476D01*
X163267333Y-70334095D01*
X163362571Y-70381714D01*
X172267333Y-71031714D02*
X172267333Y-71698381D01*
X172505429Y-70650762D02*
X172743524Y-71365048D01*
X172124476Y-71365048D01*
X171838762Y-70698381D02*
X171172095Y-71698381D01*
X171172095Y-70698381D02*
X171838762Y-71698381D01*
X170267333Y-71698381D02*
X170838762Y-71698381D01*
X170553048Y-71698381D02*
X170553048Y-70698381D01*
X170648286Y-70841238D01*
X170743524Y-70936476D01*
X170838762Y-70984095D01*
X169838762Y-71698381D02*
X169838762Y-70698381D01*
X169505428Y-71412667D01*
X169172095Y-70698381D01*
X169172095Y-71698381D01*
X168695905Y-71698381D02*
X168695905Y-70698381D01*
X168457810Y-70698381D01*
X168314952Y-70746000D01*
X168219714Y-70841238D01*
X168172095Y-70936476D01*
X168124476Y-71126952D01*
X168124476Y-71269810D01*
X168172095Y-71460286D01*
X168219714Y-71555524D01*
X168314952Y-71650762D01*
X168457810Y-71698381D01*
X168695905Y-71698381D01*
D12*
X129682857Y-119915714D02*
X129754286Y-119987143D01*
X129968572Y-120058571D01*
X130111429Y-120058571D01*
X130325714Y-119987143D01*
X130468572Y-119844286D01*
X130540000Y-119701429D01*
X130611429Y-119415714D01*
X130611429Y-119201429D01*
X130540000Y-118915714D01*
X130468572Y-118772857D01*
X130325714Y-118630000D01*
X130111429Y-118558571D01*
X129968572Y-118558571D01*
X129754286Y-118630000D01*
X129682857Y-118701429D01*
X129182857Y-120058571D02*
X128397143Y-119058571D01*
X129182857Y-119058571D02*
X128397143Y-120058571D01*
X123319048Y-93672143D02*
X123259524Y-93493571D01*
X123259524Y-93195952D01*
X123319048Y-93076905D01*
X123378571Y-93017381D01*
X123497619Y-92957857D01*
X123616667Y-92957857D01*
X123735714Y-93017381D01*
X123795238Y-93076905D01*
X123854762Y-93195952D01*
X123914286Y-93434048D01*
X123973810Y-93553095D01*
X124033333Y-93612619D01*
X124152381Y-93672143D01*
X124271429Y-93672143D01*
X124390476Y-93612619D01*
X124450000Y-93553095D01*
X124509524Y-93434048D01*
X124509524Y-93136428D01*
X124450000Y-92957857D01*
X123259524Y-92422143D02*
X124509524Y-92422143D01*
X123259524Y-91886429D02*
X123914286Y-91886429D01*
X124033333Y-91945952D01*
X124092857Y-92065000D01*
X124092857Y-92243572D01*
X124033333Y-92362619D01*
X123973810Y-92422143D01*
X123259524Y-91112620D02*
X123319048Y-91231667D01*
X123378571Y-91291191D01*
X123497619Y-91350715D01*
X123854762Y-91350715D01*
X123973810Y-91291191D01*
X124033333Y-91231667D01*
X124092857Y-91112620D01*
X124092857Y-90934048D01*
X124033333Y-90815000D01*
X123973810Y-90755477D01*
X123854762Y-90695953D01*
X123497619Y-90695953D01*
X123378571Y-90755477D01*
X123319048Y-90815000D01*
X123259524Y-90934048D01*
X123259524Y-91112620D01*
X123259524Y-90160239D02*
X124092857Y-90160239D01*
X123854762Y-90160239D02*
X123973810Y-90100715D01*
X124033333Y-90041191D01*
X124092857Y-89922144D01*
X124092857Y-89803096D01*
X124092857Y-89565000D02*
X124092857Y-89088810D01*
X124509524Y-89386429D02*
X123438095Y-89386429D01*
X123319048Y-89326905D01*
X123259524Y-89207858D01*
X123259524Y-89088810D01*
X124509524Y-84504524D02*
X124509524Y-84266428D01*
X124450000Y-84147381D01*
X124330952Y-84028333D01*
X124092857Y-83968809D01*
X123676190Y-83968809D01*
X123438095Y-84028333D01*
X123319048Y-84147381D01*
X123259524Y-84266428D01*
X123259524Y-84504524D01*
X123319048Y-84623571D01*
X123438095Y-84742619D01*
X123676190Y-84802143D01*
X124092857Y-84802143D01*
X124330952Y-84742619D01*
X124450000Y-84623571D01*
X124509524Y-84504524D01*
X124092857Y-83433095D02*
X123259524Y-83433095D01*
X123973810Y-83433095D02*
X124033333Y-83373571D01*
X124092857Y-83254524D01*
X124092857Y-83075952D01*
X124033333Y-82956904D01*
X123914286Y-82897381D01*
X123259524Y-82897381D01*
X134451666Y-50214524D02*
X134689762Y-50214524D01*
X134808809Y-50155000D01*
X134927857Y-50035952D01*
X134987381Y-49797857D01*
X134987381Y-49381190D01*
X134927857Y-49143095D01*
X134808809Y-49024048D01*
X134689762Y-48964524D01*
X134451666Y-48964524D01*
X134332619Y-49024048D01*
X134213571Y-49143095D01*
X134154047Y-49381190D01*
X134154047Y-49797857D01*
X134213571Y-50035952D01*
X134332619Y-50155000D01*
X134451666Y-50214524D01*
X135523095Y-49797857D02*
X135523095Y-48964524D01*
X135523095Y-49678810D02*
X135582619Y-49738333D01*
X135701666Y-49797857D01*
X135880238Y-49797857D01*
X135999286Y-49738333D01*
X136058809Y-49619286D01*
X136058809Y-48964524D01*
X137546904Y-50274048D02*
X136475476Y-48666905D01*
X138201666Y-50214524D02*
X138439762Y-50214524D01*
X138558809Y-50155000D01*
X138677857Y-50035952D01*
X138737381Y-49797857D01*
X138737381Y-49381190D01*
X138677857Y-49143095D01*
X138558809Y-49024048D01*
X138439762Y-48964524D01*
X138201666Y-48964524D01*
X138082619Y-49024048D01*
X137963571Y-49143095D01*
X137904047Y-49381190D01*
X137904047Y-49797857D01*
X137963571Y-50035952D01*
X138082619Y-50155000D01*
X138201666Y-50214524D01*
X139094524Y-49797857D02*
X139570714Y-49797857D01*
X139273095Y-48964524D02*
X139273095Y-50035952D01*
X139332619Y-50155000D01*
X139451666Y-50214524D01*
X139570714Y-50214524D01*
X139808810Y-49797857D02*
X140285000Y-49797857D01*
X139987381Y-48964524D02*
X139987381Y-50035952D01*
X140046905Y-50155000D01*
X140165952Y-50214524D01*
X140285000Y-50214524D01*
X163026905Y-49619286D02*
X163443572Y-49619286D01*
X163622143Y-48964524D02*
X163026905Y-48964524D01*
X163026905Y-50214524D01*
X163622143Y-50214524D01*
X164038809Y-48964524D02*
X164693571Y-49797857D01*
X164038809Y-49797857D02*
X164693571Y-48964524D01*
X164991191Y-49797857D02*
X165467381Y-49797857D01*
X165169762Y-50214524D02*
X165169762Y-49143095D01*
X165229286Y-49024048D01*
X165348333Y-48964524D01*
X165467381Y-48964524D01*
X165884048Y-49083571D02*
X165943572Y-49024048D01*
X165884048Y-48964524D01*
X165824524Y-49024048D01*
X165884048Y-49083571D01*
X165884048Y-48964524D01*
X167431667Y-49797857D02*
X167431667Y-48547857D01*
X167431667Y-49738333D02*
X167550715Y-49797857D01*
X167788810Y-49797857D01*
X167907858Y-49738333D01*
X167967381Y-49678810D01*
X168026905Y-49559762D01*
X168026905Y-49202619D01*
X167967381Y-49083571D01*
X167907858Y-49024048D01*
X167788810Y-48964524D01*
X167550715Y-48964524D01*
X167431667Y-49024048D01*
X168741190Y-48964524D02*
X168622143Y-49024048D01*
X168562619Y-49083571D01*
X168503095Y-49202619D01*
X168503095Y-49559762D01*
X168562619Y-49678810D01*
X168622143Y-49738333D01*
X168741190Y-49797857D01*
X168919762Y-49797857D01*
X169038810Y-49738333D01*
X169098333Y-49678810D01*
X169157857Y-49559762D01*
X169157857Y-49202619D01*
X169098333Y-49083571D01*
X169038810Y-49024048D01*
X168919762Y-48964524D01*
X168741190Y-48964524D01*
X169574523Y-49797857D02*
X169812619Y-48964524D01*
X170050714Y-49559762D01*
X170288809Y-48964524D01*
X170526904Y-49797857D01*
X171479286Y-49024048D02*
X171360238Y-48964524D01*
X171122143Y-48964524D01*
X171003095Y-49024048D01*
X170943571Y-49143095D01*
X170943571Y-49619286D01*
X171003095Y-49738333D01*
X171122143Y-49797857D01*
X171360238Y-49797857D01*
X171479286Y-49738333D01*
X171538809Y-49619286D01*
X171538809Y-49500238D01*
X170943571Y-49381190D01*
X172074524Y-48964524D02*
X172074524Y-49797857D01*
X172074524Y-49559762D02*
X172134048Y-49678810D01*
X172193572Y-49738333D01*
X172312619Y-49797857D01*
X172431667Y-49797857D01*
X131156905Y-70415476D02*
X130918810Y-70415476D01*
X130799762Y-70355952D01*
X130740238Y-70296429D01*
X130621191Y-70117857D01*
X130561667Y-69879762D01*
X130561667Y-69403571D01*
X130621191Y-69284524D01*
X130680715Y-69225000D01*
X130799762Y-69165476D01*
X131037858Y-69165476D01*
X131156905Y-69225000D01*
X131216429Y-69284524D01*
X131275953Y-69403571D01*
X131275953Y-69701190D01*
X131216429Y-69820238D01*
X131156905Y-69879762D01*
X131037858Y-69939286D01*
X130799762Y-69939286D01*
X130680715Y-69879762D01*
X130621191Y-69820238D01*
X130561667Y-69701190D01*
X130204524Y-69165476D02*
X129787858Y-70415476D01*
X129371191Y-69165476D01*
X127585476Y-69760714D02*
X127406905Y-69820238D01*
X127347381Y-69879762D01*
X127287857Y-69998810D01*
X127287857Y-70177381D01*
X127347381Y-70296429D01*
X127406905Y-70355952D01*
X127525952Y-70415476D01*
X128002143Y-70415476D01*
X128002143Y-69165476D01*
X127585476Y-69165476D01*
X127466429Y-69225000D01*
X127406905Y-69284524D01*
X127347381Y-69403571D01*
X127347381Y-69522619D01*
X127406905Y-69641667D01*
X127466429Y-69701190D01*
X127585476Y-69760714D01*
X128002143Y-69760714D01*
X126811667Y-70058333D02*
X126216429Y-70058333D01*
X126930714Y-70415476D02*
X126514048Y-69165476D01*
X126097381Y-70415476D01*
X125859285Y-69165476D02*
X125145000Y-69165476D01*
X125502143Y-70415476D02*
X125502143Y-69165476D01*
X176262143Y-72072857D02*
X177512143Y-72072857D01*
X176916905Y-72668095D02*
X177035952Y-72727619D01*
X177095476Y-72846667D01*
X176916905Y-72072857D02*
X177035952Y-72132381D01*
X177095476Y-72251428D01*
X177095476Y-72489524D01*
X177035952Y-72608571D01*
X176916905Y-72668095D01*
X176262143Y-72668095D01*
X176738333Y-73322857D02*
X176738333Y-73918095D01*
X177095476Y-73203810D02*
X175845476Y-73620476D01*
X177095476Y-74037143D01*
X177095476Y-75584762D02*
X177035952Y-75465715D01*
X176976429Y-75406191D01*
X176857381Y-75346667D01*
X176500238Y-75346667D01*
X176381190Y-75406191D01*
X176321667Y-75465715D01*
X176262143Y-75584762D01*
X176262143Y-75763334D01*
X176321667Y-75882382D01*
X176381190Y-75941905D01*
X176500238Y-76001429D01*
X176857381Y-76001429D01*
X176976429Y-75941905D01*
X177035952Y-75882382D01*
X177095476Y-75763334D01*
X177095476Y-75584762D01*
X176262143Y-77072857D02*
X177095476Y-77072857D01*
X176262143Y-76537143D02*
X176916905Y-76537143D01*
X177035952Y-76596667D01*
X177095476Y-76715714D01*
X177095476Y-76894286D01*
X177035952Y-77013334D01*
X176976429Y-77072857D01*
X176262143Y-77489524D02*
X176262143Y-77965714D01*
X175845476Y-77668095D02*
X176916905Y-77668095D01*
X177035952Y-77727619D01*
X177095476Y-77846666D01*
X177095476Y-77965714D01*
X183363571Y-81093571D02*
X182363571Y-81093571D01*
X183363571Y-82593571D01*
X182363571Y-82593571D01*
X181220715Y-82522143D02*
X181363572Y-82593571D01*
X181649286Y-82593571D01*
X181792143Y-82522143D01*
X181863572Y-82379286D01*
X181863572Y-81807857D01*
X181792143Y-81665000D01*
X181649286Y-81593571D01*
X181363572Y-81593571D01*
X181220715Y-81665000D01*
X181149286Y-81807857D01*
X181149286Y-81950714D01*
X181863572Y-82093571D01*
X180506429Y-82593571D02*
X180506429Y-81593571D01*
X180506429Y-81879286D02*
X180435001Y-81736429D01*
X180363572Y-81665000D01*
X180220715Y-81593571D01*
X180077858Y-81593571D01*
X179363572Y-82593571D02*
X179506430Y-82522143D01*
X179577858Y-82450714D01*
X179649287Y-82307857D01*
X179649287Y-81879286D01*
X179577858Y-81736429D01*
X179506430Y-81665000D01*
X179363572Y-81593571D01*
X179149287Y-81593571D01*
X179006430Y-81665000D01*
X178935001Y-81736429D01*
X178863572Y-81879286D01*
X178863572Y-82307857D01*
X178935001Y-82450714D01*
X179006430Y-82522143D01*
X179149287Y-82593571D01*
X179363572Y-82593571D01*
X176435001Y-82593571D02*
X176435001Y-81807857D01*
X176506430Y-81665000D01*
X176649287Y-81593571D01*
X176935001Y-81593571D01*
X177077858Y-81665000D01*
X176435001Y-82522143D02*
X176577858Y-82593571D01*
X176935001Y-82593571D01*
X177077858Y-82522143D01*
X177149287Y-82379286D01*
X177149287Y-82236429D01*
X177077858Y-82093571D01*
X176935001Y-82022143D01*
X176577858Y-82022143D01*
X176435001Y-81950714D01*
X175077858Y-82593571D02*
X175077858Y-81093571D01*
X175077858Y-82522143D02*
X175220715Y-82593571D01*
X175506429Y-82593571D01*
X175649287Y-82522143D01*
X175720715Y-82450714D01*
X175792144Y-82307857D01*
X175792144Y-81879286D01*
X175720715Y-81736429D01*
X175649287Y-81665000D01*
X175506429Y-81593571D01*
X175220715Y-81593571D01*
X175077858Y-81665000D01*
X174363572Y-81593571D02*
X174363572Y-82879286D01*
X174435001Y-83022143D01*
X174577858Y-83093571D01*
X174649286Y-83093571D01*
X174363572Y-81093571D02*
X174435001Y-81165000D01*
X174363572Y-81236429D01*
X174292144Y-81165000D01*
X174363572Y-81093571D01*
X174363572Y-81236429D01*
X173649286Y-82450714D02*
X173577858Y-82522143D01*
X173649286Y-82593571D01*
X173720715Y-82522143D01*
X173649286Y-82450714D01*
X173649286Y-82593571D01*
D10*
X183777337Y-48000000D02*
X123000000Y-48000000D01*
X183777337Y-48000000D02*
G75*
G02X187738404Y-97119337I-353360462J-53214969D01*
G01*
X181762789Y-97119337D02*
X187738404Y-97119337D01*
X181762789Y-103444787D02*
G75*
G02X181762789Y-97119337I0J3162725D01*
G01*
X187754918Y-103444786D02*
X181762789Y-103444786D01*
X187754919Y-103444787D02*
G75*
G02X186888669Y-126181137I-357338044J2229818D01*
G01*
X119888669Y-126181137D02*
X186888669Y-126181137D01*
X119888669Y-126181136D02*
G75*
G02X119022419Y-103444786I356471793J24966167D01*
G01*
X125014548Y-103444786D02*
X119022419Y-103444786D01*
X125014548Y-97119338D02*
G75*
G02X125014548Y-103444786I0J-3162724D01*
G01*
X119038933Y-97119337D02*
X125014548Y-97119337D01*
D14*
G36*
X143281400Y-66704054D02*
X143270535Y-66817993D01*
X143238918Y-66925616D01*
X143188015Y-67024615D01*
X143119293Y-67112684D01*
X143034219Y-67187516D01*
X142937232Y-67245384D01*
X142830964Y-67285005D01*
X142723950Y-67303573D01*
X142618300Y-67302434D01*
X142516125Y-67282930D01*
X142419534Y-67246406D01*
X142330638Y-67194205D01*
X142251546Y-67127673D01*
X142184369Y-67048152D01*
X142131217Y-66956987D01*
X142094199Y-66855523D01*
X142075427Y-66745102D01*
X142073489Y-66695206D01*
X142073489Y-66607267D01*
X142021560Y-66607267D01*
X141985253Y-66610111D01*
X141958355Y-66621911D01*
X141931249Y-66645649D01*
X141892867Y-66684031D01*
X141892867Y-68875602D01*
X141892876Y-69137739D01*
X141892908Y-69378241D01*
X141892972Y-69598048D01*
X141893076Y-69798101D01*
X141893227Y-69979344D01*
X141893434Y-70142716D01*
X141893706Y-70289160D01*
X141894050Y-70419617D01*
X141894474Y-70535029D01*
X141894987Y-70636338D01*
X141895597Y-70724484D01*
X141896312Y-70800410D01*
X141897140Y-70865057D01*
X141898089Y-70919367D01*
X141899167Y-70964280D01*
X141900383Y-71000740D01*
X141901745Y-71029687D01*
X141903261Y-71052063D01*
X141904938Y-71068809D01*
X141906786Y-71080868D01*
X141908813Y-71089180D01*
X141911025Y-71094687D01*
X141912108Y-71096537D01*
X141916271Y-71103549D01*
X141919805Y-71109996D01*
X141923635Y-71115900D01*
X141928682Y-71121286D01*
X141935871Y-71126178D01*
X141946123Y-71130598D01*
X141960364Y-71134572D01*
X141979514Y-71138121D01*
X142004499Y-71141270D01*
X142036240Y-71144042D01*
X142075662Y-71146461D01*
X142123686Y-71148551D01*
X142181237Y-71150335D01*
X142249237Y-71151837D01*
X142328610Y-71153080D01*
X142420279Y-71154089D01*
X142525166Y-71154885D01*
X142644196Y-71155494D01*
X142778290Y-71155939D01*
X142928373Y-71156243D01*
X143095367Y-71156430D01*
X143280196Y-71156524D01*
X143483783Y-71156548D01*
X143707050Y-71156525D01*
X143950922Y-71156480D01*
X144216321Y-71156437D01*
X144254704Y-71156432D01*
X144521682Y-71156389D01*
X144767002Y-71156318D01*
X144991583Y-71156213D01*
X145196345Y-71156066D01*
X145382206Y-71155869D01*
X145550088Y-71155616D01*
X145700908Y-71155300D01*
X145835587Y-71154913D01*
X145955044Y-71154447D01*
X146060199Y-71153897D01*
X146151971Y-71153253D01*
X146231279Y-71152511D01*
X146299043Y-71151661D01*
X146356182Y-71150697D01*
X146403617Y-71149611D01*
X146442266Y-71148397D01*
X146473049Y-71147047D01*
X146496885Y-71145555D01*
X146514694Y-71143911D01*
X146527395Y-71142111D01*
X146535908Y-71140145D01*
X146540266Y-71138477D01*
X146548728Y-71134906D01*
X146556497Y-71132270D01*
X146563602Y-71129634D01*
X146570073Y-71126062D01*
X146575939Y-71120621D01*
X146581229Y-71112375D01*
X146585974Y-71100390D01*
X146590202Y-71083731D01*
X146593943Y-71061463D01*
X146597227Y-71032652D01*
X146600083Y-70996363D01*
X146602540Y-70951661D01*
X146604629Y-70897611D01*
X146606378Y-70833279D01*
X146607817Y-70757730D01*
X146608976Y-70670030D01*
X146609883Y-70569243D01*
X146610569Y-70454434D01*
X146611063Y-70324670D01*
X146611395Y-70179015D01*
X146611593Y-70016535D01*
X146611687Y-69836295D01*
X146611708Y-69637360D01*
X146611685Y-69418796D01*
X146611646Y-69179668D01*
X146611622Y-68919040D01*
X146611622Y-68876889D01*
X146611636Y-68613992D01*
X146611661Y-68372732D01*
X146611671Y-68152165D01*
X146611642Y-67951352D01*
X146611548Y-67769349D01*
X146611362Y-67605216D01*
X146611059Y-67458011D01*
X146610614Y-67326792D01*
X146610034Y-67216867D01*
X146307197Y-67216867D01*
X146267407Y-67274711D01*
X146256236Y-67290479D01*
X146246166Y-67304441D01*
X146237138Y-67317784D01*
X146229097Y-67331693D01*
X146221986Y-67347356D01*
X146215747Y-67365958D01*
X146210325Y-67388686D01*
X146205662Y-67416727D01*
X146201701Y-67451267D01*
X146198385Y-67493492D01*
X146195659Y-67544589D01*
X146193464Y-67605744D01*
X146191745Y-67678144D01*
X146190444Y-67762975D01*
X146189505Y-67861422D01*
X146188870Y-67974674D01*
X146188484Y-68103916D01*
X146188288Y-68250334D01*
X146188227Y-68415116D01*
X146188243Y-68599447D01*
X146188280Y-68804513D01*
X146188289Y-68927133D01*
X146188265Y-69144082D01*
X146188231Y-69339642D01*
X146188243Y-69514999D01*
X146188358Y-69671341D01*
X146188630Y-69809857D01*
X146189118Y-69931734D01*
X146189876Y-70038160D01*
X146190962Y-70130322D01*
X146192431Y-70209409D01*
X146194340Y-70276608D01*
X146196744Y-70333107D01*
X146199701Y-70380093D01*
X146203266Y-70418755D01*
X146207495Y-70450280D01*
X146212446Y-70475855D01*
X146218173Y-70496670D01*
X146224733Y-70513911D01*
X146232183Y-70528765D01*
X146240579Y-70542422D01*
X146249976Y-70556069D01*
X146260432Y-70570893D01*
X146266523Y-70579783D01*
X146305296Y-70637400D01*
X145773732Y-70637400D01*
X145650483Y-70637365D01*
X145547987Y-70637215D01*
X145464420Y-70636878D01*
X145397956Y-70636286D01*
X145346771Y-70635367D01*
X145309041Y-70634051D01*
X145282940Y-70632269D01*
X145266644Y-70629951D01*
X145258328Y-70627026D01*
X145256168Y-70623424D01*
X145258339Y-70619075D01*
X145259535Y-70617645D01*
X145284685Y-70580573D01*
X145310583Y-70527772D01*
X145334192Y-70465770D01*
X145342461Y-70439357D01*
X145347078Y-70421416D01*
X145350979Y-70400355D01*
X145354248Y-70374089D01*
X145356966Y-70340532D01*
X145359215Y-70297599D01*
X145361077Y-70243204D01*
X145362636Y-70175262D01*
X145363972Y-70091688D01*
X145365169Y-69990395D01*
X145366308Y-69869300D01*
X145366685Y-69824600D01*
X145367702Y-69699449D01*
X145368460Y-69595082D01*
X145368903Y-69509707D01*
X145368970Y-69441533D01*
X145368605Y-69388765D01*
X145367748Y-69349614D01*
X145366341Y-69322285D01*
X145364325Y-69304986D01*
X145361643Y-69295926D01*
X145358236Y-69293312D01*
X145354044Y-69295351D01*
X145349571Y-69299667D01*
X145339216Y-69312602D01*
X145317158Y-69341676D01*
X145284957Y-69384759D01*
X145244174Y-69439718D01*
X145196370Y-69504423D01*
X145143105Y-69576742D01*
X145085940Y-69654544D01*
X145026437Y-69735698D01*
X144966155Y-69818072D01*
X144906655Y-69899536D01*
X144849498Y-69977957D01*
X144796245Y-70051204D01*
X144748457Y-70117147D01*
X144707693Y-70173654D01*
X144675516Y-70218593D01*
X144653485Y-70249834D01*
X144648917Y-70256466D01*
X144625996Y-70293369D01*
X144599188Y-70341359D01*
X144573789Y-70390897D01*
X144570568Y-70397577D01*
X144548890Y-70445772D01*
X144536304Y-70483334D01*
X144530574Y-70519160D01*
X144529456Y-70561200D01*
X144530090Y-70637400D01*
X143375651Y-70637400D01*
X143466815Y-70543669D01*
X143513612Y-70493775D01*
X143563899Y-70437295D01*
X143609944Y-70383026D01*
X143630369Y-70357673D01*
X143660807Y-70318128D01*
X143700862Y-70264916D01*
X143749361Y-70199667D01*
X143805135Y-70124011D01*
X143867011Y-70039577D01*
X143933819Y-69947994D01*
X144004387Y-69850892D01*
X144077545Y-69749901D01*
X144152121Y-69646650D01*
X144226944Y-69542768D01*
X144300843Y-69439885D01*
X144372646Y-69339631D01*
X144441184Y-69243636D01*
X144505284Y-69153527D01*
X144563775Y-69070936D01*
X144615486Y-68997492D01*
X144659247Y-68934824D01*
X144693885Y-68884561D01*
X144718230Y-68848334D01*
X144731111Y-68827771D01*
X144732869Y-68823668D01*
X144724910Y-68812342D01*
X144704115Y-68785162D01*
X144671847Y-68743829D01*
X144629470Y-68690044D01*
X144578347Y-68625506D01*
X144519841Y-68551918D01*
X144455314Y-68470978D01*
X144386131Y-68384388D01*
X144313653Y-68293848D01*
X144239246Y-68201060D01*
X144179517Y-68126702D01*
X143168511Y-68126702D01*
X143162602Y-68139659D01*
X143148272Y-68161908D01*
X143147225Y-68163391D01*
X143128438Y-68193544D01*
X143108791Y-68230375D01*
X143104892Y-68238511D01*
X143101356Y-68246940D01*
X143098230Y-68257059D01*
X143095486Y-68270260D01*
X143093092Y-68287938D01*
X143091019Y-68311484D01*
X143089235Y-68342293D01*
X143087712Y-68381757D01*
X143086419Y-68431269D01*
X143085326Y-68492223D01*
X143084403Y-68566011D01*
X143083619Y-68654028D01*
X143082945Y-68757665D01*
X143082350Y-68878316D01*
X143081805Y-69017374D01*
X143081279Y-69176232D01*
X143080745Y-69355089D01*
X143080206Y-69540207D01*
X143079772Y-69704145D01*
X143079509Y-69848303D01*
X143079484Y-69974079D01*
X143079765Y-70082871D01*
X143080419Y-70176077D01*
X143081514Y-70255097D01*
X143083118Y-70321328D01*
X143085297Y-70376170D01*
X143088119Y-70421021D01*
X143091651Y-70457278D01*
X143095961Y-70486341D01*
X143101117Y-70509609D01*
X143107185Y-70528479D01*
X143114233Y-70544351D01*
X143122329Y-70558622D01*
X143131540Y-70572691D01*
X143140040Y-70585158D01*
X143157176Y-70611452D01*
X143167322Y-70629037D01*
X143168511Y-70632257D01*
X143157604Y-70633334D01*
X143126411Y-70634335D01*
X143077223Y-70635235D01*
X143012333Y-70636010D01*
X142934030Y-70636637D01*
X142844607Y-70637091D01*
X142746356Y-70637349D01*
X142677445Y-70637400D01*
X142572452Y-70637180D01*
X142475610Y-70636548D01*
X142389107Y-70635549D01*
X142315132Y-70634227D01*
X142255874Y-70632626D01*
X142213520Y-70630791D01*
X142190260Y-70628765D01*
X142186378Y-70627493D01*
X142194076Y-70612591D01*
X142202074Y-70604560D01*
X142215246Y-70587434D01*
X142232485Y-70557183D01*
X142244407Y-70532622D01*
X142271045Y-70473711D01*
X142274120Y-69296845D01*
X142277195Y-68119978D01*
X142722853Y-68119978D01*
X142820670Y-68120142D01*
X142911064Y-68120611D01*
X142991630Y-68121347D01*
X143059962Y-68122316D01*
X143113656Y-68123480D01*
X143150305Y-68124803D01*
X143167504Y-68126249D01*
X143168511Y-68126702D01*
X144179517Y-68126702D01*
X144164270Y-68107722D01*
X144090090Y-68015537D01*
X144018069Y-67926204D01*
X143949569Y-67841424D01*
X143885955Y-67762898D01*
X143828588Y-67692326D01*
X143778833Y-67631409D01*
X143738052Y-67581847D01*
X143720888Y-67561178D01*
X143634596Y-67460516D01*
X143557997Y-67377259D01*
X143489183Y-67309438D01*
X143426248Y-67255089D01*
X143416867Y-67247722D01*
X143377356Y-67217117D01*
X144509116Y-67216867D01*
X144503827Y-67264844D01*
X144507130Y-67322188D01*
X144528661Y-67390463D01*
X144568635Y-67470212D01*
X144613943Y-67542495D01*
X144630161Y-67565140D01*
X144658214Y-67602696D01*
X144696430Y-67653021D01*
X144743137Y-67713973D01*
X144796661Y-67783411D01*
X144855331Y-67859194D01*
X144917475Y-67939180D01*
X144981421Y-68021228D01*
X145045495Y-68103196D01*
X145108027Y-68182943D01*
X145167343Y-68258327D01*
X145221771Y-68327207D01*
X145269639Y-68387442D01*
X145309275Y-68436889D01*
X145339006Y-68473408D01*
X145357161Y-68494858D01*
X145360220Y-68498156D01*
X145363079Y-68490149D01*
X145365293Y-68459855D01*
X145366857Y-68407556D01*
X145367767Y-68333531D01*
X145368020Y-68238063D01*
X145367613Y-68121434D01*
X145366704Y-68001445D01*
X145365382Y-67869333D01*
X145363857Y-67757594D01*
X145361881Y-67664025D01*
X145359206Y-67586419D01*
X145355582Y-67522574D01*
X145350761Y-67470283D01*
X145344494Y-67427344D01*
X145336532Y-67391551D01*
X145326627Y-67360700D01*
X145314531Y-67332586D01*
X145299993Y-67305005D01*
X145285311Y-67279966D01*
X145247314Y-67216867D01*
X146307197Y-67216867D01*
X146610034Y-67216867D01*
X146610001Y-67210617D01*
X146609195Y-67108544D01*
X146608170Y-67019633D01*
X146606900Y-66942941D01*
X146605360Y-66877527D01*
X146603524Y-66822449D01*
X146601367Y-66776765D01*
X146598863Y-66739534D01*
X146595987Y-66709813D01*
X146592713Y-66686662D01*
X146589015Y-66669139D01*
X146584869Y-66656301D01*
X146580247Y-66647208D01*
X146575126Y-66640918D01*
X146569478Y-66636488D01*
X146563279Y-66632978D01*
X146556504Y-66629445D01*
X146550508Y-66625876D01*
X146545275Y-66623300D01*
X146537099Y-66620972D01*
X146524886Y-66618878D01*
X146507541Y-66617007D01*
X146483969Y-66615347D01*
X146453077Y-66613884D01*
X146413768Y-66612608D01*
X146364950Y-66611504D01*
X146305527Y-66610561D01*
X146234404Y-66609767D01*
X146150488Y-66609109D01*
X146052683Y-66608575D01*
X145939894Y-66608153D01*
X145811029Y-66607829D01*
X145664991Y-66607592D01*
X145500686Y-66607430D01*
X145317020Y-66607330D01*
X145112897Y-66607280D01*
X144901753Y-66607267D01*
X143281400Y-66607267D01*
X143281400Y-66704054D01*
X143281400Y-66704054D01*
G37*
X143281400Y-66704054D02*
X143270535Y-66817993D01*
X143238918Y-66925616D01*
X143188015Y-67024615D01*
X143119293Y-67112684D01*
X143034219Y-67187516D01*
X142937232Y-67245384D01*
X142830964Y-67285005D01*
X142723950Y-67303573D01*
X142618300Y-67302434D01*
X142516125Y-67282930D01*
X142419534Y-67246406D01*
X142330638Y-67194205D01*
X142251546Y-67127673D01*
X142184369Y-67048152D01*
X142131217Y-66956987D01*
X142094199Y-66855523D01*
X142075427Y-66745102D01*
X142073489Y-66695206D01*
X142073489Y-66607267D01*
X142021560Y-66607267D01*
X141985253Y-66610111D01*
X141958355Y-66621911D01*
X141931249Y-66645649D01*
X141892867Y-66684031D01*
X141892867Y-68875602D01*
X141892876Y-69137739D01*
X141892908Y-69378241D01*
X141892972Y-69598048D01*
X141893076Y-69798101D01*
X141893227Y-69979344D01*
X141893434Y-70142716D01*
X141893706Y-70289160D01*
X141894050Y-70419617D01*
X141894474Y-70535029D01*
X141894987Y-70636338D01*
X141895597Y-70724484D01*
X141896312Y-70800410D01*
X141897140Y-70865057D01*
X141898089Y-70919367D01*
X141899167Y-70964280D01*
X141900383Y-71000740D01*
X141901745Y-71029687D01*
X141903261Y-71052063D01*
X141904938Y-71068809D01*
X141906786Y-71080868D01*
X141908813Y-71089180D01*
X141911025Y-71094687D01*
X141912108Y-71096537D01*
X141916271Y-71103549D01*
X141919805Y-71109996D01*
X141923635Y-71115900D01*
X141928682Y-71121286D01*
X141935871Y-71126178D01*
X141946123Y-71130598D01*
X141960364Y-71134572D01*
X141979514Y-71138121D01*
X142004499Y-71141270D01*
X142036240Y-71144042D01*
X142075662Y-71146461D01*
X142123686Y-71148551D01*
X142181237Y-71150335D01*
X142249237Y-71151837D01*
X142328610Y-71153080D01*
X142420279Y-71154089D01*
X142525166Y-71154885D01*
X142644196Y-71155494D01*
X142778290Y-71155939D01*
X142928373Y-71156243D01*
X143095367Y-71156430D01*
X143280196Y-71156524D01*
X143483783Y-71156548D01*
X143707050Y-71156525D01*
X143950922Y-71156480D01*
X144216321Y-71156437D01*
X144254704Y-71156432D01*
X144521682Y-71156389D01*
X144767002Y-71156318D01*
X144991583Y-71156213D01*
X145196345Y-71156066D01*
X145382206Y-71155869D01*
X145550088Y-71155616D01*
X145700908Y-71155300D01*
X145835587Y-71154913D01*
X145955044Y-71154447D01*
X146060199Y-71153897D01*
X146151971Y-71153253D01*
X146231279Y-71152511D01*
X146299043Y-71151661D01*
X146356182Y-71150697D01*
X146403617Y-71149611D01*
X146442266Y-71148397D01*
X146473049Y-71147047D01*
X146496885Y-71145555D01*
X146514694Y-71143911D01*
X146527395Y-71142111D01*
X146535908Y-71140145D01*
X146540266Y-71138477D01*
X146548728Y-71134906D01*
X146556497Y-71132270D01*
X146563602Y-71129634D01*
X146570073Y-71126062D01*
X146575939Y-71120621D01*
X146581229Y-71112375D01*
X146585974Y-71100390D01*
X146590202Y-71083731D01*
X146593943Y-71061463D01*
X146597227Y-71032652D01*
X146600083Y-70996363D01*
X146602540Y-70951661D01*
X146604629Y-70897611D01*
X146606378Y-70833279D01*
X146607817Y-70757730D01*
X146608976Y-70670030D01*
X146609883Y-70569243D01*
X146610569Y-70454434D01*
X146611063Y-70324670D01*
X146611395Y-70179015D01*
X146611593Y-70016535D01*
X146611687Y-69836295D01*
X146611708Y-69637360D01*
X146611685Y-69418796D01*
X146611646Y-69179668D01*
X146611622Y-68919040D01*
X146611622Y-68876889D01*
X146611636Y-68613992D01*
X146611661Y-68372732D01*
X146611671Y-68152165D01*
X146611642Y-67951352D01*
X146611548Y-67769349D01*
X146611362Y-67605216D01*
X146611059Y-67458011D01*
X146610614Y-67326792D01*
X146610034Y-67216867D01*
X146307197Y-67216867D01*
X146267407Y-67274711D01*
X146256236Y-67290479D01*
X146246166Y-67304441D01*
X146237138Y-67317784D01*
X146229097Y-67331693D01*
X146221986Y-67347356D01*
X146215747Y-67365958D01*
X146210325Y-67388686D01*
X146205662Y-67416727D01*
X146201701Y-67451267D01*
X146198385Y-67493492D01*
X146195659Y-67544589D01*
X146193464Y-67605744D01*
X146191745Y-67678144D01*
X146190444Y-67762975D01*
X146189505Y-67861422D01*
X146188870Y-67974674D01*
X146188484Y-68103916D01*
X146188288Y-68250334D01*
X146188227Y-68415116D01*
X146188243Y-68599447D01*
X146188280Y-68804513D01*
X146188289Y-68927133D01*
X146188265Y-69144082D01*
X146188231Y-69339642D01*
X146188243Y-69514999D01*
X146188358Y-69671341D01*
X146188630Y-69809857D01*
X146189118Y-69931734D01*
X146189876Y-70038160D01*
X146190962Y-70130322D01*
X146192431Y-70209409D01*
X146194340Y-70276608D01*
X146196744Y-70333107D01*
X146199701Y-70380093D01*
X146203266Y-70418755D01*
X146207495Y-70450280D01*
X146212446Y-70475855D01*
X146218173Y-70496670D01*
X146224733Y-70513911D01*
X146232183Y-70528765D01*
X146240579Y-70542422D01*
X146249976Y-70556069D01*
X146260432Y-70570893D01*
X146266523Y-70579783D01*
X146305296Y-70637400D01*
X145773732Y-70637400D01*
X145650483Y-70637365D01*
X145547987Y-70637215D01*
X145464420Y-70636878D01*
X145397956Y-70636286D01*
X145346771Y-70635367D01*
X145309041Y-70634051D01*
X145282940Y-70632269D01*
X145266644Y-70629951D01*
X145258328Y-70627026D01*
X145256168Y-70623424D01*
X145258339Y-70619075D01*
X145259535Y-70617645D01*
X145284685Y-70580573D01*
X145310583Y-70527772D01*
X145334192Y-70465770D01*
X145342461Y-70439357D01*
X145347078Y-70421416D01*
X145350979Y-70400355D01*
X145354248Y-70374089D01*
X145356966Y-70340532D01*
X145359215Y-70297599D01*
X145361077Y-70243204D01*
X145362636Y-70175262D01*
X145363972Y-70091688D01*
X145365169Y-69990395D01*
X145366308Y-69869300D01*
X145366685Y-69824600D01*
X145367702Y-69699449D01*
X145368460Y-69595082D01*
X145368903Y-69509707D01*
X145368970Y-69441533D01*
X145368605Y-69388765D01*
X145367748Y-69349614D01*
X145366341Y-69322285D01*
X145364325Y-69304986D01*
X145361643Y-69295926D01*
X145358236Y-69293312D01*
X145354044Y-69295351D01*
X145349571Y-69299667D01*
X145339216Y-69312602D01*
X145317158Y-69341676D01*
X145284957Y-69384759D01*
X145244174Y-69439718D01*
X145196370Y-69504423D01*
X145143105Y-69576742D01*
X145085940Y-69654544D01*
X145026437Y-69735698D01*
X144966155Y-69818072D01*
X144906655Y-69899536D01*
X144849498Y-69977957D01*
X144796245Y-70051204D01*
X144748457Y-70117147D01*
X144707693Y-70173654D01*
X144675516Y-70218593D01*
X144653485Y-70249834D01*
X144648917Y-70256466D01*
X144625996Y-70293369D01*
X144599188Y-70341359D01*
X144573789Y-70390897D01*
X144570568Y-70397577D01*
X144548890Y-70445772D01*
X144536304Y-70483334D01*
X144530574Y-70519160D01*
X144529456Y-70561200D01*
X144530090Y-70637400D01*
X143375651Y-70637400D01*
X143466815Y-70543669D01*
X143513612Y-70493775D01*
X143563899Y-70437295D01*
X143609944Y-70383026D01*
X143630369Y-70357673D01*
X143660807Y-70318128D01*
X143700862Y-70264916D01*
X143749361Y-70199667D01*
X143805135Y-70124011D01*
X143867011Y-70039577D01*
X143933819Y-69947994D01*
X144004387Y-69850892D01*
X144077545Y-69749901D01*
X144152121Y-69646650D01*
X144226944Y-69542768D01*
X144300843Y-69439885D01*
X144372646Y-69339631D01*
X144441184Y-69243636D01*
X144505284Y-69153527D01*
X144563775Y-69070936D01*
X144615486Y-68997492D01*
X144659247Y-68934824D01*
X144693885Y-68884561D01*
X144718230Y-68848334D01*
X144731111Y-68827771D01*
X144732869Y-68823668D01*
X144724910Y-68812342D01*
X144704115Y-68785162D01*
X144671847Y-68743829D01*
X144629470Y-68690044D01*
X144578347Y-68625506D01*
X144519841Y-68551918D01*
X144455314Y-68470978D01*
X144386131Y-68384388D01*
X144313653Y-68293848D01*
X144239246Y-68201060D01*
X144179517Y-68126702D01*
X143168511Y-68126702D01*
X143162602Y-68139659D01*
X143148272Y-68161908D01*
X143147225Y-68163391D01*
X143128438Y-68193544D01*
X143108791Y-68230375D01*
X143104892Y-68238511D01*
X143101356Y-68246940D01*
X143098230Y-68257059D01*
X143095486Y-68270260D01*
X143093092Y-68287938D01*
X143091019Y-68311484D01*
X143089235Y-68342293D01*
X143087712Y-68381757D01*
X143086419Y-68431269D01*
X143085326Y-68492223D01*
X143084403Y-68566011D01*
X143083619Y-68654028D01*
X143082945Y-68757665D01*
X143082350Y-68878316D01*
X143081805Y-69017374D01*
X143081279Y-69176232D01*
X143080745Y-69355089D01*
X143080206Y-69540207D01*
X143079772Y-69704145D01*
X143079509Y-69848303D01*
X143079484Y-69974079D01*
X143079765Y-70082871D01*
X143080419Y-70176077D01*
X143081514Y-70255097D01*
X143083118Y-70321328D01*
X143085297Y-70376170D01*
X143088119Y-70421021D01*
X143091651Y-70457278D01*
X143095961Y-70486341D01*
X143101117Y-70509609D01*
X143107185Y-70528479D01*
X143114233Y-70544351D01*
X143122329Y-70558622D01*
X143131540Y-70572691D01*
X143140040Y-70585158D01*
X143157176Y-70611452D01*
X143167322Y-70629037D01*
X143168511Y-70632257D01*
X143157604Y-70633334D01*
X143126411Y-70634335D01*
X143077223Y-70635235D01*
X143012333Y-70636010D01*
X142934030Y-70636637D01*
X142844607Y-70637091D01*
X142746356Y-70637349D01*
X142677445Y-70637400D01*
X142572452Y-70637180D01*
X142475610Y-70636548D01*
X142389107Y-70635549D01*
X142315132Y-70634227D01*
X142255874Y-70632626D01*
X142213520Y-70630791D01*
X142190260Y-70628765D01*
X142186378Y-70627493D01*
X142194076Y-70612591D01*
X142202074Y-70604560D01*
X142215246Y-70587434D01*
X142232485Y-70557183D01*
X142244407Y-70532622D01*
X142271045Y-70473711D01*
X142274120Y-69296845D01*
X142277195Y-68119978D01*
X142722853Y-68119978D01*
X142820670Y-68120142D01*
X142911064Y-68120611D01*
X142991630Y-68121347D01*
X143059962Y-68122316D01*
X143113656Y-68123480D01*
X143150305Y-68124803D01*
X143167504Y-68126249D01*
X143168511Y-68126702D01*
X144179517Y-68126702D01*
X144164270Y-68107722D01*
X144090090Y-68015537D01*
X144018069Y-67926204D01*
X143949569Y-67841424D01*
X143885955Y-67762898D01*
X143828588Y-67692326D01*
X143778833Y-67631409D01*
X143738052Y-67581847D01*
X143720888Y-67561178D01*
X143634596Y-67460516D01*
X143557997Y-67377259D01*
X143489183Y-67309438D01*
X143426248Y-67255089D01*
X143416867Y-67247722D01*
X143377356Y-67217117D01*
X144509116Y-67216867D01*
X144503827Y-67264844D01*
X144507130Y-67322188D01*
X144528661Y-67390463D01*
X144568635Y-67470212D01*
X144613943Y-67542495D01*
X144630161Y-67565140D01*
X144658214Y-67602696D01*
X144696430Y-67653021D01*
X144743137Y-67713973D01*
X144796661Y-67783411D01*
X144855331Y-67859194D01*
X144917475Y-67939180D01*
X144981421Y-68021228D01*
X145045495Y-68103196D01*
X145108027Y-68182943D01*
X145167343Y-68258327D01*
X145221771Y-68327207D01*
X145269639Y-68387442D01*
X145309275Y-68436889D01*
X145339006Y-68473408D01*
X145357161Y-68494858D01*
X145360220Y-68498156D01*
X145363079Y-68490149D01*
X145365293Y-68459855D01*
X145366857Y-68407556D01*
X145367767Y-68333531D01*
X145368020Y-68238063D01*
X145367613Y-68121434D01*
X145366704Y-68001445D01*
X145365382Y-67869333D01*
X145363857Y-67757594D01*
X145361881Y-67664025D01*
X145359206Y-67586419D01*
X145355582Y-67522574D01*
X145350761Y-67470283D01*
X145344494Y-67427344D01*
X145336532Y-67391551D01*
X145326627Y-67360700D01*
X145314531Y-67332586D01*
X145299993Y-67305005D01*
X145285311Y-67279966D01*
X145247314Y-67216867D01*
X146307197Y-67216867D01*
X146610034Y-67216867D01*
X146610001Y-67210617D01*
X146609195Y-67108544D01*
X146608170Y-67019633D01*
X146606900Y-66942941D01*
X146605360Y-66877527D01*
X146603524Y-66822449D01*
X146601367Y-66776765D01*
X146598863Y-66739534D01*
X146595987Y-66709813D01*
X146592713Y-66686662D01*
X146589015Y-66669139D01*
X146584869Y-66656301D01*
X146580247Y-66647208D01*
X146575126Y-66640918D01*
X146569478Y-66636488D01*
X146563279Y-66632978D01*
X146556504Y-66629445D01*
X146550508Y-66625876D01*
X146545275Y-66623300D01*
X146537099Y-66620972D01*
X146524886Y-66618878D01*
X146507541Y-66617007D01*
X146483969Y-66615347D01*
X146453077Y-66613884D01*
X146413768Y-66612608D01*
X146364950Y-66611504D01*
X146305527Y-66610561D01*
X146234404Y-66609767D01*
X146150488Y-66609109D01*
X146052683Y-66608575D01*
X145939894Y-66608153D01*
X145811029Y-66607829D01*
X145664991Y-66607592D01*
X145500686Y-66607430D01*
X145317020Y-66607330D01*
X145112897Y-66607280D01*
X144901753Y-66607267D01*
X143281400Y-66607267D01*
X143281400Y-66704054D01*
G36*
X140006571Y-67164071D02*
X139846430Y-67185245D01*
X139682490Y-67225385D01*
X139512687Y-67284889D01*
X139334957Y-67364154D01*
X139323690Y-67369699D01*
X139265995Y-67397725D01*
X139214448Y-67421802D01*
X139172809Y-67440249D01*
X139144838Y-67451386D01*
X139135267Y-67453933D01*
X139116050Y-67458941D01*
X139111439Y-67463147D01*
X139116542Y-67473580D01*
X139132582Y-67499868D01*
X139157712Y-67539257D01*
X139190086Y-67588991D01*
X139227857Y-67646315D01*
X139269178Y-67708476D01*
X139312202Y-67772718D01*
X139355083Y-67836285D01*
X139395974Y-67896425D01*
X139433029Y-67950380D01*
X139464400Y-67995397D01*
X139488241Y-68028721D01*
X139502706Y-68047597D01*
X139504691Y-68049787D01*
X139514809Y-68045138D01*
X139537150Y-68027962D01*
X139567720Y-68001440D01*
X139583464Y-67986964D01*
X139679953Y-67911682D01*
X139786664Y-67856241D01*
X139902168Y-67821141D01*
X140025038Y-67806880D01*
X140094439Y-67808051D01*
X140215577Y-67825212D01*
X140324795Y-67861094D01*
X140422418Y-67915959D01*
X140508772Y-67990070D01*
X140584185Y-68083688D01*
X140648982Y-68197076D01*
X140686399Y-68283667D01*
X140730252Y-68419366D01*
X140762572Y-68566850D01*
X140783443Y-68722314D01*
X140792949Y-68881956D01*
X140791173Y-69041973D01*
X140778197Y-69198561D01*
X140754106Y-69347918D01*
X140718982Y-69486240D01*
X140672908Y-69609724D01*
X140656627Y-69643978D01*
X140588380Y-69758064D01*
X140507921Y-69854557D01*
X140416430Y-69932670D01*
X140315089Y-69991617D01*
X140205080Y-70030612D01*
X140087585Y-70048868D01*
X140046117Y-70050211D01*
X139924559Y-70039290D01*
X139804122Y-70006474D01*
X139686334Y-69952439D01*
X139572723Y-69877865D01*
X139481315Y-69799539D01*
X139434785Y-69755008D01*
X139253517Y-70052271D01*
X139208420Y-70126433D01*
X139167181Y-70194646D01*
X139131265Y-70254459D01*
X139102134Y-70303420D01*
X139081250Y-70339079D01*
X139070076Y-70358984D01*
X139068625Y-70362079D01*
X139076854Y-70371718D01*
X139102433Y-70388999D01*
X139142127Y-70412283D01*
X139192703Y-70439934D01*
X139250926Y-70470315D01*
X139313563Y-70501790D01*
X139377379Y-70532722D01*
X139439140Y-70561473D01*
X139495612Y-70586408D01*
X139543562Y-70605889D01*
X139567014Y-70614318D01*
X139700779Y-70652133D01*
X139838673Y-70677136D01*
X139986378Y-70690140D01*
X140113167Y-70692468D01*
X140181122Y-70691373D01*
X140246723Y-70689275D01*
X140304153Y-70686434D01*
X140347597Y-70683106D01*
X140361702Y-70681422D01*
X140500716Y-70652587D01*
X140642243Y-70607468D01*
X140779725Y-70548750D01*
X140906606Y-70479120D01*
X140984111Y-70426441D01*
X141111519Y-70318239D01*
X141229822Y-70191671D01*
X141336828Y-70049866D01*
X141430348Y-69895951D01*
X141508190Y-69733053D01*
X141552044Y-69615756D01*
X141602292Y-69432128D01*
X141635791Y-69237581D01*
X141652551Y-69036325D01*
X141652584Y-68832568D01*
X141635899Y-68630521D01*
X141602507Y-68434392D01*
X141552420Y-68248391D01*
X141548603Y-68236803D01*
X141485719Y-68074750D01*
X141408972Y-67926832D01*
X141315758Y-67788865D01*
X141203473Y-67656661D01*
X141159608Y-67611399D01*
X141023466Y-67487457D01*
X140883509Y-67384915D01*
X140737589Y-67302656D01*
X140583558Y-67239564D01*
X140419268Y-67194523D01*
X140323711Y-67177033D01*
X140164977Y-67161466D01*
X140006571Y-67164071D01*
X140006571Y-67164071D01*
G37*
X140006571Y-67164071D02*
X139846430Y-67185245D01*
X139682490Y-67225385D01*
X139512687Y-67284889D01*
X139334957Y-67364154D01*
X139323690Y-67369699D01*
X139265995Y-67397725D01*
X139214448Y-67421802D01*
X139172809Y-67440249D01*
X139144838Y-67451386D01*
X139135267Y-67453933D01*
X139116050Y-67458941D01*
X139111439Y-67463147D01*
X139116542Y-67473580D01*
X139132582Y-67499868D01*
X139157712Y-67539257D01*
X139190086Y-67588991D01*
X139227857Y-67646315D01*
X139269178Y-67708476D01*
X139312202Y-67772718D01*
X139355083Y-67836285D01*
X139395974Y-67896425D01*
X139433029Y-67950380D01*
X139464400Y-67995397D01*
X139488241Y-68028721D01*
X139502706Y-68047597D01*
X139504691Y-68049787D01*
X139514809Y-68045138D01*
X139537150Y-68027962D01*
X139567720Y-68001440D01*
X139583464Y-67986964D01*
X139679953Y-67911682D01*
X139786664Y-67856241D01*
X139902168Y-67821141D01*
X140025038Y-67806880D01*
X140094439Y-67808051D01*
X140215577Y-67825212D01*
X140324795Y-67861094D01*
X140422418Y-67915959D01*
X140508772Y-67990070D01*
X140584185Y-68083688D01*
X140648982Y-68197076D01*
X140686399Y-68283667D01*
X140730252Y-68419366D01*
X140762572Y-68566850D01*
X140783443Y-68722314D01*
X140792949Y-68881956D01*
X140791173Y-69041973D01*
X140778197Y-69198561D01*
X140754106Y-69347918D01*
X140718982Y-69486240D01*
X140672908Y-69609724D01*
X140656627Y-69643978D01*
X140588380Y-69758064D01*
X140507921Y-69854557D01*
X140416430Y-69932670D01*
X140315089Y-69991617D01*
X140205080Y-70030612D01*
X140087585Y-70048868D01*
X140046117Y-70050211D01*
X139924559Y-70039290D01*
X139804122Y-70006474D01*
X139686334Y-69952439D01*
X139572723Y-69877865D01*
X139481315Y-69799539D01*
X139434785Y-69755008D01*
X139253517Y-70052271D01*
X139208420Y-70126433D01*
X139167181Y-70194646D01*
X139131265Y-70254459D01*
X139102134Y-70303420D01*
X139081250Y-70339079D01*
X139070076Y-70358984D01*
X139068625Y-70362079D01*
X139076854Y-70371718D01*
X139102433Y-70388999D01*
X139142127Y-70412283D01*
X139192703Y-70439934D01*
X139250926Y-70470315D01*
X139313563Y-70501790D01*
X139377379Y-70532722D01*
X139439140Y-70561473D01*
X139495612Y-70586408D01*
X139543562Y-70605889D01*
X139567014Y-70614318D01*
X139700779Y-70652133D01*
X139838673Y-70677136D01*
X139986378Y-70690140D01*
X140113167Y-70692468D01*
X140181122Y-70691373D01*
X140246723Y-70689275D01*
X140304153Y-70686434D01*
X140347597Y-70683106D01*
X140361702Y-70681422D01*
X140500716Y-70652587D01*
X140642243Y-70607468D01*
X140779725Y-70548750D01*
X140906606Y-70479120D01*
X140984111Y-70426441D01*
X141111519Y-70318239D01*
X141229822Y-70191671D01*
X141336828Y-70049866D01*
X141430348Y-69895951D01*
X141508190Y-69733053D01*
X141552044Y-69615756D01*
X141602292Y-69432128D01*
X141635791Y-69237581D01*
X141652551Y-69036325D01*
X141652584Y-68832568D01*
X141635899Y-68630521D01*
X141602507Y-68434392D01*
X141552420Y-68248391D01*
X141548603Y-68236803D01*
X141485719Y-68074750D01*
X141408972Y-67926832D01*
X141315758Y-67788865D01*
X141203473Y-67656661D01*
X141159608Y-67611399D01*
X141023466Y-67487457D01*
X140883509Y-67384915D01*
X140737589Y-67302656D01*
X140583558Y-67239564D01*
X140419268Y-67194523D01*
X140323711Y-67177033D01*
X140164977Y-67161466D01*
X140006571Y-67164071D01*
G36*
X137661426Y-68081552D02*
X137509508Y-68101567D01*
X137374244Y-68135202D01*
X137254761Y-68182725D01*
X137150185Y-68244405D01*
X137072576Y-68307965D01*
X137003735Y-68382099D01*
X136949994Y-68461871D01*
X136907090Y-68554091D01*
X136891616Y-68597161D01*
X136878756Y-68636142D01*
X136867554Y-68672289D01*
X136857880Y-68707434D01*
X136849604Y-68743410D01*
X136842597Y-68782050D01*
X136836728Y-68825185D01*
X136831869Y-68874649D01*
X136827890Y-68932273D01*
X136824660Y-68999891D01*
X136822051Y-69079334D01*
X136819933Y-69172436D01*
X136818176Y-69281027D01*
X136816651Y-69406942D01*
X136815228Y-69552012D01*
X136813975Y-69694778D01*
X136812649Y-69850968D01*
X136811444Y-69986239D01*
X136810234Y-70102246D01*
X136808894Y-70200645D01*
X136807300Y-70283093D01*
X136805325Y-70351246D01*
X136802844Y-70406760D01*
X136799731Y-70451292D01*
X136795862Y-70486498D01*
X136791111Y-70514034D01*
X136785352Y-70535556D01*
X136778461Y-70552722D01*
X136770311Y-70567186D01*
X136760777Y-70580606D01*
X136749734Y-70594638D01*
X136745434Y-70600071D01*
X136729614Y-70622910D01*
X136722578Y-70638463D01*
X136722556Y-70638922D01*
X136733433Y-70641121D01*
X136764418Y-70643147D01*
X136813043Y-70644942D01*
X136876837Y-70646451D01*
X136953331Y-70647616D01*
X137040056Y-70648380D01*
X137134543Y-70648686D01*
X137145450Y-70648689D01*
X137568343Y-70648689D01*
X137571605Y-70552622D01*
X137574867Y-70456556D01*
X137636956Y-70507543D01*
X137734286Y-70575057D01*
X137844187Y-70629749D01*
X137930651Y-70659978D01*
X137999722Y-70674666D01*
X138083075Y-70684659D01*
X138172841Y-70689646D01*
X138261155Y-70689313D01*
X138340149Y-70683351D01*
X138376378Y-70677638D01*
X138516397Y-70639776D01*
X138642822Y-70584932D01*
X138754740Y-70513924D01*
X138851238Y-70427568D01*
X138931400Y-70326679D01*
X138994313Y-70212076D01*
X139038688Y-70085984D01*
X139051022Y-70029401D01*
X139058632Y-69967202D01*
X139062261Y-69892363D01*
X139062755Y-69858467D01*
X139062690Y-69855282D01*
X138302752Y-69855282D01*
X138293459Y-69930333D01*
X138265272Y-69994160D01*
X138216803Y-70049798D01*
X138211746Y-70054211D01*
X138163452Y-70089037D01*
X138111743Y-70111620D01*
X138051011Y-70123540D01*
X137975648Y-70126383D01*
X137957541Y-70125978D01*
X137903722Y-70123325D01*
X137863692Y-70117909D01*
X137828676Y-70107745D01*
X137789897Y-70090850D01*
X137779255Y-70085672D01*
X137718604Y-70049844D01*
X137671785Y-70007212D01*
X137659048Y-69991973D01*
X137614378Y-69935462D01*
X137614378Y-69739586D01*
X137614914Y-69660939D01*
X137616604Y-69602988D01*
X137619572Y-69563875D01*
X137623943Y-69541741D01*
X137628028Y-69535274D01*
X137643953Y-69532111D01*
X137677736Y-69529488D01*
X137724660Y-69527655D01*
X137780007Y-69526857D01*
X137788894Y-69526842D01*
X137909670Y-69532096D01*
X138012340Y-69548263D01*
X138098894Y-69575961D01*
X138171319Y-69615808D01*
X138226249Y-69662758D01*
X138270796Y-69720645D01*
X138295520Y-69783693D01*
X138302752Y-69855282D01*
X139062690Y-69855282D01*
X139060822Y-69764712D01*
X139052478Y-69685812D01*
X139036232Y-69614590D01*
X139010595Y-69543864D01*
X138986599Y-69491493D01*
X138927980Y-69396196D01*
X138849883Y-69308170D01*
X138754685Y-69229017D01*
X138644762Y-69160340D01*
X138522490Y-69103741D01*
X138390245Y-69060821D01*
X138325578Y-69045882D01*
X138189396Y-69023777D01*
X138040951Y-69009194D01*
X137889495Y-69002813D01*
X137762936Y-69004445D01*
X137601050Y-69011224D01*
X137608470Y-68952245D01*
X137627762Y-68853092D01*
X137658896Y-68772372D01*
X137702731Y-68709466D01*
X137760129Y-68663756D01*
X137831952Y-68634622D01*
X137919059Y-68621447D01*
X138022314Y-68623611D01*
X138060289Y-68627612D01*
X138201480Y-68652780D01*
X138338293Y-68693814D01*
X138432822Y-68731815D01*
X138477982Y-68751190D01*
X138516415Y-68766760D01*
X138542766Y-68776405D01*
X138550454Y-68778452D01*
X138560198Y-68769374D01*
X138576917Y-68740405D01*
X138600768Y-68691217D01*
X138631907Y-68621484D01*
X138670493Y-68530879D01*
X138677090Y-68515089D01*
X138707147Y-68442772D01*
X138734126Y-68377425D01*
X138756864Y-68321906D01*
X138774194Y-68279072D01*
X138784952Y-68251781D01*
X138788059Y-68242942D01*
X138778060Y-68238187D01*
X138751783Y-68232910D01*
X138723511Y-68229231D01*
X138693354Y-68224474D01*
X138645567Y-68215028D01*
X138584388Y-68201820D01*
X138514054Y-68185776D01*
X138438806Y-68167820D01*
X138410245Y-68160797D01*
X138305184Y-68135209D01*
X138217520Y-68115147D01*
X138142932Y-68099969D01*
X138077097Y-68089035D01*
X138015693Y-68081704D01*
X137954398Y-68077335D01*
X137888890Y-68075287D01*
X137830872Y-68074889D01*
X137661426Y-68081552D01*
X137661426Y-68081552D01*
G37*
X137661426Y-68081552D02*
X137509508Y-68101567D01*
X137374244Y-68135202D01*
X137254761Y-68182725D01*
X137150185Y-68244405D01*
X137072576Y-68307965D01*
X137003735Y-68382099D01*
X136949994Y-68461871D01*
X136907090Y-68554091D01*
X136891616Y-68597161D01*
X136878756Y-68636142D01*
X136867554Y-68672289D01*
X136857880Y-68707434D01*
X136849604Y-68743410D01*
X136842597Y-68782050D01*
X136836728Y-68825185D01*
X136831869Y-68874649D01*
X136827890Y-68932273D01*
X136824660Y-68999891D01*
X136822051Y-69079334D01*
X136819933Y-69172436D01*
X136818176Y-69281027D01*
X136816651Y-69406942D01*
X136815228Y-69552012D01*
X136813975Y-69694778D01*
X136812649Y-69850968D01*
X136811444Y-69986239D01*
X136810234Y-70102246D01*
X136808894Y-70200645D01*
X136807300Y-70283093D01*
X136805325Y-70351246D01*
X136802844Y-70406760D01*
X136799731Y-70451292D01*
X136795862Y-70486498D01*
X136791111Y-70514034D01*
X136785352Y-70535556D01*
X136778461Y-70552722D01*
X136770311Y-70567186D01*
X136760777Y-70580606D01*
X136749734Y-70594638D01*
X136745434Y-70600071D01*
X136729614Y-70622910D01*
X136722578Y-70638463D01*
X136722556Y-70638922D01*
X136733433Y-70641121D01*
X136764418Y-70643147D01*
X136813043Y-70644942D01*
X136876837Y-70646451D01*
X136953331Y-70647616D01*
X137040056Y-70648380D01*
X137134543Y-70648686D01*
X137145450Y-70648689D01*
X137568343Y-70648689D01*
X137571605Y-70552622D01*
X137574867Y-70456556D01*
X137636956Y-70507543D01*
X137734286Y-70575057D01*
X137844187Y-70629749D01*
X137930651Y-70659978D01*
X137999722Y-70674666D01*
X138083075Y-70684659D01*
X138172841Y-70689646D01*
X138261155Y-70689313D01*
X138340149Y-70683351D01*
X138376378Y-70677638D01*
X138516397Y-70639776D01*
X138642822Y-70584932D01*
X138754740Y-70513924D01*
X138851238Y-70427568D01*
X138931400Y-70326679D01*
X138994313Y-70212076D01*
X139038688Y-70085984D01*
X139051022Y-70029401D01*
X139058632Y-69967202D01*
X139062261Y-69892363D01*
X139062755Y-69858467D01*
X139062690Y-69855282D01*
X138302752Y-69855282D01*
X138293459Y-69930333D01*
X138265272Y-69994160D01*
X138216803Y-70049798D01*
X138211746Y-70054211D01*
X138163452Y-70089037D01*
X138111743Y-70111620D01*
X138051011Y-70123540D01*
X137975648Y-70126383D01*
X137957541Y-70125978D01*
X137903722Y-70123325D01*
X137863692Y-70117909D01*
X137828676Y-70107745D01*
X137789897Y-70090850D01*
X137779255Y-70085672D01*
X137718604Y-70049844D01*
X137671785Y-70007212D01*
X137659048Y-69991973D01*
X137614378Y-69935462D01*
X137614378Y-69739586D01*
X137614914Y-69660939D01*
X137616604Y-69602988D01*
X137619572Y-69563875D01*
X137623943Y-69541741D01*
X137628028Y-69535274D01*
X137643953Y-69532111D01*
X137677736Y-69529488D01*
X137724660Y-69527655D01*
X137780007Y-69526857D01*
X137788894Y-69526842D01*
X137909670Y-69532096D01*
X138012340Y-69548263D01*
X138098894Y-69575961D01*
X138171319Y-69615808D01*
X138226249Y-69662758D01*
X138270796Y-69720645D01*
X138295520Y-69783693D01*
X138302752Y-69855282D01*
X139062690Y-69855282D01*
X139060822Y-69764712D01*
X139052478Y-69685812D01*
X139036232Y-69614590D01*
X139010595Y-69543864D01*
X138986599Y-69491493D01*
X138927980Y-69396196D01*
X138849883Y-69308170D01*
X138754685Y-69229017D01*
X138644762Y-69160340D01*
X138522490Y-69103741D01*
X138390245Y-69060821D01*
X138325578Y-69045882D01*
X138189396Y-69023777D01*
X138040951Y-69009194D01*
X137889495Y-69002813D01*
X137762936Y-69004445D01*
X137601050Y-69011224D01*
X137608470Y-68952245D01*
X137627762Y-68853092D01*
X137658896Y-68772372D01*
X137702731Y-68709466D01*
X137760129Y-68663756D01*
X137831952Y-68634622D01*
X137919059Y-68621447D01*
X138022314Y-68623611D01*
X138060289Y-68627612D01*
X138201480Y-68652780D01*
X138338293Y-68693814D01*
X138432822Y-68731815D01*
X138477982Y-68751190D01*
X138516415Y-68766760D01*
X138542766Y-68776405D01*
X138550454Y-68778452D01*
X138560198Y-68769374D01*
X138576917Y-68740405D01*
X138600768Y-68691217D01*
X138631907Y-68621484D01*
X138670493Y-68530879D01*
X138677090Y-68515089D01*
X138707147Y-68442772D01*
X138734126Y-68377425D01*
X138756864Y-68321906D01*
X138774194Y-68279072D01*
X138784952Y-68251781D01*
X138788059Y-68242942D01*
X138778060Y-68238187D01*
X138751783Y-68232910D01*
X138723511Y-68229231D01*
X138693354Y-68224474D01*
X138645567Y-68215028D01*
X138584388Y-68201820D01*
X138514054Y-68185776D01*
X138438806Y-68167820D01*
X138410245Y-68160797D01*
X138305184Y-68135209D01*
X138217520Y-68115147D01*
X138142932Y-68099969D01*
X138077097Y-68089035D01*
X138015693Y-68081704D01*
X137954398Y-68077335D01*
X137888890Y-68075287D01*
X137830872Y-68074889D01*
X137661426Y-68081552D01*
G36*
X134148493Y-68687245D02*
X134148474Y-68921662D01*
X134148448Y-69134603D01*
X134148375Y-69327168D01*
X134148218Y-69500459D01*
X134147936Y-69655576D01*
X134147491Y-69793620D01*
X134146844Y-69915692D01*
X134145955Y-70022894D01*
X134144787Y-70116326D01*
X134143299Y-70197090D01*
X134141454Y-70266286D01*
X134139211Y-70325015D01*
X134136531Y-70374379D01*
X134133377Y-70415478D01*
X134129708Y-70449413D01*
X134125487Y-70477286D01*
X134120673Y-70500198D01*
X134115227Y-70519249D01*
X134109112Y-70535540D01*
X134102288Y-70550173D01*
X134094715Y-70564249D01*
X134086355Y-70578868D01*
X134081161Y-70587974D01*
X134046896Y-70648689D01*
X134905045Y-70648689D01*
X134905045Y-70552733D01*
X134905776Y-70509370D01*
X134907728Y-70476205D01*
X134910537Y-70458424D01*
X134911779Y-70456778D01*
X134923201Y-70463662D01*
X134945916Y-70481505D01*
X134968615Y-70500879D01*
X135023200Y-70541614D01*
X135092679Y-70582617D01*
X135169730Y-70620123D01*
X135247035Y-70650364D01*
X135277887Y-70660012D01*
X135346384Y-70674578D01*
X135429236Y-70684539D01*
X135518629Y-70689583D01*
X135606752Y-70689396D01*
X135685793Y-70683666D01*
X135723489Y-70677858D01*
X135861586Y-70639797D01*
X135988887Y-70582073D01*
X136104708Y-70505211D01*
X136208363Y-70409739D01*
X136299167Y-70296179D01*
X136365969Y-70185381D01*
X136420836Y-70068625D01*
X136462837Y-69949276D01*
X136492833Y-69823283D01*
X136511689Y-69686594D01*
X136520268Y-69535158D01*
X136520994Y-69457711D01*
X136518900Y-69400934D01*
X135689783Y-69400934D01*
X135689576Y-69494002D01*
X135686663Y-69581692D01*
X135681000Y-69658772D01*
X135672545Y-69720009D01*
X135669962Y-69732350D01*
X135638160Y-69839633D01*
X135596502Y-69926658D01*
X135544637Y-69993642D01*
X135482219Y-70040805D01*
X135408900Y-70068365D01*
X135324331Y-70076541D01*
X135228165Y-70065551D01*
X135164689Y-70049829D01*
X135115546Y-70031639D01*
X135061417Y-70005791D01*
X135020756Y-69982089D01*
X134950200Y-69935721D01*
X134950200Y-68785530D01*
X135017608Y-68741962D01*
X135096133Y-68701040D01*
X135180319Y-68674389D01*
X135265443Y-68662465D01*
X135346784Y-68665722D01*
X135419620Y-68684615D01*
X135451574Y-68700184D01*
X135509499Y-68743181D01*
X135558456Y-68799953D01*
X135599610Y-68872575D01*
X135634126Y-68963121D01*
X135663167Y-69073666D01*
X135664448Y-69079533D01*
X135674619Y-69141788D01*
X135682261Y-69219594D01*
X135687330Y-69307720D01*
X135689783Y-69400934D01*
X136518900Y-69400934D01*
X136513143Y-69244895D01*
X136491198Y-69049059D01*
X136455214Y-68870332D01*
X136405241Y-68708845D01*
X136341332Y-68564726D01*
X136263538Y-68438106D01*
X136171911Y-68329115D01*
X136066503Y-68237883D01*
X136021338Y-68206932D01*
X135920389Y-68150785D01*
X135817099Y-68111174D01*
X135707011Y-68087014D01*
X135585670Y-68077219D01*
X135493164Y-68078265D01*
X135363510Y-68089231D01*
X135250916Y-68111046D01*
X135152125Y-68144714D01*
X135063879Y-68191236D01*
X135015014Y-68225448D01*
X134985647Y-68247362D01*
X134963957Y-68262333D01*
X134955747Y-68266733D01*
X134954132Y-68255904D01*
X134952841Y-68225251D01*
X134951862Y-68177526D01*
X134951183Y-68115479D01*
X134950790Y-68041862D01*
X134950670Y-67959427D01*
X134950812Y-67870925D01*
X134951203Y-67779107D01*
X134951829Y-67686724D01*
X134952680Y-67596528D01*
X134953740Y-67511271D01*
X134954999Y-67433703D01*
X134956444Y-67366576D01*
X134958062Y-67312641D01*
X134959839Y-67274650D01*
X134960331Y-67267667D01*
X134967908Y-67197251D01*
X134979469Y-67142102D01*
X134997208Y-67094981D01*
X135023318Y-67048647D01*
X135029585Y-67039067D01*
X135054017Y-67002378D01*
X134148689Y-67002378D01*
X134148493Y-68687245D01*
X134148493Y-68687245D01*
G37*
X134148493Y-68687245D02*
X134148474Y-68921662D01*
X134148448Y-69134603D01*
X134148375Y-69327168D01*
X134148218Y-69500459D01*
X134147936Y-69655576D01*
X134147491Y-69793620D01*
X134146844Y-69915692D01*
X134145955Y-70022894D01*
X134144787Y-70116326D01*
X134143299Y-70197090D01*
X134141454Y-70266286D01*
X134139211Y-70325015D01*
X134136531Y-70374379D01*
X134133377Y-70415478D01*
X134129708Y-70449413D01*
X134125487Y-70477286D01*
X134120673Y-70500198D01*
X134115227Y-70519249D01*
X134109112Y-70535540D01*
X134102288Y-70550173D01*
X134094715Y-70564249D01*
X134086355Y-70578868D01*
X134081161Y-70587974D01*
X134046896Y-70648689D01*
X134905045Y-70648689D01*
X134905045Y-70552733D01*
X134905776Y-70509370D01*
X134907728Y-70476205D01*
X134910537Y-70458424D01*
X134911779Y-70456778D01*
X134923201Y-70463662D01*
X134945916Y-70481505D01*
X134968615Y-70500879D01*
X135023200Y-70541614D01*
X135092679Y-70582617D01*
X135169730Y-70620123D01*
X135247035Y-70650364D01*
X135277887Y-70660012D01*
X135346384Y-70674578D01*
X135429236Y-70684539D01*
X135518629Y-70689583D01*
X135606752Y-70689396D01*
X135685793Y-70683666D01*
X135723489Y-70677858D01*
X135861586Y-70639797D01*
X135988887Y-70582073D01*
X136104708Y-70505211D01*
X136208363Y-70409739D01*
X136299167Y-70296179D01*
X136365969Y-70185381D01*
X136420836Y-70068625D01*
X136462837Y-69949276D01*
X136492833Y-69823283D01*
X136511689Y-69686594D01*
X136520268Y-69535158D01*
X136520994Y-69457711D01*
X136518900Y-69400934D01*
X135689783Y-69400934D01*
X135689576Y-69494002D01*
X135686663Y-69581692D01*
X135681000Y-69658772D01*
X135672545Y-69720009D01*
X135669962Y-69732350D01*
X135638160Y-69839633D01*
X135596502Y-69926658D01*
X135544637Y-69993642D01*
X135482219Y-70040805D01*
X135408900Y-70068365D01*
X135324331Y-70076541D01*
X135228165Y-70065551D01*
X135164689Y-70049829D01*
X135115546Y-70031639D01*
X135061417Y-70005791D01*
X135020756Y-69982089D01*
X134950200Y-69935721D01*
X134950200Y-68785530D01*
X135017608Y-68741962D01*
X135096133Y-68701040D01*
X135180319Y-68674389D01*
X135265443Y-68662465D01*
X135346784Y-68665722D01*
X135419620Y-68684615D01*
X135451574Y-68700184D01*
X135509499Y-68743181D01*
X135558456Y-68799953D01*
X135599610Y-68872575D01*
X135634126Y-68963121D01*
X135663167Y-69073666D01*
X135664448Y-69079533D01*
X135674619Y-69141788D01*
X135682261Y-69219594D01*
X135687330Y-69307720D01*
X135689783Y-69400934D01*
X136518900Y-69400934D01*
X136513143Y-69244895D01*
X136491198Y-69049059D01*
X136455214Y-68870332D01*
X136405241Y-68708845D01*
X136341332Y-68564726D01*
X136263538Y-68438106D01*
X136171911Y-68329115D01*
X136066503Y-68237883D01*
X136021338Y-68206932D01*
X135920389Y-68150785D01*
X135817099Y-68111174D01*
X135707011Y-68087014D01*
X135585670Y-68077219D01*
X135493164Y-68078265D01*
X135363510Y-68089231D01*
X135250916Y-68111046D01*
X135152125Y-68144714D01*
X135063879Y-68191236D01*
X135015014Y-68225448D01*
X134985647Y-68247362D01*
X134963957Y-68262333D01*
X134955747Y-68266733D01*
X134954132Y-68255904D01*
X134952841Y-68225251D01*
X134951862Y-68177526D01*
X134951183Y-68115479D01*
X134950790Y-68041862D01*
X134950670Y-67959427D01*
X134950812Y-67870925D01*
X134951203Y-67779107D01*
X134951829Y-67686724D01*
X134952680Y-67596528D01*
X134953740Y-67511271D01*
X134954999Y-67433703D01*
X134956444Y-67366576D01*
X134958062Y-67312641D01*
X134959839Y-67274650D01*
X134960331Y-67267667D01*
X134967908Y-67197251D01*
X134979469Y-67142102D01*
X134997208Y-67094981D01*
X135023318Y-67048647D01*
X135029585Y-67039067D01*
X135054017Y-67002378D01*
X134148689Y-67002378D01*
X134148493Y-68687245D01*
G36*
X142608043Y-66241571D02*
X142511768Y-66265809D01*
X142425184Y-66308641D01*
X142350373Y-66368419D01*
X142289418Y-66443494D01*
X142244399Y-66532220D01*
X142218136Y-66628530D01*
X142212286Y-66725795D01*
X142227140Y-66819654D01*
X142260840Y-66907511D01*
X142311528Y-66986770D01*
X142377345Y-67054836D01*
X142456434Y-67109112D01*
X142546934Y-67147002D01*
X142598200Y-67159426D01*
X142642698Y-67166947D01*
X142676999Y-67169919D01*
X142709960Y-67168094D01*
X142750434Y-67161225D01*
X142783531Y-67154250D01*
X142876947Y-67122741D01*
X142960619Y-67071617D01*
X143032665Y-67002429D01*
X143091200Y-66916728D01*
X143105148Y-66889489D01*
X143121586Y-66853122D01*
X143131894Y-66822582D01*
X143137460Y-66790450D01*
X143139669Y-66749307D01*
X143139948Y-66703222D01*
X143135861Y-66618865D01*
X143122446Y-66549586D01*
X143097256Y-66488961D01*
X143057846Y-66430567D01*
X143019298Y-66386302D01*
X142947406Y-66320484D01*
X142872313Y-66275053D01*
X142789562Y-66247850D01*
X142711928Y-66237576D01*
X142608043Y-66241571D01*
X142608043Y-66241571D01*
G37*
X142608043Y-66241571D02*
X142511768Y-66265809D01*
X142425184Y-66308641D01*
X142350373Y-66368419D01*
X142289418Y-66443494D01*
X142244399Y-66532220D01*
X142218136Y-66628530D01*
X142212286Y-66725795D01*
X142227140Y-66819654D01*
X142260840Y-66907511D01*
X142311528Y-66986770D01*
X142377345Y-67054836D01*
X142456434Y-67109112D01*
X142546934Y-67147002D01*
X142598200Y-67159426D01*
X142642698Y-67166947D01*
X142676999Y-67169919D01*
X142709960Y-67168094D01*
X142750434Y-67161225D01*
X142783531Y-67154250D01*
X142876947Y-67122741D01*
X142960619Y-67071617D01*
X143032665Y-67002429D01*
X143091200Y-66916728D01*
X143105148Y-66889489D01*
X143121586Y-66853122D01*
X143131894Y-66822582D01*
X143137460Y-66790450D01*
X143139669Y-66749307D01*
X143139948Y-66703222D01*
X143135861Y-66618865D01*
X143122446Y-66549586D01*
X143097256Y-66488961D01*
X143057846Y-66430567D01*
X143019298Y-66386302D01*
X142947406Y-66320484D01*
X142872313Y-66275053D01*
X142789562Y-66247850D01*
X142711928Y-66237576D01*
X142608043Y-66241571D01*
D15*
X184150000Y-87710000D03*
X184150000Y-90210000D03*
X184150000Y-92710000D03*
D16*
X177150000Y-85810000D03*
X177150000Y-94610000D03*
D17*
X124475000Y-115285000D03*
D18*
X129540000Y-91440000D03*
D15*
X127000000Y-91440000D03*
D18*
X129540000Y-83820000D03*
D15*
X127000000Y-83820000D03*
D19*
X144780000Y-119380000D03*
D20*
X147320000Y-119380000D03*
X149860000Y-119380000D03*
X152400000Y-119380000D03*
X154940000Y-119380000D03*
X157480000Y-119380000D03*
X160020000Y-119380000D03*
X162560000Y-119380000D03*
D21*
X149860000Y-104140000D03*
D22*
X149860000Y-101600000D03*
D23*
X147320000Y-99060000D03*
X144780000Y-99060000D03*
X149860000Y-99060000D03*
D15*
X170180000Y-87710000D03*
X170180000Y-90210000D03*
X170180000Y-92710000D03*
D16*
X177180000Y-85810000D03*
X177180000Y-94610000D03*
D23*
X144780000Y-109220000D03*
X144780000Y-106680000D03*
X144780000Y-111760000D03*
D24*
X133985000Y-91440000D03*
D21*
X136485000Y-91440000D03*
D24*
X139700000Y-91440000D03*
D21*
X142240000Y-91440000D03*
D24*
X138430000Y-73660000D03*
D21*
X140930000Y-73660000D03*
D24*
X158750000Y-63500000D03*
D21*
X158750000Y-66040000D03*
D24*
X141960000Y-63500000D03*
D22*
X149580000Y-63500000D03*
D19*
X129540000Y-63500000D03*
D20*
X127000000Y-63500000D03*
D21*
X152400000Y-116840000D03*
D22*
X142240000Y-116840000D03*
D21*
X154940000Y-116840000D03*
D22*
X165100000Y-116840000D03*
D21*
X152400000Y-114300000D03*
D22*
X142240000Y-114300000D03*
D21*
X154940000Y-114300000D03*
D22*
X165100000Y-114300000D03*
D21*
X165100000Y-78740000D03*
D22*
X165100000Y-88900000D03*
D21*
X172720000Y-96520000D03*
D22*
X172720000Y-106680000D03*
D19*
X172720000Y-76200000D03*
D20*
X172720000Y-73660000D03*
D25*
X165100000Y-74930000D03*
X167640000Y-74930000D03*
D26*
X162560000Y-74930000D03*
D21*
X134620000Y-109220000D03*
X129620000Y-109220000D03*
X167640000Y-78740000D03*
X167640000Y-83740000D03*
X165100000Y-99060000D03*
X170100000Y-99060000D03*
X175260000Y-106680000D03*
X180260000Y-106680000D03*
X137160000Y-86360000D03*
X142160000Y-86360000D03*
D24*
X142240000Y-99060000D03*
D22*
X134620000Y-106680000D03*
X139700000Y-99060000D03*
X137160000Y-106680000D03*
X137160000Y-99060000D03*
X139700000Y-106680000D03*
X134620000Y-99060000D03*
X142240000Y-106680000D03*
D24*
X170180000Y-109220000D03*
D22*
X162560000Y-101600000D03*
X170180000Y-106680000D03*
X162560000Y-104140000D03*
X170180000Y-104140000D03*
X162560000Y-106680000D03*
X170180000Y-101600000D03*
X162560000Y-109220000D03*
D27*
X142240000Y-111760000D03*
X144780000Y-114300000D03*
X157480000Y-99060000D03*
X157480000Y-104140000D03*
X172720000Y-101600000D03*
X129540000Y-76200000D03*
X135890000Y-73660000D03*
X143510000Y-73660000D03*
X158750000Y-60960000D03*
X177800000Y-106680000D03*
D21*
X132080000Y-104140000D03*
X132080000Y-99060000D03*
X162560000Y-111760000D03*
X167640000Y-111760000D03*
D28*
X135890000Y-119380000D03*
X171450000Y-119380000D03*
D29*
X130660000Y-49500000D03*
X143860000Y-49500000D03*
D30*
X132560000Y-59000000D03*
D31*
X137260000Y-59000000D03*
X141960000Y-59000000D03*
D21*
X129540000Y-111760000D03*
D22*
X132080000Y-111760000D03*
D21*
X137160000Y-111760000D03*
D22*
X139700000Y-111760000D03*
D21*
X137160000Y-109220000D03*
D22*
X139700000Y-109220000D03*
D21*
X144780000Y-104140000D03*
D22*
X147320000Y-104140000D03*
D21*
X149860000Y-109220000D03*
D22*
X149860000Y-106680000D03*
D21*
X157480000Y-111760000D03*
D22*
X157480000Y-101600000D03*
D21*
X154940000Y-111760000D03*
D22*
X154940000Y-101600000D03*
D21*
X152400000Y-99060000D03*
D22*
X162560000Y-99060000D03*
D18*
X129540000Y-91440000D03*
D15*
X127000000Y-91440000D03*
D18*
X129540000Y-83820000D03*
D15*
X127000000Y-83820000D03*
D21*
X132080000Y-96520000D03*
D22*
X129540000Y-96520000D03*
D21*
X139700000Y-96520000D03*
D22*
X137160000Y-96520000D03*
D21*
X177800000Y-104140000D03*
D22*
X175260000Y-104140000D03*
D21*
X160020000Y-111760000D03*
D22*
X160020000Y-101600000D03*
D21*
X144780000Y-78740000D03*
D22*
X134620000Y-78740000D03*
D30*
X170180000Y-58420000D03*
X170180000Y-52420000D03*
X165480000Y-55420000D03*
D24*
X177800000Y-111760000D03*
D22*
X172720000Y-111760000D03*
D21*
X172720000Y-109220000D03*
D22*
X182880000Y-109220000D03*
D32*
X128270000Y-67310000D03*
D24*
X171450000Y-63500000D03*
D21*
X173950000Y-63500000D03*
D25*
X165100000Y-63500000D03*
X167640000Y-63500000D03*
D26*
X162560000Y-63500000D03*
D21*
X142240000Y-83820000D03*
D22*
X132080000Y-83820000D03*
D33*
X144780000Y-123190000D03*
D34*
X152400000Y-123190000D03*
D33*
X154940000Y-123190000D03*
D34*
X162560000Y-123190000D03*
D19*
X167640000Y-91440000D03*
D20*
X167640000Y-93980000D03*
D17*
X125047600Y-75285000D03*
X181730000Y-75285000D03*
X182300000Y-115285000D03*
D35*
X153400000Y-70485000D03*
X153400000Y-53300000D03*
M02*
