G04 #@! TF.FileFunction,Copper,L1,Top,Signal*
%FSLAX46Y46*%
G04 Gerber Fmt 4.6, Leading zero omitted, Abs format (unit mm)*
G04 Created by KiCad (PCBNEW 4.0.7-e2-6376~61~ubuntu18.04.1) date Sat Sep  1 13:46:59 2018*
%MOMM*%
%LPD*%
G01*
G04 APERTURE LIST*
%ADD10C,0.100000*%
%ADD11C,0.200000*%
%ADD12C,1.800000*%
%ADD13O,4.000000X4.000000*%
%ADD14R,1.800000X1.800000*%
%ADD15R,1.700000X1.700000*%
%ADD16O,1.700000X1.700000*%
%ADD17C,1.600000*%
%ADD18O,1.600000X1.600000*%
%ADD19C,1.524000*%
%ADD20R,1.600000X1.600000*%
%ADD21C,1.520000*%
%ADD22R,1.520000X1.520000*%
%ADD23C,8.200000*%
%ADD24R,1.600000X2.850000*%
%ADD25R,3.500000X3.500000*%
%ADD26C,3.500000*%
%ADD27C,1.000000*%
%ADD28C,0.750000*%
%ADD29C,0.500000*%
G04 APERTURE END LIST*
D10*
D11*
X123607304Y-48551869D02*
X124802737Y-48656456D01*
X123562481Y-49064198D02*
X124188660Y-49118982D01*
X124307491Y-49072017D01*
X124374378Y-48963146D01*
X124389318Y-48792371D01*
X124342354Y-48673539D01*
X124290408Y-48611633D01*
X124324574Y-49532401D02*
X124284732Y-49987804D01*
X124708111Y-49738039D02*
X123683453Y-49648393D01*
X123564623Y-49695358D01*
X123497737Y-49804229D01*
X123487776Y-49918080D01*
X124264810Y-50215505D02*
X124224968Y-50670909D01*
X124648347Y-50421143D02*
X123623689Y-50331497D01*
X123504859Y-50378462D01*
X123437973Y-50487333D01*
X123428012Y-50601184D01*
X124190105Y-51069386D02*
X122994672Y-50964799D01*
X124133180Y-51064405D02*
X124180145Y-51183237D01*
X124160224Y-51410938D01*
X124093337Y-51519809D01*
X124031431Y-51571754D01*
X123912600Y-51618719D01*
X123571048Y-51588837D01*
X123462178Y-51521951D01*
X123410233Y-51460045D01*
X123363268Y-51341214D01*
X123383189Y-51113512D01*
X123450075Y-51004642D01*
X123412375Y-52091204D02*
X123350469Y-52143150D01*
X123298524Y-52081244D01*
X123360429Y-52029299D01*
X123412375Y-52091204D01*
X123298524Y-52081244D01*
X124038554Y-52145988D02*
X123976648Y-52197933D01*
X123924703Y-52136027D01*
X123986609Y-52084082D01*
X124038554Y-52145988D01*
X123924703Y-52136027D01*
X124426374Y-53613947D02*
X122979034Y-52454821D01*
X124316807Y-54866306D02*
X122869467Y-53707180D01*
X123781719Y-55737270D02*
X122813986Y-55652605D01*
X122705116Y-55585718D01*
X122653171Y-55523813D01*
X122606206Y-55404982D01*
X122621147Y-55234205D01*
X122688033Y-55125335D01*
X123041688Y-55672526D02*
X122994723Y-55553695D01*
X123014645Y-55325993D01*
X123081531Y-55217123D01*
X123143437Y-55165177D01*
X123262267Y-55118212D01*
X123603820Y-55148094D01*
X123712690Y-55214981D01*
X123764636Y-55276886D01*
X123811600Y-55395718D01*
X123791679Y-55623419D01*
X123724793Y-55732290D01*
X122934960Y-56236799D02*
X123731915Y-56306524D01*
X124130393Y-56341386D02*
X124078448Y-56279480D01*
X124016542Y-56331425D01*
X124068487Y-56393331D01*
X124130393Y-56341386D01*
X124016542Y-56331425D01*
X123697053Y-56705003D02*
X123657210Y-57160406D01*
X124080590Y-56910641D02*
X123055932Y-56820995D01*
X122937101Y-56867960D01*
X122870215Y-56976830D01*
X122860254Y-57090681D01*
X122825392Y-57489158D02*
X124020826Y-57593745D01*
X122780569Y-58001487D02*
X123406748Y-58056271D01*
X123525580Y-58009306D01*
X123592466Y-57900435D01*
X123607407Y-57729660D01*
X123560442Y-57610828D01*
X123508497Y-57548922D01*
X123482899Y-59152794D02*
X122685943Y-59083070D01*
X123527722Y-58640466D02*
X122901542Y-58585682D01*
X122782711Y-58632647D01*
X122715825Y-58741518D01*
X122700884Y-58912293D01*
X122747849Y-59031125D01*
X122799794Y-59093031D01*
X122636140Y-59652323D02*
X123831574Y-59756910D01*
X123376170Y-59717068D02*
X123423135Y-59835899D01*
X123403214Y-60063600D01*
X123336327Y-60172471D01*
X123274422Y-60224416D01*
X123155590Y-60271381D01*
X122814038Y-60241499D01*
X122705168Y-60174613D01*
X122653223Y-60112707D01*
X122606258Y-59993876D01*
X122626179Y-59766175D01*
X122693065Y-59657304D01*
X122655365Y-60743867D02*
X122593459Y-60795812D01*
X122541514Y-60733906D01*
X122603420Y-60681961D01*
X122655365Y-60743867D01*
X122541514Y-60733906D01*
X122503813Y-61820470D02*
X122456848Y-61701638D01*
X122476769Y-61473937D01*
X122543656Y-61365066D01*
X122605561Y-61313121D01*
X122724392Y-61266156D01*
X123065944Y-61296038D01*
X123174815Y-61362924D01*
X123226760Y-61424830D01*
X123273725Y-61543662D01*
X123253804Y-61771363D01*
X123186918Y-61880234D01*
X122387123Y-62498594D02*
X122454010Y-62389723D01*
X122515916Y-62337778D01*
X122634746Y-62290813D01*
X122976298Y-62320695D01*
X123085169Y-62387581D01*
X123137114Y-62449487D01*
X123184079Y-62568319D01*
X123169138Y-62739094D01*
X123102252Y-62847965D01*
X123040346Y-62899910D01*
X122921515Y-62946875D01*
X122579962Y-62916993D01*
X122471093Y-62850107D01*
X122419147Y-62788201D01*
X122372183Y-62669370D01*
X122387123Y-62498594D01*
X122307438Y-63409400D02*
X123104394Y-63479125D01*
X122990543Y-63469164D02*
X123042488Y-63531070D01*
X123089453Y-63649901D01*
X123074512Y-63820677D01*
X123007626Y-63929548D01*
X122888794Y-63976513D01*
X122262615Y-63921729D01*
X122888794Y-63976513D02*
X122997665Y-64043399D01*
X123044630Y-64162230D01*
X123029689Y-64333006D01*
X122962803Y-64441877D01*
X122843971Y-64488842D01*
X122217792Y-64434058D01*
X123345643Y-65966760D02*
X121898303Y-64807634D01*
X122810555Y-66837724D02*
X122013599Y-66768000D01*
X123290860Y-66592940D02*
X122461880Y-66233607D01*
X122397136Y-66973639D01*
X121968776Y-67280329D02*
X122710948Y-67976232D01*
X122765732Y-67350053D02*
X121913992Y-67906508D01*
X121819366Y-68988091D02*
X121879130Y-68304986D01*
X121849248Y-68646539D02*
X123044682Y-68751126D01*
X122883866Y-68622334D01*
X122779976Y-68498522D01*
X122733011Y-68379691D01*
X121774543Y-69500419D02*
X122571499Y-69570144D01*
X122457648Y-69560183D02*
X122509593Y-69622089D01*
X122556558Y-69740921D01*
X122541617Y-69911696D01*
X122474731Y-70020567D01*
X122355899Y-70067532D01*
X121729720Y-70012748D01*
X122355899Y-70067532D02*
X122464770Y-70134418D01*
X122511735Y-70253250D01*
X122496794Y-70424025D01*
X122429908Y-70532896D01*
X122311076Y-70579861D01*
X121684897Y-70525077D01*
X121590271Y-71606660D02*
X122785705Y-71711247D01*
X121647197Y-71611640D02*
X121600232Y-71492809D01*
X121620153Y-71265107D01*
X121687039Y-71156237D01*
X121748945Y-71104292D01*
X121867775Y-71057327D01*
X122209328Y-71087209D01*
X122318199Y-71154095D01*
X122370144Y-71216001D01*
X122417109Y-71334832D01*
X122397187Y-71562533D01*
X122330301Y-71671404D01*
X122718122Y-73139362D02*
X121270782Y-71980236D01*
X121386078Y-73940602D02*
X122012257Y-73995385D01*
X122131088Y-73948420D01*
X122197974Y-73839549D01*
X122217896Y-73611848D01*
X122170931Y-73493017D01*
X121443003Y-73945582D02*
X121396038Y-73826750D01*
X121420940Y-73542124D01*
X121487826Y-73433253D01*
X121606656Y-73386288D01*
X121720508Y-73396249D01*
X121829378Y-73463135D01*
X121876343Y-73581966D01*
X121851442Y-73866593D01*
X121898406Y-73985425D01*
X122133230Y-74579580D02*
X121336274Y-74509855D01*
X122019379Y-74569619D02*
X122071324Y-74631525D01*
X122118289Y-74750356D01*
X122103348Y-74921132D01*
X122036462Y-75030003D01*
X121917630Y-75076968D01*
X121291451Y-75022184D01*
X121196825Y-76103767D02*
X121823004Y-76158550D01*
X121941836Y-76111585D01*
X122008722Y-76002715D01*
X122028643Y-75775013D01*
X121981678Y-75656182D01*
X121253751Y-76108747D02*
X121206786Y-75989915D01*
X121231687Y-75705289D01*
X121298574Y-75596418D01*
X121417404Y-75549453D01*
X121531255Y-75559414D01*
X121640126Y-75626300D01*
X121687091Y-75745131D01*
X121662189Y-76029758D01*
X121709154Y-76148590D01*
X121132081Y-76843797D02*
X121198967Y-76734926D01*
X121317798Y-76687961D01*
X122342455Y-76777607D01*
X121077297Y-77469976D02*
X121144183Y-77361105D01*
X121206089Y-77309160D01*
X121324920Y-77262195D01*
X121666472Y-77292077D01*
X121775343Y-77358963D01*
X121827288Y-77420869D01*
X121874253Y-77539700D01*
X121859312Y-77710476D01*
X121792426Y-77819347D01*
X121730520Y-77871292D01*
X121611689Y-77918257D01*
X121270136Y-77888375D01*
X121161266Y-77821489D01*
X121109321Y-77759583D01*
X121062356Y-77640752D01*
X121077297Y-77469976D01*
X121749745Y-78962835D02*
X120782012Y-78878170D01*
X120673143Y-78811284D01*
X120621197Y-78749378D01*
X120574232Y-78630547D01*
X120589174Y-78459771D01*
X120656060Y-78350900D01*
X121009715Y-78898091D02*
X120962750Y-78779260D01*
X120982671Y-78551558D01*
X121049557Y-78442688D01*
X121111463Y-78390742D01*
X121230294Y-78343777D01*
X121571846Y-78373659D01*
X121680717Y-78440546D01*
X121732662Y-78502452D01*
X121779627Y-78621283D01*
X121759706Y-78848984D01*
X121692819Y-78957855D01*
X120814036Y-79167777D02*
X120734351Y-80078584D01*
X120840384Y-80833555D02*
X120793419Y-80714723D01*
X120813340Y-80487022D01*
X120880226Y-80378152D01*
X120999057Y-80331187D01*
X121454460Y-80371029D01*
X121563331Y-80437915D01*
X121610296Y-80556747D01*
X121590374Y-80784448D01*
X121523488Y-80893319D01*
X121404657Y-80940284D01*
X121290807Y-80930323D01*
X121226759Y-80351108D01*
X120795561Y-81345883D02*
X120728674Y-81454754D01*
X120708753Y-81682456D01*
X120755718Y-81801286D01*
X120864588Y-81868173D01*
X120921513Y-81873153D01*
X121040345Y-81826188D01*
X121107231Y-81717318D01*
X121122172Y-81546542D01*
X121189058Y-81437671D01*
X121307889Y-81390706D01*
X121364814Y-81395686D01*
X121473685Y-81462572D01*
X121520650Y-81581404D01*
X121505709Y-81752181D01*
X121438823Y-81861050D01*
X120648989Y-82365561D02*
X121445945Y-82435285D01*
X121218243Y-82415364D02*
X121327113Y-82482250D01*
X121379059Y-82544156D01*
X121426024Y-82662987D01*
X121416063Y-82776837D01*
X120495295Y-82811003D02*
X120415610Y-83721810D01*
X120504560Y-84016398D02*
X121301515Y-84086122D01*
X121187664Y-84076162D02*
X121239609Y-84138067D01*
X121286574Y-84256899D01*
X121271633Y-84427675D01*
X121204747Y-84536545D01*
X121085916Y-84583510D01*
X120459737Y-84528727D01*
X121085916Y-84583510D02*
X121194786Y-84650396D01*
X121241751Y-84769228D01*
X121226810Y-84940004D01*
X121159924Y-85048874D01*
X121041093Y-85095839D01*
X120414914Y-85041056D01*
X120382193Y-86070693D02*
X120335228Y-85951861D01*
X120355150Y-85724160D01*
X120422036Y-85615289D01*
X120540866Y-85568325D01*
X120996270Y-85608167D01*
X121105141Y-85675053D01*
X121152105Y-85793885D01*
X121132184Y-86021586D01*
X121065298Y-86130457D01*
X120946467Y-86177422D01*
X120832616Y-86167461D01*
X120768569Y-85588246D01*
X121087361Y-86533915D02*
X121047519Y-86989318D01*
X121470898Y-86739553D02*
X120446240Y-86649907D01*
X120327410Y-86696872D01*
X120260523Y-86805743D01*
X120250563Y-86919594D01*
X120232784Y-87778455D02*
X120185819Y-87659623D01*
X120205740Y-87431922D01*
X120272626Y-87323051D01*
X120391457Y-87276086D01*
X120846860Y-87315929D01*
X120955731Y-87382815D01*
X121002696Y-87501646D01*
X120982774Y-87729348D01*
X120915888Y-87838218D01*
X120797057Y-87885183D01*
X120683207Y-87875223D01*
X120619159Y-87296008D01*
X120126055Y-88342728D02*
X120923010Y-88412452D01*
X120695308Y-88392531D02*
X120804179Y-88459417D01*
X120856124Y-88521323D01*
X120903089Y-88640155D01*
X120893129Y-88754005D01*
X128127143Y-119915714D02*
X128055714Y-119987143D01*
X127841428Y-120058571D01*
X127698571Y-120058571D01*
X127484286Y-119987143D01*
X127341428Y-119844286D01*
X127270000Y-119701429D01*
X127198571Y-119415714D01*
X127198571Y-119201429D01*
X127270000Y-118915714D01*
X127341428Y-118772857D01*
X127484286Y-118630000D01*
X127698571Y-118558571D01*
X127841428Y-118558571D01*
X128055714Y-118630000D01*
X128127143Y-118701429D01*
X128627143Y-120058571D02*
X129412857Y-119058571D01*
X128627143Y-119058571D02*
X129412857Y-120058571D01*
X173265714Y-57953095D02*
X173265714Y-57536428D01*
X173920476Y-57357857D02*
X173920476Y-57953095D01*
X172670476Y-57953095D01*
X172670476Y-57357857D01*
X173920476Y-56941191D02*
X173087143Y-56286429D01*
X173087143Y-56941191D02*
X173920476Y-56286429D01*
X173087143Y-55988809D02*
X173087143Y-55512619D01*
X172670476Y-55810238D02*
X173741905Y-55810238D01*
X173860952Y-55750714D01*
X173920476Y-55631667D01*
X173920476Y-55512619D01*
X173801429Y-55095952D02*
X173860952Y-55036428D01*
X173920476Y-55095952D01*
X173860952Y-55155476D01*
X173801429Y-55095952D01*
X173920476Y-55095952D01*
X173087143Y-53548333D02*
X174337143Y-53548333D01*
X173146667Y-53548333D02*
X173087143Y-53429285D01*
X173087143Y-53191190D01*
X173146667Y-53072142D01*
X173206190Y-53012619D01*
X173325238Y-52953095D01*
X173682381Y-52953095D01*
X173801429Y-53012619D01*
X173860952Y-53072142D01*
X173920476Y-53191190D01*
X173920476Y-53429285D01*
X173860952Y-53548333D01*
X173920476Y-52238810D02*
X173860952Y-52357857D01*
X173801429Y-52417381D01*
X173682381Y-52476905D01*
X173325238Y-52476905D01*
X173206190Y-52417381D01*
X173146667Y-52357857D01*
X173087143Y-52238810D01*
X173087143Y-52060238D01*
X173146667Y-51941190D01*
X173206190Y-51881667D01*
X173325238Y-51822143D01*
X173682381Y-51822143D01*
X173801429Y-51881667D01*
X173860952Y-51941190D01*
X173920476Y-52060238D01*
X173920476Y-52238810D01*
X173087143Y-51405477D02*
X173920476Y-51167381D01*
X173325238Y-50929286D01*
X173920476Y-50691191D01*
X173087143Y-50453096D01*
X173860952Y-49500714D02*
X173920476Y-49619762D01*
X173920476Y-49857857D01*
X173860952Y-49976905D01*
X173741905Y-50036429D01*
X173265714Y-50036429D01*
X173146667Y-49976905D01*
X173087143Y-49857857D01*
X173087143Y-49619762D01*
X173146667Y-49500714D01*
X173265714Y-49441191D01*
X173384762Y-49441191D01*
X173503810Y-50036429D01*
X173920476Y-48905476D02*
X173087143Y-48905476D01*
X173325238Y-48905476D02*
X173206190Y-48845952D01*
X173146667Y-48786428D01*
X173087143Y-48667381D01*
X173087143Y-48548333D01*
X145365476Y-54143334D02*
X145365476Y-53905238D01*
X145425000Y-53786191D01*
X145544048Y-53667143D01*
X145782143Y-53607619D01*
X146198810Y-53607619D01*
X146436905Y-53667143D01*
X146555952Y-53786191D01*
X146615476Y-53905238D01*
X146615476Y-54143334D01*
X146555952Y-54262381D01*
X146436905Y-54381429D01*
X146198810Y-54440953D01*
X145782143Y-54440953D01*
X145544048Y-54381429D01*
X145425000Y-54262381D01*
X145365476Y-54143334D01*
X145782143Y-53071905D02*
X146615476Y-53071905D01*
X145901190Y-53071905D02*
X145841667Y-53012381D01*
X145782143Y-52893334D01*
X145782143Y-52714762D01*
X145841667Y-52595714D01*
X145960714Y-52536191D01*
X146615476Y-52536191D01*
X145305952Y-51048096D02*
X146913095Y-52119524D01*
X145365476Y-50393334D02*
X145365476Y-50155238D01*
X145425000Y-50036191D01*
X145544048Y-49917143D01*
X145782143Y-49857619D01*
X146198810Y-49857619D01*
X146436905Y-49917143D01*
X146555952Y-50036191D01*
X146615476Y-50155238D01*
X146615476Y-50393334D01*
X146555952Y-50512381D01*
X146436905Y-50631429D01*
X146198810Y-50690953D01*
X145782143Y-50690953D01*
X145544048Y-50631429D01*
X145425000Y-50512381D01*
X145365476Y-50393334D01*
X145782143Y-49500476D02*
X145782143Y-49024286D01*
X146615476Y-49321905D02*
X145544048Y-49321905D01*
X145425000Y-49262381D01*
X145365476Y-49143334D01*
X145365476Y-49024286D01*
X145782143Y-48786190D02*
X145782143Y-48310000D01*
X146615476Y-48607619D02*
X145544048Y-48607619D01*
X145425000Y-48548095D01*
X145365476Y-48429048D01*
X145365476Y-48310000D01*
D12*
X184150000Y-87710000D03*
X184150000Y-90210000D03*
X184150000Y-92710000D03*
D13*
X177150000Y-85810000D03*
X177150000Y-94610000D03*
D14*
X129540000Y-91440000D03*
D12*
X127000000Y-91440000D03*
D14*
X129540000Y-83820000D03*
D12*
X127000000Y-83820000D03*
D15*
X144780000Y-119380000D03*
D16*
X147320000Y-119380000D03*
X149860000Y-119380000D03*
X152400000Y-119380000D03*
X154940000Y-119380000D03*
X157480000Y-119380000D03*
X160020000Y-119380000D03*
X162560000Y-119380000D03*
D17*
X149860000Y-104140000D03*
D18*
X149860000Y-101600000D03*
D19*
X147320000Y-99060000D03*
X144780000Y-99060000D03*
X149860000Y-99060000D03*
D12*
X170180000Y-87710000D03*
X170180000Y-90210000D03*
X170180000Y-92710000D03*
D13*
X177180000Y-85810000D03*
X177180000Y-94610000D03*
D19*
X144780000Y-109220000D03*
X144780000Y-106680000D03*
X144780000Y-111760000D03*
D20*
X133985000Y-91440000D03*
D17*
X136485000Y-91440000D03*
D20*
X139700000Y-91440000D03*
D17*
X142240000Y-91440000D03*
D20*
X138430000Y-73660000D03*
D17*
X140930000Y-73660000D03*
D20*
X158750000Y-63500000D03*
D17*
X158750000Y-66040000D03*
D20*
X141960000Y-63500000D03*
D18*
X149580000Y-63500000D03*
D15*
X129540000Y-63500000D03*
D16*
X127000000Y-63500000D03*
D17*
X152400000Y-116840000D03*
D18*
X142240000Y-116840000D03*
D17*
X154940000Y-116840000D03*
D18*
X165100000Y-116840000D03*
D17*
X152400000Y-114300000D03*
D18*
X142240000Y-114300000D03*
D17*
X154940000Y-114300000D03*
D18*
X165100000Y-114300000D03*
D17*
X165100000Y-78740000D03*
D18*
X165100000Y-88900000D03*
D17*
X172720000Y-96520000D03*
D18*
X172720000Y-106680000D03*
D15*
X172720000Y-76200000D03*
D16*
X172720000Y-73660000D03*
D21*
X165100000Y-74930000D03*
X167640000Y-74930000D03*
D22*
X162560000Y-74930000D03*
D17*
X134620000Y-109220000D03*
X129620000Y-109220000D03*
X167640000Y-78740000D03*
X167640000Y-83740000D03*
X165100000Y-99060000D03*
X170100000Y-99060000D03*
X175260000Y-106680000D03*
X180260000Y-106680000D03*
X137160000Y-86360000D03*
X142160000Y-86360000D03*
D20*
X142240000Y-99060000D03*
D18*
X134620000Y-106680000D03*
X139700000Y-99060000D03*
X137160000Y-106680000D03*
X137160000Y-99060000D03*
X139700000Y-106680000D03*
X134620000Y-99060000D03*
X142240000Y-106680000D03*
D20*
X170180000Y-109220000D03*
D18*
X162560000Y-101600000D03*
X170180000Y-106680000D03*
X162560000Y-104140000D03*
X170180000Y-104140000D03*
X162560000Y-106680000D03*
X170180000Y-101600000D03*
X162560000Y-109220000D03*
D17*
X132080000Y-104140000D03*
X132080000Y-99060000D03*
X162560000Y-111760000D03*
X167640000Y-111760000D03*
D23*
X135890000Y-119380000D03*
X171450000Y-119380000D03*
D24*
X130660000Y-49500000D03*
X143860000Y-49500000D03*
D25*
X132560000Y-59000000D03*
D26*
X137260000Y-59000000D03*
X141960000Y-59000000D03*
D17*
X129540000Y-111760000D03*
D18*
X132080000Y-111760000D03*
D17*
X137160000Y-111760000D03*
D18*
X139700000Y-111760000D03*
D17*
X137160000Y-109220000D03*
D18*
X139700000Y-109220000D03*
D17*
X144780000Y-104140000D03*
D18*
X147320000Y-104140000D03*
D17*
X149860000Y-109220000D03*
D18*
X147320000Y-109220000D03*
D17*
X157480000Y-111760000D03*
D18*
X157480000Y-101600000D03*
D17*
X154940000Y-111760000D03*
D18*
X154940000Y-101600000D03*
D17*
X152400000Y-99060000D03*
D18*
X162560000Y-99060000D03*
D14*
X129540000Y-91440000D03*
D12*
X127000000Y-91440000D03*
D14*
X129540000Y-83820000D03*
D12*
X127000000Y-83820000D03*
D17*
X132080000Y-96520000D03*
D18*
X129540000Y-96520000D03*
D17*
X139700000Y-96520000D03*
D18*
X137160000Y-96520000D03*
D17*
X177800000Y-104140000D03*
D18*
X175260000Y-104140000D03*
D17*
X160020000Y-111760000D03*
D18*
X160020000Y-101600000D03*
D17*
X144780000Y-78740000D03*
D18*
X134620000Y-78740000D03*
D25*
X170180000Y-58420000D03*
X170180000Y-52420000D03*
X165480000Y-55420000D03*
D20*
X177800000Y-111760000D03*
D18*
X172720000Y-111760000D03*
D17*
X172720000Y-109220000D03*
D18*
X182880000Y-109220000D03*
D20*
X171450000Y-63500000D03*
D17*
X173950000Y-63500000D03*
D21*
X165100000Y-63500000D03*
X167640000Y-63500000D03*
D22*
X162560000Y-63500000D03*
D17*
X142240000Y-83820000D03*
D18*
X132080000Y-83820000D03*
D15*
X167640000Y-91440000D03*
D16*
X167640000Y-93980000D03*
D27*
X140930000Y-73660000D02*
X142240000Y-73660000D01*
D28*
X142160000Y-86360000D02*
X142160000Y-91360000D01*
X142160000Y-91360000D02*
X142240000Y-91440000D01*
D27*
X142160000Y-86360000D02*
X142160000Y-83900000D01*
X142160000Y-83900000D02*
X142240000Y-83820000D01*
X142240000Y-83820000D02*
X142240000Y-73660000D01*
X165060000Y-66040000D02*
X173910000Y-66040000D01*
X173950000Y-66000000D02*
X173950000Y-63500000D01*
X173910000Y-66040000D02*
X173950000Y-66000000D01*
X173950000Y-63500000D02*
X173950000Y-52420000D01*
X170180000Y-52420000D02*
X173950000Y-52420000D01*
X158750000Y-66040000D02*
X165060000Y-66040000D01*
X165060000Y-66040000D02*
X165100000Y-66000000D01*
X158750000Y-66040000D02*
X142240000Y-66040000D01*
X142240000Y-66040000D02*
X142240000Y-73660000D01*
X165100000Y-63500000D02*
X165100000Y-66000000D01*
D28*
X139700000Y-96520000D02*
X142240000Y-96520000D01*
X142240000Y-96520000D02*
X142240000Y-93980000D01*
X132080000Y-99060000D02*
X134620000Y-99060000D01*
X142240000Y-91440000D02*
X142240000Y-93980000D01*
X167640000Y-111760000D02*
X167640000Y-101600000D01*
X134620000Y-93980000D02*
X139700000Y-93980000D01*
X139700000Y-93980000D02*
X142240000Y-93980000D01*
X167640000Y-97155000D02*
X142240000Y-97155000D01*
X142240000Y-97155000D02*
X142240000Y-96520000D01*
X167640000Y-101600000D02*
X167640000Y-97155000D01*
X134620000Y-99060000D02*
X134620000Y-93980000D01*
X134540000Y-99140000D02*
X134620000Y-99060000D01*
X167640000Y-101600000D02*
X170180000Y-101600000D01*
D27*
X149580000Y-63500000D02*
X158750000Y-63500000D01*
X158750000Y-63500000D02*
X162560000Y-63500000D01*
X167640000Y-63500000D02*
X170180000Y-63500000D01*
X171450000Y-63500000D02*
X170180000Y-63500000D01*
X170180000Y-63500000D02*
X170180000Y-58420000D01*
X138430000Y-73660000D02*
X137160000Y-73660000D01*
X137160000Y-73660000D02*
X137160000Y-86360000D01*
X137160000Y-73660000D02*
X137160000Y-59100000D01*
X137160000Y-59100000D02*
X137260000Y-59000000D01*
D28*
X129540000Y-104140000D02*
X132080000Y-104140000D01*
X132080000Y-86360000D02*
X127000000Y-86360000D01*
X132080000Y-86360000D02*
X132080000Y-91440000D01*
X137160000Y-86360000D02*
X132080000Y-86360000D01*
X133985000Y-91440000D02*
X132080000Y-91440000D01*
X129540000Y-96520000D02*
X129540000Y-93980000D01*
X132080000Y-93980000D02*
X132080000Y-91440000D01*
X129540000Y-93980000D02*
X132080000Y-93980000D01*
X162560000Y-109220000D02*
X162560000Y-111760000D01*
X144780000Y-106680000D02*
X149860000Y-106680000D01*
X149860000Y-106680000D02*
X149860000Y-109220000D01*
X149860000Y-109220000D02*
X162560000Y-109220000D01*
X144780000Y-106680000D02*
X142240000Y-106680000D01*
X142240000Y-106680000D02*
X142240000Y-104140000D01*
X142240000Y-104140000D02*
X142240000Y-104140000D01*
X142240000Y-104140000D02*
X132080000Y-104140000D01*
X127000000Y-88900000D02*
X127000000Y-86360000D01*
X127000000Y-91440000D02*
X127000000Y-88900000D01*
X127000000Y-86360000D02*
X127000000Y-83820000D01*
X129540000Y-96520000D02*
X129540000Y-104140000D01*
D27*
X137160000Y-59100000D02*
X137260000Y-59000000D01*
X137260000Y-59000000D02*
X132560000Y-59000000D01*
D29*
X137260000Y-60000000D02*
X137160000Y-60100000D01*
D11*
G36*
X183600000Y-83273000D02*
X177761087Y-83273000D01*
X177735460Y-83261832D01*
X177716055Y-83266449D01*
X177705460Y-83261832D01*
X177658526Y-83273000D01*
X176671474Y-83273000D01*
X176624540Y-83261832D01*
X176613945Y-83266449D01*
X176594540Y-83261832D01*
X176568913Y-83273000D01*
X173200000Y-83273000D01*
X173200000Y-80800000D01*
X183600000Y-80800000D01*
X183600000Y-83273000D01*
X183600000Y-83273000D01*
G37*
X183600000Y-83273000D02*
X177761087Y-83273000D01*
X177735460Y-83261832D01*
X177716055Y-83266449D01*
X177705460Y-83261832D01*
X177658526Y-83273000D01*
X176671474Y-83273000D01*
X176624540Y-83261832D01*
X176613945Y-83266449D01*
X176594540Y-83261832D01*
X176568913Y-83273000D01*
X173200000Y-83273000D01*
X173200000Y-80800000D01*
X183600000Y-80800000D01*
X183600000Y-83273000D01*
G36*
X124995000Y-85244000D02*
X122782000Y-85244000D01*
X122782000Y-82269000D01*
X124995000Y-82269000D01*
X124995000Y-85244000D01*
X124995000Y-85244000D01*
G37*
X124995000Y-85244000D02*
X122782000Y-85244000D01*
X122782000Y-82269000D01*
X124995000Y-82269000D01*
X124995000Y-85244000D01*
G36*
X124995000Y-94515000D02*
X122782000Y-94515000D01*
X122782000Y-88492000D01*
X124995000Y-88492000D01*
X124995000Y-94515000D01*
X124995000Y-94515000D01*
G37*
X124995000Y-94515000D02*
X122782000Y-94515000D01*
X122782000Y-88492000D01*
X124995000Y-88492000D01*
X124995000Y-94515000D01*
X126011000Y-66394000D02*
X124179000Y-66394000D01*
X126011000Y-66543200D02*
X124179000Y-66543200D01*
X132488000Y-66543200D02*
X130656000Y-66543200D01*
X126011000Y-66692400D02*
X124179000Y-66692400D01*
X132488000Y-66692400D02*
X130656000Y-66692400D01*
X126011000Y-66841600D02*
X124179000Y-66841600D01*
X132488000Y-66841600D02*
X130656000Y-66841600D01*
X126011000Y-66990800D02*
X124179000Y-66990800D01*
X132488000Y-66990800D02*
X130656000Y-66990800D01*
X126011000Y-67140000D02*
X124179000Y-67140000D01*
X132488000Y-67140000D02*
X130656000Y-67140000D01*
X126011000Y-67289200D02*
X124179000Y-67289200D01*
X132488000Y-67289200D02*
X130656000Y-67289200D01*
X126011000Y-67438400D02*
X124179000Y-67438400D01*
X132488000Y-67438400D02*
X130656000Y-67438400D01*
X126011000Y-67587600D02*
X124179000Y-67587600D01*
X132488000Y-67587600D02*
X130656000Y-67587600D01*
X126011000Y-67736800D02*
X124179000Y-67736800D01*
X132488000Y-67736800D02*
X130656000Y-67736800D01*
X126011000Y-67886000D02*
X124179000Y-67886000D01*
X132488000Y-67886000D02*
X130656000Y-67886000D01*
X126011000Y-68035200D02*
X124179000Y-68035200D01*
X132488000Y-68035200D02*
X130656000Y-68035200D01*
X126011000Y-68184400D02*
X124179000Y-68184400D01*
X132488000Y-68184400D02*
X130656000Y-68184400D01*
X126011000Y-68333600D02*
X124179000Y-68333600D01*
X132488000Y-68333600D02*
X130656000Y-68333600D01*
X126011000Y-68482800D02*
X124179000Y-68482800D01*
X132488000Y-68482800D02*
X130656000Y-68482800D01*
X126025840Y-68632000D02*
X124179000Y-68632000D01*
X132488000Y-68632000D02*
X130640302Y-68632000D01*
X132488000Y-68781200D02*
X124179000Y-68781200D01*
X132488000Y-68930400D02*
X124179000Y-68930400D01*
X132488000Y-69079600D02*
X124179000Y-69079600D01*
X132488000Y-69228800D02*
X124179000Y-69228800D01*
X132488000Y-69378000D02*
X124179000Y-69378000D01*
X132488000Y-69527200D02*
X124179000Y-69527200D01*
X132488000Y-69676400D02*
X124179000Y-69676400D01*
X132488000Y-69825600D02*
X124179000Y-69825600D01*
X132488000Y-69974800D02*
X124179000Y-69974800D01*
X132488000Y-70124000D02*
X124179000Y-70124000D01*
X132488000Y-70273200D02*
X124179000Y-70273200D01*
X132488000Y-70422400D02*
X124179000Y-70422400D01*
X132488000Y-70571600D02*
X124179000Y-70571600D01*
X132488000Y-70720800D02*
X124179000Y-70720800D01*
X132488000Y-70870000D02*
X124179000Y-70870000D01*
X132488000Y-71019200D02*
X124179000Y-71019200D01*
X126011000Y-68580000D02*
X126014959Y-68607859D01*
X126026523Y-68633513D01*
X126044776Y-68654929D01*
X126068272Y-68670412D01*
X126095152Y-68678736D01*
X126111000Y-68680000D01*
X130556000Y-68680000D01*
X130583859Y-68676041D01*
X130609513Y-68664477D01*
X130630929Y-68646224D01*
X130646412Y-68622728D01*
X130654736Y-68595848D01*
X130656000Y-68580000D01*
X130656000Y-66521000D01*
X132488000Y-66521000D01*
X132488000Y-71020000D01*
X124179000Y-71020000D01*
X124179000Y-66394000D01*
X126011000Y-66394000D01*
X126011000Y-68580000D01*
G36*
X177954000Y-78640000D02*
X175487000Y-78640000D01*
X175487000Y-71093000D01*
X177954000Y-71093000D01*
X177954000Y-78640000D01*
X177954000Y-78640000D01*
G37*
X177954000Y-78640000D02*
X175487000Y-78640000D01*
X175487000Y-71093000D01*
X177954000Y-71093000D01*
X177954000Y-78640000D01*
M02*
