M48
INCH,TZ
T1C0.024
T2C0.031
T3C0.035
T4C0.039
T5C0.043
T6C0.073
T7C0.079
T8C0.165
%
G90
G05
T2
X51000Y-38000
X51000Y-44000
X51031Y-43000
X52000Y-33000
X52000Y-38000
X52000Y-39000
X52000Y-41000
X52000Y-44000
X52750Y-36000
X53000Y-31000
X53000Y-39000
X53000Y-42000
X53000Y-43000
X53734Y-36000
X54000Y-34000
X54000Y-38000
X54000Y-39000
X54000Y-42000
X54000Y-43000
X54000Y-44000
X54500Y-29000
X55000Y-36000
X55000Y-38000
X55000Y-39000
X55000Y-42000
X55000Y-43000
X55000Y-44000
X55484Y-29000
X55890Y-25000
X55969Y-34000
X56000Y-33000
X56000Y-36000
X56000Y-39000
X56000Y-42000
X56000Y-45000
X56000Y-46000
X57000Y-31000
X57000Y-39000
X57000Y-41000
X57000Y-42000
X57000Y-43000
X57000Y-44000
X58000Y-39000
X58000Y-41000
X58000Y-43000
X58890Y-25000
X59000Y-39000
X59000Y-40000
X59000Y-41000
X59000Y-43000
X60000Y-39000
X60000Y-45000
X60000Y-46000
X61000Y-40000
X61000Y-44000
X61000Y-45000
X61000Y-46000
X62000Y-40000
X62000Y-44000
X62500Y-25000
X62500Y-26000
X63000Y-40000
X63000Y-44000
X64000Y-25000
X64000Y-29500
X64000Y-39000
X64000Y-40000
X64000Y-41000
X64000Y-42000
X64000Y-43000
X64000Y-44000
X65000Y-25000
X65000Y-29500
X65000Y-31000
X65000Y-35000
X65000Y-39000
X65000Y-45000
X65000Y-46000
X66000Y-25000
X66000Y-29500
X66000Y-31000
X66000Y-32969
X66000Y-44000
X66969Y-39000
X67000Y-40000
X67000Y-41000
X67000Y-42000
X67000Y-43000
X67500Y-25000
X68000Y-38000
X68000Y-42000
X68000Y-43000
X68000Y-44000
X68484Y-25000
X69000Y-41000
X69000Y-42000
X70000Y-41000
X70000Y-44000
X70969Y-42000
X72000Y-43000
T3
X50000Y-33000
X50000Y-33000
X50000Y-36000
X50000Y-36000
X51000Y-33000
X51000Y-33000
X51000Y-36000
X51000Y-36000
T4
X50000Y-25000
X51000Y-25000
X57000Y-47000
X58000Y-47000
X59000Y-47000
X60000Y-47000
X61000Y-47000
X62000Y-47000
X63000Y-47000
X64000Y-47000
X66000Y-36000
X66000Y-37000
X67000Y-34531
X67000Y-35516
X67000Y-36500
X68000Y-29000
X68000Y-30000
X72500Y-34531
X72500Y-35516
X72500Y-36500
T5
X57000Y-48500
X60000Y-48500
X61000Y-48500
X64000Y-48500
T6
X52189Y-23228
X54039Y-23228
X55890Y-23228
T7
X69744Y-33783
X69744Y-37248
X69756Y-33783
X69756Y-37248
T8
X53500Y-47000
X67500Y-47000
T1
X51441Y-19734G85X51441Y-19242
G05
X56638Y-19734G85X56638Y-19242
G05
T4
X65150Y-21425G85X65150Y-22213
G05
X67394Y-20638G85X66606Y-20638
G05
X67394Y-23000G85X66606Y-23000
G05
T0
M30
