G04 #@! TF.FileFunction,Copper,L1,Top,Signal*
%FSLAX46Y46*%
G04 Gerber Fmt 4.6, Leading zero omitted, Abs format (unit mm)*
G04 Created by KiCad (PCBNEW 4.0.7-e2-6376~61~ubuntu18.04.1) date Sat Sep 29 21:00:46 2018*
%MOMM*%
%LPD*%
G01*
G04 APERTURE LIST*
%ADD10C,0.100000*%
%ADD11C,1.800000*%
%ADD12O,4.000000X4.000000*%
%ADD13R,1.800000X1.800000*%
%ADD14R,1.700000X1.700000*%
%ADD15O,1.700000X1.700000*%
%ADD16C,1.600000*%
%ADD17O,1.600000X1.600000*%
%ADD18C,1.524000*%
%ADD19R,1.600000X1.600000*%
%ADD20C,1.520000*%
%ADD21R,1.520000X1.520000*%
%ADD22C,8.200000*%
%ADD23R,1.600000X2.850000*%
%ADD24R,3.500000X3.500000*%
%ADD25C,3.500000*%
%ADD26R,2.200000X2.200000*%
%ADD27O,2.200000X2.200000*%
%ADD28C,1.000000*%
%ADD29C,0.750000*%
%ADD30C,0.500000*%
%ADD31C,0.200000*%
G04 APERTURE END LIST*
D10*
X153400000Y-76400000D02*
G75*
G03X143800000Y-86000000I0J-9600000D01*
G01*
X163000000Y-86000000D02*
G75*
G03X153400000Y-76400000I-9600000J0D01*
G01*
X143800000Y-96400000D02*
X143800000Y-86000000D01*
X163000000Y-96400000D02*
X163000000Y-86000000D01*
X143800000Y-96400000D02*
X163000000Y-96400000D01*
X119038933Y-97119337D02*
G75*
G02X123000000Y-48000000I357321529J-4095632D01*
G01*
X183777337Y-48000000D02*
X123000000Y-48000000D01*
X183777337Y-48000000D02*
G75*
G02X187738404Y-97119337I-353360462J-53214969D01*
G01*
X181762789Y-97119337D02*
X187738404Y-97119337D01*
X181762789Y-103444787D02*
G75*
G02X181762789Y-97119337I0J3162725D01*
G01*
X187754918Y-103444786D02*
X181762789Y-103444786D01*
X187754919Y-103444787D02*
G75*
G02X186888669Y-126181137I-357338044J2229818D01*
G01*
X119888669Y-126181137D02*
X186888669Y-126181137D01*
X119888669Y-126181136D02*
G75*
G02X119022419Y-103444786I356471793J24966167D01*
G01*
X125014548Y-103444786D02*
X119022419Y-103444786D01*
X125014548Y-97119338D02*
G75*
G02X125014548Y-103444786I0J-3162724D01*
G01*
X119038933Y-97119337D02*
X125014548Y-97119337D01*
D11*
X184150000Y-87710000D03*
X184150000Y-90210000D03*
X184150000Y-92710000D03*
D12*
X177150000Y-85810000D03*
X177150000Y-94610000D03*
D13*
X129540000Y-91440000D03*
D11*
X127000000Y-91440000D03*
D13*
X129540000Y-83820000D03*
D11*
X127000000Y-83820000D03*
D14*
X144780000Y-119380000D03*
D15*
X147320000Y-119380000D03*
X149860000Y-119380000D03*
X152400000Y-119380000D03*
X154940000Y-119380000D03*
X157480000Y-119380000D03*
X160020000Y-119380000D03*
X162560000Y-119380000D03*
D16*
X149860000Y-104140000D03*
D17*
X149860000Y-101600000D03*
D18*
X147320000Y-99060000D03*
X144780000Y-99060000D03*
X149860000Y-99060000D03*
D11*
X170180000Y-87710000D03*
X170180000Y-90210000D03*
X170180000Y-92710000D03*
D12*
X177180000Y-85810000D03*
X177180000Y-94610000D03*
D18*
X144780000Y-109220000D03*
X144780000Y-106680000D03*
X144780000Y-111760000D03*
D19*
X133985000Y-91440000D03*
D16*
X136485000Y-91440000D03*
D19*
X139700000Y-91440000D03*
D16*
X142240000Y-91440000D03*
D19*
X138430000Y-73660000D03*
D16*
X140930000Y-73660000D03*
D19*
X158750000Y-63500000D03*
D16*
X158750000Y-66040000D03*
D19*
X141960000Y-63500000D03*
D17*
X149580000Y-63500000D03*
D14*
X129540000Y-63500000D03*
D15*
X127000000Y-63500000D03*
D16*
X152400000Y-116840000D03*
D17*
X142240000Y-116840000D03*
D16*
X154940000Y-116840000D03*
D17*
X165100000Y-116840000D03*
D16*
X152400000Y-114300000D03*
D17*
X142240000Y-114300000D03*
D16*
X154940000Y-114300000D03*
D17*
X165100000Y-114300000D03*
D16*
X165100000Y-78740000D03*
D17*
X165100000Y-88900000D03*
D16*
X172720000Y-96520000D03*
D17*
X172720000Y-106680000D03*
D14*
X172720000Y-76200000D03*
D15*
X172720000Y-73660000D03*
D20*
X165100000Y-74930000D03*
X167640000Y-74930000D03*
D21*
X162560000Y-74930000D03*
D16*
X134620000Y-109220000D03*
X129620000Y-109220000D03*
X167640000Y-78740000D03*
X167640000Y-83740000D03*
X165100000Y-99060000D03*
X170100000Y-99060000D03*
X175260000Y-106680000D03*
X180260000Y-106680000D03*
X137160000Y-86360000D03*
X142160000Y-86360000D03*
D19*
X142240000Y-99060000D03*
D17*
X134620000Y-106680000D03*
X139700000Y-99060000D03*
X137160000Y-106680000D03*
X137160000Y-99060000D03*
X139700000Y-106680000D03*
X134620000Y-99060000D03*
X142240000Y-106680000D03*
D19*
X170180000Y-109220000D03*
D17*
X162560000Y-101600000D03*
X170180000Y-106680000D03*
X162560000Y-104140000D03*
X170180000Y-104140000D03*
X162560000Y-106680000D03*
X170180000Y-101600000D03*
X162560000Y-109220000D03*
D16*
X132080000Y-104140000D03*
X132080000Y-99060000D03*
X162560000Y-111760000D03*
X167640000Y-111760000D03*
D22*
X135890000Y-119380000D03*
X171450000Y-119380000D03*
D23*
X130660000Y-49500000D03*
X143860000Y-49500000D03*
D24*
X132560000Y-59000000D03*
D25*
X137260000Y-59000000D03*
X141960000Y-59000000D03*
D16*
X129540000Y-111760000D03*
D17*
X132080000Y-111760000D03*
D16*
X137160000Y-111760000D03*
D17*
X139700000Y-111760000D03*
D16*
X137160000Y-109220000D03*
D17*
X139700000Y-109220000D03*
D16*
X144780000Y-104140000D03*
D17*
X147320000Y-104140000D03*
D16*
X149860000Y-109220000D03*
D17*
X147320000Y-109220000D03*
D16*
X157480000Y-111760000D03*
D17*
X157480000Y-101600000D03*
D16*
X154940000Y-111760000D03*
D17*
X154940000Y-101600000D03*
D16*
X152400000Y-99060000D03*
D17*
X162560000Y-99060000D03*
D13*
X129540000Y-91440000D03*
D11*
X127000000Y-91440000D03*
D13*
X129540000Y-83820000D03*
D11*
X127000000Y-83820000D03*
D16*
X132080000Y-96520000D03*
D17*
X129540000Y-96520000D03*
D16*
X139700000Y-96520000D03*
D17*
X137160000Y-96520000D03*
D16*
X177800000Y-104140000D03*
D17*
X175260000Y-104140000D03*
D16*
X160020000Y-111760000D03*
D17*
X160020000Y-101600000D03*
D16*
X144780000Y-78740000D03*
D17*
X134620000Y-78740000D03*
D24*
X170180000Y-58420000D03*
X170180000Y-52420000D03*
X165480000Y-55420000D03*
D19*
X177800000Y-111760000D03*
D17*
X172720000Y-111760000D03*
D16*
X172720000Y-109220000D03*
D17*
X182880000Y-109220000D03*
D19*
X171450000Y-63500000D03*
D16*
X173950000Y-63500000D03*
D20*
X165100000Y-63500000D03*
X167640000Y-63500000D03*
D21*
X162560000Y-63500000D03*
D16*
X142240000Y-83820000D03*
D17*
X132080000Y-83820000D03*
D26*
X144780000Y-123190000D03*
D27*
X152400000Y-123190000D03*
D26*
X154940000Y-123190000D03*
D27*
X162560000Y-123190000D03*
D14*
X167640000Y-91440000D03*
D15*
X167640000Y-93980000D03*
D28*
X140930000Y-73660000D02*
X142240000Y-73660000D01*
D29*
X142160000Y-86360000D02*
X142160000Y-91360000D01*
X142160000Y-91360000D02*
X142240000Y-91440000D01*
D28*
X142160000Y-86360000D02*
X142160000Y-83900000D01*
X142160000Y-83900000D02*
X142240000Y-83820000D01*
X142240000Y-83820000D02*
X142240000Y-73660000D01*
X165060000Y-66040000D02*
X173910000Y-66040000D01*
X173950000Y-66000000D02*
X173950000Y-63500000D01*
X173910000Y-66040000D02*
X173950000Y-66000000D01*
X173950000Y-63500000D02*
X173950000Y-52420000D01*
X170180000Y-52420000D02*
X173950000Y-52420000D01*
X158750000Y-66040000D02*
X165060000Y-66040000D01*
X165060000Y-66040000D02*
X165100000Y-66000000D01*
X158750000Y-66040000D02*
X142240000Y-66040000D01*
X142240000Y-66040000D02*
X142240000Y-73660000D01*
X165100000Y-63500000D02*
X165100000Y-66000000D01*
D29*
X139700000Y-96520000D02*
X142240000Y-96520000D01*
X142240000Y-96520000D02*
X142240000Y-93980000D01*
X132080000Y-99060000D02*
X134620000Y-99060000D01*
X142240000Y-91440000D02*
X142240000Y-93980000D01*
X167640000Y-111760000D02*
X167640000Y-101600000D01*
X134620000Y-93980000D02*
X139700000Y-93980000D01*
X139700000Y-93980000D02*
X142240000Y-93980000D01*
X167640000Y-97155000D02*
X142240000Y-97155000D01*
X142240000Y-97155000D02*
X142240000Y-96520000D01*
X167640000Y-101600000D02*
X167640000Y-97155000D01*
X134620000Y-99060000D02*
X134620000Y-93980000D01*
X134540000Y-99140000D02*
X134620000Y-99060000D01*
X167640000Y-101600000D02*
X170180000Y-101600000D01*
D30*
X181610000Y-88900000D02*
X172720000Y-88900000D01*
X172640000Y-87710000D02*
X172720000Y-87790000D01*
X172720000Y-87790000D02*
X172720000Y-88900000D01*
X172640000Y-87710000D02*
X170180000Y-87710000D01*
X181610000Y-87710000D02*
X181610000Y-88900000D01*
X184150000Y-87710000D02*
X181610000Y-87710000D01*
X184150000Y-87710000D02*
X184150000Y-88900000D01*
X184150000Y-88900000D02*
X184150000Y-90210000D01*
X181610000Y-91440000D02*
X172720000Y-91440000D01*
X172720000Y-91440000D02*
X172720000Y-92710000D01*
X172720000Y-92710000D02*
X170180000Y-92710000D01*
X181610000Y-92710000D02*
X181610000Y-91440000D01*
X184150000Y-92710000D02*
X181610000Y-92710000D01*
D28*
X149580000Y-63500000D02*
X158750000Y-63500000D01*
X158750000Y-63500000D02*
X162560000Y-63500000D01*
X167640000Y-63500000D02*
X170180000Y-63500000D01*
X171450000Y-63500000D02*
X170180000Y-63500000D01*
X170180000Y-63500000D02*
X170180000Y-58420000D01*
X138430000Y-73660000D02*
X137160000Y-73660000D01*
X137160000Y-73660000D02*
X137160000Y-86360000D01*
X137160000Y-73660000D02*
X137160000Y-59100000D01*
X137160000Y-59100000D02*
X137260000Y-59000000D01*
D29*
X129540000Y-104140000D02*
X132080000Y-104140000D01*
X132080000Y-86360000D02*
X127000000Y-86360000D01*
X132080000Y-86360000D02*
X132080000Y-91440000D01*
X137160000Y-86360000D02*
X132080000Y-86360000D01*
X133985000Y-91440000D02*
X132080000Y-91440000D01*
X129540000Y-96520000D02*
X129540000Y-93980000D01*
X132080000Y-93980000D02*
X132080000Y-91440000D01*
X129540000Y-93980000D02*
X132080000Y-93980000D01*
X162560000Y-109220000D02*
X162560000Y-111760000D01*
X144780000Y-106680000D02*
X149860000Y-106680000D01*
X149860000Y-106680000D02*
X149860000Y-109220000D01*
X149860000Y-109220000D02*
X162560000Y-109220000D01*
X144780000Y-106680000D02*
X142240000Y-106680000D01*
X142240000Y-106680000D02*
X142240000Y-104140000D01*
X142240000Y-104140000D02*
X142240000Y-104140000D01*
X142240000Y-104140000D02*
X132080000Y-104140000D01*
X127000000Y-88900000D02*
X127000000Y-86360000D01*
X127000000Y-91440000D02*
X127000000Y-88900000D01*
X127000000Y-86360000D02*
X127000000Y-83820000D01*
X129540000Y-96520000D02*
X129540000Y-104140000D01*
D28*
X137160000Y-59100000D02*
X137260000Y-59000000D01*
X137260000Y-59000000D02*
X132560000Y-59000000D01*
D30*
X137260000Y-60000000D02*
X137160000Y-60100000D01*
D31*
G36*
X183600000Y-83273000D02*
X177761087Y-83273000D01*
X177735460Y-83261832D01*
X177716055Y-83266449D01*
X177705460Y-83261832D01*
X177658526Y-83273000D01*
X176671474Y-83273000D01*
X176624540Y-83261832D01*
X176613945Y-83266449D01*
X176594540Y-83261832D01*
X176568913Y-83273000D01*
X173200000Y-83273000D01*
X173200000Y-80800000D01*
X183600000Y-80800000D01*
X183600000Y-83273000D01*
X183600000Y-83273000D01*
G37*
X183600000Y-83273000D02*
X177761087Y-83273000D01*
X177735460Y-83261832D01*
X177716055Y-83266449D01*
X177705460Y-83261832D01*
X177658526Y-83273000D01*
X176671474Y-83273000D01*
X176624540Y-83261832D01*
X176613945Y-83266449D01*
X176594540Y-83261832D01*
X176568913Y-83273000D01*
X173200000Y-83273000D01*
X173200000Y-80800000D01*
X183600000Y-80800000D01*
X183600000Y-83273000D01*
G36*
X124995000Y-85244000D02*
X122782000Y-85244000D01*
X122782000Y-82269000D01*
X124995000Y-82269000D01*
X124995000Y-85244000D01*
X124995000Y-85244000D01*
G37*
X124995000Y-85244000D02*
X122782000Y-85244000D01*
X122782000Y-82269000D01*
X124995000Y-82269000D01*
X124995000Y-85244000D01*
G36*
X124995000Y-94515000D02*
X122782000Y-94515000D01*
X122782000Y-88492000D01*
X124995000Y-88492000D01*
X124995000Y-94515000D01*
X124995000Y-94515000D01*
G37*
X124995000Y-94515000D02*
X122782000Y-94515000D01*
X122782000Y-88492000D01*
X124995000Y-88492000D01*
X124995000Y-94515000D01*
X124179000Y-66394000D02*
X126011000Y-66394000D01*
X124179000Y-66543200D02*
X126011000Y-66543200D01*
X130656000Y-66543200D02*
X132488000Y-66543200D01*
X124179000Y-66692400D02*
X126011000Y-66692400D01*
X130656000Y-66692400D02*
X132488000Y-66692400D01*
X124179000Y-66841600D02*
X126011000Y-66841600D01*
X130656000Y-66841600D02*
X132488000Y-66841600D01*
X124179000Y-66990800D02*
X126011000Y-66990800D01*
X130656000Y-66990800D02*
X132488000Y-66990800D01*
X124179000Y-67140000D02*
X126011000Y-67140000D01*
X130656000Y-67140000D02*
X132488000Y-67140000D01*
X124179000Y-67289200D02*
X126011000Y-67289200D01*
X130656000Y-67289200D02*
X132488000Y-67289200D01*
X124179000Y-67438400D02*
X126011000Y-67438400D01*
X130656000Y-67438400D02*
X132488000Y-67438400D01*
X124179000Y-67587600D02*
X126011000Y-67587600D01*
X130656000Y-67587600D02*
X132488000Y-67587600D01*
X124179000Y-67736800D02*
X126011000Y-67736800D01*
X130656000Y-67736800D02*
X132488000Y-67736800D01*
X124179000Y-67886000D02*
X126011000Y-67886000D01*
X130656000Y-67886000D02*
X132488000Y-67886000D01*
X124179000Y-68035200D02*
X126011000Y-68035200D01*
X130656000Y-68035200D02*
X132488000Y-68035200D01*
X124179000Y-68184400D02*
X126011000Y-68184400D01*
X130656000Y-68184400D02*
X132488000Y-68184400D01*
X124179000Y-68333600D02*
X126011000Y-68333600D01*
X130656000Y-68333600D02*
X132488000Y-68333600D01*
X124179000Y-68482800D02*
X126011000Y-68482800D01*
X130656000Y-68482800D02*
X132488000Y-68482800D01*
X124179000Y-68632000D02*
X126025840Y-68632000D01*
X130640302Y-68632000D02*
X132488000Y-68632000D01*
X124179000Y-68781200D02*
X132488000Y-68781200D01*
X124179000Y-68930400D02*
X132488000Y-68930400D01*
X124179000Y-69079600D02*
X132488000Y-69079600D01*
X124179000Y-69228800D02*
X132488000Y-69228800D01*
X124179000Y-69378000D02*
X132488000Y-69378000D01*
X124179000Y-69527200D02*
X132488000Y-69527200D01*
X124179000Y-69676400D02*
X132488000Y-69676400D01*
X124179000Y-69825600D02*
X132488000Y-69825600D01*
X124179000Y-69974800D02*
X132488000Y-69974800D01*
X124179000Y-70124000D02*
X132488000Y-70124000D01*
X124179000Y-70273200D02*
X132488000Y-70273200D01*
X124179000Y-70422400D02*
X132488000Y-70422400D01*
X124179000Y-70571600D02*
X132488000Y-70571600D01*
X124179000Y-70720800D02*
X132488000Y-70720800D01*
X124179000Y-70870000D02*
X132488000Y-70870000D01*
X124179000Y-71019200D02*
X132488000Y-71019200D01*
X126011000Y-68580000D02*
X126014959Y-68607859D01*
X126026523Y-68633513D01*
X126044776Y-68654929D01*
X126068272Y-68670412D01*
X126095152Y-68678736D01*
X126111000Y-68680000D01*
X130556000Y-68680000D01*
X130583859Y-68676041D01*
X130609513Y-68664477D01*
X130630929Y-68646224D01*
X130646412Y-68622728D01*
X130654736Y-68595848D01*
X130656000Y-68580000D01*
X130656000Y-66521000D01*
X132488000Y-66521000D01*
X132488000Y-71020000D01*
X124179000Y-71020000D01*
X124179000Y-66394000D01*
X126011000Y-66394000D01*
X126011000Y-68580000D01*
G36*
X177954000Y-78640000D02*
X175487000Y-78640000D01*
X175487000Y-71093000D01*
X177954000Y-71093000D01*
X177954000Y-78640000D01*
X177954000Y-78640000D01*
G37*
X177954000Y-78640000D02*
X175487000Y-78640000D01*
X175487000Y-71093000D01*
X177954000Y-71093000D01*
X177954000Y-78640000D01*
G36*
X177319000Y-58574000D02*
X175233000Y-58574000D01*
X175233000Y-48741000D01*
X177319000Y-48741000D01*
X177319000Y-58574000D01*
X177319000Y-58574000D01*
G37*
X177319000Y-58574000D02*
X175233000Y-58574000D01*
X175233000Y-48741000D01*
X177319000Y-48741000D01*
X177319000Y-58574000D01*
G36*
X147347000Y-55272000D02*
X145388000Y-55272000D01*
X145388000Y-48741000D01*
X147347000Y-48741000D01*
X147347000Y-55272000D01*
X147347000Y-55272000D01*
G37*
X147347000Y-55272000D02*
X145388000Y-55272000D01*
X145388000Y-48741000D01*
X147347000Y-48741000D01*
X147347000Y-55272000D01*
G36*
X129694000Y-120296000D02*
X126973000Y-120296000D01*
X126973000Y-118337000D01*
X129694000Y-118337000D01*
X129694000Y-120296000D01*
X129694000Y-120296000D01*
G37*
X129694000Y-120296000D02*
X126973000Y-120296000D01*
X126973000Y-118337000D01*
X129694000Y-118337000D01*
X129694000Y-120296000D01*
M02*
