G04 #@! TF.FileFunction,Legend,Top*
%FSLAX46Y46*%
G04 Gerber Fmt 4.6, Leading zero omitted, Abs format (unit mm)*
G04 Created by KiCad (PCBNEW 4.0.7-e2-6376~58~ubuntu16.04.1) date Mon Jan 29 21:47:02 2018*
%MOMM*%
%LPD*%
G01*
G04 APERTURE LIST*
%ADD10C,0.100000*%
%ADD11C,0.200000*%
%ADD12C,0.120000*%
%ADD13C,0.150000*%
%ADD14C,0.250000*%
G04 APERTURE END LIST*
D10*
D11*
X159385000Y-110490000D02*
X158750000Y-110744000D01*
X159385000Y-110490000D02*
X158750000Y-110236000D01*
X153035000Y-110490000D02*
X159385000Y-110490000D01*
X156845000Y-102870000D02*
X156210000Y-103124000D01*
X156845000Y-102870000D02*
X156210000Y-102616000D01*
X153035000Y-102870000D02*
X156845000Y-102870000D01*
D12*
X151170000Y-104140000D02*
G75*
G03X151170000Y-104140000I-1310000J0D01*
G01*
X149860000Y-102830000D02*
X149860000Y-102700000D01*
D13*
X149507695Y-98063010D02*
G75*
G03X149020000Y-97360000I-2187695J-996990D01*
G01*
X145132305Y-98063010D02*
G75*
G02X145620000Y-97360000I2187695J-996990D01*
G01*
X149020000Y-97360000D02*
X145620000Y-97360000D01*
X149504879Y-100053127D02*
G75*
G02X147320000Y-101460000I-2184879J993127D01*
G01*
X145135121Y-100053127D02*
G75*
G03X147320000Y-101460000I2184879J993127D01*
G01*
D12*
X180121982Y-82367568D02*
G75*
G02X180123000Y-87892000I-1171982J-2762432D01*
G01*
X177021705Y-87427753D02*
G75*
G02X177022000Y-82832000I1928295J2297753D01*
G01*
X172390000Y-80169000D02*
X176256000Y-80169000D01*
X180645000Y-80169000D02*
X184510000Y-80169000D01*
X172390000Y-90090000D02*
X176256000Y-90090000D01*
X180645000Y-90090000D02*
X184510000Y-90090000D01*
X172390000Y-80169000D02*
X172390000Y-81805000D01*
X172390000Y-83455000D02*
X172390000Y-84305000D01*
X172390000Y-85955000D02*
X172390000Y-86805000D01*
X172390000Y-88455000D02*
X172390000Y-90090000D01*
X184510000Y-80169000D02*
X184510000Y-90090000D01*
D13*
X145776990Y-111407695D02*
G75*
G03X146480000Y-110920000I-996990J2187695D01*
G01*
X145776990Y-107032305D02*
G75*
G02X146480000Y-107520000I-996990J-2187695D01*
G01*
X146480000Y-110920000D02*
X146480000Y-107520000D01*
X143786873Y-111404879D02*
G75*
G02X142380000Y-109220000I993127J2184879D01*
G01*
X143786873Y-107035121D02*
G75*
G03X142380000Y-109220000I993127J-2184879D01*
G01*
D12*
X135799723Y-89915722D02*
G75*
G03X135800000Y-85304420I-1179723J2305722D01*
G01*
X133440277Y-89915722D02*
G75*
G02X133440000Y-85304420I1179723J2305722D01*
G01*
X133440277Y-89915722D02*
G75*
G03X135800000Y-89915580I1179723J2305722D01*
G01*
X137170000Y-87610000D02*
X132070000Y-87610000D01*
X137170000Y-87650000D02*
X132070000Y-87650000D01*
X137169000Y-87690000D02*
X132071000Y-87690000D01*
X137168000Y-87730000D02*
X132072000Y-87730000D01*
X137166000Y-87770000D02*
X132074000Y-87770000D01*
X137163000Y-87810000D02*
X132077000Y-87810000D01*
X137159000Y-87850000D02*
X132081000Y-87850000D01*
X137155000Y-87890000D02*
X135600000Y-87890000D01*
X133640000Y-87890000D02*
X132085000Y-87890000D01*
X137151000Y-87930000D02*
X135600000Y-87930000D01*
X133640000Y-87930000D02*
X132089000Y-87930000D01*
X137145000Y-87970000D02*
X135600000Y-87970000D01*
X133640000Y-87970000D02*
X132095000Y-87970000D01*
X137139000Y-88010000D02*
X135600000Y-88010000D01*
X133640000Y-88010000D02*
X132101000Y-88010000D01*
X137133000Y-88050000D02*
X135600000Y-88050000D01*
X133640000Y-88050000D02*
X132107000Y-88050000D01*
X137126000Y-88090000D02*
X135600000Y-88090000D01*
X133640000Y-88090000D02*
X132114000Y-88090000D01*
X137118000Y-88130000D02*
X135600000Y-88130000D01*
X133640000Y-88130000D02*
X132122000Y-88130000D01*
X137109000Y-88170000D02*
X135600000Y-88170000D01*
X133640000Y-88170000D02*
X132131000Y-88170000D01*
X137100000Y-88210000D02*
X135600000Y-88210000D01*
X133640000Y-88210000D02*
X132140000Y-88210000D01*
X137090000Y-88250000D02*
X135600000Y-88250000D01*
X133640000Y-88250000D02*
X132150000Y-88250000D01*
X137080000Y-88290000D02*
X135600000Y-88290000D01*
X133640000Y-88290000D02*
X132160000Y-88290000D01*
X137068000Y-88331000D02*
X135600000Y-88331000D01*
X133640000Y-88331000D02*
X132172000Y-88331000D01*
X137056000Y-88371000D02*
X135600000Y-88371000D01*
X133640000Y-88371000D02*
X132184000Y-88371000D01*
X137044000Y-88411000D02*
X135600000Y-88411000D01*
X133640000Y-88411000D02*
X132196000Y-88411000D01*
X137030000Y-88451000D02*
X135600000Y-88451000D01*
X133640000Y-88451000D02*
X132210000Y-88451000D01*
X137016000Y-88491000D02*
X135600000Y-88491000D01*
X133640000Y-88491000D02*
X132224000Y-88491000D01*
X137002000Y-88531000D02*
X135600000Y-88531000D01*
X133640000Y-88531000D02*
X132238000Y-88531000D01*
X136986000Y-88571000D02*
X135600000Y-88571000D01*
X133640000Y-88571000D02*
X132254000Y-88571000D01*
X136970000Y-88611000D02*
X135600000Y-88611000D01*
X133640000Y-88611000D02*
X132270000Y-88611000D01*
X136953000Y-88651000D02*
X135600000Y-88651000D01*
X133640000Y-88651000D02*
X132287000Y-88651000D01*
X136935000Y-88691000D02*
X135600000Y-88691000D01*
X133640000Y-88691000D02*
X132305000Y-88691000D01*
X136916000Y-88731000D02*
X135600000Y-88731000D01*
X133640000Y-88731000D02*
X132324000Y-88731000D01*
X136896000Y-88771000D02*
X135600000Y-88771000D01*
X133640000Y-88771000D02*
X132344000Y-88771000D01*
X136876000Y-88811000D02*
X135600000Y-88811000D01*
X133640000Y-88811000D02*
X132364000Y-88811000D01*
X136854000Y-88851000D02*
X135600000Y-88851000D01*
X133640000Y-88851000D02*
X132386000Y-88851000D01*
X136832000Y-88891000D02*
X135600000Y-88891000D01*
X133640000Y-88891000D02*
X132408000Y-88891000D01*
X136809000Y-88931000D02*
X135600000Y-88931000D01*
X133640000Y-88931000D02*
X132431000Y-88931000D01*
X136785000Y-88971000D02*
X135600000Y-88971000D01*
X133640000Y-88971000D02*
X132455000Y-88971000D01*
X136760000Y-89011000D02*
X135600000Y-89011000D01*
X133640000Y-89011000D02*
X132480000Y-89011000D01*
X136733000Y-89051000D02*
X135600000Y-89051000D01*
X133640000Y-89051000D02*
X132507000Y-89051000D01*
X136706000Y-89091000D02*
X135600000Y-89091000D01*
X133640000Y-89091000D02*
X132534000Y-89091000D01*
X136678000Y-89131000D02*
X135600000Y-89131000D01*
X133640000Y-89131000D02*
X132562000Y-89131000D01*
X136648000Y-89171000D02*
X135600000Y-89171000D01*
X133640000Y-89171000D02*
X132592000Y-89171000D01*
X136617000Y-89211000D02*
X135600000Y-89211000D01*
X133640000Y-89211000D02*
X132623000Y-89211000D01*
X136585000Y-89251000D02*
X135600000Y-89251000D01*
X133640000Y-89251000D02*
X132655000Y-89251000D01*
X136552000Y-89291000D02*
X135600000Y-89291000D01*
X133640000Y-89291000D02*
X132688000Y-89291000D01*
X136517000Y-89331000D02*
X135600000Y-89331000D01*
X133640000Y-89331000D02*
X132723000Y-89331000D01*
X136481000Y-89371000D02*
X135600000Y-89371000D01*
X133640000Y-89371000D02*
X132759000Y-89371000D01*
X136443000Y-89411000D02*
X135600000Y-89411000D01*
X133640000Y-89411000D02*
X132797000Y-89411000D01*
X136403000Y-89451000D02*
X135600000Y-89451000D01*
X133640000Y-89451000D02*
X132837000Y-89451000D01*
X136362000Y-89491000D02*
X135600000Y-89491000D01*
X133640000Y-89491000D02*
X132878000Y-89491000D01*
X136319000Y-89531000D02*
X135600000Y-89531000D01*
X133640000Y-89531000D02*
X132921000Y-89531000D01*
X136274000Y-89571000D02*
X135600000Y-89571000D01*
X133640000Y-89571000D02*
X132966000Y-89571000D01*
X136226000Y-89611000D02*
X135600000Y-89611000D01*
X133640000Y-89611000D02*
X133014000Y-89611000D01*
X136176000Y-89651000D02*
X135600000Y-89651000D01*
X133640000Y-89651000D02*
X133064000Y-89651000D01*
X136124000Y-89691000D02*
X135600000Y-89691000D01*
X133640000Y-89691000D02*
X133116000Y-89691000D01*
X136068000Y-89731000D02*
X135600000Y-89731000D01*
X133640000Y-89731000D02*
X133172000Y-89731000D01*
X136010000Y-89771000D02*
X135600000Y-89771000D01*
X133640000Y-89771000D02*
X133230000Y-89771000D01*
X135947000Y-89811000D02*
X135600000Y-89811000D01*
X133640000Y-89811000D02*
X133293000Y-89811000D01*
X135881000Y-89851000D02*
X133359000Y-89851000D01*
X135809000Y-89891000D02*
X133431000Y-89891000D01*
X135732000Y-89931000D02*
X133508000Y-89931000D01*
X135648000Y-89971000D02*
X133592000Y-89971000D01*
X135554000Y-90011000D02*
X133686000Y-90011000D01*
X135449000Y-90051000D02*
X133791000Y-90051000D01*
X135327000Y-90091000D02*
X133913000Y-90091000D01*
X135179000Y-90131000D02*
X134061000Y-90131000D01*
X134974000Y-90171000D02*
X134266000Y-90171000D01*
X134620000Y-84160000D02*
X134620000Y-85360000D01*
X135270000Y-84760000D02*
X133970000Y-84760000D01*
X140879723Y-89915722D02*
G75*
G03X140880000Y-85304420I-1179723J2305722D01*
G01*
X138520277Y-89915722D02*
G75*
G02X138520000Y-85304420I1179723J2305722D01*
G01*
X138520277Y-89915722D02*
G75*
G03X140880000Y-89915580I1179723J2305722D01*
G01*
X142250000Y-87610000D02*
X137150000Y-87610000D01*
X142250000Y-87650000D02*
X137150000Y-87650000D01*
X142249000Y-87690000D02*
X137151000Y-87690000D01*
X142248000Y-87730000D02*
X137152000Y-87730000D01*
X142246000Y-87770000D02*
X137154000Y-87770000D01*
X142243000Y-87810000D02*
X137157000Y-87810000D01*
X142239000Y-87850000D02*
X137161000Y-87850000D01*
X142235000Y-87890000D02*
X140680000Y-87890000D01*
X138720000Y-87890000D02*
X137165000Y-87890000D01*
X142231000Y-87930000D02*
X140680000Y-87930000D01*
X138720000Y-87930000D02*
X137169000Y-87930000D01*
X142225000Y-87970000D02*
X140680000Y-87970000D01*
X138720000Y-87970000D02*
X137175000Y-87970000D01*
X142219000Y-88010000D02*
X140680000Y-88010000D01*
X138720000Y-88010000D02*
X137181000Y-88010000D01*
X142213000Y-88050000D02*
X140680000Y-88050000D01*
X138720000Y-88050000D02*
X137187000Y-88050000D01*
X142206000Y-88090000D02*
X140680000Y-88090000D01*
X138720000Y-88090000D02*
X137194000Y-88090000D01*
X142198000Y-88130000D02*
X140680000Y-88130000D01*
X138720000Y-88130000D02*
X137202000Y-88130000D01*
X142189000Y-88170000D02*
X140680000Y-88170000D01*
X138720000Y-88170000D02*
X137211000Y-88170000D01*
X142180000Y-88210000D02*
X140680000Y-88210000D01*
X138720000Y-88210000D02*
X137220000Y-88210000D01*
X142170000Y-88250000D02*
X140680000Y-88250000D01*
X138720000Y-88250000D02*
X137230000Y-88250000D01*
X142160000Y-88290000D02*
X140680000Y-88290000D01*
X138720000Y-88290000D02*
X137240000Y-88290000D01*
X142148000Y-88331000D02*
X140680000Y-88331000D01*
X138720000Y-88331000D02*
X137252000Y-88331000D01*
X142136000Y-88371000D02*
X140680000Y-88371000D01*
X138720000Y-88371000D02*
X137264000Y-88371000D01*
X142124000Y-88411000D02*
X140680000Y-88411000D01*
X138720000Y-88411000D02*
X137276000Y-88411000D01*
X142110000Y-88451000D02*
X140680000Y-88451000D01*
X138720000Y-88451000D02*
X137290000Y-88451000D01*
X142096000Y-88491000D02*
X140680000Y-88491000D01*
X138720000Y-88491000D02*
X137304000Y-88491000D01*
X142082000Y-88531000D02*
X140680000Y-88531000D01*
X138720000Y-88531000D02*
X137318000Y-88531000D01*
X142066000Y-88571000D02*
X140680000Y-88571000D01*
X138720000Y-88571000D02*
X137334000Y-88571000D01*
X142050000Y-88611000D02*
X140680000Y-88611000D01*
X138720000Y-88611000D02*
X137350000Y-88611000D01*
X142033000Y-88651000D02*
X140680000Y-88651000D01*
X138720000Y-88651000D02*
X137367000Y-88651000D01*
X142015000Y-88691000D02*
X140680000Y-88691000D01*
X138720000Y-88691000D02*
X137385000Y-88691000D01*
X141996000Y-88731000D02*
X140680000Y-88731000D01*
X138720000Y-88731000D02*
X137404000Y-88731000D01*
X141976000Y-88771000D02*
X140680000Y-88771000D01*
X138720000Y-88771000D02*
X137424000Y-88771000D01*
X141956000Y-88811000D02*
X140680000Y-88811000D01*
X138720000Y-88811000D02*
X137444000Y-88811000D01*
X141934000Y-88851000D02*
X140680000Y-88851000D01*
X138720000Y-88851000D02*
X137466000Y-88851000D01*
X141912000Y-88891000D02*
X140680000Y-88891000D01*
X138720000Y-88891000D02*
X137488000Y-88891000D01*
X141889000Y-88931000D02*
X140680000Y-88931000D01*
X138720000Y-88931000D02*
X137511000Y-88931000D01*
X141865000Y-88971000D02*
X140680000Y-88971000D01*
X138720000Y-88971000D02*
X137535000Y-88971000D01*
X141840000Y-89011000D02*
X140680000Y-89011000D01*
X138720000Y-89011000D02*
X137560000Y-89011000D01*
X141813000Y-89051000D02*
X140680000Y-89051000D01*
X138720000Y-89051000D02*
X137587000Y-89051000D01*
X141786000Y-89091000D02*
X140680000Y-89091000D01*
X138720000Y-89091000D02*
X137614000Y-89091000D01*
X141758000Y-89131000D02*
X140680000Y-89131000D01*
X138720000Y-89131000D02*
X137642000Y-89131000D01*
X141728000Y-89171000D02*
X140680000Y-89171000D01*
X138720000Y-89171000D02*
X137672000Y-89171000D01*
X141697000Y-89211000D02*
X140680000Y-89211000D01*
X138720000Y-89211000D02*
X137703000Y-89211000D01*
X141665000Y-89251000D02*
X140680000Y-89251000D01*
X138720000Y-89251000D02*
X137735000Y-89251000D01*
X141632000Y-89291000D02*
X140680000Y-89291000D01*
X138720000Y-89291000D02*
X137768000Y-89291000D01*
X141597000Y-89331000D02*
X140680000Y-89331000D01*
X138720000Y-89331000D02*
X137803000Y-89331000D01*
X141561000Y-89371000D02*
X140680000Y-89371000D01*
X138720000Y-89371000D02*
X137839000Y-89371000D01*
X141523000Y-89411000D02*
X140680000Y-89411000D01*
X138720000Y-89411000D02*
X137877000Y-89411000D01*
X141483000Y-89451000D02*
X140680000Y-89451000D01*
X138720000Y-89451000D02*
X137917000Y-89451000D01*
X141442000Y-89491000D02*
X140680000Y-89491000D01*
X138720000Y-89491000D02*
X137958000Y-89491000D01*
X141399000Y-89531000D02*
X140680000Y-89531000D01*
X138720000Y-89531000D02*
X138001000Y-89531000D01*
X141354000Y-89571000D02*
X140680000Y-89571000D01*
X138720000Y-89571000D02*
X138046000Y-89571000D01*
X141306000Y-89611000D02*
X140680000Y-89611000D01*
X138720000Y-89611000D02*
X138094000Y-89611000D01*
X141256000Y-89651000D02*
X140680000Y-89651000D01*
X138720000Y-89651000D02*
X138144000Y-89651000D01*
X141204000Y-89691000D02*
X140680000Y-89691000D01*
X138720000Y-89691000D02*
X138196000Y-89691000D01*
X141148000Y-89731000D02*
X140680000Y-89731000D01*
X138720000Y-89731000D02*
X138252000Y-89731000D01*
X141090000Y-89771000D02*
X140680000Y-89771000D01*
X138720000Y-89771000D02*
X138310000Y-89771000D01*
X141027000Y-89811000D02*
X140680000Y-89811000D01*
X138720000Y-89811000D02*
X138373000Y-89811000D01*
X140961000Y-89851000D02*
X138439000Y-89851000D01*
X140889000Y-89891000D02*
X138511000Y-89891000D01*
X140812000Y-89931000D02*
X138588000Y-89931000D01*
X140728000Y-89971000D02*
X138672000Y-89971000D01*
X140634000Y-90011000D02*
X138766000Y-90011000D01*
X140529000Y-90051000D02*
X138871000Y-90051000D01*
X140407000Y-90091000D02*
X138993000Y-90091000D01*
X140259000Y-90131000D02*
X139141000Y-90131000D01*
X140054000Y-90171000D02*
X139346000Y-90171000D01*
X139700000Y-84160000D02*
X139700000Y-85360000D01*
X140350000Y-84760000D02*
X139050000Y-84760000D01*
X140715722Y-69940277D02*
G75*
G03X136104420Y-69940000I-2305722J-1179723D01*
G01*
X140715722Y-72299723D02*
G75*
G02X136104420Y-72300000I-2305722J1179723D01*
G01*
X140715722Y-72299723D02*
G75*
G03X140715580Y-69940000I-2305722J1179723D01*
G01*
X138410000Y-68570000D02*
X138410000Y-73670000D01*
X138450000Y-68570000D02*
X138450000Y-73670000D01*
X138490000Y-68571000D02*
X138490000Y-73669000D01*
X138530000Y-68572000D02*
X138530000Y-73668000D01*
X138570000Y-68574000D02*
X138570000Y-73666000D01*
X138610000Y-68577000D02*
X138610000Y-73663000D01*
X138650000Y-68581000D02*
X138650000Y-73659000D01*
X138690000Y-68585000D02*
X138690000Y-70140000D01*
X138690000Y-72100000D02*
X138690000Y-73655000D01*
X138730000Y-68589000D02*
X138730000Y-70140000D01*
X138730000Y-72100000D02*
X138730000Y-73651000D01*
X138770000Y-68595000D02*
X138770000Y-70140000D01*
X138770000Y-72100000D02*
X138770000Y-73645000D01*
X138810000Y-68601000D02*
X138810000Y-70140000D01*
X138810000Y-72100000D02*
X138810000Y-73639000D01*
X138850000Y-68607000D02*
X138850000Y-70140000D01*
X138850000Y-72100000D02*
X138850000Y-73633000D01*
X138890000Y-68614000D02*
X138890000Y-70140000D01*
X138890000Y-72100000D02*
X138890000Y-73626000D01*
X138930000Y-68622000D02*
X138930000Y-70140000D01*
X138930000Y-72100000D02*
X138930000Y-73618000D01*
X138970000Y-68631000D02*
X138970000Y-70140000D01*
X138970000Y-72100000D02*
X138970000Y-73609000D01*
X139010000Y-68640000D02*
X139010000Y-70140000D01*
X139010000Y-72100000D02*
X139010000Y-73600000D01*
X139050000Y-68650000D02*
X139050000Y-70140000D01*
X139050000Y-72100000D02*
X139050000Y-73590000D01*
X139090000Y-68660000D02*
X139090000Y-70140000D01*
X139090000Y-72100000D02*
X139090000Y-73580000D01*
X139131000Y-68672000D02*
X139131000Y-70140000D01*
X139131000Y-72100000D02*
X139131000Y-73568000D01*
X139171000Y-68684000D02*
X139171000Y-70140000D01*
X139171000Y-72100000D02*
X139171000Y-73556000D01*
X139211000Y-68696000D02*
X139211000Y-70140000D01*
X139211000Y-72100000D02*
X139211000Y-73544000D01*
X139251000Y-68710000D02*
X139251000Y-70140000D01*
X139251000Y-72100000D02*
X139251000Y-73530000D01*
X139291000Y-68724000D02*
X139291000Y-70140000D01*
X139291000Y-72100000D02*
X139291000Y-73516000D01*
X139331000Y-68738000D02*
X139331000Y-70140000D01*
X139331000Y-72100000D02*
X139331000Y-73502000D01*
X139371000Y-68754000D02*
X139371000Y-70140000D01*
X139371000Y-72100000D02*
X139371000Y-73486000D01*
X139411000Y-68770000D02*
X139411000Y-70140000D01*
X139411000Y-72100000D02*
X139411000Y-73470000D01*
X139451000Y-68787000D02*
X139451000Y-70140000D01*
X139451000Y-72100000D02*
X139451000Y-73453000D01*
X139491000Y-68805000D02*
X139491000Y-70140000D01*
X139491000Y-72100000D02*
X139491000Y-73435000D01*
X139531000Y-68824000D02*
X139531000Y-70140000D01*
X139531000Y-72100000D02*
X139531000Y-73416000D01*
X139571000Y-68844000D02*
X139571000Y-70140000D01*
X139571000Y-72100000D02*
X139571000Y-73396000D01*
X139611000Y-68864000D02*
X139611000Y-70140000D01*
X139611000Y-72100000D02*
X139611000Y-73376000D01*
X139651000Y-68886000D02*
X139651000Y-70140000D01*
X139651000Y-72100000D02*
X139651000Y-73354000D01*
X139691000Y-68908000D02*
X139691000Y-70140000D01*
X139691000Y-72100000D02*
X139691000Y-73332000D01*
X139731000Y-68931000D02*
X139731000Y-70140000D01*
X139731000Y-72100000D02*
X139731000Y-73309000D01*
X139771000Y-68955000D02*
X139771000Y-70140000D01*
X139771000Y-72100000D02*
X139771000Y-73285000D01*
X139811000Y-68980000D02*
X139811000Y-70140000D01*
X139811000Y-72100000D02*
X139811000Y-73260000D01*
X139851000Y-69007000D02*
X139851000Y-70140000D01*
X139851000Y-72100000D02*
X139851000Y-73233000D01*
X139891000Y-69034000D02*
X139891000Y-70140000D01*
X139891000Y-72100000D02*
X139891000Y-73206000D01*
X139931000Y-69062000D02*
X139931000Y-70140000D01*
X139931000Y-72100000D02*
X139931000Y-73178000D01*
X139971000Y-69092000D02*
X139971000Y-70140000D01*
X139971000Y-72100000D02*
X139971000Y-73148000D01*
X140011000Y-69123000D02*
X140011000Y-70140000D01*
X140011000Y-72100000D02*
X140011000Y-73117000D01*
X140051000Y-69155000D02*
X140051000Y-70140000D01*
X140051000Y-72100000D02*
X140051000Y-73085000D01*
X140091000Y-69188000D02*
X140091000Y-70140000D01*
X140091000Y-72100000D02*
X140091000Y-73052000D01*
X140131000Y-69223000D02*
X140131000Y-70140000D01*
X140131000Y-72100000D02*
X140131000Y-73017000D01*
X140171000Y-69259000D02*
X140171000Y-70140000D01*
X140171000Y-72100000D02*
X140171000Y-72981000D01*
X140211000Y-69297000D02*
X140211000Y-70140000D01*
X140211000Y-72100000D02*
X140211000Y-72943000D01*
X140251000Y-69337000D02*
X140251000Y-70140000D01*
X140251000Y-72100000D02*
X140251000Y-72903000D01*
X140291000Y-69378000D02*
X140291000Y-70140000D01*
X140291000Y-72100000D02*
X140291000Y-72862000D01*
X140331000Y-69421000D02*
X140331000Y-70140000D01*
X140331000Y-72100000D02*
X140331000Y-72819000D01*
X140371000Y-69466000D02*
X140371000Y-70140000D01*
X140371000Y-72100000D02*
X140371000Y-72774000D01*
X140411000Y-69514000D02*
X140411000Y-70140000D01*
X140411000Y-72100000D02*
X140411000Y-72726000D01*
X140451000Y-69564000D02*
X140451000Y-70140000D01*
X140451000Y-72100000D02*
X140451000Y-72676000D01*
X140491000Y-69616000D02*
X140491000Y-70140000D01*
X140491000Y-72100000D02*
X140491000Y-72624000D01*
X140531000Y-69672000D02*
X140531000Y-70140000D01*
X140531000Y-72100000D02*
X140531000Y-72568000D01*
X140571000Y-69730000D02*
X140571000Y-70140000D01*
X140571000Y-72100000D02*
X140571000Y-72510000D01*
X140611000Y-69793000D02*
X140611000Y-70140000D01*
X140611000Y-72100000D02*
X140611000Y-72447000D01*
X140651000Y-69859000D02*
X140651000Y-72381000D01*
X140691000Y-69931000D02*
X140691000Y-72309000D01*
X140731000Y-70008000D02*
X140731000Y-72232000D01*
X140771000Y-70092000D02*
X140771000Y-72148000D01*
X140811000Y-70186000D02*
X140811000Y-72054000D01*
X140851000Y-70291000D02*
X140851000Y-71949000D01*
X140891000Y-70413000D02*
X140891000Y-71827000D01*
X140931000Y-70561000D02*
X140931000Y-71679000D01*
X140971000Y-70766000D02*
X140971000Y-71474000D01*
X134960000Y-71120000D02*
X136160000Y-71120000D01*
X135560000Y-70470000D02*
X135560000Y-71770000D01*
X151039723Y-69595722D02*
G75*
G03X151040000Y-64984420I-1179723J2305722D01*
G01*
X148680277Y-69595722D02*
G75*
G02X148680000Y-64984420I1179723J2305722D01*
G01*
X148680277Y-69595722D02*
G75*
G03X151040000Y-69595580I1179723J2305722D01*
G01*
X152410000Y-67290000D02*
X147310000Y-67290000D01*
X152410000Y-67330000D02*
X147310000Y-67330000D01*
X152409000Y-67370000D02*
X147311000Y-67370000D01*
X152408000Y-67410000D02*
X147312000Y-67410000D01*
X152406000Y-67450000D02*
X147314000Y-67450000D01*
X152403000Y-67490000D02*
X147317000Y-67490000D01*
X152399000Y-67530000D02*
X147321000Y-67530000D01*
X152395000Y-67570000D02*
X150840000Y-67570000D01*
X148880000Y-67570000D02*
X147325000Y-67570000D01*
X152391000Y-67610000D02*
X150840000Y-67610000D01*
X148880000Y-67610000D02*
X147329000Y-67610000D01*
X152385000Y-67650000D02*
X150840000Y-67650000D01*
X148880000Y-67650000D02*
X147335000Y-67650000D01*
X152379000Y-67690000D02*
X150840000Y-67690000D01*
X148880000Y-67690000D02*
X147341000Y-67690000D01*
X152373000Y-67730000D02*
X150840000Y-67730000D01*
X148880000Y-67730000D02*
X147347000Y-67730000D01*
X152366000Y-67770000D02*
X150840000Y-67770000D01*
X148880000Y-67770000D02*
X147354000Y-67770000D01*
X152358000Y-67810000D02*
X150840000Y-67810000D01*
X148880000Y-67810000D02*
X147362000Y-67810000D01*
X152349000Y-67850000D02*
X150840000Y-67850000D01*
X148880000Y-67850000D02*
X147371000Y-67850000D01*
X152340000Y-67890000D02*
X150840000Y-67890000D01*
X148880000Y-67890000D02*
X147380000Y-67890000D01*
X152330000Y-67930000D02*
X150840000Y-67930000D01*
X148880000Y-67930000D02*
X147390000Y-67930000D01*
X152320000Y-67970000D02*
X150840000Y-67970000D01*
X148880000Y-67970000D02*
X147400000Y-67970000D01*
X152308000Y-68011000D02*
X150840000Y-68011000D01*
X148880000Y-68011000D02*
X147412000Y-68011000D01*
X152296000Y-68051000D02*
X150840000Y-68051000D01*
X148880000Y-68051000D02*
X147424000Y-68051000D01*
X152284000Y-68091000D02*
X150840000Y-68091000D01*
X148880000Y-68091000D02*
X147436000Y-68091000D01*
X152270000Y-68131000D02*
X150840000Y-68131000D01*
X148880000Y-68131000D02*
X147450000Y-68131000D01*
X152256000Y-68171000D02*
X150840000Y-68171000D01*
X148880000Y-68171000D02*
X147464000Y-68171000D01*
X152242000Y-68211000D02*
X150840000Y-68211000D01*
X148880000Y-68211000D02*
X147478000Y-68211000D01*
X152226000Y-68251000D02*
X150840000Y-68251000D01*
X148880000Y-68251000D02*
X147494000Y-68251000D01*
X152210000Y-68291000D02*
X150840000Y-68291000D01*
X148880000Y-68291000D02*
X147510000Y-68291000D01*
X152193000Y-68331000D02*
X150840000Y-68331000D01*
X148880000Y-68331000D02*
X147527000Y-68331000D01*
X152175000Y-68371000D02*
X150840000Y-68371000D01*
X148880000Y-68371000D02*
X147545000Y-68371000D01*
X152156000Y-68411000D02*
X150840000Y-68411000D01*
X148880000Y-68411000D02*
X147564000Y-68411000D01*
X152136000Y-68451000D02*
X150840000Y-68451000D01*
X148880000Y-68451000D02*
X147584000Y-68451000D01*
X152116000Y-68491000D02*
X150840000Y-68491000D01*
X148880000Y-68491000D02*
X147604000Y-68491000D01*
X152094000Y-68531000D02*
X150840000Y-68531000D01*
X148880000Y-68531000D02*
X147626000Y-68531000D01*
X152072000Y-68571000D02*
X150840000Y-68571000D01*
X148880000Y-68571000D02*
X147648000Y-68571000D01*
X152049000Y-68611000D02*
X150840000Y-68611000D01*
X148880000Y-68611000D02*
X147671000Y-68611000D01*
X152025000Y-68651000D02*
X150840000Y-68651000D01*
X148880000Y-68651000D02*
X147695000Y-68651000D01*
X152000000Y-68691000D02*
X150840000Y-68691000D01*
X148880000Y-68691000D02*
X147720000Y-68691000D01*
X151973000Y-68731000D02*
X150840000Y-68731000D01*
X148880000Y-68731000D02*
X147747000Y-68731000D01*
X151946000Y-68771000D02*
X150840000Y-68771000D01*
X148880000Y-68771000D02*
X147774000Y-68771000D01*
X151918000Y-68811000D02*
X150840000Y-68811000D01*
X148880000Y-68811000D02*
X147802000Y-68811000D01*
X151888000Y-68851000D02*
X150840000Y-68851000D01*
X148880000Y-68851000D02*
X147832000Y-68851000D01*
X151857000Y-68891000D02*
X150840000Y-68891000D01*
X148880000Y-68891000D02*
X147863000Y-68891000D01*
X151825000Y-68931000D02*
X150840000Y-68931000D01*
X148880000Y-68931000D02*
X147895000Y-68931000D01*
X151792000Y-68971000D02*
X150840000Y-68971000D01*
X148880000Y-68971000D02*
X147928000Y-68971000D01*
X151757000Y-69011000D02*
X150840000Y-69011000D01*
X148880000Y-69011000D02*
X147963000Y-69011000D01*
X151721000Y-69051000D02*
X150840000Y-69051000D01*
X148880000Y-69051000D02*
X147999000Y-69051000D01*
X151683000Y-69091000D02*
X150840000Y-69091000D01*
X148880000Y-69091000D02*
X148037000Y-69091000D01*
X151643000Y-69131000D02*
X150840000Y-69131000D01*
X148880000Y-69131000D02*
X148077000Y-69131000D01*
X151602000Y-69171000D02*
X150840000Y-69171000D01*
X148880000Y-69171000D02*
X148118000Y-69171000D01*
X151559000Y-69211000D02*
X150840000Y-69211000D01*
X148880000Y-69211000D02*
X148161000Y-69211000D01*
X151514000Y-69251000D02*
X150840000Y-69251000D01*
X148880000Y-69251000D02*
X148206000Y-69251000D01*
X151466000Y-69291000D02*
X150840000Y-69291000D01*
X148880000Y-69291000D02*
X148254000Y-69291000D01*
X151416000Y-69331000D02*
X150840000Y-69331000D01*
X148880000Y-69331000D02*
X148304000Y-69331000D01*
X151364000Y-69371000D02*
X150840000Y-69371000D01*
X148880000Y-69371000D02*
X148356000Y-69371000D01*
X151308000Y-69411000D02*
X150840000Y-69411000D01*
X148880000Y-69411000D02*
X148412000Y-69411000D01*
X151250000Y-69451000D02*
X150840000Y-69451000D01*
X148880000Y-69451000D02*
X148470000Y-69451000D01*
X151187000Y-69491000D02*
X150840000Y-69491000D01*
X148880000Y-69491000D02*
X148533000Y-69491000D01*
X151121000Y-69531000D02*
X148599000Y-69531000D01*
X151049000Y-69571000D02*
X148671000Y-69571000D01*
X150972000Y-69611000D02*
X148748000Y-69611000D01*
X150888000Y-69651000D02*
X148832000Y-69651000D01*
X150794000Y-69691000D02*
X148926000Y-69691000D01*
X150689000Y-69731000D02*
X149031000Y-69731000D01*
X150567000Y-69771000D02*
X149153000Y-69771000D01*
X150419000Y-69811000D02*
X149301000Y-69811000D01*
X150214000Y-69851000D02*
X149506000Y-69851000D01*
X149860000Y-63840000D02*
X149860000Y-65040000D01*
X150510000Y-64440000D02*
X149210000Y-64440000D01*
X141450000Y-62440000D02*
X141450000Y-64560000D01*
X141450000Y-64560000D02*
X145570000Y-64560000D01*
X145570000Y-64560000D02*
X145570000Y-62440000D01*
X145570000Y-62440000D02*
X141450000Y-62440000D01*
X140680000Y-63500000D02*
X141450000Y-63500000D01*
X146340000Y-63500000D02*
X145570000Y-63500000D01*
X142110000Y-62440000D02*
X142110000Y-64560000D01*
X176590000Y-59630000D02*
X173930000Y-59630000D01*
X176590000Y-62230000D02*
X176590000Y-59630000D01*
X173930000Y-62230000D02*
X173930000Y-59630000D01*
X176590000Y-62230000D02*
X173930000Y-62230000D01*
X176590000Y-63500000D02*
X176590000Y-64830000D01*
X176590000Y-64830000D02*
X175260000Y-64830000D01*
X150530000Y-118150000D02*
X150530000Y-115530000D01*
X150530000Y-115530000D02*
X144110000Y-115530000D01*
X144110000Y-115530000D02*
X144110000Y-118150000D01*
X144110000Y-118150000D02*
X150530000Y-118150000D01*
X151420000Y-116840000D02*
X150530000Y-116840000D01*
X143220000Y-116840000D02*
X144110000Y-116840000D01*
X156810000Y-115530000D02*
X156810000Y-118150000D01*
X156810000Y-118150000D02*
X163230000Y-118150000D01*
X163230000Y-118150000D02*
X163230000Y-115530000D01*
X163230000Y-115530000D02*
X156810000Y-115530000D01*
X155920000Y-116840000D02*
X156810000Y-116840000D01*
X164120000Y-116840000D02*
X163230000Y-116840000D01*
X150530000Y-115610000D02*
X150530000Y-112990000D01*
X150530000Y-112990000D02*
X144110000Y-112990000D01*
X144110000Y-112990000D02*
X144110000Y-115610000D01*
X144110000Y-115610000D02*
X150530000Y-115610000D01*
X151420000Y-114300000D02*
X150530000Y-114300000D01*
X143220000Y-114300000D02*
X144110000Y-114300000D01*
X156810000Y-112990000D02*
X156810000Y-115610000D01*
X156810000Y-115610000D02*
X163230000Y-115610000D01*
X163230000Y-115610000D02*
X163230000Y-112990000D01*
X163230000Y-112990000D02*
X156810000Y-112990000D01*
X155920000Y-114300000D02*
X156810000Y-114300000D01*
X164120000Y-114300000D02*
X163230000Y-114300000D01*
X166410000Y-88230000D02*
X163790000Y-88230000D01*
X163790000Y-88230000D02*
X163790000Y-94650000D01*
X163790000Y-94650000D02*
X166410000Y-94650000D01*
X166410000Y-94650000D02*
X166410000Y-88230000D01*
X165100000Y-87340000D02*
X165100000Y-88230000D01*
X165100000Y-95540000D02*
X165100000Y-94650000D01*
X174030000Y-98390000D02*
X171410000Y-98390000D01*
X171410000Y-98390000D02*
X171410000Y-104810000D01*
X171410000Y-104810000D02*
X174030000Y-104810000D01*
X174030000Y-104810000D02*
X174030000Y-98390000D01*
X172720000Y-97500000D02*
X172720000Y-98390000D01*
X172720000Y-105700000D02*
X172720000Y-104810000D01*
X176590000Y-72330000D02*
X173930000Y-72330000D01*
X176590000Y-74930000D02*
X176590000Y-72330000D01*
X173930000Y-74930000D02*
X173930000Y-72330000D01*
X176590000Y-74930000D02*
X173930000Y-74930000D01*
X176590000Y-76200000D02*
X176590000Y-77530000D01*
X176590000Y-77530000D02*
X175260000Y-77530000D01*
X159280000Y-61650000D02*
X155680000Y-61650000D01*
X159804184Y-62377205D02*
G75*
G03X159280000Y-61650000I-2324184J-1122795D01*
G01*
X159836400Y-64598807D02*
G75*
G02X157480000Y-66100000I-2356400J1098807D01*
G01*
X155123600Y-64598807D02*
G75*
G03X157480000Y-66100000I2356400J1098807D01*
G01*
X155155816Y-62377205D02*
G75*
G02X155680000Y-61650000I2324184J-1122795D01*
G01*
X163250000Y-79480000D02*
X163250000Y-83080000D01*
X163977205Y-78955816D02*
G75*
G03X163250000Y-79480000I1122795J-2324184D01*
G01*
X166198807Y-78923600D02*
G75*
G02X167700000Y-81280000I-1098807J-2356400D01*
G01*
X166198807Y-83636400D02*
G75*
G03X167700000Y-81280000I-1098807J2356400D01*
G01*
X163977205Y-83604184D02*
G75*
G02X163250000Y-83080000I1122795J2324184D01*
G01*
X135680000Y-107740000D02*
X128560000Y-107740000D01*
X135680000Y-105620000D02*
X128560000Y-105620000D01*
X135680000Y-107740000D02*
X135680000Y-105620000D01*
X128560000Y-107740000D02*
X128560000Y-105620000D01*
X161500000Y-75140000D02*
X168620000Y-75140000D01*
X161500000Y-77260000D02*
X168620000Y-77260000D01*
X161500000Y-75140000D02*
X161500000Y-77260000D01*
X168620000Y-75140000D02*
X168620000Y-77260000D01*
X164040000Y-98000000D02*
X171160000Y-98000000D01*
X164040000Y-100120000D02*
X171160000Y-100120000D01*
X164040000Y-98000000D02*
X164040000Y-100120000D01*
X171160000Y-98000000D02*
X171160000Y-100120000D01*
X174200000Y-105620000D02*
X181320000Y-105620000D01*
X174200000Y-107740000D02*
X181320000Y-107740000D01*
X174200000Y-105620000D02*
X174200000Y-107740000D01*
X181320000Y-105620000D02*
X181320000Y-107740000D01*
X136100000Y-77680000D02*
X143220000Y-77680000D01*
X136100000Y-79800000D02*
X143220000Y-79800000D01*
X136100000Y-77680000D02*
X136100000Y-79800000D01*
X143220000Y-77680000D02*
X143220000Y-79800000D01*
X143570000Y-101330000D02*
G75*
G02X143570000Y-99330000I0J1000000D01*
G01*
X143570000Y-99330000D02*
X143570000Y-97680000D01*
X143570000Y-97680000D02*
X133290000Y-97680000D01*
X133290000Y-97680000D02*
X133290000Y-102980000D01*
X133290000Y-102980000D02*
X143570000Y-102980000D01*
X143570000Y-102980000D02*
X143570000Y-101330000D01*
X165370000Y-110550000D02*
G75*
G02X167370000Y-110550000I1000000J0D01*
G01*
X167370000Y-110550000D02*
X169020000Y-110550000D01*
X169020000Y-110550000D02*
X169020000Y-100270000D01*
X169020000Y-100270000D02*
X163720000Y-100270000D01*
X163720000Y-100270000D02*
X163720000Y-110550000D01*
X163720000Y-110550000D02*
X165370000Y-110550000D01*
X131020000Y-102660000D02*
X131020000Y-95540000D01*
X133140000Y-102660000D02*
X133140000Y-95540000D01*
X131020000Y-102660000D02*
X133140000Y-102660000D01*
X131020000Y-95540000D02*
X133140000Y-95540000D01*
X161500000Y-110700000D02*
X168620000Y-110700000D01*
X161500000Y-112820000D02*
X168620000Y-112820000D01*
X161500000Y-110700000D02*
X161500000Y-112820000D01*
X168620000Y-110700000D02*
X168620000Y-112820000D01*
X138500000Y-119200000D02*
G75*
G03X138500000Y-119200000I-5500000J0D01*
G01*
X179500000Y-119200000D02*
G75*
G03X179500000Y-119200000I-5500000J0D01*
G01*
D13*
X144760000Y-55500000D02*
X142260000Y-55500000D01*
X132260000Y-55500000D02*
X129760000Y-55500000D01*
X136260000Y-52500000D02*
X129760000Y-52500000D01*
X144760000Y-52500000D02*
X138260000Y-52500000D01*
X135260000Y-50000000D02*
X132560000Y-50000000D01*
X135260000Y-51500000D02*
X132560000Y-51500000D01*
X141960000Y-50000000D02*
X139260000Y-50000000D01*
X141960000Y-51500000D02*
X139260000Y-51500000D01*
X142960000Y-48200000D02*
X131560000Y-48200000D01*
X129760000Y-55500000D02*
X129760000Y-48200000D01*
X144760000Y-55500000D02*
X144760000Y-48200000D01*
X137510000Y-55500000D02*
X141760000Y-55500000D01*
X137010000Y-55500000D02*
X132760000Y-55500000D01*
X137510000Y-57000000D02*
X137010000Y-57000000D01*
X137010000Y-57000000D02*
X137010000Y-55500000D01*
X137510000Y-55500000D02*
X137510000Y-57000000D01*
X142260000Y-57000000D02*
X142260000Y-55500000D01*
X142260000Y-57000000D02*
X141760000Y-57000000D01*
X141760000Y-57000000D02*
X141760000Y-55500000D01*
X132760000Y-55500000D02*
X132760000Y-57000000D01*
X132760000Y-57000000D02*
X132260000Y-57000000D01*
X132260000Y-57000000D02*
X132260000Y-55500000D01*
X133760000Y-48200000D02*
X133760000Y-48700000D01*
X133760000Y-48700000D02*
X140760000Y-48700000D01*
X140760000Y-48700000D02*
X140760000Y-48200000D01*
X141960000Y-50000000D02*
X141960000Y-51500000D01*
X139260000Y-51500000D02*
X139260000Y-50000000D01*
X132560000Y-51500000D02*
X132560000Y-50000000D01*
X135260000Y-50000000D02*
X135260000Y-51500000D01*
X136260000Y-52500000D02*
X136260000Y-51500000D01*
X138260000Y-52500000D02*
X138260000Y-51500000D01*
X137260000Y-50500000D02*
G75*
G03X136260000Y-51500000I0J-1000000D01*
G01*
X138260000Y-51500000D02*
G75*
G03X137260000Y-50500000I-1000000J0D01*
G01*
D12*
X130850000Y-109220000D02*
G75*
G03X130850000Y-109220000I-1310000J0D01*
G01*
X130850000Y-109220000D02*
X130980000Y-109220000D01*
X138470000Y-109220000D02*
G75*
G03X138470000Y-109220000I-1310000J0D01*
G01*
X138470000Y-109220000D02*
X138600000Y-109220000D01*
X138470000Y-106680000D02*
G75*
G03X138470000Y-106680000I-1310000J0D01*
G01*
X138470000Y-106680000D02*
X138600000Y-106680000D01*
X146090000Y-104140000D02*
G75*
G03X146090000Y-104140000I-1310000J0D01*
G01*
X146090000Y-104140000D02*
X146220000Y-104140000D01*
X151170000Y-109220000D02*
G75*
G03X151170000Y-109220000I-1310000J0D01*
G01*
X148550000Y-109220000D02*
X148420000Y-109220000D01*
X156170000Y-109890000D02*
X158790000Y-109890000D01*
X158790000Y-109890000D02*
X158790000Y-103470000D01*
X158790000Y-103470000D02*
X156170000Y-103470000D01*
X156170000Y-103470000D02*
X156170000Y-109890000D01*
X157480000Y-110780000D02*
X157480000Y-109890000D01*
X157480000Y-102580000D02*
X157480000Y-103470000D01*
X153630000Y-109890000D02*
X156250000Y-109890000D01*
X156250000Y-109890000D02*
X156250000Y-103470000D01*
X156250000Y-103470000D02*
X153630000Y-103470000D01*
X153630000Y-103470000D02*
X153630000Y-109890000D01*
X154940000Y-110780000D02*
X154940000Y-109890000D01*
X154940000Y-102580000D02*
X154940000Y-103470000D01*
X154270000Y-97750000D02*
X154270000Y-100370000D01*
X154270000Y-100370000D02*
X160690000Y-100370000D01*
X160690000Y-100370000D02*
X160690000Y-97750000D01*
X160690000Y-97750000D02*
X154270000Y-97750000D01*
X153380000Y-99060000D02*
X154270000Y-99060000D01*
X161580000Y-99060000D02*
X160690000Y-99060000D01*
X125280000Y-88899538D02*
G75*
G03X130830000Y-90444830I2990000J-462D01*
G01*
X125280000Y-88900462D02*
G75*
G02X130830000Y-87355170I2990000J462D01*
G01*
X130770000Y-88900000D02*
G75*
G03X130770000Y-88900000I-2500000J0D01*
G01*
X130830000Y-90445000D02*
X130830000Y-87355000D01*
X125280000Y-81279538D02*
G75*
G03X130830000Y-82824830I2990000J-462D01*
G01*
X125280000Y-81280462D02*
G75*
G02X130830000Y-79735170I2990000J462D01*
G01*
X130770000Y-81280000D02*
G75*
G03X130770000Y-81280000I-2500000J0D01*
G01*
X130830000Y-82825000D02*
X130830000Y-79735000D01*
X133390000Y-93980000D02*
G75*
G03X133390000Y-93980000I-1310000J0D01*
G01*
X130770000Y-93980000D02*
X130640000Y-93980000D01*
X138470000Y-91440000D02*
G75*
G03X138470000Y-91440000I-1310000J0D01*
G01*
X137160000Y-92750000D02*
X137160000Y-92880000D01*
X179110000Y-104140000D02*
G75*
G03X179110000Y-104140000I-1310000J0D01*
G01*
X176490000Y-104140000D02*
X176360000Y-104140000D01*
X138470000Y-81280000D02*
G75*
G03X138470000Y-81280000I-1310000J0D01*
G01*
X135850000Y-81280000D02*
X135720000Y-81280000D01*
X158710000Y-109890000D02*
X161330000Y-109890000D01*
X161330000Y-109890000D02*
X161330000Y-103470000D01*
X161330000Y-103470000D02*
X158710000Y-103470000D01*
X158710000Y-103470000D02*
X158710000Y-109890000D01*
X160020000Y-110780000D02*
X160020000Y-109890000D01*
X160020000Y-102580000D02*
X160020000Y-103470000D01*
D14*
X150550000Y-93820000D02*
X151820000Y-93820000D01*
X155615000Y-93185000D02*
X155615000Y-94455000D01*
X154980000Y-93820000D02*
X156250000Y-93820000D01*
X151749000Y-90762000D02*
X151241000Y-90762000D01*
D13*
X155305000Y-90508000D02*
X155305000Y-91016000D01*
X155051000Y-90762000D02*
X155559000Y-90762000D01*
D14*
X147685000Y-91270000D02*
X147685000Y-91905000D01*
X152130000Y-91270000D02*
X147685000Y-91270000D01*
X154670000Y-91270000D02*
X159115000Y-91270000D01*
X159115000Y-91270000D02*
X159115000Y-91905000D01*
X154035000Y-90635000D02*
X153908000Y-91143000D01*
X154035000Y-90635000D02*
X153527000Y-90762000D01*
X152765000Y-91905000D02*
X154035000Y-90635000D01*
X154670000Y-91270000D02*
G75*
G03X154670000Y-91270000I-1270000J0D01*
G01*
X143875000Y-96350000D02*
X143875000Y-86095000D01*
X162925000Y-86095000D02*
X162925000Y-96350000D01*
X153400000Y-76570000D02*
G75*
G03X143875000Y-86095000I0J-9525000D01*
G01*
X162925000Y-86095000D02*
G75*
G03X153400000Y-76570000I-9525000J0D01*
G01*
X143875000Y-96350000D02*
X162925000Y-96350000D01*
D12*
X153070000Y-74970000D02*
X153070000Y-72350000D01*
X153070000Y-72350000D02*
X146650000Y-72350000D01*
X146650000Y-72350000D02*
X146650000Y-74970000D01*
X146650000Y-74970000D02*
X153070000Y-74970000D01*
X153960000Y-73660000D02*
X153070000Y-73660000D01*
X145760000Y-73660000D02*
X146650000Y-73660000D01*
X163040000Y-53420000D02*
X163040000Y-48120000D01*
X163040000Y-48120000D02*
X172240000Y-48120000D01*
X165740000Y-59320000D02*
X163040000Y-59320000D01*
X163040000Y-59320000D02*
X163040000Y-57420000D01*
X172240000Y-48120000D02*
X172240000Y-59320000D01*
X172240000Y-59320000D02*
X169640000Y-59320000D01*
X176533629Y-111760000D02*
X173820000Y-111760000D01*
X175793333Y-112560000D02*
X175793333Y-110960000D01*
X175793333Y-111760000D02*
X174726667Y-112560000D01*
X174726667Y-112560000D02*
X174726667Y-110960000D01*
X174726667Y-110960000D02*
X175793333Y-111760000D01*
X173986371Y-111760000D02*
G75*
G03X173986371Y-111760000I-1266371J0D01*
G01*
X174590000Y-107910000D02*
X174590000Y-110530000D01*
X174590000Y-110530000D02*
X181010000Y-110530000D01*
X181010000Y-110530000D02*
X181010000Y-107910000D01*
X181010000Y-107910000D02*
X174590000Y-107910000D01*
X173700000Y-109220000D02*
X174590000Y-109220000D01*
X181900000Y-109220000D02*
X181010000Y-109220000D01*
X161290000Y-118050000D02*
X143450000Y-118050000D01*
X143450000Y-118050000D02*
X143450000Y-120710000D01*
X143450000Y-120710000D02*
X161290000Y-120710000D01*
X161290000Y-120710000D02*
X161290000Y-118050000D01*
X162560000Y-118050000D02*
X163890000Y-118050000D01*
X163890000Y-118050000D02*
X163890000Y-119380000D01*
X151257000Y-123835000D02*
X151257000Y-124724000D01*
X151257000Y-124279500D02*
X151849667Y-123835000D01*
X151849667Y-123835000D02*
X151849667Y-124724000D01*
X151849667Y-124724000D02*
X151257000Y-124279500D01*
X151087400Y-123688505D02*
G75*
G02X151117516Y-121455000I-1227400J1133505D01*
G01*
X156337000Y-123835000D02*
X156337000Y-124724000D01*
X156337000Y-124279500D02*
X156929667Y-123835000D01*
X156929667Y-123835000D02*
X156929667Y-124724000D01*
X156929667Y-124724000D02*
X156337000Y-124279500D01*
X156167400Y-123688505D02*
G75*
G02X156197516Y-121455000I-1227400J1133505D01*
G01*
D13*
X149693334Y-106624381D02*
X149360000Y-106148190D01*
X149121905Y-106624381D02*
X149121905Y-105624381D01*
X149502858Y-105624381D01*
X149598096Y-105672000D01*
X149645715Y-105719619D01*
X149693334Y-105814857D01*
X149693334Y-105957714D01*
X149645715Y-106052952D01*
X149598096Y-106100571D01*
X149502858Y-106148190D01*
X149121905Y-106148190D01*
X150550477Y-105624381D02*
X150360000Y-105624381D01*
X150264762Y-105672000D01*
X150217143Y-105719619D01*
X150121905Y-105862476D01*
X150074286Y-106052952D01*
X150074286Y-106433905D01*
X150121905Y-106529143D01*
X150169524Y-106576762D01*
X150264762Y-106624381D01*
X150455239Y-106624381D01*
X150550477Y-106576762D01*
X150598096Y-106529143D01*
X150645715Y-106433905D01*
X150645715Y-106195810D01*
X150598096Y-106100571D01*
X150550477Y-106052952D01*
X150455239Y-106005333D01*
X150264762Y-106005333D01*
X150169524Y-106052952D01*
X150121905Y-106100571D01*
X150074286Y-106195810D01*
X147224762Y-102782619D02*
X147129524Y-102735000D01*
X147034286Y-102639762D01*
X146891429Y-102496905D01*
X146796190Y-102449286D01*
X146700952Y-102449286D01*
X146748571Y-102687381D02*
X146653333Y-102639762D01*
X146558095Y-102544524D01*
X146510476Y-102354048D01*
X146510476Y-102020714D01*
X146558095Y-101830238D01*
X146653333Y-101735000D01*
X146748571Y-101687381D01*
X146939048Y-101687381D01*
X147034286Y-101735000D01*
X147129524Y-101830238D01*
X147177143Y-102020714D01*
X147177143Y-102354048D01*
X147129524Y-102544524D01*
X147034286Y-102639762D01*
X146939048Y-102687381D01*
X146748571Y-102687381D01*
X148129524Y-102687381D02*
X147558095Y-102687381D01*
X147843809Y-102687381D02*
X147843809Y-101687381D01*
X147748571Y-101830238D01*
X147653333Y-101925476D01*
X147558095Y-101973095D01*
X182237143Y-79827381D02*
X181903809Y-79351190D01*
X181665714Y-79827381D02*
X181665714Y-78827381D01*
X182046667Y-78827381D01*
X182141905Y-78875000D01*
X182189524Y-78922619D01*
X182237143Y-79017857D01*
X182237143Y-79160714D01*
X182189524Y-79255952D01*
X182141905Y-79303571D01*
X182046667Y-79351190D01*
X181665714Y-79351190D01*
X182618095Y-78922619D02*
X182665714Y-78875000D01*
X182760952Y-78827381D01*
X182999048Y-78827381D01*
X183094286Y-78875000D01*
X183141905Y-78922619D01*
X183189524Y-79017857D01*
X183189524Y-79113095D01*
X183141905Y-79255952D01*
X182570476Y-79827381D01*
X183189524Y-79827381D01*
X183570476Y-78922619D02*
X183618095Y-78875000D01*
X183713333Y-78827381D01*
X183951429Y-78827381D01*
X184046667Y-78875000D01*
X184094286Y-78922619D01*
X184141905Y-79017857D01*
X184141905Y-79113095D01*
X184094286Y-79255952D01*
X183522857Y-79827381D01*
X184141905Y-79827381D01*
X142152619Y-109315238D02*
X142105000Y-109410476D01*
X142009762Y-109505714D01*
X141866905Y-109648571D01*
X141819286Y-109743810D01*
X141819286Y-109839048D01*
X142057381Y-109791429D02*
X142009762Y-109886667D01*
X141914524Y-109981905D01*
X141724048Y-110029524D01*
X141390714Y-110029524D01*
X141200238Y-109981905D01*
X141105000Y-109886667D01*
X141057381Y-109791429D01*
X141057381Y-109600952D01*
X141105000Y-109505714D01*
X141200238Y-109410476D01*
X141390714Y-109362857D01*
X141724048Y-109362857D01*
X141914524Y-109410476D01*
X142009762Y-109505714D01*
X142057381Y-109600952D01*
X142057381Y-109791429D01*
X141152619Y-108981905D02*
X141105000Y-108934286D01*
X141057381Y-108839048D01*
X141057381Y-108600952D01*
X141105000Y-108505714D01*
X141152619Y-108458095D01*
X141247857Y-108410476D01*
X141343095Y-108410476D01*
X141485952Y-108458095D01*
X142057381Y-109029524D01*
X142057381Y-108410476D01*
X134453334Y-83923143D02*
X134405715Y-83970762D01*
X134262858Y-84018381D01*
X134167620Y-84018381D01*
X134024762Y-83970762D01*
X133929524Y-83875524D01*
X133881905Y-83780286D01*
X133834286Y-83589810D01*
X133834286Y-83446952D01*
X133881905Y-83256476D01*
X133929524Y-83161238D01*
X134024762Y-83066000D01*
X134167620Y-83018381D01*
X134262858Y-83018381D01*
X134405715Y-83066000D01*
X134453334Y-83113619D01*
X135358096Y-83018381D02*
X134881905Y-83018381D01*
X134834286Y-83494571D01*
X134881905Y-83446952D01*
X134977143Y-83399333D01*
X135215239Y-83399333D01*
X135310477Y-83446952D01*
X135358096Y-83494571D01*
X135405715Y-83589810D01*
X135405715Y-83827905D01*
X135358096Y-83923143D01*
X135310477Y-83970762D01*
X135215239Y-84018381D01*
X134977143Y-84018381D01*
X134881905Y-83970762D01*
X134834286Y-83923143D01*
X139533334Y-83923143D02*
X139485715Y-83970762D01*
X139342858Y-84018381D01*
X139247620Y-84018381D01*
X139104762Y-83970762D01*
X139009524Y-83875524D01*
X138961905Y-83780286D01*
X138914286Y-83589810D01*
X138914286Y-83446952D01*
X138961905Y-83256476D01*
X139009524Y-83161238D01*
X139104762Y-83066000D01*
X139247620Y-83018381D01*
X139342858Y-83018381D01*
X139485715Y-83066000D01*
X139533334Y-83113619D01*
X140390477Y-83018381D02*
X140200000Y-83018381D01*
X140104762Y-83066000D01*
X140057143Y-83113619D01*
X139961905Y-83256476D01*
X139914286Y-83446952D01*
X139914286Y-83827905D01*
X139961905Y-83923143D01*
X140009524Y-83970762D01*
X140104762Y-84018381D01*
X140295239Y-84018381D01*
X140390477Y-83970762D01*
X140438096Y-83923143D01*
X140485715Y-83827905D01*
X140485715Y-83589810D01*
X140438096Y-83494571D01*
X140390477Y-83446952D01*
X140295239Y-83399333D01*
X140104762Y-83399333D01*
X140009524Y-83446952D01*
X139961905Y-83494571D01*
X139914286Y-83589810D01*
X134469143Y-71286666D02*
X134516762Y-71334285D01*
X134564381Y-71477142D01*
X134564381Y-71572380D01*
X134516762Y-71715238D01*
X134421524Y-71810476D01*
X134326286Y-71858095D01*
X134135810Y-71905714D01*
X133992952Y-71905714D01*
X133802476Y-71858095D01*
X133707238Y-71810476D01*
X133612000Y-71715238D01*
X133564381Y-71572380D01*
X133564381Y-71477142D01*
X133612000Y-71334285D01*
X133659619Y-71286666D01*
X133992952Y-70715238D02*
X133945333Y-70810476D01*
X133897714Y-70858095D01*
X133802476Y-70905714D01*
X133754857Y-70905714D01*
X133659619Y-70858095D01*
X133612000Y-70810476D01*
X133564381Y-70715238D01*
X133564381Y-70524761D01*
X133612000Y-70429523D01*
X133659619Y-70381904D01*
X133754857Y-70334285D01*
X133802476Y-70334285D01*
X133897714Y-70381904D01*
X133945333Y-70429523D01*
X133992952Y-70524761D01*
X133992952Y-70715238D01*
X134040571Y-70810476D01*
X134088190Y-70858095D01*
X134183429Y-70905714D01*
X134373905Y-70905714D01*
X134469143Y-70858095D01*
X134516762Y-70810476D01*
X134564381Y-70715238D01*
X134564381Y-70524761D01*
X134516762Y-70429523D01*
X134469143Y-70381904D01*
X134373905Y-70334285D01*
X134183429Y-70334285D01*
X134088190Y-70381904D01*
X134040571Y-70429523D01*
X133992952Y-70524761D01*
X149693334Y-63476143D02*
X149645715Y-63523762D01*
X149502858Y-63571381D01*
X149407620Y-63571381D01*
X149264762Y-63523762D01*
X149169524Y-63428524D01*
X149121905Y-63333286D01*
X149074286Y-63142810D01*
X149074286Y-62999952D01*
X149121905Y-62809476D01*
X149169524Y-62714238D01*
X149264762Y-62619000D01*
X149407620Y-62571381D01*
X149502858Y-62571381D01*
X149645715Y-62619000D01*
X149693334Y-62666619D01*
X150169524Y-63571381D02*
X150360000Y-63571381D01*
X150455239Y-63523762D01*
X150502858Y-63476143D01*
X150598096Y-63333286D01*
X150645715Y-63142810D01*
X150645715Y-62761857D01*
X150598096Y-62666619D01*
X150550477Y-62619000D01*
X150455239Y-62571381D01*
X150264762Y-62571381D01*
X150169524Y-62619000D01*
X150121905Y-62666619D01*
X150074286Y-62761857D01*
X150074286Y-62999952D01*
X150121905Y-63095190D01*
X150169524Y-63142810D01*
X150264762Y-63190429D01*
X150455239Y-63190429D01*
X150550477Y-63142810D01*
X150598096Y-63095190D01*
X150645715Y-62999952D01*
X142771905Y-65857381D02*
X142771905Y-64857381D01*
X143010000Y-64857381D01*
X143152858Y-64905000D01*
X143248096Y-65000238D01*
X143295715Y-65095476D01*
X143343334Y-65285952D01*
X143343334Y-65428810D01*
X143295715Y-65619286D01*
X143248096Y-65714524D01*
X143152858Y-65809762D01*
X143010000Y-65857381D01*
X142771905Y-65857381D01*
X144200477Y-65190714D02*
X144200477Y-65857381D01*
X143962381Y-64809762D02*
X143724286Y-65524048D01*
X144343334Y-65524048D01*
X173426381Y-62968095D02*
X172426381Y-62968095D01*
X172426381Y-62587142D01*
X172474000Y-62491904D01*
X172521619Y-62444285D01*
X172616857Y-62396666D01*
X172759714Y-62396666D01*
X172854952Y-62444285D01*
X172902571Y-62491904D01*
X172950190Y-62587142D01*
X172950190Y-62968095D01*
X172759714Y-61539523D02*
X173426381Y-61539523D01*
X172378762Y-61777619D02*
X173093048Y-62015714D01*
X173093048Y-61396666D01*
X140914381Y-117641666D02*
X140438190Y-117975000D01*
X140914381Y-118213095D02*
X139914381Y-118213095D01*
X139914381Y-117832142D01*
X139962000Y-117736904D01*
X140009619Y-117689285D01*
X140104857Y-117641666D01*
X140247714Y-117641666D01*
X140342952Y-117689285D01*
X140390571Y-117736904D01*
X140438190Y-117832142D01*
X140438190Y-118213095D01*
X139914381Y-117308333D02*
X139914381Y-116641666D01*
X140914381Y-117070238D01*
X167330381Y-117006666D02*
X166854190Y-117340000D01*
X167330381Y-117578095D02*
X166330381Y-117578095D01*
X166330381Y-117197142D01*
X166378000Y-117101904D01*
X166425619Y-117054285D01*
X166520857Y-117006666D01*
X166663714Y-117006666D01*
X166758952Y-117054285D01*
X166806571Y-117101904D01*
X166854190Y-117197142D01*
X166854190Y-117578095D01*
X166758952Y-116435238D02*
X166711333Y-116530476D01*
X166663714Y-116578095D01*
X166568476Y-116625714D01*
X166520857Y-116625714D01*
X166425619Y-116578095D01*
X166378000Y-116530476D01*
X166330381Y-116435238D01*
X166330381Y-116244761D01*
X166378000Y-116149523D01*
X166425619Y-116101904D01*
X166520857Y-116054285D01*
X166568476Y-116054285D01*
X166663714Y-116101904D01*
X166711333Y-116149523D01*
X166758952Y-116244761D01*
X166758952Y-116435238D01*
X166806571Y-116530476D01*
X166854190Y-116578095D01*
X166949429Y-116625714D01*
X167139905Y-116625714D01*
X167235143Y-116578095D01*
X167282762Y-116530476D01*
X167330381Y-116435238D01*
X167330381Y-116244761D01*
X167282762Y-116149523D01*
X167235143Y-116101904D01*
X167139905Y-116054285D01*
X166949429Y-116054285D01*
X166854190Y-116101904D01*
X166806571Y-116149523D01*
X166758952Y-116244761D01*
X140914381Y-114942857D02*
X140438190Y-115276191D01*
X140914381Y-115514286D02*
X139914381Y-115514286D01*
X139914381Y-115133333D01*
X139962000Y-115038095D01*
X140009619Y-114990476D01*
X140104857Y-114942857D01*
X140247714Y-114942857D01*
X140342952Y-114990476D01*
X140390571Y-115038095D01*
X140438190Y-115133333D01*
X140438190Y-115514286D01*
X140914381Y-113990476D02*
X140914381Y-114561905D01*
X140914381Y-114276191D02*
X139914381Y-114276191D01*
X140057238Y-114371429D01*
X140152476Y-114466667D01*
X140200095Y-114561905D01*
X140914381Y-113038095D02*
X140914381Y-113609524D01*
X140914381Y-113323810D02*
X139914381Y-113323810D01*
X140057238Y-113419048D01*
X140152476Y-113514286D01*
X140200095Y-113609524D01*
X167330381Y-114942857D02*
X166854190Y-115276191D01*
X167330381Y-115514286D02*
X166330381Y-115514286D01*
X166330381Y-115133333D01*
X166378000Y-115038095D01*
X166425619Y-114990476D01*
X166520857Y-114942857D01*
X166663714Y-114942857D01*
X166758952Y-114990476D01*
X166806571Y-115038095D01*
X166854190Y-115133333D01*
X166854190Y-115514286D01*
X167330381Y-113990476D02*
X167330381Y-114561905D01*
X167330381Y-114276191D02*
X166330381Y-114276191D01*
X166473238Y-114371429D01*
X166568476Y-114466667D01*
X166616095Y-114561905D01*
X166425619Y-113609524D02*
X166378000Y-113561905D01*
X166330381Y-113466667D01*
X166330381Y-113228571D01*
X166378000Y-113133333D01*
X166425619Y-113085714D01*
X166520857Y-113038095D01*
X166616095Y-113038095D01*
X166758952Y-113085714D01*
X167330381Y-113657143D01*
X167330381Y-113038095D01*
X168092381Y-92082857D02*
X167616190Y-92416191D01*
X168092381Y-92654286D02*
X167092381Y-92654286D01*
X167092381Y-92273333D01*
X167140000Y-92178095D01*
X167187619Y-92130476D01*
X167282857Y-92082857D01*
X167425714Y-92082857D01*
X167520952Y-92130476D01*
X167568571Y-92178095D01*
X167616190Y-92273333D01*
X167616190Y-92654286D01*
X168092381Y-91130476D02*
X168092381Y-91701905D01*
X168092381Y-91416191D02*
X167092381Y-91416191D01*
X167235238Y-91511429D01*
X167330476Y-91606667D01*
X167378095Y-91701905D01*
X167092381Y-90797143D02*
X167092381Y-90130476D01*
X168092381Y-90559048D01*
X175331381Y-100083857D02*
X174855190Y-100417191D01*
X175331381Y-100655286D02*
X174331381Y-100655286D01*
X174331381Y-100274333D01*
X174379000Y-100179095D01*
X174426619Y-100131476D01*
X174521857Y-100083857D01*
X174664714Y-100083857D01*
X174759952Y-100131476D01*
X174807571Y-100179095D01*
X174855190Y-100274333D01*
X174855190Y-100655286D01*
X174426619Y-99702905D02*
X174379000Y-99655286D01*
X174331381Y-99560048D01*
X174331381Y-99321952D01*
X174379000Y-99226714D01*
X174426619Y-99179095D01*
X174521857Y-99131476D01*
X174617095Y-99131476D01*
X174759952Y-99179095D01*
X175331381Y-99750524D01*
X175331381Y-99131476D01*
X175331381Y-98179095D02*
X175331381Y-98750524D01*
X175331381Y-98464810D02*
X174331381Y-98464810D01*
X174474238Y-98560048D01*
X174569476Y-98655286D01*
X174617095Y-98750524D01*
X173426381Y-75668095D02*
X172426381Y-75668095D01*
X172426381Y-75287142D01*
X172474000Y-75191904D01*
X172521619Y-75144285D01*
X172616857Y-75096666D01*
X172759714Y-75096666D01*
X172854952Y-75144285D01*
X172902571Y-75191904D01*
X172950190Y-75287142D01*
X172950190Y-75668095D01*
X172426381Y-74191904D02*
X172426381Y-74668095D01*
X172902571Y-74715714D01*
X172854952Y-74668095D01*
X172807333Y-74572857D01*
X172807333Y-74334761D01*
X172854952Y-74239523D01*
X172902571Y-74191904D01*
X172997810Y-74144285D01*
X173235905Y-74144285D01*
X173331143Y-74191904D01*
X173378762Y-74239523D01*
X173426381Y-74334761D01*
X173426381Y-74572857D01*
X173378762Y-74668095D01*
X173331143Y-74715714D01*
X156718095Y-60412381D02*
X156718095Y-61221905D01*
X156765714Y-61317143D01*
X156813333Y-61364762D01*
X156908571Y-61412381D01*
X157099048Y-61412381D01*
X157194286Y-61364762D01*
X157241905Y-61317143D01*
X157289524Y-61221905D01*
X157289524Y-60412381D01*
X157670476Y-60412381D02*
X158289524Y-60412381D01*
X157956190Y-60793333D01*
X158099048Y-60793333D01*
X158194286Y-60840952D01*
X158241905Y-60888571D01*
X158289524Y-60983810D01*
X158289524Y-61221905D01*
X158241905Y-61317143D01*
X158194286Y-61364762D01*
X158099048Y-61412381D01*
X157813333Y-61412381D01*
X157718095Y-61364762D01*
X157670476Y-61317143D01*
X163107619Y-80740238D02*
X163060000Y-80835476D01*
X162964762Y-80930714D01*
X162821905Y-81073571D01*
X162774286Y-81168810D01*
X162774286Y-81264048D01*
X163012381Y-81216429D02*
X162964762Y-81311667D01*
X162869524Y-81406905D01*
X162679048Y-81454524D01*
X162345714Y-81454524D01*
X162155238Y-81406905D01*
X162060000Y-81311667D01*
X162012381Y-81216429D01*
X162012381Y-81025952D01*
X162060000Y-80930714D01*
X162155238Y-80835476D01*
X162345714Y-80787857D01*
X162679048Y-80787857D01*
X162869524Y-80835476D01*
X162964762Y-80930714D01*
X163012381Y-81025952D01*
X163012381Y-81216429D01*
X162012381Y-80454524D02*
X162012381Y-79835476D01*
X162393333Y-80168810D01*
X162393333Y-80025952D01*
X162440952Y-79930714D01*
X162488571Y-79883095D01*
X162583810Y-79835476D01*
X162821905Y-79835476D01*
X162917143Y-79883095D01*
X162964762Y-79930714D01*
X163012381Y-80025952D01*
X163012381Y-80311667D01*
X162964762Y-80406905D01*
X162917143Y-80454524D01*
X131913334Y-105132143D02*
X131865715Y-105179762D01*
X131722858Y-105227381D01*
X131627620Y-105227381D01*
X131484762Y-105179762D01*
X131389524Y-105084524D01*
X131341905Y-104989286D01*
X131294286Y-104798810D01*
X131294286Y-104655952D01*
X131341905Y-104465476D01*
X131389524Y-104370238D01*
X131484762Y-104275000D01*
X131627620Y-104227381D01*
X131722858Y-104227381D01*
X131865715Y-104275000D01*
X131913334Y-104322619D01*
X132865715Y-105227381D02*
X132294286Y-105227381D01*
X132580000Y-105227381D02*
X132580000Y-104227381D01*
X132484762Y-104370238D01*
X132389524Y-104465476D01*
X132294286Y-104513095D01*
X164933334Y-74652143D02*
X164885715Y-74699762D01*
X164742858Y-74747381D01*
X164647620Y-74747381D01*
X164504762Y-74699762D01*
X164409524Y-74604524D01*
X164361905Y-74509286D01*
X164314286Y-74318810D01*
X164314286Y-74175952D01*
X164361905Y-73985476D01*
X164409524Y-73890238D01*
X164504762Y-73795000D01*
X164647620Y-73747381D01*
X164742858Y-73747381D01*
X164885715Y-73795000D01*
X164933334Y-73842619D01*
X165314286Y-73842619D02*
X165361905Y-73795000D01*
X165457143Y-73747381D01*
X165695239Y-73747381D01*
X165790477Y-73795000D01*
X165838096Y-73842619D01*
X165885715Y-73937857D01*
X165885715Y-74033095D01*
X165838096Y-74175952D01*
X165266667Y-74747381D01*
X165885715Y-74747381D01*
X167473334Y-97512143D02*
X167425715Y-97559762D01*
X167282858Y-97607381D01*
X167187620Y-97607381D01*
X167044762Y-97559762D01*
X166949524Y-97464524D01*
X166901905Y-97369286D01*
X166854286Y-97178810D01*
X166854286Y-97035952D01*
X166901905Y-96845476D01*
X166949524Y-96750238D01*
X167044762Y-96655000D01*
X167187620Y-96607381D01*
X167282858Y-96607381D01*
X167425715Y-96655000D01*
X167473334Y-96702619D01*
X167806667Y-96607381D02*
X168425715Y-96607381D01*
X168092381Y-96988333D01*
X168235239Y-96988333D01*
X168330477Y-97035952D01*
X168378096Y-97083571D01*
X168425715Y-97178810D01*
X168425715Y-97416905D01*
X168378096Y-97512143D01*
X168330477Y-97559762D01*
X168235239Y-97607381D01*
X167949524Y-97607381D01*
X167854286Y-97559762D01*
X167806667Y-97512143D01*
X182602143Y-106846666D02*
X182649762Y-106894285D01*
X182697381Y-107037142D01*
X182697381Y-107132380D01*
X182649762Y-107275238D01*
X182554524Y-107370476D01*
X182459286Y-107418095D01*
X182268810Y-107465714D01*
X182125952Y-107465714D01*
X181935476Y-107418095D01*
X181840238Y-107370476D01*
X181745000Y-107275238D01*
X181697381Y-107132380D01*
X181697381Y-107037142D01*
X181745000Y-106894285D01*
X181792619Y-106846666D01*
X182030714Y-105989523D02*
X182697381Y-105989523D01*
X181649762Y-106227619D02*
X182364048Y-106465714D01*
X182364048Y-105846666D01*
X139533334Y-77192143D02*
X139485715Y-77239762D01*
X139342858Y-77287381D01*
X139247620Y-77287381D01*
X139104762Y-77239762D01*
X139009524Y-77144524D01*
X138961905Y-77049286D01*
X138914286Y-76858810D01*
X138914286Y-76715952D01*
X138961905Y-76525476D01*
X139009524Y-76430238D01*
X139104762Y-76335000D01*
X139247620Y-76287381D01*
X139342858Y-76287381D01*
X139485715Y-76335000D01*
X139533334Y-76382619D01*
X139866667Y-76287381D02*
X140533334Y-76287381D01*
X140104762Y-77287381D01*
X141478095Y-94067381D02*
X141478095Y-94876905D01*
X141525714Y-94972143D01*
X141573333Y-95019762D01*
X141668571Y-95067381D01*
X141859048Y-95067381D01*
X141954286Y-95019762D01*
X142001905Y-94972143D01*
X142049524Y-94876905D01*
X142049524Y-94067381D01*
X143049524Y-95067381D02*
X142478095Y-95067381D01*
X142763809Y-95067381D02*
X142763809Y-94067381D01*
X142668571Y-94210238D01*
X142573333Y-94305476D01*
X142478095Y-94353095D01*
X169632381Y-112521905D02*
X170441905Y-112521905D01*
X170537143Y-112474286D01*
X170584762Y-112426667D01*
X170632381Y-112331429D01*
X170632381Y-112140952D01*
X170584762Y-112045714D01*
X170537143Y-111998095D01*
X170441905Y-111950476D01*
X169632381Y-111950476D01*
X169727619Y-111521905D02*
X169680000Y-111474286D01*
X169632381Y-111379048D01*
X169632381Y-111140952D01*
X169680000Y-111045714D01*
X169727619Y-110998095D01*
X169822857Y-110950476D01*
X169918095Y-110950476D01*
X170060952Y-110998095D01*
X170632381Y-111569524D01*
X170632381Y-110950476D01*
X130532143Y-99702857D02*
X130579762Y-99750476D01*
X130627381Y-99893333D01*
X130627381Y-99988571D01*
X130579762Y-100131429D01*
X130484524Y-100226667D01*
X130389286Y-100274286D01*
X130198810Y-100321905D01*
X130055952Y-100321905D01*
X129865476Y-100274286D01*
X129770238Y-100226667D01*
X129675000Y-100131429D01*
X129627381Y-99988571D01*
X129627381Y-99893333D01*
X129675000Y-99750476D01*
X129722619Y-99702857D01*
X130627381Y-98750476D02*
X130627381Y-99321905D01*
X130627381Y-99036191D02*
X129627381Y-99036191D01*
X129770238Y-99131429D01*
X129865476Y-99226667D01*
X129913095Y-99321905D01*
X129627381Y-98131429D02*
X129627381Y-98036190D01*
X129675000Y-97940952D01*
X129722619Y-97893333D01*
X129817857Y-97845714D01*
X130008333Y-97798095D01*
X130246429Y-97798095D01*
X130436905Y-97845714D01*
X130532143Y-97893333D01*
X130579762Y-97940952D01*
X130627381Y-98036190D01*
X130627381Y-98131429D01*
X130579762Y-98226667D01*
X130532143Y-98274286D01*
X130436905Y-98321905D01*
X130246429Y-98369524D01*
X130008333Y-98369524D01*
X129817857Y-98321905D01*
X129722619Y-98274286D01*
X129675000Y-98226667D01*
X129627381Y-98131429D01*
X168267143Y-114022143D02*
X168219524Y-114069762D01*
X168076667Y-114117381D01*
X167981429Y-114117381D01*
X167838571Y-114069762D01*
X167743333Y-113974524D01*
X167695714Y-113879286D01*
X167648095Y-113688810D01*
X167648095Y-113545952D01*
X167695714Y-113355476D01*
X167743333Y-113260238D01*
X167838571Y-113165000D01*
X167981429Y-113117381D01*
X168076667Y-113117381D01*
X168219524Y-113165000D01*
X168267143Y-113212619D01*
X169219524Y-114117381D02*
X168648095Y-114117381D01*
X168933809Y-114117381D02*
X168933809Y-113117381D01*
X168838571Y-113260238D01*
X168743333Y-113355476D01*
X168648095Y-113403095D01*
X170171905Y-114117381D02*
X169600476Y-114117381D01*
X169886190Y-114117381D02*
X169886190Y-113117381D01*
X169790952Y-113260238D01*
X169695714Y-113355476D01*
X169600476Y-113403095D01*
X125626905Y-119832381D02*
X125626905Y-118832381D01*
X126007858Y-118832381D01*
X126103096Y-118880000D01*
X126150715Y-118927619D01*
X126198334Y-119022857D01*
X126198334Y-119165714D01*
X126150715Y-119260952D01*
X126103096Y-119308571D01*
X126007858Y-119356190D01*
X125626905Y-119356190D01*
X127150715Y-119832381D02*
X126579286Y-119832381D01*
X126865000Y-119832381D02*
X126865000Y-118832381D01*
X126769762Y-118975238D01*
X126674524Y-119070476D01*
X126579286Y-119118095D01*
X180236905Y-119832381D02*
X180236905Y-118832381D01*
X180617858Y-118832381D01*
X180713096Y-118880000D01*
X180760715Y-118927619D01*
X180808334Y-119022857D01*
X180808334Y-119165714D01*
X180760715Y-119260952D01*
X180713096Y-119308571D01*
X180617858Y-119356190D01*
X180236905Y-119356190D01*
X181141667Y-118832381D02*
X181760715Y-118832381D01*
X181427381Y-119213333D01*
X181570239Y-119213333D01*
X181665477Y-119260952D01*
X181713096Y-119308571D01*
X181760715Y-119403810D01*
X181760715Y-119641905D01*
X181713096Y-119737143D01*
X181665477Y-119784762D01*
X181570239Y-119832381D01*
X181284524Y-119832381D01*
X181189286Y-119784762D01*
X181141667Y-119737143D01*
X129309762Y-51498333D02*
X129357381Y-51355476D01*
X129357381Y-51117380D01*
X129309762Y-51022142D01*
X129262143Y-50974523D01*
X129166905Y-50926904D01*
X129071667Y-50926904D01*
X128976429Y-50974523D01*
X128928810Y-51022142D01*
X128881190Y-51117380D01*
X128833571Y-51307857D01*
X128785952Y-51403095D01*
X128738333Y-51450714D01*
X128643095Y-51498333D01*
X128547857Y-51498333D01*
X128452619Y-51450714D01*
X128405000Y-51403095D01*
X128357381Y-51307857D01*
X128357381Y-51069761D01*
X128405000Y-50926904D01*
X128357381Y-50593571D02*
X129357381Y-50355476D01*
X128643095Y-50164999D01*
X129357381Y-49974523D01*
X128357381Y-49736428D01*
X129357381Y-48831666D02*
X129357381Y-49403095D01*
X129357381Y-49117381D02*
X128357381Y-49117381D01*
X128500238Y-49212619D01*
X128595476Y-49307857D01*
X128643095Y-49403095D01*
X127960381Y-109386666D02*
X127484190Y-109720000D01*
X127960381Y-109958095D02*
X126960381Y-109958095D01*
X126960381Y-109577142D01*
X127008000Y-109481904D01*
X127055619Y-109434285D01*
X127150857Y-109386666D01*
X127293714Y-109386666D01*
X127388952Y-109434285D01*
X127436571Y-109481904D01*
X127484190Y-109577142D01*
X127484190Y-109958095D01*
X127960381Y-108434285D02*
X127960381Y-109005714D01*
X127960381Y-108720000D02*
X126960381Y-108720000D01*
X127103238Y-108815238D01*
X127198476Y-108910476D01*
X127246095Y-109005714D01*
X135580381Y-109386666D02*
X135104190Y-109720000D01*
X135580381Y-109958095D02*
X134580381Y-109958095D01*
X134580381Y-109577142D01*
X134628000Y-109481904D01*
X134675619Y-109434285D01*
X134770857Y-109386666D01*
X134913714Y-109386666D01*
X135008952Y-109434285D01*
X135056571Y-109481904D01*
X135104190Y-109577142D01*
X135104190Y-109958095D01*
X134675619Y-109005714D02*
X134628000Y-108958095D01*
X134580381Y-108862857D01*
X134580381Y-108624761D01*
X134628000Y-108529523D01*
X134675619Y-108481904D01*
X134770857Y-108434285D01*
X134866095Y-108434285D01*
X135008952Y-108481904D01*
X135580381Y-109053333D01*
X135580381Y-108434285D01*
X141803381Y-106846666D02*
X141327190Y-107180000D01*
X141803381Y-107418095D02*
X140803381Y-107418095D01*
X140803381Y-107037142D01*
X140851000Y-106941904D01*
X140898619Y-106894285D01*
X140993857Y-106846666D01*
X141136714Y-106846666D01*
X141231952Y-106894285D01*
X141279571Y-106941904D01*
X141327190Y-107037142D01*
X141327190Y-107418095D01*
X140803381Y-106513333D02*
X140803381Y-105894285D01*
X141184333Y-106227619D01*
X141184333Y-106084761D01*
X141231952Y-105989523D01*
X141279571Y-105941904D01*
X141374810Y-105894285D01*
X141612905Y-105894285D01*
X141708143Y-105941904D01*
X141755762Y-105989523D01*
X141803381Y-106084761D01*
X141803381Y-106370476D01*
X141755762Y-106465714D01*
X141708143Y-106513333D01*
X144613334Y-102687381D02*
X144280000Y-102211190D01*
X144041905Y-102687381D02*
X144041905Y-101687381D01*
X144422858Y-101687381D01*
X144518096Y-101735000D01*
X144565715Y-101782619D01*
X144613334Y-101877857D01*
X144613334Y-102020714D01*
X144565715Y-102115952D01*
X144518096Y-102163571D01*
X144422858Y-102211190D01*
X144041905Y-102211190D01*
X145470477Y-102020714D02*
X145470477Y-102687381D01*
X145232381Y-101639762D02*
X144994286Y-102354048D01*
X145613334Y-102354048D01*
X147788334Y-111577381D02*
X147455000Y-111101190D01*
X147216905Y-111577381D02*
X147216905Y-110577381D01*
X147597858Y-110577381D01*
X147693096Y-110625000D01*
X147740715Y-110672619D01*
X147788334Y-110767857D01*
X147788334Y-110910714D01*
X147740715Y-111005952D01*
X147693096Y-111053571D01*
X147597858Y-111101190D01*
X147216905Y-111101190D01*
X148693096Y-110577381D02*
X148216905Y-110577381D01*
X148169286Y-111053571D01*
X148216905Y-111005952D01*
X148312143Y-110958333D01*
X148550239Y-110958333D01*
X148645477Y-111005952D01*
X148693096Y-111053571D01*
X148740715Y-111148810D01*
X148740715Y-111386905D01*
X148693096Y-111482143D01*
X148645477Y-111529762D01*
X148550239Y-111577381D01*
X148312143Y-111577381D01*
X148216905Y-111529762D01*
X148169286Y-111482143D01*
X152852381Y-103512857D02*
X152376190Y-103846191D01*
X152852381Y-104084286D02*
X151852381Y-104084286D01*
X151852381Y-103703333D01*
X151900000Y-103608095D01*
X151947619Y-103560476D01*
X152042857Y-103512857D01*
X152185714Y-103512857D01*
X152280952Y-103560476D01*
X152328571Y-103608095D01*
X152376190Y-103703333D01*
X152376190Y-104084286D01*
X152852381Y-102560476D02*
X152852381Y-103131905D01*
X152852381Y-102846191D02*
X151852381Y-102846191D01*
X151995238Y-102941429D01*
X152090476Y-103036667D01*
X152138095Y-103131905D01*
X151852381Y-102227143D02*
X151852381Y-101608095D01*
X152233333Y-101941429D01*
X152233333Y-101798571D01*
X152280952Y-101703333D01*
X152328571Y-101655714D01*
X152423810Y-101608095D01*
X152661905Y-101608095D01*
X152757143Y-101655714D01*
X152804762Y-101703333D01*
X152852381Y-101798571D01*
X152852381Y-102084286D01*
X152804762Y-102179524D01*
X152757143Y-102227143D01*
X152852381Y-107322857D02*
X152376190Y-107656191D01*
X152852381Y-107894286D02*
X151852381Y-107894286D01*
X151852381Y-107513333D01*
X151900000Y-107418095D01*
X151947619Y-107370476D01*
X152042857Y-107322857D01*
X152185714Y-107322857D01*
X152280952Y-107370476D01*
X152328571Y-107418095D01*
X152376190Y-107513333D01*
X152376190Y-107894286D01*
X152852381Y-106370476D02*
X152852381Y-106941905D01*
X152852381Y-106656191D02*
X151852381Y-106656191D01*
X151995238Y-106751429D01*
X152090476Y-106846667D01*
X152138095Y-106941905D01*
X152185714Y-105513333D02*
X152852381Y-105513333D01*
X151804762Y-105751429D02*
X152519048Y-105989524D01*
X152519048Y-105370476D01*
X161917143Y-97607381D02*
X161583809Y-97131190D01*
X161345714Y-97607381D02*
X161345714Y-96607381D01*
X161726667Y-96607381D01*
X161821905Y-96655000D01*
X161869524Y-96702619D01*
X161917143Y-96797857D01*
X161917143Y-96940714D01*
X161869524Y-97035952D01*
X161821905Y-97083571D01*
X161726667Y-97131190D01*
X161345714Y-97131190D01*
X162869524Y-97607381D02*
X162298095Y-97607381D01*
X162583809Y-97607381D02*
X162583809Y-96607381D01*
X162488571Y-96750238D01*
X162393333Y-96845476D01*
X162298095Y-96893095D01*
X163726667Y-96607381D02*
X163536190Y-96607381D01*
X163440952Y-96655000D01*
X163393333Y-96702619D01*
X163298095Y-96845476D01*
X163250476Y-97035952D01*
X163250476Y-97416905D01*
X163298095Y-97512143D01*
X163345714Y-97559762D01*
X163440952Y-97607381D01*
X163631429Y-97607381D01*
X163726667Y-97559762D01*
X163774286Y-97512143D01*
X163821905Y-97416905D01*
X163821905Y-97178810D01*
X163774286Y-97083571D01*
X163726667Y-97035952D01*
X163631429Y-96988333D01*
X163440952Y-96988333D01*
X163345714Y-97035952D01*
X163298095Y-97083571D01*
X163250476Y-97178810D01*
X127531905Y-85542381D02*
X127531905Y-84542381D01*
X127770000Y-84542381D01*
X127912858Y-84590000D01*
X128008096Y-84685238D01*
X128055715Y-84780476D01*
X128103334Y-84970952D01*
X128103334Y-85113810D01*
X128055715Y-85304286D01*
X128008096Y-85399524D01*
X127912858Y-85494762D01*
X127770000Y-85542381D01*
X127531905Y-85542381D01*
X128436667Y-84542381D02*
X129055715Y-84542381D01*
X128722381Y-84923333D01*
X128865239Y-84923333D01*
X128960477Y-84970952D01*
X129008096Y-85018571D01*
X129055715Y-85113810D01*
X129055715Y-85351905D01*
X129008096Y-85447143D01*
X128960477Y-85494762D01*
X128865239Y-85542381D01*
X128579524Y-85542381D01*
X128484286Y-85494762D01*
X128436667Y-85447143D01*
X127531905Y-77922381D02*
X127531905Y-76922381D01*
X127770000Y-76922381D01*
X127912858Y-76970000D01*
X128008096Y-77065238D01*
X128055715Y-77160476D01*
X128103334Y-77350952D01*
X128103334Y-77493810D01*
X128055715Y-77684286D01*
X128008096Y-77779524D01*
X127912858Y-77874762D01*
X127770000Y-77922381D01*
X127531905Y-77922381D01*
X128960477Y-76922381D02*
X128770000Y-76922381D01*
X128674762Y-76970000D01*
X128627143Y-77017619D01*
X128531905Y-77160476D01*
X128484286Y-77350952D01*
X128484286Y-77731905D01*
X128531905Y-77827143D01*
X128579524Y-77874762D01*
X128674762Y-77922381D01*
X128865239Y-77922381D01*
X128960477Y-77874762D01*
X129008096Y-77827143D01*
X129055715Y-77731905D01*
X129055715Y-77493810D01*
X129008096Y-77398571D01*
X128960477Y-77350952D01*
X128865239Y-77303333D01*
X128674762Y-77303333D01*
X128579524Y-77350952D01*
X128531905Y-77398571D01*
X128484286Y-77493810D01*
X130643334Y-92527381D02*
X130310000Y-92051190D01*
X130071905Y-92527381D02*
X130071905Y-91527381D01*
X130452858Y-91527381D01*
X130548096Y-91575000D01*
X130595715Y-91622619D01*
X130643334Y-91717857D01*
X130643334Y-91860714D01*
X130595715Y-91955952D01*
X130548096Y-92003571D01*
X130452858Y-92051190D01*
X130071905Y-92051190D01*
X131119524Y-92527381D02*
X131310000Y-92527381D01*
X131405239Y-92479762D01*
X131452858Y-92432143D01*
X131548096Y-92289286D01*
X131595715Y-92098810D01*
X131595715Y-91717857D01*
X131548096Y-91622619D01*
X131500477Y-91575000D01*
X131405239Y-91527381D01*
X131214762Y-91527381D01*
X131119524Y-91575000D01*
X131071905Y-91622619D01*
X131024286Y-91717857D01*
X131024286Y-91955952D01*
X131071905Y-92051190D01*
X131119524Y-92098810D01*
X131214762Y-92146429D01*
X131405239Y-92146429D01*
X131500477Y-92098810D01*
X131548096Y-92051190D01*
X131595715Y-91955952D01*
X139517381Y-93352857D02*
X139041190Y-93686191D01*
X139517381Y-93924286D02*
X138517381Y-93924286D01*
X138517381Y-93543333D01*
X138565000Y-93448095D01*
X138612619Y-93400476D01*
X138707857Y-93352857D01*
X138850714Y-93352857D01*
X138945952Y-93400476D01*
X138993571Y-93448095D01*
X139041190Y-93543333D01*
X139041190Y-93924286D01*
X139517381Y-92400476D02*
X139517381Y-92971905D01*
X139517381Y-92686191D02*
X138517381Y-92686191D01*
X138660238Y-92781429D01*
X138755476Y-92876667D01*
X138803095Y-92971905D01*
X138517381Y-91781429D02*
X138517381Y-91686190D01*
X138565000Y-91590952D01*
X138612619Y-91543333D01*
X138707857Y-91495714D01*
X138898333Y-91448095D01*
X139136429Y-91448095D01*
X139326905Y-91495714D01*
X139422143Y-91543333D01*
X139469762Y-91590952D01*
X139517381Y-91686190D01*
X139517381Y-91781429D01*
X139469762Y-91876667D01*
X139422143Y-91924286D01*
X139326905Y-91971905D01*
X139136429Y-92019524D01*
X138898333Y-92019524D01*
X138707857Y-91971905D01*
X138612619Y-91924286D01*
X138565000Y-91876667D01*
X138517381Y-91781429D01*
X175125143Y-102814381D02*
X174791809Y-102338190D01*
X174553714Y-102814381D02*
X174553714Y-101814381D01*
X174934667Y-101814381D01*
X175029905Y-101862000D01*
X175077524Y-101909619D01*
X175125143Y-102004857D01*
X175125143Y-102147714D01*
X175077524Y-102242952D01*
X175029905Y-102290571D01*
X174934667Y-102338190D01*
X174553714Y-102338190D01*
X176077524Y-102814381D02*
X175506095Y-102814381D01*
X175791809Y-102814381D02*
X175791809Y-101814381D01*
X175696571Y-101957238D01*
X175601333Y-102052476D01*
X175506095Y-102100095D01*
X176553714Y-102814381D02*
X176744190Y-102814381D01*
X176839429Y-102766762D01*
X176887048Y-102719143D01*
X176982286Y-102576286D01*
X177029905Y-102385810D01*
X177029905Y-102004857D01*
X176982286Y-101909619D01*
X176934667Y-101862000D01*
X176839429Y-101814381D01*
X176648952Y-101814381D01*
X176553714Y-101862000D01*
X176506095Y-101909619D01*
X176458476Y-102004857D01*
X176458476Y-102242952D01*
X176506095Y-102338190D01*
X176553714Y-102385810D01*
X176648952Y-102433429D01*
X176839429Y-102433429D01*
X176934667Y-102385810D01*
X176982286Y-102338190D01*
X177029905Y-102242952D01*
X133167381Y-81922857D02*
X132691190Y-82256191D01*
X133167381Y-82494286D02*
X132167381Y-82494286D01*
X132167381Y-82113333D01*
X132215000Y-82018095D01*
X132262619Y-81970476D01*
X132357857Y-81922857D01*
X132500714Y-81922857D01*
X132595952Y-81970476D01*
X132643571Y-82018095D01*
X132691190Y-82113333D01*
X132691190Y-82494286D01*
X132262619Y-81541905D02*
X132215000Y-81494286D01*
X132167381Y-81399048D01*
X132167381Y-81160952D01*
X132215000Y-81065714D01*
X132262619Y-81018095D01*
X132357857Y-80970476D01*
X132453095Y-80970476D01*
X132595952Y-81018095D01*
X133167381Y-81589524D01*
X133167381Y-80970476D01*
X132167381Y-80637143D02*
X132167381Y-80018095D01*
X132548333Y-80351429D01*
X132548333Y-80208571D01*
X132595952Y-80113333D01*
X132643571Y-80065714D01*
X132738810Y-80018095D01*
X132976905Y-80018095D01*
X133072143Y-80065714D01*
X133119762Y-80113333D01*
X133167381Y-80208571D01*
X133167381Y-80494286D01*
X133119762Y-80589524D01*
X133072143Y-80637143D01*
X152852381Y-111132857D02*
X152376190Y-111466191D01*
X152852381Y-111704286D02*
X151852381Y-111704286D01*
X151852381Y-111323333D01*
X151900000Y-111228095D01*
X151947619Y-111180476D01*
X152042857Y-111132857D01*
X152185714Y-111132857D01*
X152280952Y-111180476D01*
X152328571Y-111228095D01*
X152376190Y-111323333D01*
X152376190Y-111704286D01*
X152852381Y-110180476D02*
X152852381Y-110751905D01*
X152852381Y-110466191D02*
X151852381Y-110466191D01*
X151995238Y-110561429D01*
X152090476Y-110656667D01*
X152138095Y-110751905D01*
X151852381Y-109275714D02*
X151852381Y-109751905D01*
X152328571Y-109799524D01*
X152280952Y-109751905D01*
X152233333Y-109656667D01*
X152233333Y-109418571D01*
X152280952Y-109323333D01*
X152328571Y-109275714D01*
X152423810Y-109228095D01*
X152661905Y-109228095D01*
X152757143Y-109275714D01*
X152804762Y-109323333D01*
X152852381Y-109418571D01*
X152852381Y-109656667D01*
X152804762Y-109751905D01*
X152757143Y-109799524D01*
X151868333Y-97607381D02*
X151868333Y-96607381D01*
X152249286Y-96607381D01*
X152344524Y-96655000D01*
X152392143Y-96702619D01*
X152439762Y-96797857D01*
X152439762Y-96940714D01*
X152392143Y-97035952D01*
X152344524Y-97083571D01*
X152249286Y-97131190D01*
X151868333Y-97131190D01*
X152820714Y-97321667D02*
X153296905Y-97321667D01*
X152725476Y-97607381D02*
X153058809Y-96607381D01*
X153392143Y-97607381D01*
X154249286Y-97607381D02*
X153677857Y-97607381D01*
X153963571Y-97607381D02*
X153963571Y-96607381D01*
X153868333Y-96750238D01*
X153773095Y-96845476D01*
X153677857Y-96893095D01*
D14*
X150900000Y-86075000D02*
X150900000Y-89575000D01*
X152566667Y-87908333D02*
X152733334Y-88241667D01*
X153066667Y-88408333D01*
X150900000Y-87908333D02*
X151066667Y-88241667D01*
X151400000Y-88408333D01*
X152066667Y-88408333D01*
X152400000Y-88241667D01*
X152566667Y-87908333D01*
X152566667Y-86075000D01*
X154400001Y-87408333D02*
X156066667Y-87408333D01*
X154066667Y-88408333D02*
X155233334Y-84908333D01*
X156400001Y-88408333D01*
D13*
X149217143Y-71953381D02*
X148883809Y-71477190D01*
X148645714Y-71953381D02*
X148645714Y-70953381D01*
X149026667Y-70953381D01*
X149121905Y-71001000D01*
X149169524Y-71048619D01*
X149217143Y-71143857D01*
X149217143Y-71286714D01*
X149169524Y-71381952D01*
X149121905Y-71429571D01*
X149026667Y-71477190D01*
X148645714Y-71477190D01*
X150169524Y-71953381D02*
X149598095Y-71953381D01*
X149883809Y-71953381D02*
X149883809Y-70953381D01*
X149788571Y-71096238D01*
X149693333Y-71191476D01*
X149598095Y-71239095D01*
X150740952Y-71381952D02*
X150645714Y-71334333D01*
X150598095Y-71286714D01*
X150550476Y-71191476D01*
X150550476Y-71143857D01*
X150598095Y-71048619D01*
X150645714Y-71001000D01*
X150740952Y-70953381D01*
X150931429Y-70953381D01*
X151026667Y-71001000D01*
X151074286Y-71048619D01*
X151121905Y-71143857D01*
X151121905Y-71191476D01*
X151074286Y-71286714D01*
X151026667Y-71334333D01*
X150931429Y-71381952D01*
X150740952Y-71381952D01*
X150645714Y-71429571D01*
X150598095Y-71477190D01*
X150550476Y-71572429D01*
X150550476Y-71762905D01*
X150598095Y-71858143D01*
X150645714Y-71905762D01*
X150740952Y-71953381D01*
X150931429Y-71953381D01*
X151026667Y-71905762D01*
X151074286Y-71858143D01*
X151121905Y-71762905D01*
X151121905Y-71572429D01*
X151074286Y-71477190D01*
X151026667Y-71429571D01*
X150931429Y-71381952D01*
X162282143Y-52014285D02*
X162329762Y-52061904D01*
X162377381Y-52204761D01*
X162377381Y-52299999D01*
X162329762Y-52442857D01*
X162234524Y-52538095D01*
X162139286Y-52585714D01*
X161948810Y-52633333D01*
X161805952Y-52633333D01*
X161615476Y-52585714D01*
X161520238Y-52538095D01*
X161425000Y-52442857D01*
X161377381Y-52299999D01*
X161377381Y-52204761D01*
X161425000Y-52061904D01*
X161472619Y-52014285D01*
X161377381Y-51395238D02*
X161377381Y-51204761D01*
X161425000Y-51109523D01*
X161520238Y-51014285D01*
X161710714Y-50966666D01*
X162044048Y-50966666D01*
X162234524Y-51014285D01*
X162329762Y-51109523D01*
X162377381Y-51204761D01*
X162377381Y-51395238D01*
X162329762Y-51490476D01*
X162234524Y-51585714D01*
X162044048Y-51633333D01*
X161710714Y-51633333D01*
X161520238Y-51585714D01*
X161425000Y-51490476D01*
X161377381Y-51395238D01*
X162377381Y-50538095D02*
X161377381Y-50538095D01*
X162377381Y-49966666D01*
X161377381Y-49966666D01*
X162377381Y-48966666D02*
X162377381Y-49538095D01*
X162377381Y-49252381D02*
X161377381Y-49252381D01*
X161520238Y-49347619D01*
X161615476Y-49442857D01*
X161663095Y-49538095D01*
X180157381Y-112498095D02*
X179157381Y-112498095D01*
X179157381Y-112260000D01*
X179205000Y-112117142D01*
X179300238Y-112021904D01*
X179395476Y-111974285D01*
X179585952Y-111926666D01*
X179728810Y-111926666D01*
X179919286Y-111974285D01*
X180014524Y-112021904D01*
X180109762Y-112117142D01*
X180157381Y-112260000D01*
X180157381Y-112498095D01*
X179157381Y-111021904D02*
X179157381Y-111498095D01*
X179633571Y-111545714D01*
X179585952Y-111498095D01*
X179538333Y-111402857D01*
X179538333Y-111164761D01*
X179585952Y-111069523D01*
X179633571Y-111021904D01*
X179728810Y-110974285D01*
X179966905Y-110974285D01*
X180062143Y-111021904D01*
X180109762Y-111069523D01*
X180157381Y-111164761D01*
X180157381Y-111402857D01*
X180109762Y-111498095D01*
X180062143Y-111545714D01*
X185237381Y-109862857D02*
X184761190Y-110196191D01*
X185237381Y-110434286D02*
X184237381Y-110434286D01*
X184237381Y-110053333D01*
X184285000Y-109958095D01*
X184332619Y-109910476D01*
X184427857Y-109862857D01*
X184570714Y-109862857D01*
X184665952Y-109910476D01*
X184713571Y-109958095D01*
X184761190Y-110053333D01*
X184761190Y-110434286D01*
X184332619Y-109481905D02*
X184285000Y-109434286D01*
X184237381Y-109339048D01*
X184237381Y-109100952D01*
X184285000Y-109005714D01*
X184332619Y-108958095D01*
X184427857Y-108910476D01*
X184523095Y-108910476D01*
X184665952Y-108958095D01*
X185237381Y-109529524D01*
X185237381Y-108910476D01*
X184237381Y-108291429D02*
X184237381Y-108196190D01*
X184285000Y-108100952D01*
X184332619Y-108053333D01*
X184427857Y-108005714D01*
X184618333Y-107958095D01*
X184856429Y-107958095D01*
X185046905Y-108005714D01*
X185142143Y-108053333D01*
X185189762Y-108100952D01*
X185237381Y-108196190D01*
X185237381Y-108291429D01*
X185189762Y-108386667D01*
X185142143Y-108434286D01*
X185046905Y-108481905D01*
X184856429Y-108529524D01*
X184618333Y-108529524D01*
X184427857Y-108481905D01*
X184332619Y-108434286D01*
X184285000Y-108386667D01*
X184237381Y-108291429D01*
X165342381Y-120118095D02*
X164342381Y-120118095D01*
X164342381Y-119737142D01*
X164390000Y-119641904D01*
X164437619Y-119594285D01*
X164532857Y-119546666D01*
X164675714Y-119546666D01*
X164770952Y-119594285D01*
X164818571Y-119641904D01*
X164866190Y-119737142D01*
X164866190Y-120118095D01*
X164437619Y-119165714D02*
X164390000Y-119118095D01*
X164342381Y-119022857D01*
X164342381Y-118784761D01*
X164390000Y-118689523D01*
X164437619Y-118641904D01*
X164532857Y-118594285D01*
X164628095Y-118594285D01*
X164770952Y-118641904D01*
X165342381Y-119213333D01*
X165342381Y-118594285D01*
X147772381Y-123293095D02*
X146772381Y-123293095D01*
X146772381Y-123055000D01*
X146820000Y-122912142D01*
X146915238Y-122816904D01*
X147010476Y-122769285D01*
X147200952Y-122721666D01*
X147343810Y-122721666D01*
X147534286Y-122769285D01*
X147629524Y-122816904D01*
X147724762Y-122912142D01*
X147772381Y-123055000D01*
X147772381Y-123293095D01*
X147772381Y-121769285D02*
X147772381Y-122340714D01*
X147772381Y-122055000D02*
X146772381Y-122055000D01*
X146915238Y-122150238D01*
X147010476Y-122245476D01*
X147058095Y-122340714D01*
X160472381Y-123293095D02*
X159472381Y-123293095D01*
X159472381Y-123055000D01*
X159520000Y-122912142D01*
X159615238Y-122816904D01*
X159710476Y-122769285D01*
X159900952Y-122721666D01*
X160043810Y-122721666D01*
X160234286Y-122769285D01*
X160329524Y-122816904D01*
X160424762Y-122912142D01*
X160472381Y-123055000D01*
X160472381Y-123293095D01*
X159567619Y-122340714D02*
X159520000Y-122293095D01*
X159472381Y-122197857D01*
X159472381Y-121959761D01*
X159520000Y-121864523D01*
X159567619Y-121816904D01*
X159662857Y-121769285D01*
X159758095Y-121769285D01*
X159900952Y-121816904D01*
X160472381Y-122388333D01*
X160472381Y-121769285D01*
M02*
