G04 #@! TF.FileFunction,Soldermask,Bot*
%FSLAX46Y46*%
G04 Gerber Fmt 4.6, Leading zero omitted, Abs format (unit mm)*
G04 Created by KiCad (PCBNEW 4.0.7-e2-6376~58~ubuntu16.04.1) date Mon Jan 29 21:47:02 2018*
%MOMM*%
%LPD*%
G01*
G04 APERTURE LIST*
%ADD10C,0.100000*%
%ADD11C,0.500000*%
%ADD12C,0.200000*%
%ADD13C,0.250000*%
%ADD14C,0.010000*%
%ADD15C,2.000000*%
%ADD16O,2.000000X2.000000*%
%ADD17C,1.924000*%
%ADD18C,5.200000*%
%ADD19C,2.200000*%
%ADD20O,4.400000X4.400000*%
%ADD21R,2.000000X2.000000*%
%ADD22R,2.100000X2.100000*%
%ADD23O,2.100000X2.100000*%
%ADD24O,1.900000X2.400000*%
%ADD25R,2.400000X1.900000*%
%ADD26O,2.400000X1.900000*%
%ADD27C,1.920000*%
%ADD28R,1.920000X1.920000*%
%ADD29C,6.200000*%
%ADD30C,1.900000*%
%ADD31C,8.600000*%
%ADD32R,2.000000X3.250000*%
%ADD33R,3.900000X3.900000*%
%ADD34C,3.900000*%
%ADD35R,2.200000X2.200000*%
%ADD36R,5.400000X3.400000*%
%ADD37R,2.600000X2.600000*%
%ADD38O,2.600000X2.600000*%
%ADD39O,1.900000X3.900000*%
G04 APERTURE END LIST*
D10*
D11*
X137668000Y-119380000D02*
X143383000Y-119380000D01*
D12*
X177907143Y-65976428D02*
X177907143Y-64833571D01*
X178478571Y-65405000D02*
X177335714Y-65405000D01*
X177907143Y-59626428D02*
X177907143Y-58483571D01*
D13*
X156776856Y-77636857D02*
X156276856Y-77636857D01*
X156062570Y-78422571D02*
X156776856Y-78422571D01*
X156776856Y-76922571D01*
X156062570Y-76922571D01*
X155491142Y-78351143D02*
X155276856Y-78422571D01*
X154919713Y-78422571D01*
X154776856Y-78351143D01*
X154705427Y-78279714D01*
X154633999Y-78136857D01*
X154633999Y-77994000D01*
X154705427Y-77851143D01*
X154776856Y-77779714D01*
X154919713Y-77708286D01*
X155205427Y-77636857D01*
X155348285Y-77565429D01*
X155419713Y-77494000D01*
X155491142Y-77351143D01*
X155491142Y-77208286D01*
X155419713Y-77065429D01*
X155348285Y-76994000D01*
X155205427Y-76922571D01*
X154848285Y-76922571D01*
X154633999Y-76994000D01*
X153133999Y-78422571D02*
X153633999Y-77708286D01*
X153991142Y-78422571D02*
X153991142Y-76922571D01*
X153419714Y-76922571D01*
X153276856Y-76994000D01*
X153205428Y-77065429D01*
X153133999Y-77208286D01*
X153133999Y-77422571D01*
X153205428Y-77565429D01*
X153276856Y-77636857D01*
X153419714Y-77708286D01*
X153991142Y-77708286D01*
X151348285Y-78422571D02*
X151348285Y-76922571D01*
X150848285Y-77994000D01*
X150348285Y-76922571D01*
X150348285Y-78422571D01*
X149062571Y-78351143D02*
X149205428Y-78422571D01*
X149491142Y-78422571D01*
X149633999Y-78351143D01*
X149705428Y-78208286D01*
X149705428Y-77636857D01*
X149633999Y-77494000D01*
X149491142Y-77422571D01*
X149205428Y-77422571D01*
X149062571Y-77494000D01*
X148991142Y-77636857D01*
X148991142Y-77779714D01*
X149705428Y-77922571D01*
X148562571Y-77422571D02*
X147991142Y-77422571D01*
X148348285Y-76922571D02*
X148348285Y-78208286D01*
X148276857Y-78351143D01*
X148133999Y-78422571D01*
X147991142Y-78422571D01*
X146919714Y-78351143D02*
X147062571Y-78422571D01*
X147348285Y-78422571D01*
X147491142Y-78351143D01*
X147562571Y-78208286D01*
X147562571Y-77636857D01*
X147491142Y-77494000D01*
X147348285Y-77422571D01*
X147062571Y-77422571D01*
X146919714Y-77494000D01*
X146848285Y-77636857D01*
X146848285Y-77779714D01*
X147562571Y-77922571D01*
X146205428Y-78422571D02*
X146205428Y-77422571D01*
X146205428Y-77708286D02*
X146134000Y-77565429D01*
X146062571Y-77494000D01*
X145919714Y-77422571D01*
X145776857Y-77422571D01*
X156026857Y-80922571D02*
X156526857Y-80208286D01*
X156884000Y-80922571D02*
X156884000Y-79422571D01*
X156312572Y-79422571D01*
X156169714Y-79494000D01*
X156098286Y-79565429D01*
X156026857Y-79708286D01*
X156026857Y-79922571D01*
X156098286Y-80065429D01*
X156169714Y-80136857D01*
X156312572Y-80208286D01*
X156884000Y-80208286D01*
X154812572Y-80851143D02*
X154955429Y-80922571D01*
X155241143Y-80922571D01*
X155384000Y-80851143D01*
X155455429Y-80708286D01*
X155455429Y-80136857D01*
X155384000Y-79994000D01*
X155241143Y-79922571D01*
X154955429Y-79922571D01*
X154812572Y-79994000D01*
X154741143Y-80136857D01*
X154741143Y-80279714D01*
X155455429Y-80422571D01*
X154241143Y-79922571D02*
X153884000Y-80922571D01*
X153526858Y-79922571D01*
X152955429Y-80922571D02*
X152955429Y-79922571D01*
X152955429Y-79422571D02*
X153026858Y-79494000D01*
X152955429Y-79565429D01*
X152884001Y-79494000D01*
X152955429Y-79422571D01*
X152955429Y-79565429D01*
X152312572Y-80851143D02*
X152169715Y-80922571D01*
X151884000Y-80922571D01*
X151741143Y-80851143D01*
X151669715Y-80708286D01*
X151669715Y-80636857D01*
X151741143Y-80494000D01*
X151884000Y-80422571D01*
X152098286Y-80422571D01*
X152241143Y-80351143D01*
X152312572Y-80208286D01*
X152312572Y-80136857D01*
X152241143Y-79994000D01*
X152098286Y-79922571D01*
X151884000Y-79922571D01*
X151741143Y-79994000D01*
X151026857Y-80922571D02*
X151026857Y-79922571D01*
X151026857Y-79422571D02*
X151098286Y-79494000D01*
X151026857Y-79565429D01*
X150955429Y-79494000D01*
X151026857Y-79422571D01*
X151026857Y-79565429D01*
X150098285Y-80922571D02*
X150241143Y-80851143D01*
X150312571Y-80779714D01*
X150384000Y-80636857D01*
X150384000Y-80208286D01*
X150312571Y-80065429D01*
X150241143Y-79994000D01*
X150098285Y-79922571D01*
X149884000Y-79922571D01*
X149741143Y-79994000D01*
X149669714Y-80065429D01*
X149598285Y-80208286D01*
X149598285Y-80636857D01*
X149669714Y-80779714D01*
X149741143Y-80851143D01*
X149884000Y-80922571D01*
X150098285Y-80922571D01*
X148955428Y-79922571D02*
X148955428Y-80922571D01*
X148955428Y-80065429D02*
X148884000Y-79994000D01*
X148741142Y-79922571D01*
X148526857Y-79922571D01*
X148384000Y-79994000D01*
X148312571Y-80136857D01*
X148312571Y-80922571D01*
X146526857Y-80494000D02*
X145812571Y-80494000D01*
X146669714Y-80922571D02*
X146169714Y-79422571D01*
X145669714Y-80922571D01*
D12*
X158784000Y-84775857D02*
X158784000Y-83575857D01*
X158326857Y-83575857D01*
X158212571Y-83633000D01*
X158155428Y-83690143D01*
X158098285Y-83804429D01*
X158098285Y-83975857D01*
X158155428Y-84090143D01*
X158212571Y-84147286D01*
X158326857Y-84204429D01*
X158784000Y-84204429D01*
X156898285Y-84661571D02*
X156955428Y-84718714D01*
X157126857Y-84775857D01*
X157241143Y-84775857D01*
X157412571Y-84718714D01*
X157526857Y-84604429D01*
X157584000Y-84490143D01*
X157641143Y-84261571D01*
X157641143Y-84090143D01*
X157584000Y-83861571D01*
X157526857Y-83747286D01*
X157412571Y-83633000D01*
X157241143Y-83575857D01*
X157126857Y-83575857D01*
X156955428Y-83633000D01*
X156898285Y-83690143D01*
X155984000Y-84147286D02*
X155812571Y-84204429D01*
X155755428Y-84261571D01*
X155698285Y-84375857D01*
X155698285Y-84547286D01*
X155755428Y-84661571D01*
X155812571Y-84718714D01*
X155926857Y-84775857D01*
X156384000Y-84775857D01*
X156384000Y-83575857D01*
X155984000Y-83575857D01*
X155869714Y-83633000D01*
X155812571Y-83690143D01*
X155755428Y-83804429D01*
X155755428Y-83918714D01*
X155812571Y-84033000D01*
X155869714Y-84090143D01*
X155984000Y-84147286D01*
X156384000Y-84147286D01*
X153755428Y-84775857D02*
X153755428Y-83575857D01*
X153755428Y-84718714D02*
X153869714Y-84775857D01*
X154098285Y-84775857D01*
X154212571Y-84718714D01*
X154269714Y-84661571D01*
X154326857Y-84547286D01*
X154326857Y-84204429D01*
X154269714Y-84090143D01*
X154212571Y-84033000D01*
X154098285Y-83975857D01*
X153869714Y-83975857D01*
X153755428Y-84033000D01*
X152726857Y-84718714D02*
X152841143Y-84775857D01*
X153069714Y-84775857D01*
X153184000Y-84718714D01*
X153241143Y-84604429D01*
X153241143Y-84147286D01*
X153184000Y-84033000D01*
X153069714Y-83975857D01*
X152841143Y-83975857D01*
X152726857Y-84033000D01*
X152669714Y-84147286D01*
X152669714Y-84261571D01*
X153241143Y-84375857D01*
X152212572Y-84718714D02*
X152098286Y-84775857D01*
X151869714Y-84775857D01*
X151755429Y-84718714D01*
X151698286Y-84604429D01*
X151698286Y-84547286D01*
X151755429Y-84433000D01*
X151869714Y-84375857D01*
X152041143Y-84375857D01*
X152155429Y-84318714D01*
X152212572Y-84204429D01*
X152212572Y-84147286D01*
X152155429Y-84033000D01*
X152041143Y-83975857D01*
X151869714Y-83975857D01*
X151755429Y-84033000D01*
X151184000Y-84775857D02*
X151184000Y-83975857D01*
X151184000Y-83575857D02*
X151241143Y-83633000D01*
X151184000Y-83690143D01*
X151126857Y-83633000D01*
X151184000Y-83575857D01*
X151184000Y-83690143D01*
X150098285Y-83975857D02*
X150098285Y-84947286D01*
X150155428Y-85061571D01*
X150212571Y-85118714D01*
X150326856Y-85175857D01*
X150498285Y-85175857D01*
X150612571Y-85118714D01*
X150098285Y-84718714D02*
X150212571Y-84775857D01*
X150441142Y-84775857D01*
X150555428Y-84718714D01*
X150612571Y-84661571D01*
X150669714Y-84547286D01*
X150669714Y-84204429D01*
X150612571Y-84090143D01*
X150555428Y-84033000D01*
X150441142Y-83975857D01*
X150212571Y-83975857D01*
X150098285Y-84033000D01*
X149526857Y-83975857D02*
X149526857Y-84775857D01*
X149526857Y-84090143D02*
X149469714Y-84033000D01*
X149355428Y-83975857D01*
X149184000Y-83975857D01*
X149069714Y-84033000D01*
X149012571Y-84147286D01*
X149012571Y-84775857D01*
X147984000Y-84718714D02*
X148098286Y-84775857D01*
X148326857Y-84775857D01*
X148441143Y-84718714D01*
X148498286Y-84604429D01*
X148498286Y-84147286D01*
X148441143Y-84033000D01*
X148326857Y-83975857D01*
X148098286Y-83975857D01*
X147984000Y-84033000D01*
X147926857Y-84147286D01*
X147926857Y-84261571D01*
X148498286Y-84375857D01*
X146898286Y-84775857D02*
X146898286Y-83575857D01*
X146898286Y-84718714D02*
X147012572Y-84775857D01*
X147241143Y-84775857D01*
X147355429Y-84718714D01*
X147412572Y-84661571D01*
X147469715Y-84547286D01*
X147469715Y-84204429D01*
X147412572Y-84090143D01*
X147355429Y-84033000D01*
X147241143Y-83975857D01*
X147012572Y-83975857D01*
X146898286Y-84033000D01*
X145412572Y-84775857D02*
X145412572Y-83575857D01*
X145412572Y-84033000D02*
X145298286Y-83975857D01*
X145069715Y-83975857D01*
X144955429Y-84033000D01*
X144898286Y-84090143D01*
X144841143Y-84204429D01*
X144841143Y-84547286D01*
X144898286Y-84661571D01*
X144955429Y-84718714D01*
X145069715Y-84775857D01*
X145298286Y-84775857D01*
X145412572Y-84718714D01*
X144441143Y-83975857D02*
X144155429Y-84775857D01*
X143869715Y-83975857D02*
X144155429Y-84775857D01*
X144269715Y-85061571D01*
X144326858Y-85118714D01*
X144441143Y-85175857D01*
X160326857Y-86775857D02*
X160326857Y-85575857D01*
X160041142Y-85575857D01*
X159869714Y-85633000D01*
X159755428Y-85747286D01*
X159698285Y-85861571D01*
X159641142Y-86090143D01*
X159641142Y-86261571D01*
X159698285Y-86490143D01*
X159755428Y-86604429D01*
X159869714Y-86718714D01*
X160041142Y-86775857D01*
X160326857Y-86775857D01*
X159126857Y-86775857D02*
X159126857Y-85975857D01*
X159126857Y-86090143D02*
X159069714Y-86033000D01*
X158955428Y-85975857D01*
X158784000Y-85975857D01*
X158669714Y-86033000D01*
X158612571Y-86147286D01*
X158612571Y-86775857D01*
X158612571Y-86147286D02*
X158555428Y-86033000D01*
X158441142Y-85975857D01*
X158269714Y-85975857D01*
X158155428Y-86033000D01*
X158098285Y-86147286D01*
X158098285Y-86775857D01*
X157526857Y-86775857D02*
X157526857Y-85975857D01*
X157526857Y-85575857D02*
X157584000Y-85633000D01*
X157526857Y-85690143D01*
X157469714Y-85633000D01*
X157526857Y-85575857D01*
X157526857Y-85690143D01*
X157126856Y-85975857D02*
X156669713Y-85975857D01*
X156955428Y-85575857D02*
X156955428Y-86604429D01*
X156898285Y-86718714D01*
X156783999Y-86775857D01*
X156669713Y-86775857D01*
X156269714Y-86775857D02*
X156269714Y-85975857D01*
X156269714Y-86204429D02*
X156212571Y-86090143D01*
X156155428Y-86033000D01*
X156041142Y-85975857D01*
X155926857Y-85975857D01*
X155641142Y-85975857D02*
X155355428Y-86775857D01*
X155069714Y-85975857D02*
X155355428Y-86775857D01*
X155469714Y-87061571D01*
X155526857Y-87118714D01*
X155641142Y-87175857D01*
X153698285Y-86775857D02*
X153698285Y-85575857D01*
X153298285Y-86433000D01*
X152898285Y-85575857D01*
X152898285Y-86775857D01*
X151869713Y-86718714D02*
X151983999Y-86775857D01*
X152212570Y-86775857D01*
X152326856Y-86718714D01*
X152383999Y-86604429D01*
X152383999Y-86147286D01*
X152326856Y-86033000D01*
X152212570Y-85975857D01*
X151983999Y-85975857D01*
X151869713Y-86033000D01*
X151812570Y-86147286D01*
X151812570Y-86261571D01*
X152383999Y-86375857D01*
X151126856Y-86775857D02*
X151241142Y-86718714D01*
X151298285Y-86604429D01*
X151298285Y-85575857D01*
X150669714Y-85975857D02*
X150669714Y-86775857D01*
X150669714Y-86090143D02*
X150612571Y-86033000D01*
X150498285Y-85975857D01*
X150326857Y-85975857D01*
X150212571Y-86033000D01*
X150155428Y-86147286D01*
X150155428Y-86775857D01*
X149584000Y-86775857D02*
X149584000Y-85975857D01*
X149584000Y-85575857D02*
X149641143Y-85633000D01*
X149584000Y-85690143D01*
X149526857Y-85633000D01*
X149584000Y-85575857D01*
X149584000Y-85690143D01*
X148498285Y-86718714D02*
X148612571Y-86775857D01*
X148841142Y-86775857D01*
X148955428Y-86718714D01*
X149012571Y-86661571D01*
X149069714Y-86547286D01*
X149069714Y-86204429D01*
X149012571Y-86090143D01*
X148955428Y-86033000D01*
X148841142Y-85975857D01*
X148612571Y-85975857D01*
X148498285Y-86033000D01*
X147984000Y-86775857D02*
X147984000Y-85575857D01*
X147469714Y-86775857D02*
X147469714Y-86147286D01*
X147526857Y-86033000D01*
X147641143Y-85975857D01*
X147812571Y-85975857D01*
X147926857Y-86033000D01*
X147984000Y-86090143D01*
X146384000Y-86775857D02*
X146384000Y-86147286D01*
X146441143Y-86033000D01*
X146555429Y-85975857D01*
X146784000Y-85975857D01*
X146898286Y-86033000D01*
X146384000Y-86718714D02*
X146498286Y-86775857D01*
X146784000Y-86775857D01*
X146898286Y-86718714D01*
X146955429Y-86604429D01*
X146955429Y-86490143D01*
X146898286Y-86375857D01*
X146784000Y-86318714D01*
X146498286Y-86318714D01*
X146384000Y-86261571D01*
X145812572Y-85975857D02*
X145812572Y-86775857D01*
X145812572Y-86090143D02*
X145755429Y-86033000D01*
X145641143Y-85975857D01*
X145469715Y-85975857D01*
X145355429Y-86033000D01*
X145298286Y-86147286D01*
X145298286Y-86775857D01*
X144784001Y-86718714D02*
X144669715Y-86775857D01*
X144441143Y-86775857D01*
X144326858Y-86718714D01*
X144269715Y-86604429D01*
X144269715Y-86547286D01*
X144326858Y-86433000D01*
X144441143Y-86375857D01*
X144612572Y-86375857D01*
X144726858Y-86318714D01*
X144784001Y-86204429D01*
X144784001Y-86147286D01*
X144726858Y-86033000D01*
X144612572Y-85975857D01*
X144441143Y-85975857D01*
X144326858Y-86033000D01*
X143755429Y-86775857D02*
X143755429Y-85575857D01*
X143641143Y-86318714D02*
X143298286Y-86775857D01*
X143298286Y-85975857D02*
X143755429Y-86433000D01*
X142898285Y-85975857D02*
X142612571Y-86775857D01*
X142326857Y-85975857D02*
X142612571Y-86775857D01*
X142726857Y-87061571D01*
X142784000Y-87118714D01*
X142898285Y-87175857D01*
X153584000Y-87975857D02*
X153584000Y-88775857D01*
X153869714Y-87518714D02*
X154155429Y-88375857D01*
X153412571Y-88375857D01*
X153069714Y-87575857D02*
X152269714Y-88775857D01*
X152269714Y-87575857D02*
X153069714Y-88775857D01*
X151184000Y-88775857D02*
X151869715Y-88775857D01*
X151526857Y-88775857D02*
X151526857Y-87575857D01*
X151641143Y-87747286D01*
X151755429Y-87861571D01*
X151869715Y-87918714D01*
X150669715Y-88775857D02*
X150669715Y-87575857D01*
X150269715Y-88433000D01*
X149869715Y-87575857D01*
X149869715Y-88775857D01*
X149298286Y-88775857D02*
X149298286Y-87575857D01*
X149012571Y-87575857D01*
X148841143Y-87633000D01*
X148726857Y-87747286D01*
X148669714Y-87861571D01*
X148612571Y-88090143D01*
X148612571Y-88261571D01*
X148669714Y-88490143D01*
X148726857Y-88604429D01*
X148841143Y-88718714D01*
X149012571Y-88775857D01*
X149298286Y-88775857D01*
D13*
X133492857Y-113565714D02*
X133564286Y-113637143D01*
X133778572Y-113708571D01*
X133921429Y-113708571D01*
X134135714Y-113637143D01*
X134278572Y-113494286D01*
X134350000Y-113351429D01*
X134421429Y-113065714D01*
X134421429Y-112851429D01*
X134350000Y-112565714D01*
X134278572Y-112422857D01*
X134135714Y-112280000D01*
X133921429Y-112208571D01*
X133778572Y-112208571D01*
X133564286Y-112280000D01*
X133492857Y-112351429D01*
X132992857Y-113708571D02*
X132207143Y-112708571D01*
X132992857Y-112708571D02*
X132207143Y-113708571D01*
X123319048Y-91132143D02*
X123259524Y-90953571D01*
X123259524Y-90655952D01*
X123319048Y-90536905D01*
X123378571Y-90477381D01*
X123497619Y-90417857D01*
X123616667Y-90417857D01*
X123735714Y-90477381D01*
X123795238Y-90536905D01*
X123854762Y-90655952D01*
X123914286Y-90894048D01*
X123973810Y-91013095D01*
X124033333Y-91072619D01*
X124152381Y-91132143D01*
X124271429Y-91132143D01*
X124390476Y-91072619D01*
X124450000Y-91013095D01*
X124509524Y-90894048D01*
X124509524Y-90596428D01*
X124450000Y-90417857D01*
X123259524Y-89882143D02*
X124509524Y-89882143D01*
X123259524Y-89346429D02*
X123914286Y-89346429D01*
X124033333Y-89405952D01*
X124092857Y-89525000D01*
X124092857Y-89703572D01*
X124033333Y-89822619D01*
X123973810Y-89882143D01*
X123259524Y-88572620D02*
X123319048Y-88691667D01*
X123378571Y-88751191D01*
X123497619Y-88810715D01*
X123854762Y-88810715D01*
X123973810Y-88751191D01*
X124033333Y-88691667D01*
X124092857Y-88572620D01*
X124092857Y-88394048D01*
X124033333Y-88275000D01*
X123973810Y-88215477D01*
X123854762Y-88155953D01*
X123497619Y-88155953D01*
X123378571Y-88215477D01*
X123319048Y-88275000D01*
X123259524Y-88394048D01*
X123259524Y-88572620D01*
X123259524Y-87620239D02*
X124092857Y-87620239D01*
X123854762Y-87620239D02*
X123973810Y-87560715D01*
X124033333Y-87501191D01*
X124092857Y-87382144D01*
X124092857Y-87263096D01*
X124092857Y-87025000D02*
X124092857Y-86548810D01*
X124509524Y-86846429D02*
X123438095Y-86846429D01*
X123319048Y-86786905D01*
X123259524Y-86667858D01*
X123259524Y-86548810D01*
X124509524Y-81964524D02*
X124509524Y-81726428D01*
X124450000Y-81607381D01*
X124330952Y-81488333D01*
X124092857Y-81428809D01*
X123676190Y-81428809D01*
X123438095Y-81488333D01*
X123319048Y-81607381D01*
X123259524Y-81726428D01*
X123259524Y-81964524D01*
X123319048Y-82083571D01*
X123438095Y-82202619D01*
X123676190Y-82262143D01*
X124092857Y-82262143D01*
X124330952Y-82202619D01*
X124450000Y-82083571D01*
X124509524Y-81964524D01*
X124092857Y-80893095D02*
X123259524Y-80893095D01*
X123973810Y-80893095D02*
X124033333Y-80833571D01*
X124092857Y-80714524D01*
X124092857Y-80535952D01*
X124033333Y-80416904D01*
X123914286Y-80357381D01*
X123259524Y-80357381D01*
X134451666Y-50214524D02*
X134689762Y-50214524D01*
X134808809Y-50155000D01*
X134927857Y-50035952D01*
X134987381Y-49797857D01*
X134987381Y-49381190D01*
X134927857Y-49143095D01*
X134808809Y-49024048D01*
X134689762Y-48964524D01*
X134451666Y-48964524D01*
X134332619Y-49024048D01*
X134213571Y-49143095D01*
X134154047Y-49381190D01*
X134154047Y-49797857D01*
X134213571Y-50035952D01*
X134332619Y-50155000D01*
X134451666Y-50214524D01*
X135523095Y-49797857D02*
X135523095Y-48964524D01*
X135523095Y-49678810D02*
X135582619Y-49738333D01*
X135701666Y-49797857D01*
X135880238Y-49797857D01*
X135999286Y-49738333D01*
X136058809Y-49619286D01*
X136058809Y-48964524D01*
X137546904Y-50274048D02*
X136475476Y-48666905D01*
X138201666Y-50214524D02*
X138439762Y-50214524D01*
X138558809Y-50155000D01*
X138677857Y-50035952D01*
X138737381Y-49797857D01*
X138737381Y-49381190D01*
X138677857Y-49143095D01*
X138558809Y-49024048D01*
X138439762Y-48964524D01*
X138201666Y-48964524D01*
X138082619Y-49024048D01*
X137963571Y-49143095D01*
X137904047Y-49381190D01*
X137904047Y-49797857D01*
X137963571Y-50035952D01*
X138082619Y-50155000D01*
X138201666Y-50214524D01*
X139094524Y-49797857D02*
X139570714Y-49797857D01*
X139273095Y-48964524D02*
X139273095Y-50035952D01*
X139332619Y-50155000D01*
X139451666Y-50214524D01*
X139570714Y-50214524D01*
X139808810Y-49797857D02*
X140285000Y-49797857D01*
X139987381Y-48964524D02*
X139987381Y-50035952D01*
X140046905Y-50155000D01*
X140165952Y-50214524D01*
X140285000Y-50214524D01*
X163026905Y-49619286D02*
X163443572Y-49619286D01*
X163622143Y-48964524D02*
X163026905Y-48964524D01*
X163026905Y-50214524D01*
X163622143Y-50214524D01*
X164038809Y-48964524D02*
X164693571Y-49797857D01*
X164038809Y-49797857D02*
X164693571Y-48964524D01*
X164991191Y-49797857D02*
X165467381Y-49797857D01*
X165169762Y-50214524D02*
X165169762Y-49143095D01*
X165229286Y-49024048D01*
X165348333Y-48964524D01*
X165467381Y-48964524D01*
X165884048Y-49083571D02*
X165943572Y-49024048D01*
X165884048Y-48964524D01*
X165824524Y-49024048D01*
X165884048Y-49083571D01*
X165884048Y-48964524D01*
X167431667Y-49797857D02*
X167431667Y-48547857D01*
X167431667Y-49738333D02*
X167550715Y-49797857D01*
X167788810Y-49797857D01*
X167907858Y-49738333D01*
X167967381Y-49678810D01*
X168026905Y-49559762D01*
X168026905Y-49202619D01*
X167967381Y-49083571D01*
X167907858Y-49024048D01*
X167788810Y-48964524D01*
X167550715Y-48964524D01*
X167431667Y-49024048D01*
X168741190Y-48964524D02*
X168622143Y-49024048D01*
X168562619Y-49083571D01*
X168503095Y-49202619D01*
X168503095Y-49559762D01*
X168562619Y-49678810D01*
X168622143Y-49738333D01*
X168741190Y-49797857D01*
X168919762Y-49797857D01*
X169038810Y-49738333D01*
X169098333Y-49678810D01*
X169157857Y-49559762D01*
X169157857Y-49202619D01*
X169098333Y-49083571D01*
X169038810Y-49024048D01*
X168919762Y-48964524D01*
X168741190Y-48964524D01*
X169574523Y-49797857D02*
X169812619Y-48964524D01*
X170050714Y-49559762D01*
X170288809Y-48964524D01*
X170526904Y-49797857D01*
X171479286Y-49024048D02*
X171360238Y-48964524D01*
X171122143Y-48964524D01*
X171003095Y-49024048D01*
X170943571Y-49143095D01*
X170943571Y-49619286D01*
X171003095Y-49738333D01*
X171122143Y-49797857D01*
X171360238Y-49797857D01*
X171479286Y-49738333D01*
X171538809Y-49619286D01*
X171538809Y-49500238D01*
X170943571Y-49381190D01*
X172074524Y-48964524D02*
X172074524Y-49797857D01*
X172074524Y-49559762D02*
X172134048Y-49678810D01*
X172193572Y-49738333D01*
X172312619Y-49797857D01*
X172431667Y-49797857D01*
X181032476Y-59343095D02*
X181032476Y-59581190D01*
X180972952Y-59700238D01*
X180913429Y-59759762D01*
X180734857Y-59878809D01*
X180496762Y-59938333D01*
X180020571Y-59938333D01*
X179901524Y-59878809D01*
X179842000Y-59819285D01*
X179782476Y-59700238D01*
X179782476Y-59462142D01*
X179842000Y-59343095D01*
X179901524Y-59283571D01*
X180020571Y-59224047D01*
X180318190Y-59224047D01*
X180437238Y-59283571D01*
X180496762Y-59343095D01*
X180556286Y-59462142D01*
X180556286Y-59700238D01*
X180496762Y-59819285D01*
X180437238Y-59878809D01*
X180318190Y-59938333D01*
X179782476Y-60295476D02*
X181032476Y-60712142D01*
X179782476Y-61128809D01*
X180377714Y-62914524D02*
X180437238Y-63093095D01*
X180496762Y-63152619D01*
X180615810Y-63212143D01*
X180794381Y-63212143D01*
X180913429Y-63152619D01*
X180972952Y-63093095D01*
X181032476Y-62974048D01*
X181032476Y-62497857D01*
X179782476Y-62497857D01*
X179782476Y-62914524D01*
X179842000Y-63033571D01*
X179901524Y-63093095D01*
X180020571Y-63152619D01*
X180139619Y-63152619D01*
X180258667Y-63093095D01*
X180318190Y-63033571D01*
X180377714Y-62914524D01*
X180377714Y-62497857D01*
X180675333Y-63688333D02*
X180675333Y-64283571D01*
X181032476Y-63569286D02*
X179782476Y-63985952D01*
X181032476Y-64402619D01*
X179782476Y-64640715D02*
X179782476Y-65355000D01*
X181032476Y-64997857D02*
X179782476Y-64997857D01*
X177405143Y-74037143D02*
X178655143Y-74037143D01*
X178059905Y-74632381D02*
X178178952Y-74691905D01*
X178238476Y-74810953D01*
X178059905Y-74037143D02*
X178178952Y-74096667D01*
X178238476Y-74215714D01*
X178238476Y-74453810D01*
X178178952Y-74572857D01*
X178059905Y-74632381D01*
X177405143Y-74632381D01*
X177881333Y-75287143D02*
X177881333Y-75882381D01*
X178238476Y-75168096D02*
X176988476Y-75584762D01*
X178238476Y-76001429D01*
X183998571Y-91888571D02*
X182998571Y-91888571D01*
X183998571Y-93388571D01*
X182998571Y-93388571D01*
X181855715Y-93317143D02*
X181998572Y-93388571D01*
X182284286Y-93388571D01*
X182427143Y-93317143D01*
X182498572Y-93174286D01*
X182498572Y-92602857D01*
X182427143Y-92460000D01*
X182284286Y-92388571D01*
X181998572Y-92388571D01*
X181855715Y-92460000D01*
X181784286Y-92602857D01*
X181784286Y-92745714D01*
X182498572Y-92888571D01*
X181141429Y-93388571D02*
X181141429Y-92388571D01*
X181141429Y-92674286D02*
X181070001Y-92531429D01*
X180998572Y-92460000D01*
X180855715Y-92388571D01*
X180712858Y-92388571D01*
X179998572Y-93388571D02*
X180141430Y-93317143D01*
X180212858Y-93245714D01*
X180284287Y-93102857D01*
X180284287Y-92674286D01*
X180212858Y-92531429D01*
X180141430Y-92460000D01*
X179998572Y-92388571D01*
X179784287Y-92388571D01*
X179641430Y-92460000D01*
X179570001Y-92531429D01*
X179498572Y-92674286D01*
X179498572Y-93102857D01*
X179570001Y-93245714D01*
X179641430Y-93317143D01*
X179784287Y-93388571D01*
X179998572Y-93388571D01*
X177070001Y-93388571D02*
X177070001Y-92602857D01*
X177141430Y-92460000D01*
X177284287Y-92388571D01*
X177570001Y-92388571D01*
X177712858Y-92460000D01*
X177070001Y-93317143D02*
X177212858Y-93388571D01*
X177570001Y-93388571D01*
X177712858Y-93317143D01*
X177784287Y-93174286D01*
X177784287Y-93031429D01*
X177712858Y-92888571D01*
X177570001Y-92817143D01*
X177212858Y-92817143D01*
X177070001Y-92745714D01*
X175712858Y-93388571D02*
X175712858Y-91888571D01*
X175712858Y-93317143D02*
X175855715Y-93388571D01*
X176141429Y-93388571D01*
X176284287Y-93317143D01*
X176355715Y-93245714D01*
X176427144Y-93102857D01*
X176427144Y-92674286D01*
X176355715Y-92531429D01*
X176284287Y-92460000D01*
X176141429Y-92388571D01*
X175855715Y-92388571D01*
X175712858Y-92460000D01*
X174998572Y-92388571D02*
X174998572Y-93674286D01*
X175070001Y-93817143D01*
X175212858Y-93888571D01*
X175284286Y-93888571D01*
X174998572Y-91888571D02*
X175070001Y-91960000D01*
X174998572Y-92031429D01*
X174927144Y-91960000D01*
X174998572Y-91888571D01*
X174998572Y-92031429D01*
X174284286Y-93245714D02*
X174212858Y-93317143D01*
X174284286Y-93388571D01*
X174355715Y-93317143D01*
X174284286Y-93245714D01*
X174284286Y-93388571D01*
D14*
G36*
X169951400Y-66704054D02*
X169940535Y-66817993D01*
X169908918Y-66925616D01*
X169858015Y-67024615D01*
X169789293Y-67112684D01*
X169704219Y-67187516D01*
X169607232Y-67245384D01*
X169500964Y-67285005D01*
X169393950Y-67303573D01*
X169288300Y-67302434D01*
X169186125Y-67282930D01*
X169089534Y-67246406D01*
X169000638Y-67194205D01*
X168921546Y-67127673D01*
X168854369Y-67048152D01*
X168801217Y-66956987D01*
X168764199Y-66855523D01*
X168745427Y-66745102D01*
X168743489Y-66695206D01*
X168743489Y-66607267D01*
X168691560Y-66607267D01*
X168655253Y-66610111D01*
X168628355Y-66621911D01*
X168601249Y-66645649D01*
X168562867Y-66684031D01*
X168562867Y-68875602D01*
X168562876Y-69137739D01*
X168562908Y-69378241D01*
X168562972Y-69598048D01*
X168563076Y-69798101D01*
X168563227Y-69979344D01*
X168563434Y-70142716D01*
X168563706Y-70289160D01*
X168564050Y-70419617D01*
X168564474Y-70535029D01*
X168564987Y-70636338D01*
X168565597Y-70724484D01*
X168566312Y-70800410D01*
X168567140Y-70865057D01*
X168568089Y-70919367D01*
X168569167Y-70964280D01*
X168570383Y-71000740D01*
X168571745Y-71029687D01*
X168573261Y-71052063D01*
X168574938Y-71068809D01*
X168576786Y-71080868D01*
X168578813Y-71089180D01*
X168581025Y-71094687D01*
X168582108Y-71096537D01*
X168586271Y-71103549D01*
X168589805Y-71109996D01*
X168593635Y-71115900D01*
X168598682Y-71121286D01*
X168605871Y-71126178D01*
X168616123Y-71130598D01*
X168630364Y-71134572D01*
X168649514Y-71138121D01*
X168674499Y-71141270D01*
X168706240Y-71144042D01*
X168745662Y-71146461D01*
X168793686Y-71148551D01*
X168851237Y-71150335D01*
X168919237Y-71151837D01*
X168998610Y-71153080D01*
X169090279Y-71154089D01*
X169195166Y-71154885D01*
X169314196Y-71155494D01*
X169448290Y-71155939D01*
X169598373Y-71156243D01*
X169765367Y-71156430D01*
X169950196Y-71156524D01*
X170153783Y-71156548D01*
X170377050Y-71156525D01*
X170620922Y-71156480D01*
X170886321Y-71156437D01*
X170924704Y-71156432D01*
X171191682Y-71156389D01*
X171437002Y-71156318D01*
X171661583Y-71156213D01*
X171866345Y-71156066D01*
X172052206Y-71155869D01*
X172220088Y-71155616D01*
X172370908Y-71155300D01*
X172505587Y-71154913D01*
X172625044Y-71154447D01*
X172730199Y-71153897D01*
X172821971Y-71153253D01*
X172901279Y-71152511D01*
X172969043Y-71151661D01*
X173026182Y-71150697D01*
X173073617Y-71149611D01*
X173112266Y-71148397D01*
X173143049Y-71147047D01*
X173166885Y-71145555D01*
X173184694Y-71143911D01*
X173197395Y-71142111D01*
X173205908Y-71140145D01*
X173210266Y-71138477D01*
X173218728Y-71134906D01*
X173226497Y-71132270D01*
X173233602Y-71129634D01*
X173240073Y-71126062D01*
X173245939Y-71120621D01*
X173251229Y-71112375D01*
X173255974Y-71100390D01*
X173260202Y-71083731D01*
X173263943Y-71061463D01*
X173267227Y-71032652D01*
X173270083Y-70996363D01*
X173272540Y-70951661D01*
X173274629Y-70897611D01*
X173276378Y-70833279D01*
X173277817Y-70757730D01*
X173278976Y-70670030D01*
X173279883Y-70569243D01*
X173280569Y-70454434D01*
X173281063Y-70324670D01*
X173281395Y-70179015D01*
X173281593Y-70016535D01*
X173281687Y-69836295D01*
X173281708Y-69637360D01*
X173281685Y-69418796D01*
X173281646Y-69179668D01*
X173281622Y-68919040D01*
X173281622Y-68876889D01*
X173281636Y-68613992D01*
X173281661Y-68372732D01*
X173281671Y-68152165D01*
X173281642Y-67951352D01*
X173281548Y-67769349D01*
X173281362Y-67605216D01*
X173281059Y-67458011D01*
X173280614Y-67326792D01*
X173280034Y-67216867D01*
X172977197Y-67216867D01*
X172937407Y-67274711D01*
X172926236Y-67290479D01*
X172916166Y-67304441D01*
X172907138Y-67317784D01*
X172899097Y-67331693D01*
X172891986Y-67347356D01*
X172885747Y-67365958D01*
X172880325Y-67388686D01*
X172875662Y-67416727D01*
X172871701Y-67451267D01*
X172868385Y-67493492D01*
X172865659Y-67544589D01*
X172863464Y-67605744D01*
X172861745Y-67678144D01*
X172860444Y-67762975D01*
X172859505Y-67861422D01*
X172858870Y-67974674D01*
X172858484Y-68103916D01*
X172858288Y-68250334D01*
X172858227Y-68415116D01*
X172858243Y-68599447D01*
X172858280Y-68804513D01*
X172858289Y-68927133D01*
X172858265Y-69144082D01*
X172858231Y-69339642D01*
X172858243Y-69514999D01*
X172858358Y-69671341D01*
X172858630Y-69809857D01*
X172859118Y-69931734D01*
X172859876Y-70038160D01*
X172860962Y-70130322D01*
X172862431Y-70209409D01*
X172864340Y-70276608D01*
X172866744Y-70333107D01*
X172869701Y-70380093D01*
X172873266Y-70418755D01*
X172877495Y-70450280D01*
X172882446Y-70475855D01*
X172888173Y-70496670D01*
X172894733Y-70513911D01*
X172902183Y-70528765D01*
X172910579Y-70542422D01*
X172919976Y-70556069D01*
X172930432Y-70570893D01*
X172936523Y-70579783D01*
X172975296Y-70637400D01*
X172443732Y-70637400D01*
X172320483Y-70637365D01*
X172217987Y-70637215D01*
X172134420Y-70636878D01*
X172067956Y-70636286D01*
X172016771Y-70635367D01*
X171979041Y-70634051D01*
X171952940Y-70632269D01*
X171936644Y-70629951D01*
X171928328Y-70627026D01*
X171926168Y-70623424D01*
X171928339Y-70619075D01*
X171929535Y-70617645D01*
X171954685Y-70580573D01*
X171980583Y-70527772D01*
X172004192Y-70465770D01*
X172012461Y-70439357D01*
X172017078Y-70421416D01*
X172020979Y-70400355D01*
X172024248Y-70374089D01*
X172026966Y-70340532D01*
X172029215Y-70297599D01*
X172031077Y-70243204D01*
X172032636Y-70175262D01*
X172033972Y-70091688D01*
X172035169Y-69990395D01*
X172036308Y-69869300D01*
X172036685Y-69824600D01*
X172037702Y-69699449D01*
X172038460Y-69595082D01*
X172038903Y-69509707D01*
X172038970Y-69441533D01*
X172038605Y-69388765D01*
X172037748Y-69349614D01*
X172036341Y-69322285D01*
X172034325Y-69304986D01*
X172031643Y-69295926D01*
X172028236Y-69293312D01*
X172024044Y-69295351D01*
X172019571Y-69299667D01*
X172009216Y-69312602D01*
X171987158Y-69341676D01*
X171954957Y-69384759D01*
X171914174Y-69439718D01*
X171866370Y-69504423D01*
X171813105Y-69576742D01*
X171755940Y-69654544D01*
X171696437Y-69735698D01*
X171636155Y-69818072D01*
X171576655Y-69899536D01*
X171519498Y-69977957D01*
X171466245Y-70051204D01*
X171418457Y-70117147D01*
X171377693Y-70173654D01*
X171345516Y-70218593D01*
X171323485Y-70249834D01*
X171318917Y-70256466D01*
X171295996Y-70293369D01*
X171269188Y-70341359D01*
X171243789Y-70390897D01*
X171240568Y-70397577D01*
X171218890Y-70445772D01*
X171206304Y-70483334D01*
X171200574Y-70519160D01*
X171199456Y-70561200D01*
X171200090Y-70637400D01*
X170045651Y-70637400D01*
X170136815Y-70543669D01*
X170183612Y-70493775D01*
X170233899Y-70437295D01*
X170279944Y-70383026D01*
X170300369Y-70357673D01*
X170330807Y-70318128D01*
X170370862Y-70264916D01*
X170419361Y-70199667D01*
X170475135Y-70124011D01*
X170537011Y-70039577D01*
X170603819Y-69947994D01*
X170674387Y-69850892D01*
X170747545Y-69749901D01*
X170822121Y-69646650D01*
X170896944Y-69542768D01*
X170970843Y-69439885D01*
X171042646Y-69339631D01*
X171111184Y-69243636D01*
X171175284Y-69153527D01*
X171233775Y-69070936D01*
X171285486Y-68997492D01*
X171329247Y-68934824D01*
X171363885Y-68884561D01*
X171388230Y-68848334D01*
X171401111Y-68827771D01*
X171402869Y-68823668D01*
X171394910Y-68812342D01*
X171374115Y-68785162D01*
X171341847Y-68743829D01*
X171299470Y-68690044D01*
X171248347Y-68625506D01*
X171189841Y-68551918D01*
X171125314Y-68470978D01*
X171056131Y-68384388D01*
X170983653Y-68293848D01*
X170909246Y-68201060D01*
X170849517Y-68126702D01*
X169838511Y-68126702D01*
X169832602Y-68139659D01*
X169818272Y-68161908D01*
X169817225Y-68163391D01*
X169798438Y-68193544D01*
X169778791Y-68230375D01*
X169774892Y-68238511D01*
X169771356Y-68246940D01*
X169768230Y-68257059D01*
X169765486Y-68270260D01*
X169763092Y-68287938D01*
X169761019Y-68311484D01*
X169759235Y-68342293D01*
X169757712Y-68381757D01*
X169756419Y-68431269D01*
X169755326Y-68492223D01*
X169754403Y-68566011D01*
X169753619Y-68654028D01*
X169752945Y-68757665D01*
X169752350Y-68878316D01*
X169751805Y-69017374D01*
X169751279Y-69176232D01*
X169750745Y-69355089D01*
X169750206Y-69540207D01*
X169749772Y-69704145D01*
X169749509Y-69848303D01*
X169749484Y-69974079D01*
X169749765Y-70082871D01*
X169750419Y-70176077D01*
X169751514Y-70255097D01*
X169753118Y-70321328D01*
X169755297Y-70376170D01*
X169758119Y-70421021D01*
X169761651Y-70457278D01*
X169765961Y-70486341D01*
X169771117Y-70509609D01*
X169777185Y-70528479D01*
X169784233Y-70544351D01*
X169792329Y-70558622D01*
X169801540Y-70572691D01*
X169810040Y-70585158D01*
X169827176Y-70611452D01*
X169837322Y-70629037D01*
X169838511Y-70632257D01*
X169827604Y-70633334D01*
X169796411Y-70634335D01*
X169747223Y-70635235D01*
X169682333Y-70636010D01*
X169604030Y-70636637D01*
X169514607Y-70637091D01*
X169416356Y-70637349D01*
X169347445Y-70637400D01*
X169242452Y-70637180D01*
X169145610Y-70636548D01*
X169059107Y-70635549D01*
X168985132Y-70634227D01*
X168925874Y-70632626D01*
X168883520Y-70630791D01*
X168860260Y-70628765D01*
X168856378Y-70627493D01*
X168864076Y-70612591D01*
X168872074Y-70604560D01*
X168885246Y-70587434D01*
X168902485Y-70557183D01*
X168914407Y-70532622D01*
X168941045Y-70473711D01*
X168944120Y-69296845D01*
X168947195Y-68119978D01*
X169392853Y-68119978D01*
X169490670Y-68120142D01*
X169581064Y-68120611D01*
X169661630Y-68121347D01*
X169729962Y-68122316D01*
X169783656Y-68123480D01*
X169820305Y-68124803D01*
X169837504Y-68126249D01*
X169838511Y-68126702D01*
X170849517Y-68126702D01*
X170834270Y-68107722D01*
X170760090Y-68015537D01*
X170688069Y-67926204D01*
X170619569Y-67841424D01*
X170555955Y-67762898D01*
X170498588Y-67692326D01*
X170448833Y-67631409D01*
X170408052Y-67581847D01*
X170390888Y-67561178D01*
X170304596Y-67460516D01*
X170227997Y-67377259D01*
X170159183Y-67309438D01*
X170096248Y-67255089D01*
X170086867Y-67247722D01*
X170047356Y-67217117D01*
X171179116Y-67216867D01*
X171173827Y-67264844D01*
X171177130Y-67322188D01*
X171198661Y-67390463D01*
X171238635Y-67470212D01*
X171283943Y-67542495D01*
X171300161Y-67565140D01*
X171328214Y-67602696D01*
X171366430Y-67653021D01*
X171413137Y-67713973D01*
X171466661Y-67783411D01*
X171525331Y-67859194D01*
X171587475Y-67939180D01*
X171651421Y-68021228D01*
X171715495Y-68103196D01*
X171778027Y-68182943D01*
X171837343Y-68258327D01*
X171891771Y-68327207D01*
X171939639Y-68387442D01*
X171979275Y-68436889D01*
X172009006Y-68473408D01*
X172027161Y-68494858D01*
X172030220Y-68498156D01*
X172033079Y-68490149D01*
X172035293Y-68459855D01*
X172036857Y-68407556D01*
X172037767Y-68333531D01*
X172038020Y-68238063D01*
X172037613Y-68121434D01*
X172036704Y-68001445D01*
X172035382Y-67869333D01*
X172033857Y-67757594D01*
X172031881Y-67664025D01*
X172029206Y-67586419D01*
X172025582Y-67522574D01*
X172020761Y-67470283D01*
X172014494Y-67427344D01*
X172006532Y-67391551D01*
X171996627Y-67360700D01*
X171984531Y-67332586D01*
X171969993Y-67305005D01*
X171955311Y-67279966D01*
X171917314Y-67216867D01*
X172977197Y-67216867D01*
X173280034Y-67216867D01*
X173280001Y-67210617D01*
X173279195Y-67108544D01*
X173278170Y-67019633D01*
X173276900Y-66942941D01*
X173275360Y-66877527D01*
X173273524Y-66822449D01*
X173271367Y-66776765D01*
X173268863Y-66739534D01*
X173265987Y-66709813D01*
X173262713Y-66686662D01*
X173259015Y-66669139D01*
X173254869Y-66656301D01*
X173250247Y-66647208D01*
X173245126Y-66640918D01*
X173239478Y-66636488D01*
X173233279Y-66632978D01*
X173226504Y-66629445D01*
X173220508Y-66625876D01*
X173215275Y-66623300D01*
X173207099Y-66620972D01*
X173194886Y-66618878D01*
X173177541Y-66617007D01*
X173153969Y-66615347D01*
X173123077Y-66613884D01*
X173083768Y-66612608D01*
X173034950Y-66611504D01*
X172975527Y-66610561D01*
X172904404Y-66609767D01*
X172820488Y-66609109D01*
X172722683Y-66608575D01*
X172609894Y-66608153D01*
X172481029Y-66607829D01*
X172334991Y-66607592D01*
X172170686Y-66607430D01*
X171987020Y-66607330D01*
X171782897Y-66607280D01*
X171571753Y-66607267D01*
X169951400Y-66607267D01*
X169951400Y-66704054D01*
X169951400Y-66704054D01*
G37*
X169951400Y-66704054D02*
X169940535Y-66817993D01*
X169908918Y-66925616D01*
X169858015Y-67024615D01*
X169789293Y-67112684D01*
X169704219Y-67187516D01*
X169607232Y-67245384D01*
X169500964Y-67285005D01*
X169393950Y-67303573D01*
X169288300Y-67302434D01*
X169186125Y-67282930D01*
X169089534Y-67246406D01*
X169000638Y-67194205D01*
X168921546Y-67127673D01*
X168854369Y-67048152D01*
X168801217Y-66956987D01*
X168764199Y-66855523D01*
X168745427Y-66745102D01*
X168743489Y-66695206D01*
X168743489Y-66607267D01*
X168691560Y-66607267D01*
X168655253Y-66610111D01*
X168628355Y-66621911D01*
X168601249Y-66645649D01*
X168562867Y-66684031D01*
X168562867Y-68875602D01*
X168562876Y-69137739D01*
X168562908Y-69378241D01*
X168562972Y-69598048D01*
X168563076Y-69798101D01*
X168563227Y-69979344D01*
X168563434Y-70142716D01*
X168563706Y-70289160D01*
X168564050Y-70419617D01*
X168564474Y-70535029D01*
X168564987Y-70636338D01*
X168565597Y-70724484D01*
X168566312Y-70800410D01*
X168567140Y-70865057D01*
X168568089Y-70919367D01*
X168569167Y-70964280D01*
X168570383Y-71000740D01*
X168571745Y-71029687D01*
X168573261Y-71052063D01*
X168574938Y-71068809D01*
X168576786Y-71080868D01*
X168578813Y-71089180D01*
X168581025Y-71094687D01*
X168582108Y-71096537D01*
X168586271Y-71103549D01*
X168589805Y-71109996D01*
X168593635Y-71115900D01*
X168598682Y-71121286D01*
X168605871Y-71126178D01*
X168616123Y-71130598D01*
X168630364Y-71134572D01*
X168649514Y-71138121D01*
X168674499Y-71141270D01*
X168706240Y-71144042D01*
X168745662Y-71146461D01*
X168793686Y-71148551D01*
X168851237Y-71150335D01*
X168919237Y-71151837D01*
X168998610Y-71153080D01*
X169090279Y-71154089D01*
X169195166Y-71154885D01*
X169314196Y-71155494D01*
X169448290Y-71155939D01*
X169598373Y-71156243D01*
X169765367Y-71156430D01*
X169950196Y-71156524D01*
X170153783Y-71156548D01*
X170377050Y-71156525D01*
X170620922Y-71156480D01*
X170886321Y-71156437D01*
X170924704Y-71156432D01*
X171191682Y-71156389D01*
X171437002Y-71156318D01*
X171661583Y-71156213D01*
X171866345Y-71156066D01*
X172052206Y-71155869D01*
X172220088Y-71155616D01*
X172370908Y-71155300D01*
X172505587Y-71154913D01*
X172625044Y-71154447D01*
X172730199Y-71153897D01*
X172821971Y-71153253D01*
X172901279Y-71152511D01*
X172969043Y-71151661D01*
X173026182Y-71150697D01*
X173073617Y-71149611D01*
X173112266Y-71148397D01*
X173143049Y-71147047D01*
X173166885Y-71145555D01*
X173184694Y-71143911D01*
X173197395Y-71142111D01*
X173205908Y-71140145D01*
X173210266Y-71138477D01*
X173218728Y-71134906D01*
X173226497Y-71132270D01*
X173233602Y-71129634D01*
X173240073Y-71126062D01*
X173245939Y-71120621D01*
X173251229Y-71112375D01*
X173255974Y-71100390D01*
X173260202Y-71083731D01*
X173263943Y-71061463D01*
X173267227Y-71032652D01*
X173270083Y-70996363D01*
X173272540Y-70951661D01*
X173274629Y-70897611D01*
X173276378Y-70833279D01*
X173277817Y-70757730D01*
X173278976Y-70670030D01*
X173279883Y-70569243D01*
X173280569Y-70454434D01*
X173281063Y-70324670D01*
X173281395Y-70179015D01*
X173281593Y-70016535D01*
X173281687Y-69836295D01*
X173281708Y-69637360D01*
X173281685Y-69418796D01*
X173281646Y-69179668D01*
X173281622Y-68919040D01*
X173281622Y-68876889D01*
X173281636Y-68613992D01*
X173281661Y-68372732D01*
X173281671Y-68152165D01*
X173281642Y-67951352D01*
X173281548Y-67769349D01*
X173281362Y-67605216D01*
X173281059Y-67458011D01*
X173280614Y-67326792D01*
X173280034Y-67216867D01*
X172977197Y-67216867D01*
X172937407Y-67274711D01*
X172926236Y-67290479D01*
X172916166Y-67304441D01*
X172907138Y-67317784D01*
X172899097Y-67331693D01*
X172891986Y-67347356D01*
X172885747Y-67365958D01*
X172880325Y-67388686D01*
X172875662Y-67416727D01*
X172871701Y-67451267D01*
X172868385Y-67493492D01*
X172865659Y-67544589D01*
X172863464Y-67605744D01*
X172861745Y-67678144D01*
X172860444Y-67762975D01*
X172859505Y-67861422D01*
X172858870Y-67974674D01*
X172858484Y-68103916D01*
X172858288Y-68250334D01*
X172858227Y-68415116D01*
X172858243Y-68599447D01*
X172858280Y-68804513D01*
X172858289Y-68927133D01*
X172858265Y-69144082D01*
X172858231Y-69339642D01*
X172858243Y-69514999D01*
X172858358Y-69671341D01*
X172858630Y-69809857D01*
X172859118Y-69931734D01*
X172859876Y-70038160D01*
X172860962Y-70130322D01*
X172862431Y-70209409D01*
X172864340Y-70276608D01*
X172866744Y-70333107D01*
X172869701Y-70380093D01*
X172873266Y-70418755D01*
X172877495Y-70450280D01*
X172882446Y-70475855D01*
X172888173Y-70496670D01*
X172894733Y-70513911D01*
X172902183Y-70528765D01*
X172910579Y-70542422D01*
X172919976Y-70556069D01*
X172930432Y-70570893D01*
X172936523Y-70579783D01*
X172975296Y-70637400D01*
X172443732Y-70637400D01*
X172320483Y-70637365D01*
X172217987Y-70637215D01*
X172134420Y-70636878D01*
X172067956Y-70636286D01*
X172016771Y-70635367D01*
X171979041Y-70634051D01*
X171952940Y-70632269D01*
X171936644Y-70629951D01*
X171928328Y-70627026D01*
X171926168Y-70623424D01*
X171928339Y-70619075D01*
X171929535Y-70617645D01*
X171954685Y-70580573D01*
X171980583Y-70527772D01*
X172004192Y-70465770D01*
X172012461Y-70439357D01*
X172017078Y-70421416D01*
X172020979Y-70400355D01*
X172024248Y-70374089D01*
X172026966Y-70340532D01*
X172029215Y-70297599D01*
X172031077Y-70243204D01*
X172032636Y-70175262D01*
X172033972Y-70091688D01*
X172035169Y-69990395D01*
X172036308Y-69869300D01*
X172036685Y-69824600D01*
X172037702Y-69699449D01*
X172038460Y-69595082D01*
X172038903Y-69509707D01*
X172038970Y-69441533D01*
X172038605Y-69388765D01*
X172037748Y-69349614D01*
X172036341Y-69322285D01*
X172034325Y-69304986D01*
X172031643Y-69295926D01*
X172028236Y-69293312D01*
X172024044Y-69295351D01*
X172019571Y-69299667D01*
X172009216Y-69312602D01*
X171987158Y-69341676D01*
X171954957Y-69384759D01*
X171914174Y-69439718D01*
X171866370Y-69504423D01*
X171813105Y-69576742D01*
X171755940Y-69654544D01*
X171696437Y-69735698D01*
X171636155Y-69818072D01*
X171576655Y-69899536D01*
X171519498Y-69977957D01*
X171466245Y-70051204D01*
X171418457Y-70117147D01*
X171377693Y-70173654D01*
X171345516Y-70218593D01*
X171323485Y-70249834D01*
X171318917Y-70256466D01*
X171295996Y-70293369D01*
X171269188Y-70341359D01*
X171243789Y-70390897D01*
X171240568Y-70397577D01*
X171218890Y-70445772D01*
X171206304Y-70483334D01*
X171200574Y-70519160D01*
X171199456Y-70561200D01*
X171200090Y-70637400D01*
X170045651Y-70637400D01*
X170136815Y-70543669D01*
X170183612Y-70493775D01*
X170233899Y-70437295D01*
X170279944Y-70383026D01*
X170300369Y-70357673D01*
X170330807Y-70318128D01*
X170370862Y-70264916D01*
X170419361Y-70199667D01*
X170475135Y-70124011D01*
X170537011Y-70039577D01*
X170603819Y-69947994D01*
X170674387Y-69850892D01*
X170747545Y-69749901D01*
X170822121Y-69646650D01*
X170896944Y-69542768D01*
X170970843Y-69439885D01*
X171042646Y-69339631D01*
X171111184Y-69243636D01*
X171175284Y-69153527D01*
X171233775Y-69070936D01*
X171285486Y-68997492D01*
X171329247Y-68934824D01*
X171363885Y-68884561D01*
X171388230Y-68848334D01*
X171401111Y-68827771D01*
X171402869Y-68823668D01*
X171394910Y-68812342D01*
X171374115Y-68785162D01*
X171341847Y-68743829D01*
X171299470Y-68690044D01*
X171248347Y-68625506D01*
X171189841Y-68551918D01*
X171125314Y-68470978D01*
X171056131Y-68384388D01*
X170983653Y-68293848D01*
X170909246Y-68201060D01*
X170849517Y-68126702D01*
X169838511Y-68126702D01*
X169832602Y-68139659D01*
X169818272Y-68161908D01*
X169817225Y-68163391D01*
X169798438Y-68193544D01*
X169778791Y-68230375D01*
X169774892Y-68238511D01*
X169771356Y-68246940D01*
X169768230Y-68257059D01*
X169765486Y-68270260D01*
X169763092Y-68287938D01*
X169761019Y-68311484D01*
X169759235Y-68342293D01*
X169757712Y-68381757D01*
X169756419Y-68431269D01*
X169755326Y-68492223D01*
X169754403Y-68566011D01*
X169753619Y-68654028D01*
X169752945Y-68757665D01*
X169752350Y-68878316D01*
X169751805Y-69017374D01*
X169751279Y-69176232D01*
X169750745Y-69355089D01*
X169750206Y-69540207D01*
X169749772Y-69704145D01*
X169749509Y-69848303D01*
X169749484Y-69974079D01*
X169749765Y-70082871D01*
X169750419Y-70176077D01*
X169751514Y-70255097D01*
X169753118Y-70321328D01*
X169755297Y-70376170D01*
X169758119Y-70421021D01*
X169761651Y-70457278D01*
X169765961Y-70486341D01*
X169771117Y-70509609D01*
X169777185Y-70528479D01*
X169784233Y-70544351D01*
X169792329Y-70558622D01*
X169801540Y-70572691D01*
X169810040Y-70585158D01*
X169827176Y-70611452D01*
X169837322Y-70629037D01*
X169838511Y-70632257D01*
X169827604Y-70633334D01*
X169796411Y-70634335D01*
X169747223Y-70635235D01*
X169682333Y-70636010D01*
X169604030Y-70636637D01*
X169514607Y-70637091D01*
X169416356Y-70637349D01*
X169347445Y-70637400D01*
X169242452Y-70637180D01*
X169145610Y-70636548D01*
X169059107Y-70635549D01*
X168985132Y-70634227D01*
X168925874Y-70632626D01*
X168883520Y-70630791D01*
X168860260Y-70628765D01*
X168856378Y-70627493D01*
X168864076Y-70612591D01*
X168872074Y-70604560D01*
X168885246Y-70587434D01*
X168902485Y-70557183D01*
X168914407Y-70532622D01*
X168941045Y-70473711D01*
X168944120Y-69296845D01*
X168947195Y-68119978D01*
X169392853Y-68119978D01*
X169490670Y-68120142D01*
X169581064Y-68120611D01*
X169661630Y-68121347D01*
X169729962Y-68122316D01*
X169783656Y-68123480D01*
X169820305Y-68124803D01*
X169837504Y-68126249D01*
X169838511Y-68126702D01*
X170849517Y-68126702D01*
X170834270Y-68107722D01*
X170760090Y-68015537D01*
X170688069Y-67926204D01*
X170619569Y-67841424D01*
X170555955Y-67762898D01*
X170498588Y-67692326D01*
X170448833Y-67631409D01*
X170408052Y-67581847D01*
X170390888Y-67561178D01*
X170304596Y-67460516D01*
X170227997Y-67377259D01*
X170159183Y-67309438D01*
X170096248Y-67255089D01*
X170086867Y-67247722D01*
X170047356Y-67217117D01*
X171179116Y-67216867D01*
X171173827Y-67264844D01*
X171177130Y-67322188D01*
X171198661Y-67390463D01*
X171238635Y-67470212D01*
X171283943Y-67542495D01*
X171300161Y-67565140D01*
X171328214Y-67602696D01*
X171366430Y-67653021D01*
X171413137Y-67713973D01*
X171466661Y-67783411D01*
X171525331Y-67859194D01*
X171587475Y-67939180D01*
X171651421Y-68021228D01*
X171715495Y-68103196D01*
X171778027Y-68182943D01*
X171837343Y-68258327D01*
X171891771Y-68327207D01*
X171939639Y-68387442D01*
X171979275Y-68436889D01*
X172009006Y-68473408D01*
X172027161Y-68494858D01*
X172030220Y-68498156D01*
X172033079Y-68490149D01*
X172035293Y-68459855D01*
X172036857Y-68407556D01*
X172037767Y-68333531D01*
X172038020Y-68238063D01*
X172037613Y-68121434D01*
X172036704Y-68001445D01*
X172035382Y-67869333D01*
X172033857Y-67757594D01*
X172031881Y-67664025D01*
X172029206Y-67586419D01*
X172025582Y-67522574D01*
X172020761Y-67470283D01*
X172014494Y-67427344D01*
X172006532Y-67391551D01*
X171996627Y-67360700D01*
X171984531Y-67332586D01*
X171969993Y-67305005D01*
X171955311Y-67279966D01*
X171917314Y-67216867D01*
X172977197Y-67216867D01*
X173280034Y-67216867D01*
X173280001Y-67210617D01*
X173279195Y-67108544D01*
X173278170Y-67019633D01*
X173276900Y-66942941D01*
X173275360Y-66877527D01*
X173273524Y-66822449D01*
X173271367Y-66776765D01*
X173268863Y-66739534D01*
X173265987Y-66709813D01*
X173262713Y-66686662D01*
X173259015Y-66669139D01*
X173254869Y-66656301D01*
X173250247Y-66647208D01*
X173245126Y-66640918D01*
X173239478Y-66636488D01*
X173233279Y-66632978D01*
X173226504Y-66629445D01*
X173220508Y-66625876D01*
X173215275Y-66623300D01*
X173207099Y-66620972D01*
X173194886Y-66618878D01*
X173177541Y-66617007D01*
X173153969Y-66615347D01*
X173123077Y-66613884D01*
X173083768Y-66612608D01*
X173034950Y-66611504D01*
X172975527Y-66610561D01*
X172904404Y-66609767D01*
X172820488Y-66609109D01*
X172722683Y-66608575D01*
X172609894Y-66608153D01*
X172481029Y-66607829D01*
X172334991Y-66607592D01*
X172170686Y-66607430D01*
X171987020Y-66607330D01*
X171782897Y-66607280D01*
X171571753Y-66607267D01*
X169951400Y-66607267D01*
X169951400Y-66704054D01*
G36*
X166676571Y-67164071D02*
X166516430Y-67185245D01*
X166352490Y-67225385D01*
X166182687Y-67284889D01*
X166004957Y-67364154D01*
X165993690Y-67369699D01*
X165935995Y-67397725D01*
X165884448Y-67421802D01*
X165842809Y-67440249D01*
X165814838Y-67451386D01*
X165805267Y-67453933D01*
X165786050Y-67458941D01*
X165781439Y-67463147D01*
X165786542Y-67473580D01*
X165802582Y-67499868D01*
X165827712Y-67539257D01*
X165860086Y-67588991D01*
X165897857Y-67646315D01*
X165939178Y-67708476D01*
X165982202Y-67772718D01*
X166025083Y-67836285D01*
X166065974Y-67896425D01*
X166103029Y-67950380D01*
X166134400Y-67995397D01*
X166158241Y-68028721D01*
X166172706Y-68047597D01*
X166174691Y-68049787D01*
X166184809Y-68045138D01*
X166207150Y-68027962D01*
X166237720Y-68001440D01*
X166253464Y-67986964D01*
X166349953Y-67911682D01*
X166456664Y-67856241D01*
X166572168Y-67821141D01*
X166695038Y-67806880D01*
X166764439Y-67808051D01*
X166885577Y-67825212D01*
X166994795Y-67861094D01*
X167092418Y-67915959D01*
X167178772Y-67990070D01*
X167254185Y-68083688D01*
X167318982Y-68197076D01*
X167356399Y-68283667D01*
X167400252Y-68419366D01*
X167432572Y-68566850D01*
X167453443Y-68722314D01*
X167462949Y-68881956D01*
X167461173Y-69041973D01*
X167448197Y-69198561D01*
X167424106Y-69347918D01*
X167388982Y-69486240D01*
X167342908Y-69609724D01*
X167326627Y-69643978D01*
X167258380Y-69758064D01*
X167177921Y-69854557D01*
X167086430Y-69932670D01*
X166985089Y-69991617D01*
X166875080Y-70030612D01*
X166757585Y-70048868D01*
X166716117Y-70050211D01*
X166594559Y-70039290D01*
X166474122Y-70006474D01*
X166356334Y-69952439D01*
X166242723Y-69877865D01*
X166151315Y-69799539D01*
X166104785Y-69755008D01*
X165923517Y-70052271D01*
X165878420Y-70126433D01*
X165837181Y-70194646D01*
X165801265Y-70254459D01*
X165772134Y-70303420D01*
X165751250Y-70339079D01*
X165740076Y-70358984D01*
X165738625Y-70362079D01*
X165746854Y-70371718D01*
X165772433Y-70388999D01*
X165812127Y-70412283D01*
X165862703Y-70439934D01*
X165920926Y-70470315D01*
X165983563Y-70501790D01*
X166047379Y-70532722D01*
X166109140Y-70561473D01*
X166165612Y-70586408D01*
X166213562Y-70605889D01*
X166237014Y-70614318D01*
X166370779Y-70652133D01*
X166508673Y-70677136D01*
X166656378Y-70690140D01*
X166783167Y-70692468D01*
X166851122Y-70691373D01*
X166916723Y-70689275D01*
X166974153Y-70686434D01*
X167017597Y-70683106D01*
X167031702Y-70681422D01*
X167170716Y-70652587D01*
X167312243Y-70607468D01*
X167449725Y-70548750D01*
X167576606Y-70479120D01*
X167654111Y-70426441D01*
X167781519Y-70318239D01*
X167899822Y-70191671D01*
X168006828Y-70049866D01*
X168100348Y-69895951D01*
X168178190Y-69733053D01*
X168222044Y-69615756D01*
X168272292Y-69432128D01*
X168305791Y-69237581D01*
X168322551Y-69036325D01*
X168322584Y-68832568D01*
X168305899Y-68630521D01*
X168272507Y-68434392D01*
X168222420Y-68248391D01*
X168218603Y-68236803D01*
X168155719Y-68074750D01*
X168078972Y-67926832D01*
X167985758Y-67788865D01*
X167873473Y-67656661D01*
X167829608Y-67611399D01*
X167693466Y-67487457D01*
X167553509Y-67384915D01*
X167407589Y-67302656D01*
X167253558Y-67239564D01*
X167089268Y-67194523D01*
X166993711Y-67177033D01*
X166834977Y-67161466D01*
X166676571Y-67164071D01*
X166676571Y-67164071D01*
G37*
X166676571Y-67164071D02*
X166516430Y-67185245D01*
X166352490Y-67225385D01*
X166182687Y-67284889D01*
X166004957Y-67364154D01*
X165993690Y-67369699D01*
X165935995Y-67397725D01*
X165884448Y-67421802D01*
X165842809Y-67440249D01*
X165814838Y-67451386D01*
X165805267Y-67453933D01*
X165786050Y-67458941D01*
X165781439Y-67463147D01*
X165786542Y-67473580D01*
X165802582Y-67499868D01*
X165827712Y-67539257D01*
X165860086Y-67588991D01*
X165897857Y-67646315D01*
X165939178Y-67708476D01*
X165982202Y-67772718D01*
X166025083Y-67836285D01*
X166065974Y-67896425D01*
X166103029Y-67950380D01*
X166134400Y-67995397D01*
X166158241Y-68028721D01*
X166172706Y-68047597D01*
X166174691Y-68049787D01*
X166184809Y-68045138D01*
X166207150Y-68027962D01*
X166237720Y-68001440D01*
X166253464Y-67986964D01*
X166349953Y-67911682D01*
X166456664Y-67856241D01*
X166572168Y-67821141D01*
X166695038Y-67806880D01*
X166764439Y-67808051D01*
X166885577Y-67825212D01*
X166994795Y-67861094D01*
X167092418Y-67915959D01*
X167178772Y-67990070D01*
X167254185Y-68083688D01*
X167318982Y-68197076D01*
X167356399Y-68283667D01*
X167400252Y-68419366D01*
X167432572Y-68566850D01*
X167453443Y-68722314D01*
X167462949Y-68881956D01*
X167461173Y-69041973D01*
X167448197Y-69198561D01*
X167424106Y-69347918D01*
X167388982Y-69486240D01*
X167342908Y-69609724D01*
X167326627Y-69643978D01*
X167258380Y-69758064D01*
X167177921Y-69854557D01*
X167086430Y-69932670D01*
X166985089Y-69991617D01*
X166875080Y-70030612D01*
X166757585Y-70048868D01*
X166716117Y-70050211D01*
X166594559Y-70039290D01*
X166474122Y-70006474D01*
X166356334Y-69952439D01*
X166242723Y-69877865D01*
X166151315Y-69799539D01*
X166104785Y-69755008D01*
X165923517Y-70052271D01*
X165878420Y-70126433D01*
X165837181Y-70194646D01*
X165801265Y-70254459D01*
X165772134Y-70303420D01*
X165751250Y-70339079D01*
X165740076Y-70358984D01*
X165738625Y-70362079D01*
X165746854Y-70371718D01*
X165772433Y-70388999D01*
X165812127Y-70412283D01*
X165862703Y-70439934D01*
X165920926Y-70470315D01*
X165983563Y-70501790D01*
X166047379Y-70532722D01*
X166109140Y-70561473D01*
X166165612Y-70586408D01*
X166213562Y-70605889D01*
X166237014Y-70614318D01*
X166370779Y-70652133D01*
X166508673Y-70677136D01*
X166656378Y-70690140D01*
X166783167Y-70692468D01*
X166851122Y-70691373D01*
X166916723Y-70689275D01*
X166974153Y-70686434D01*
X167017597Y-70683106D01*
X167031702Y-70681422D01*
X167170716Y-70652587D01*
X167312243Y-70607468D01*
X167449725Y-70548750D01*
X167576606Y-70479120D01*
X167654111Y-70426441D01*
X167781519Y-70318239D01*
X167899822Y-70191671D01*
X168006828Y-70049866D01*
X168100348Y-69895951D01*
X168178190Y-69733053D01*
X168222044Y-69615756D01*
X168272292Y-69432128D01*
X168305791Y-69237581D01*
X168322551Y-69036325D01*
X168322584Y-68832568D01*
X168305899Y-68630521D01*
X168272507Y-68434392D01*
X168222420Y-68248391D01*
X168218603Y-68236803D01*
X168155719Y-68074750D01*
X168078972Y-67926832D01*
X167985758Y-67788865D01*
X167873473Y-67656661D01*
X167829608Y-67611399D01*
X167693466Y-67487457D01*
X167553509Y-67384915D01*
X167407589Y-67302656D01*
X167253558Y-67239564D01*
X167089268Y-67194523D01*
X166993711Y-67177033D01*
X166834977Y-67161466D01*
X166676571Y-67164071D01*
G36*
X164331426Y-68081552D02*
X164179508Y-68101567D01*
X164044244Y-68135202D01*
X163924761Y-68182725D01*
X163820185Y-68244405D01*
X163742576Y-68307965D01*
X163673735Y-68382099D01*
X163619994Y-68461871D01*
X163577090Y-68554091D01*
X163561616Y-68597161D01*
X163548756Y-68636142D01*
X163537554Y-68672289D01*
X163527880Y-68707434D01*
X163519604Y-68743410D01*
X163512597Y-68782050D01*
X163506728Y-68825185D01*
X163501869Y-68874649D01*
X163497890Y-68932273D01*
X163494660Y-68999891D01*
X163492051Y-69079334D01*
X163489933Y-69172436D01*
X163488176Y-69281027D01*
X163486651Y-69406942D01*
X163485228Y-69552012D01*
X163483975Y-69694778D01*
X163482649Y-69850968D01*
X163481444Y-69986239D01*
X163480234Y-70102246D01*
X163478894Y-70200645D01*
X163477300Y-70283093D01*
X163475325Y-70351246D01*
X163472844Y-70406760D01*
X163469731Y-70451292D01*
X163465862Y-70486498D01*
X163461111Y-70514034D01*
X163455352Y-70535556D01*
X163448461Y-70552722D01*
X163440311Y-70567186D01*
X163430777Y-70580606D01*
X163419734Y-70594638D01*
X163415434Y-70600071D01*
X163399614Y-70622910D01*
X163392578Y-70638463D01*
X163392556Y-70638922D01*
X163403433Y-70641121D01*
X163434418Y-70643147D01*
X163483043Y-70644942D01*
X163546837Y-70646451D01*
X163623331Y-70647616D01*
X163710056Y-70648380D01*
X163804543Y-70648686D01*
X163815450Y-70648689D01*
X164238343Y-70648689D01*
X164241605Y-70552622D01*
X164244867Y-70456556D01*
X164306956Y-70507543D01*
X164404286Y-70575057D01*
X164514187Y-70629749D01*
X164600651Y-70659978D01*
X164669722Y-70674666D01*
X164753075Y-70684659D01*
X164842841Y-70689646D01*
X164931155Y-70689313D01*
X165010149Y-70683351D01*
X165046378Y-70677638D01*
X165186397Y-70639776D01*
X165312822Y-70584932D01*
X165424740Y-70513924D01*
X165521238Y-70427568D01*
X165601400Y-70326679D01*
X165664313Y-70212076D01*
X165708688Y-70085984D01*
X165721022Y-70029401D01*
X165728632Y-69967202D01*
X165732261Y-69892363D01*
X165732755Y-69858467D01*
X165732690Y-69855282D01*
X164972752Y-69855282D01*
X164963459Y-69930333D01*
X164935272Y-69994160D01*
X164886803Y-70049798D01*
X164881746Y-70054211D01*
X164833452Y-70089037D01*
X164781743Y-70111620D01*
X164721011Y-70123540D01*
X164645648Y-70126383D01*
X164627541Y-70125978D01*
X164573722Y-70123325D01*
X164533692Y-70117909D01*
X164498676Y-70107745D01*
X164459897Y-70090850D01*
X164449255Y-70085672D01*
X164388604Y-70049844D01*
X164341785Y-70007212D01*
X164329048Y-69991973D01*
X164284378Y-69935462D01*
X164284378Y-69739586D01*
X164284914Y-69660939D01*
X164286604Y-69602988D01*
X164289572Y-69563875D01*
X164293943Y-69541741D01*
X164298028Y-69535274D01*
X164313953Y-69532111D01*
X164347736Y-69529488D01*
X164394660Y-69527655D01*
X164450007Y-69526857D01*
X164458894Y-69526842D01*
X164579670Y-69532096D01*
X164682340Y-69548263D01*
X164768894Y-69575961D01*
X164841319Y-69615808D01*
X164896249Y-69662758D01*
X164940796Y-69720645D01*
X164965520Y-69783693D01*
X164972752Y-69855282D01*
X165732690Y-69855282D01*
X165730822Y-69764712D01*
X165722478Y-69685812D01*
X165706232Y-69614590D01*
X165680595Y-69543864D01*
X165656599Y-69491493D01*
X165597980Y-69396196D01*
X165519883Y-69308170D01*
X165424685Y-69229017D01*
X165314762Y-69160340D01*
X165192490Y-69103741D01*
X165060245Y-69060821D01*
X164995578Y-69045882D01*
X164859396Y-69023777D01*
X164710951Y-69009194D01*
X164559495Y-69002813D01*
X164432936Y-69004445D01*
X164271050Y-69011224D01*
X164278470Y-68952245D01*
X164297762Y-68853092D01*
X164328896Y-68772372D01*
X164372731Y-68709466D01*
X164430129Y-68663756D01*
X164501952Y-68634622D01*
X164589059Y-68621447D01*
X164692314Y-68623611D01*
X164730289Y-68627612D01*
X164871480Y-68652780D01*
X165008293Y-68693814D01*
X165102822Y-68731815D01*
X165147982Y-68751190D01*
X165186415Y-68766760D01*
X165212766Y-68776405D01*
X165220454Y-68778452D01*
X165230198Y-68769374D01*
X165246917Y-68740405D01*
X165270768Y-68691217D01*
X165301907Y-68621484D01*
X165340493Y-68530879D01*
X165347090Y-68515089D01*
X165377147Y-68442772D01*
X165404126Y-68377425D01*
X165426864Y-68321906D01*
X165444194Y-68279072D01*
X165454952Y-68251781D01*
X165458059Y-68242942D01*
X165448060Y-68238187D01*
X165421783Y-68232910D01*
X165393511Y-68229231D01*
X165363354Y-68224474D01*
X165315567Y-68215028D01*
X165254388Y-68201820D01*
X165184054Y-68185776D01*
X165108806Y-68167820D01*
X165080245Y-68160797D01*
X164975184Y-68135209D01*
X164887520Y-68115147D01*
X164812932Y-68099969D01*
X164747097Y-68089035D01*
X164685693Y-68081704D01*
X164624398Y-68077335D01*
X164558890Y-68075287D01*
X164500872Y-68074889D01*
X164331426Y-68081552D01*
X164331426Y-68081552D01*
G37*
X164331426Y-68081552D02*
X164179508Y-68101567D01*
X164044244Y-68135202D01*
X163924761Y-68182725D01*
X163820185Y-68244405D01*
X163742576Y-68307965D01*
X163673735Y-68382099D01*
X163619994Y-68461871D01*
X163577090Y-68554091D01*
X163561616Y-68597161D01*
X163548756Y-68636142D01*
X163537554Y-68672289D01*
X163527880Y-68707434D01*
X163519604Y-68743410D01*
X163512597Y-68782050D01*
X163506728Y-68825185D01*
X163501869Y-68874649D01*
X163497890Y-68932273D01*
X163494660Y-68999891D01*
X163492051Y-69079334D01*
X163489933Y-69172436D01*
X163488176Y-69281027D01*
X163486651Y-69406942D01*
X163485228Y-69552012D01*
X163483975Y-69694778D01*
X163482649Y-69850968D01*
X163481444Y-69986239D01*
X163480234Y-70102246D01*
X163478894Y-70200645D01*
X163477300Y-70283093D01*
X163475325Y-70351246D01*
X163472844Y-70406760D01*
X163469731Y-70451292D01*
X163465862Y-70486498D01*
X163461111Y-70514034D01*
X163455352Y-70535556D01*
X163448461Y-70552722D01*
X163440311Y-70567186D01*
X163430777Y-70580606D01*
X163419734Y-70594638D01*
X163415434Y-70600071D01*
X163399614Y-70622910D01*
X163392578Y-70638463D01*
X163392556Y-70638922D01*
X163403433Y-70641121D01*
X163434418Y-70643147D01*
X163483043Y-70644942D01*
X163546837Y-70646451D01*
X163623331Y-70647616D01*
X163710056Y-70648380D01*
X163804543Y-70648686D01*
X163815450Y-70648689D01*
X164238343Y-70648689D01*
X164241605Y-70552622D01*
X164244867Y-70456556D01*
X164306956Y-70507543D01*
X164404286Y-70575057D01*
X164514187Y-70629749D01*
X164600651Y-70659978D01*
X164669722Y-70674666D01*
X164753075Y-70684659D01*
X164842841Y-70689646D01*
X164931155Y-70689313D01*
X165010149Y-70683351D01*
X165046378Y-70677638D01*
X165186397Y-70639776D01*
X165312822Y-70584932D01*
X165424740Y-70513924D01*
X165521238Y-70427568D01*
X165601400Y-70326679D01*
X165664313Y-70212076D01*
X165708688Y-70085984D01*
X165721022Y-70029401D01*
X165728632Y-69967202D01*
X165732261Y-69892363D01*
X165732755Y-69858467D01*
X165732690Y-69855282D01*
X164972752Y-69855282D01*
X164963459Y-69930333D01*
X164935272Y-69994160D01*
X164886803Y-70049798D01*
X164881746Y-70054211D01*
X164833452Y-70089037D01*
X164781743Y-70111620D01*
X164721011Y-70123540D01*
X164645648Y-70126383D01*
X164627541Y-70125978D01*
X164573722Y-70123325D01*
X164533692Y-70117909D01*
X164498676Y-70107745D01*
X164459897Y-70090850D01*
X164449255Y-70085672D01*
X164388604Y-70049844D01*
X164341785Y-70007212D01*
X164329048Y-69991973D01*
X164284378Y-69935462D01*
X164284378Y-69739586D01*
X164284914Y-69660939D01*
X164286604Y-69602988D01*
X164289572Y-69563875D01*
X164293943Y-69541741D01*
X164298028Y-69535274D01*
X164313953Y-69532111D01*
X164347736Y-69529488D01*
X164394660Y-69527655D01*
X164450007Y-69526857D01*
X164458894Y-69526842D01*
X164579670Y-69532096D01*
X164682340Y-69548263D01*
X164768894Y-69575961D01*
X164841319Y-69615808D01*
X164896249Y-69662758D01*
X164940796Y-69720645D01*
X164965520Y-69783693D01*
X164972752Y-69855282D01*
X165732690Y-69855282D01*
X165730822Y-69764712D01*
X165722478Y-69685812D01*
X165706232Y-69614590D01*
X165680595Y-69543864D01*
X165656599Y-69491493D01*
X165597980Y-69396196D01*
X165519883Y-69308170D01*
X165424685Y-69229017D01*
X165314762Y-69160340D01*
X165192490Y-69103741D01*
X165060245Y-69060821D01*
X164995578Y-69045882D01*
X164859396Y-69023777D01*
X164710951Y-69009194D01*
X164559495Y-69002813D01*
X164432936Y-69004445D01*
X164271050Y-69011224D01*
X164278470Y-68952245D01*
X164297762Y-68853092D01*
X164328896Y-68772372D01*
X164372731Y-68709466D01*
X164430129Y-68663756D01*
X164501952Y-68634622D01*
X164589059Y-68621447D01*
X164692314Y-68623611D01*
X164730289Y-68627612D01*
X164871480Y-68652780D01*
X165008293Y-68693814D01*
X165102822Y-68731815D01*
X165147982Y-68751190D01*
X165186415Y-68766760D01*
X165212766Y-68776405D01*
X165220454Y-68778452D01*
X165230198Y-68769374D01*
X165246917Y-68740405D01*
X165270768Y-68691217D01*
X165301907Y-68621484D01*
X165340493Y-68530879D01*
X165347090Y-68515089D01*
X165377147Y-68442772D01*
X165404126Y-68377425D01*
X165426864Y-68321906D01*
X165444194Y-68279072D01*
X165454952Y-68251781D01*
X165458059Y-68242942D01*
X165448060Y-68238187D01*
X165421783Y-68232910D01*
X165393511Y-68229231D01*
X165363354Y-68224474D01*
X165315567Y-68215028D01*
X165254388Y-68201820D01*
X165184054Y-68185776D01*
X165108806Y-68167820D01*
X165080245Y-68160797D01*
X164975184Y-68135209D01*
X164887520Y-68115147D01*
X164812932Y-68099969D01*
X164747097Y-68089035D01*
X164685693Y-68081704D01*
X164624398Y-68077335D01*
X164558890Y-68075287D01*
X164500872Y-68074889D01*
X164331426Y-68081552D01*
G36*
X160818493Y-68687245D02*
X160818474Y-68921662D01*
X160818448Y-69134603D01*
X160818375Y-69327168D01*
X160818218Y-69500459D01*
X160817936Y-69655576D01*
X160817491Y-69793620D01*
X160816844Y-69915692D01*
X160815955Y-70022894D01*
X160814787Y-70116326D01*
X160813299Y-70197090D01*
X160811454Y-70266286D01*
X160809211Y-70325015D01*
X160806531Y-70374379D01*
X160803377Y-70415478D01*
X160799708Y-70449413D01*
X160795487Y-70477286D01*
X160790673Y-70500198D01*
X160785227Y-70519249D01*
X160779112Y-70535540D01*
X160772288Y-70550173D01*
X160764715Y-70564249D01*
X160756355Y-70578868D01*
X160751161Y-70587974D01*
X160716896Y-70648689D01*
X161575045Y-70648689D01*
X161575045Y-70552733D01*
X161575776Y-70509370D01*
X161577728Y-70476205D01*
X161580537Y-70458424D01*
X161581779Y-70456778D01*
X161593201Y-70463662D01*
X161615916Y-70481505D01*
X161638615Y-70500879D01*
X161693200Y-70541614D01*
X161762679Y-70582617D01*
X161839730Y-70620123D01*
X161917035Y-70650364D01*
X161947887Y-70660012D01*
X162016384Y-70674578D01*
X162099236Y-70684539D01*
X162188629Y-70689583D01*
X162276752Y-70689396D01*
X162355793Y-70683666D01*
X162393489Y-70677858D01*
X162531586Y-70639797D01*
X162658887Y-70582073D01*
X162774708Y-70505211D01*
X162878363Y-70409739D01*
X162969167Y-70296179D01*
X163035969Y-70185381D01*
X163090836Y-70068625D01*
X163132837Y-69949276D01*
X163162833Y-69823283D01*
X163181689Y-69686594D01*
X163190268Y-69535158D01*
X163190994Y-69457711D01*
X163188900Y-69400934D01*
X162359783Y-69400934D01*
X162359576Y-69494002D01*
X162356663Y-69581692D01*
X162351000Y-69658772D01*
X162342545Y-69720009D01*
X162339962Y-69732350D01*
X162308160Y-69839633D01*
X162266502Y-69926658D01*
X162214637Y-69993642D01*
X162152219Y-70040805D01*
X162078900Y-70068365D01*
X161994331Y-70076541D01*
X161898165Y-70065551D01*
X161834689Y-70049829D01*
X161785546Y-70031639D01*
X161731417Y-70005791D01*
X161690756Y-69982089D01*
X161620200Y-69935721D01*
X161620200Y-68785530D01*
X161687608Y-68741962D01*
X161766133Y-68701040D01*
X161850319Y-68674389D01*
X161935443Y-68662465D01*
X162016784Y-68665722D01*
X162089620Y-68684615D01*
X162121574Y-68700184D01*
X162179499Y-68743181D01*
X162228456Y-68799953D01*
X162269610Y-68872575D01*
X162304126Y-68963121D01*
X162333167Y-69073666D01*
X162334448Y-69079533D01*
X162344619Y-69141788D01*
X162352261Y-69219594D01*
X162357330Y-69307720D01*
X162359783Y-69400934D01*
X163188900Y-69400934D01*
X163183143Y-69244895D01*
X163161198Y-69049059D01*
X163125214Y-68870332D01*
X163075241Y-68708845D01*
X163011332Y-68564726D01*
X162933538Y-68438106D01*
X162841911Y-68329115D01*
X162736503Y-68237883D01*
X162691338Y-68206932D01*
X162590389Y-68150785D01*
X162487099Y-68111174D01*
X162377011Y-68087014D01*
X162255670Y-68077219D01*
X162163164Y-68078265D01*
X162033510Y-68089231D01*
X161920916Y-68111046D01*
X161822125Y-68144714D01*
X161733879Y-68191236D01*
X161685014Y-68225448D01*
X161655647Y-68247362D01*
X161633957Y-68262333D01*
X161625747Y-68266733D01*
X161624132Y-68255904D01*
X161622841Y-68225251D01*
X161621862Y-68177526D01*
X161621183Y-68115479D01*
X161620790Y-68041862D01*
X161620670Y-67959427D01*
X161620812Y-67870925D01*
X161621203Y-67779107D01*
X161621829Y-67686724D01*
X161622680Y-67596528D01*
X161623740Y-67511271D01*
X161624999Y-67433703D01*
X161626444Y-67366576D01*
X161628062Y-67312641D01*
X161629839Y-67274650D01*
X161630331Y-67267667D01*
X161637908Y-67197251D01*
X161649469Y-67142102D01*
X161667208Y-67094981D01*
X161693318Y-67048647D01*
X161699585Y-67039067D01*
X161724017Y-67002378D01*
X160818689Y-67002378D01*
X160818493Y-68687245D01*
X160818493Y-68687245D01*
G37*
X160818493Y-68687245D02*
X160818474Y-68921662D01*
X160818448Y-69134603D01*
X160818375Y-69327168D01*
X160818218Y-69500459D01*
X160817936Y-69655576D01*
X160817491Y-69793620D01*
X160816844Y-69915692D01*
X160815955Y-70022894D01*
X160814787Y-70116326D01*
X160813299Y-70197090D01*
X160811454Y-70266286D01*
X160809211Y-70325015D01*
X160806531Y-70374379D01*
X160803377Y-70415478D01*
X160799708Y-70449413D01*
X160795487Y-70477286D01*
X160790673Y-70500198D01*
X160785227Y-70519249D01*
X160779112Y-70535540D01*
X160772288Y-70550173D01*
X160764715Y-70564249D01*
X160756355Y-70578868D01*
X160751161Y-70587974D01*
X160716896Y-70648689D01*
X161575045Y-70648689D01*
X161575045Y-70552733D01*
X161575776Y-70509370D01*
X161577728Y-70476205D01*
X161580537Y-70458424D01*
X161581779Y-70456778D01*
X161593201Y-70463662D01*
X161615916Y-70481505D01*
X161638615Y-70500879D01*
X161693200Y-70541614D01*
X161762679Y-70582617D01*
X161839730Y-70620123D01*
X161917035Y-70650364D01*
X161947887Y-70660012D01*
X162016384Y-70674578D01*
X162099236Y-70684539D01*
X162188629Y-70689583D01*
X162276752Y-70689396D01*
X162355793Y-70683666D01*
X162393489Y-70677858D01*
X162531586Y-70639797D01*
X162658887Y-70582073D01*
X162774708Y-70505211D01*
X162878363Y-70409739D01*
X162969167Y-70296179D01*
X163035969Y-70185381D01*
X163090836Y-70068625D01*
X163132837Y-69949276D01*
X163162833Y-69823283D01*
X163181689Y-69686594D01*
X163190268Y-69535158D01*
X163190994Y-69457711D01*
X163188900Y-69400934D01*
X162359783Y-69400934D01*
X162359576Y-69494002D01*
X162356663Y-69581692D01*
X162351000Y-69658772D01*
X162342545Y-69720009D01*
X162339962Y-69732350D01*
X162308160Y-69839633D01*
X162266502Y-69926658D01*
X162214637Y-69993642D01*
X162152219Y-70040805D01*
X162078900Y-70068365D01*
X161994331Y-70076541D01*
X161898165Y-70065551D01*
X161834689Y-70049829D01*
X161785546Y-70031639D01*
X161731417Y-70005791D01*
X161690756Y-69982089D01*
X161620200Y-69935721D01*
X161620200Y-68785530D01*
X161687608Y-68741962D01*
X161766133Y-68701040D01*
X161850319Y-68674389D01*
X161935443Y-68662465D01*
X162016784Y-68665722D01*
X162089620Y-68684615D01*
X162121574Y-68700184D01*
X162179499Y-68743181D01*
X162228456Y-68799953D01*
X162269610Y-68872575D01*
X162304126Y-68963121D01*
X162333167Y-69073666D01*
X162334448Y-69079533D01*
X162344619Y-69141788D01*
X162352261Y-69219594D01*
X162357330Y-69307720D01*
X162359783Y-69400934D01*
X163188900Y-69400934D01*
X163183143Y-69244895D01*
X163161198Y-69049059D01*
X163125214Y-68870332D01*
X163075241Y-68708845D01*
X163011332Y-68564726D01*
X162933538Y-68438106D01*
X162841911Y-68329115D01*
X162736503Y-68237883D01*
X162691338Y-68206932D01*
X162590389Y-68150785D01*
X162487099Y-68111174D01*
X162377011Y-68087014D01*
X162255670Y-68077219D01*
X162163164Y-68078265D01*
X162033510Y-68089231D01*
X161920916Y-68111046D01*
X161822125Y-68144714D01*
X161733879Y-68191236D01*
X161685014Y-68225448D01*
X161655647Y-68247362D01*
X161633957Y-68262333D01*
X161625747Y-68266733D01*
X161624132Y-68255904D01*
X161622841Y-68225251D01*
X161621862Y-68177526D01*
X161621183Y-68115479D01*
X161620790Y-68041862D01*
X161620670Y-67959427D01*
X161620812Y-67870925D01*
X161621203Y-67779107D01*
X161621829Y-67686724D01*
X161622680Y-67596528D01*
X161623740Y-67511271D01*
X161624999Y-67433703D01*
X161626444Y-67366576D01*
X161628062Y-67312641D01*
X161629839Y-67274650D01*
X161630331Y-67267667D01*
X161637908Y-67197251D01*
X161649469Y-67142102D01*
X161667208Y-67094981D01*
X161693318Y-67048647D01*
X161699585Y-67039067D01*
X161724017Y-67002378D01*
X160818689Y-67002378D01*
X160818493Y-68687245D01*
G36*
X169278043Y-66241571D02*
X169181768Y-66265809D01*
X169095184Y-66308641D01*
X169020373Y-66368419D01*
X168959418Y-66443494D01*
X168914399Y-66532220D01*
X168888136Y-66628530D01*
X168882286Y-66725795D01*
X168897140Y-66819654D01*
X168930840Y-66907511D01*
X168981528Y-66986770D01*
X169047345Y-67054836D01*
X169126434Y-67109112D01*
X169216934Y-67147002D01*
X169268200Y-67159426D01*
X169312698Y-67166947D01*
X169346999Y-67169919D01*
X169379960Y-67168094D01*
X169420434Y-67161225D01*
X169453531Y-67154250D01*
X169546947Y-67122741D01*
X169630619Y-67071617D01*
X169702665Y-67002429D01*
X169761200Y-66916728D01*
X169775148Y-66889489D01*
X169791586Y-66853122D01*
X169801894Y-66822582D01*
X169807460Y-66790450D01*
X169809669Y-66749307D01*
X169809948Y-66703222D01*
X169805861Y-66618865D01*
X169792446Y-66549586D01*
X169767256Y-66488961D01*
X169727846Y-66430567D01*
X169689298Y-66386302D01*
X169617406Y-66320484D01*
X169542313Y-66275053D01*
X169459562Y-66247850D01*
X169381928Y-66237576D01*
X169278043Y-66241571D01*
X169278043Y-66241571D01*
G37*
X169278043Y-66241571D02*
X169181768Y-66265809D01*
X169095184Y-66308641D01*
X169020373Y-66368419D01*
X168959418Y-66443494D01*
X168914399Y-66532220D01*
X168888136Y-66628530D01*
X168882286Y-66725795D01*
X168897140Y-66819654D01*
X168930840Y-66907511D01*
X168981528Y-66986770D01*
X169047345Y-67054836D01*
X169126434Y-67109112D01*
X169216934Y-67147002D01*
X169268200Y-67159426D01*
X169312698Y-67166947D01*
X169346999Y-67169919D01*
X169379960Y-67168094D01*
X169420434Y-67161225D01*
X169453531Y-67154250D01*
X169546947Y-67122741D01*
X169630619Y-67071617D01*
X169702665Y-67002429D01*
X169761200Y-66916728D01*
X169775148Y-66889489D01*
X169791586Y-66853122D01*
X169801894Y-66822582D01*
X169807460Y-66790450D01*
X169809669Y-66749307D01*
X169809948Y-66703222D01*
X169805861Y-66618865D01*
X169792446Y-66549586D01*
X169767256Y-66488961D01*
X169727846Y-66430567D01*
X169689298Y-66386302D01*
X169617406Y-66320484D01*
X169542313Y-66275053D01*
X169459562Y-66247850D01*
X169381928Y-66237576D01*
X169278043Y-66241571D01*
D15*
X149860000Y-104140000D03*
D16*
X149860000Y-101600000D03*
D17*
X147320000Y-99060000D03*
X144780000Y-99060000D03*
X149860000Y-99060000D03*
D18*
X182300000Y-115285000D03*
X124475000Y-115285000D03*
X181730000Y-75285000D03*
X125047600Y-75285000D03*
D19*
X171450000Y-82630000D03*
X171450000Y-85130000D03*
X171450000Y-87630000D03*
D20*
X178450000Y-80730000D03*
X178450000Y-89530000D03*
D17*
X144780000Y-109220000D03*
X144780000Y-106680000D03*
X144780000Y-111760000D03*
D21*
X134620000Y-86360000D03*
D15*
X134620000Y-88860000D03*
D21*
X139700000Y-86360000D03*
D15*
X139700000Y-88900000D03*
D21*
X137160000Y-71120000D03*
D15*
X139660000Y-71120000D03*
D21*
X149860000Y-66040000D03*
D15*
X149860000Y-68580000D03*
D21*
X139700000Y-63500000D03*
D16*
X147320000Y-63500000D03*
D22*
X175260000Y-63500000D03*
D23*
X175260000Y-60960000D03*
D15*
X152400000Y-116840000D03*
D16*
X142240000Y-116840000D03*
D15*
X154940000Y-116840000D03*
D16*
X165100000Y-116840000D03*
D15*
X152400000Y-114300000D03*
D16*
X142240000Y-114300000D03*
D15*
X154940000Y-114300000D03*
D16*
X165100000Y-114300000D03*
D15*
X165100000Y-86360000D03*
D16*
X165100000Y-96520000D03*
D15*
X172720000Y-96520000D03*
D16*
X172720000Y-106680000D03*
D22*
X175260000Y-76200000D03*
D23*
X175260000Y-73660000D03*
D24*
X157480000Y-66040000D03*
D25*
X160020000Y-63500000D03*
D26*
X154940000Y-63500000D03*
D27*
X165100000Y-81280000D03*
X165100000Y-83820000D03*
D28*
X165100000Y-78740000D03*
D15*
X134620000Y-106680000D03*
X129620000Y-106680000D03*
X162560000Y-76200000D03*
X167560000Y-76200000D03*
X165100000Y-99060000D03*
X170100000Y-99060000D03*
X175260000Y-106680000D03*
X180260000Y-106680000D03*
X137160000Y-78740000D03*
X142160000Y-78740000D03*
D29*
X153400000Y-53300000D03*
D21*
X142240000Y-96520000D03*
D16*
X134620000Y-104140000D03*
X139700000Y-96520000D03*
X137160000Y-104140000D03*
X137160000Y-96520000D03*
X139700000Y-104140000D03*
X134620000Y-96520000D03*
X142240000Y-104140000D03*
D21*
X170180000Y-109220000D03*
D16*
X162560000Y-101600000D03*
X170180000Y-106680000D03*
X162560000Y-104140000D03*
X170180000Y-104140000D03*
X162560000Y-106680000D03*
X170180000Y-101600000D03*
X162560000Y-109220000D03*
D30*
X139700000Y-111760000D03*
X144780000Y-114300000D03*
X157480000Y-99060000D03*
X157480000Y-104140000D03*
X172720000Y-101600000D03*
X142240000Y-68580000D03*
X137160000Y-68580000D03*
X149860000Y-71120000D03*
X149860000Y-63500000D03*
X177800000Y-106680000D03*
D15*
X132080000Y-101600000D03*
X132080000Y-96600000D03*
X162560000Y-111760000D03*
X167640000Y-111760000D03*
D31*
X133000000Y-119200000D03*
X174000000Y-119200000D03*
D32*
X130660000Y-49500000D03*
X143860000Y-49500000D03*
D33*
X132560000Y-59000000D03*
D34*
X137260000Y-59000000D03*
X141960000Y-59000000D03*
D15*
X129540000Y-109220000D03*
D16*
X132080000Y-109220000D03*
D15*
X137160000Y-109220000D03*
D16*
X139700000Y-109220000D03*
D15*
X137160000Y-106680000D03*
D16*
X139700000Y-106680000D03*
D15*
X144780000Y-104140000D03*
D16*
X147320000Y-104140000D03*
D15*
X149860000Y-109220000D03*
D16*
X147320000Y-109220000D03*
D15*
X157480000Y-111760000D03*
D16*
X157480000Y-101600000D03*
D15*
X154940000Y-111760000D03*
D16*
X154940000Y-101600000D03*
D15*
X152400000Y-99060000D03*
D16*
X162560000Y-99060000D03*
D35*
X129540000Y-88900000D03*
D19*
X127000000Y-88900000D03*
D35*
X129540000Y-81280000D03*
D19*
X127000000Y-81280000D03*
D15*
X132080000Y-93980000D03*
D16*
X129540000Y-93980000D03*
D15*
X137160000Y-91440000D03*
D16*
X137160000Y-93980000D03*
D15*
X177800000Y-104140000D03*
D16*
X175260000Y-104140000D03*
D15*
X137160000Y-81280000D03*
D16*
X134620000Y-81280000D03*
D15*
X160020000Y-111760000D03*
D16*
X160020000Y-101600000D03*
D36*
X147650000Y-93810000D03*
X159150000Y-93810000D03*
D15*
X154940000Y-73660000D03*
D16*
X144780000Y-73660000D03*
D33*
X167640000Y-58420000D03*
X167640000Y-52420000D03*
X162940000Y-55420000D03*
D21*
X177800000Y-111760000D03*
D16*
X172720000Y-111760000D03*
D15*
X172720000Y-109220000D03*
D16*
X182880000Y-109220000D03*
D22*
X162560000Y-119380000D03*
D23*
X160020000Y-119380000D03*
X157480000Y-119380000D03*
X154940000Y-119380000D03*
X152400000Y-119380000D03*
X149860000Y-119380000D03*
X147320000Y-119380000D03*
X144780000Y-119380000D03*
D37*
X149860000Y-122555000D03*
D38*
X152400000Y-122555000D03*
D37*
X154940000Y-122555000D03*
D38*
X157480000Y-122555000D03*
D39*
X178054000Y-62230000D03*
M02*
