M48
INCH,TZ
T1C0.016
T2C0.024
T3C0.031
T4C0.035
T5C0.039
T6C0.043
T7C0.073
T8C0.079
T9C0.165
%
G90
G05
T1
X64000Y-47000
T3
X51000Y-37000
X51000Y-43000
X51031Y-42000
X52000Y-37000
X52000Y-38031
X52000Y-40000
X52000Y-43000
X53000Y-32000
X53000Y-34000
X53000Y-34984
X53000Y-38000
X53000Y-41000
X53000Y-42000
X54000Y-28000
X54000Y-31000
X54000Y-32000
X54000Y-36000
X54000Y-37000
X54000Y-38000
X54000Y-41000
X54000Y-42000
X54000Y-43000
X54984Y-28000
X55000Y-25000
X55000Y-34000
X55000Y-35000
X55000Y-38000
X55000Y-41000
X55000Y-42000
X55000Y-43000
X55969Y-31000
X56000Y-38000
X56000Y-41000
X56000Y-45000
X56000Y-46000
X57000Y-29000
X57000Y-39000
X57000Y-41000
X57000Y-42000
X57000Y-43000
X57000Y-44000
X58000Y-25000
X58000Y-39000
X58000Y-41000
X58000Y-43000
X59000Y-26000
X59000Y-27000
X59000Y-39000
X59000Y-40000
X59000Y-41000
X59000Y-43000
X60000Y-39000
X60000Y-45000
X60000Y-46000
X61000Y-25000
X61000Y-29000
X61000Y-40000
X61000Y-44000
X61000Y-45000
X61000Y-46000
X62000Y-26000
X62000Y-40000
X62000Y-44000
X63000Y-25000
X63000Y-40000
X63000Y-44000
X64000Y-30000
X64000Y-39000
X64000Y-40000
X64000Y-41000
X64000Y-42000
X64000Y-43000
X64000Y-44000
X65000Y-31000
X65000Y-32000
X65000Y-33000
X65000Y-34000
X65000Y-38000
X65000Y-39000
X65000Y-45000
X65000Y-46000
X65969Y-30000
X66000Y-44000
X66969Y-39000
X67000Y-40000
X67000Y-41000
X67000Y-42000
X67000Y-43000
X68000Y-38000
X68000Y-42000
X68000Y-43000
X68000Y-44000
X69000Y-41000
X69000Y-42000
X70000Y-41000
X70000Y-44000
X70969Y-42000
X72000Y-43000
T4
X50000Y-32000
X50000Y-35000
X51000Y-32000
X51000Y-35000
T5
X57000Y-47000
X58000Y-47000
X59000Y-47000
X60000Y-47000
X61000Y-47000
X62000Y-47000
X63000Y-47000
X64000Y-47000
X67500Y-32531
X67500Y-33516
X67500Y-34500
X69000Y-24000
X69000Y-25000
X69000Y-29000
X69000Y-30000
T6
X59000Y-48250
X60000Y-48250
X61000Y-48250
X62000Y-48250
T7
X52189Y-23228
X54039Y-23228
X55890Y-23228
T8
X70256Y-31783
X70256Y-35248
T9
X52362Y-46929
X68504Y-46929
T2
X51441Y-19734G85X51441Y-19242
G05
X56638Y-19734G85X56638Y-19242
G05
T3
X57598Y-36933G85X58661Y-36933
G05
X62126Y-36933G85X63189Y-36933
G05
T5
X64150Y-21425G85X64150Y-22213
G05
X66394Y-20638G85X65606Y-20638
G05
X66394Y-23000G85X65606Y-23000
G05
T0
M30
